<?xml version="1.0" encoding="UTF-8" standalone="no"?>
<svg
   xmlns:dc="http://purl.org/dc/elements/1.1/"
   xmlns:cc="http://creativecommons.org/ns#"
   xmlns:rdf="http://www.w3.org/1999/02/22-rdf-syntax-ns#"
   xmlns:svg="http://www.w3.org/2000/svg"
   xmlns="http://www.w3.org/2000/svg"
   xmlns:sodipodi="http://sodipodi.sourceforge.net/DTD/sodipodi-0.dtd"
   xmlns:inkscape="http://www.inkscape.org/namespaces/inkscape"
   sodipodi:docname="gear-stick-3.svg"
   inkscape:version="0.91 r13725"
   id="svg2"
   preserveAspectRatio="xMidYMid meet"
   viewBox="0 0 1220 1220"
   height="1220pt"
   width="1220pt"
   version="1.0">
  <sodipodi:namedview
     inkscape:current-layer="svg2"
     inkscape:window-maximized="0"
     inkscape:window-y="0"
     inkscape:window-x="0"
     inkscape:cy="745"
     inkscape:cx="1002.5424"
     inkscape:zoom="0.31677852"
     showgrid="false"
     id="namedview30"
     inkscape:window-height="952"
     inkscape:window-width="1905"
     inkscape:pageshadow="2"
     inkscape:pageopacity="0"
     guidetolerance="10"
     gridtolerance="10"
     objecttolerance="10"
     borderopacity="1"
     bordercolor="#666666"
     pagecolor="#ffffff" />
  <metadata
     id="metadata34">
    <rdf:RDF>
      <cc:Work
         rdf:about="">
        <dc:format>image/svg+xml</dc:format>
        <dc:type
           rdf:resource="http://purl.org/dc/dcmitype/StillImage" />
        <dc:title></dc:title>
      </cc:Work>
    </rdf:RDF>
  </metadata>
  <defs
     id="defs32" />
  <ellipse
     ry="594.7373"
     rx="602.3136"
     cy="610.11017"
     cx="612.41528"
     id="path3404"
     style="fill:#000000" />
  <path
     d="m 241.32711,274.54746 c -0.4,0.3 -0.7,24.9 -0.7,54.5 l 0,53.8 11.5,0 11.5,0 0,-22.5 0,-22.5 6,0 c 11.6,0 13.4,1.6 30.7,27.6 l 11.6,17.4 13.4,0 13.5,0 -2.3,-3.8 c -7.5,-12.2 -18.5,-29.2 -21.2,-32.5 -1.7,-2.2 -5.2,-5.6 -7.9,-7.7 l -4.8,-3.9 5.3,-1.5 c 14.7,-4.3 22.5,-15.5 21.5,-31 -0.8,-11.4 -6.6,-20.6 -15.7,-24.4 -2.7,-1.2 -8.8,-2.6 -13.7,-3.2 -9.8,-1.1 -57.7,-1.4 -58.7,-0.3 z m 59,20.6 c 5.8,3.1 7.8,10.1 4.9,17.2 -2.5,5.8 -5.8,6.8 -24.8,7.3 l -16.8,0.4 0,-13.7 0,-13.7 16.8,0.4 c 13.4,0.3 17.3,0.7 19.9,2.1 z"
     id="path8"
     inkscape:connector-curvature="0"
     style="fill:#ffffff;stroke:none" />
  <path
     d="m 596.42711,275.34746 c -12.9,3.5 -21.6,13.4 -23.4,26.8 l -0.6,4.4 7.7,0.6 c 13.5,1.2 13.3,1.2 14.1,-3.1 1.5,-8.1 6.1,-12.2 13.9,-12.2 8.4,0 13.5,5.2 13.5,13.7 -0.1,7.4 -3.3,11.9 -21.9,30.8 -9.8,9.9 -19.5,20.6 -21.5,23.8 -4.2,6.5 -7.6,15.5 -7.6,19.9 l 0,2.8 36,0 36,0 0,-10 0,-10 -20.2,-0.2 -20.3,-0.3 14.5,-14.5 c 21.5,-21.4 25.9,-28.9 26,-43.6 0,-9.8 -2.8,-16.3 -9.7,-22.4 -8.2,-7.2 -23.9,-10 -36.5,-6.5 z"
     id="path10"
     inkscape:connector-curvature="0"
     style="fill:#ffffff;stroke:none" />
  <path
     d="m 932.22711,308.54746 -23.7,34.7 0.3,8.6 0.3,8.5 22.3,0.3 22.2,0.2 0,11 0,11 10,0 10,0 0,-11 0,-11 7,0 7.1,0 -0.3,-9.3 -0.3,-9.2 -6.7,-0.3 -6.8,-0.3 0,-33.9 0,-34 -8.8,0 -8.9,0 -23.7,34.7 z m 21.4,15.8 0,17.5 -12,0 -12,0 11.7,-17.5 c 6.4,-9.6 11.8,-17.5 12,-17.5 0.1,0 0.3,7.9 0.3,17.5 z"
     id="path12"
     inkscape:connector-curvature="0"
     style="fill:#ffffff;stroke:none" />
  <path
     d="m 272.62711,584.34746 0,192.5 11,0 11,0 0,-96 0,-96 125.5,0 125.5,0 0,-10.5 0,-10.5 -125.5,0 -125.5,0 -0.2,-85.8 -0.3,-85.7 -10.7,-0.3 -10.8,-0.3 0,192.6 z"
     id="path14"
     inkscape:connector-curvature="0"
     style="fill:#ffffff;stroke:none" />
  <path
     d="m 949.32711,392.54746 c -0.4,0.3 -0.7,39 -0.7,86 l 0,85.3 -131.5,0 -131.5,0 0,10.5 0,10.5 131.5,0 131.5,0 0,96 0,96 11,0 11,0 0,-192.5 0,-192.5 -10.3,0 c -5.7,0 -10.7,0.3 -11,0.7 z"
     id="path16"
     inkscape:connector-curvature="0"
     style="fill:#ffffff;stroke:none" />
  <path
     d="m 606.82711,449.54746 0.3,55.8 10.8,0.3 10.7,0.3 0,-56.1 0,-56 -11,0 -11,0 0.2,55.7 z"
     id="path18"
     inkscape:connector-curvature="0"
     style="fill:#ffffff;stroke:none" />
  <path
     d="m 574.62711,584.84746 0,52 9.5,0 9.6,0 -0.3,-38.8 -0.3,-38.9 3,5.1 c 1.7,2.8 11.8,20.3 22.5,38.8 l 19.4,33.8 12.8,0 12.8,0 0,-52 0,-52 -9.5,0 -9.6,0 0.3,39.4 c 0.2,21.7 0,38.9 -0.4,38.3 -0.4,-0.7 -10.5,-18.3 -22.6,-39.2 l -22,-38 -12.6,-0.3 -12.6,-0.3 0,52.1 z"
     id="path20"
     inkscape:connector-curvature="0"
     style="fill:#ffffff;stroke:none" />
  <path
     d="m 608.62711,716.84746 0,60 11,0 11,0 0,-60 0,-60 -11,0 -11,0 0,60 z"
     id="path22"
     inkscape:connector-curvature="0"
     style="fill:#ffffff;stroke:none" />
  <path
     d="m 274.82711,798.24746 c -4.1,7.7 -12.8,15.4 -24,21 l -5.3,2.7 0.3,9.2 c 0.3,8.6 0.4,9.2 2.3,8.9 3.8,-0.7 14.4,-6.2 19.4,-10.2 l 5.1,-4 0,38.5 0,38.5 11,0 11,0 0,-54.5 0,-54.5 -8.8,0 -8.7,0 -2.3,4.4 z"
     id="path24"
     inkscape:connector-curvature="0"
     style="fill:#ffffff;stroke:none" />
  <path
     d="m 600.62711,795.34746 c -8.9,2.5 -14.7,7.1 -18.5,14.5 -2.3,4.5 -4.7,12.1 -4.1,12.7 0.4,0.4 16.5,3.3 18.4,3.3 0.6,0 1.2,-0.5 1.2,-1.2 0,-0.6 0.9,-3 2,-5.3 3.3,-6.8 10.5,-9.4 17,-6 4.3,2.2 5.4,5 5.1,12.8 -0.2,4.6 -5.7,9.5 -11.8,10.3 l -5.1,0.6 -0.6,6.2 c -0.4,3.3 -1,7.1 -1.3,8.4 -0.5,2.2 -0.4,2.2 6.3,1.7 5.9,-0.5 7.4,-0.3 10.2,1.5 5.9,3.7 8.5,12.7 6.2,21.2 -1.1,4 -6.6,9.4 -10.5,10.4 -6.9,1.7 -14.7,-2.9 -16.7,-9.9 -0.6,-2.3 -1.4,-4.5 -1.7,-4.8 -0.3,-0.3 -4.9,-0.1 -10.1,0.5 l -9.5,1.2 0.2,4.1 c 0.4,8.8 8.5,19.3 18.6,23.9 5.5,2.6 7.3,2.9 16.2,2.9 8.7,0 10.7,-0.3 15.5,-2.6 7.8,-3.7 13.1,-8.8 17,-16.1 3.1,-5.7 3.4,-7.1 3.5,-14.8 0,-6.5 -0.5,-9.4 -2,-12.5 -2.5,-5.1 -8.7,-11.1 -13,-12.5 l -3.3,-1.1 5.8,-5.7 c 6.3,-6.1 8,-10.1 8,-18.3 0,-9.1 -7.8,-19.7 -17.8,-24.1 -6,-2.7 -18,-3.3 -25.2,-1.3 z"
     id="path26"
     inkscape:connector-curvature="0"
     style="fill:#ffffff;stroke:none" />
  <path
     d="m 930.12711,797.04746 c -0.2,0.7 -2.4,12.5 -5,26.3 -2.5,13.7 -4.9,26 -5.1,27.1 -0.5,2 0,2.3 7.8,3.4 l 8.3,1.2 5.4,-3.6 c 4.5,-3.1 6.1,-3.6 11,-3.6 11,0 15.6,5.8 15.5,19.5 0,8.6 -1.3,12.2 -5.6,16.3 -7.5,7 -19.7,3 -22.8,-7.4 l -1.2,-3.9 -10.4,0.9 c -11.9,1 -11.8,1 -8.7,10.1 1.2,3.4 3.7,6.9 7.8,11.1 7.8,7.9 13.2,9.9 26.5,9.9 8.2,0 10.3,-0.4 15.2,-2.7 17.7,-8.2 26.2,-30.2 19.2,-50.1 -2.3,-6.7 -10.9,-15.8 -17.6,-18.7 -6.9,-2.9 -15,-3.6 -21.3,-1.6 -2.7,0.8 -5,1.4 -5.1,1.3 -0.1,-0.1 0.5,-3.9 1.3,-8.5 l 1.5,-8.2 19.4,0 19.4,0 0,-10 0,-10 -27.5,0 c -21.2,0 -27.7,0.3 -28,1.2 z"
     id="path28"
     inkscape:connector-curvature="0"
     style="fill:#ffffff;stroke:none" />
</svg>
