<?xml version="1.0" encoding="UTF-8" standalone="no"?>
<svg
   xmlns:dc="http://purl.org/dc/elements/1.1/"
   xmlns:cc="http://creativecommons.org/ns#"
   xmlns:rdf="http://www.w3.org/1999/02/22-rdf-syntax-ns#"
   xmlns:svg="http://www.w3.org/2000/svg"
   xmlns="http://www.w3.org/2000/svg"
   xmlns:sodipodi="http://sodipodi.sourceforge.net/DTD/sodipodi-0.dtd"
   xmlns:inkscape="http://www.inkscape.org/namespaces/inkscape"
   viewBox="0 0 111.3622 128.18898"
   height="128.18898"
   width="111.3622"
   xml:space="preserve"
   version="1.1"
   id="svg2"
   inkscape:version="0.91 r13725"
   sodipodi:docname="gear-box-man.svg"><sodipodi:namedview
     pagecolor="#ffffff"
     bordercolor="#666666"
     borderopacity="1"
     objecttolerance="10"
     gridtolerance="10"
     guidetolerance="10"
     inkscape:pageopacity="0"
     inkscape:pageshadow="2"
     inkscape:window-width="1913"
     inkscape:window-height="976"
     id="namedview11591"
     showgrid="false"
     units="px"
     inkscape:zoom="2.9947398"
     inkscape:cx="-39.491811"
     inkscape:cy="46.800767"
     inkscape:window-x="1680"
     inkscape:window-y="0"
     inkscape:window-maximized="0"
     inkscape:current-layer="svg2" /><metadata
     id="metadata8"><rdf:RDF><cc:Work
         rdf:about=""><dc:format>image/svg+xml</dc:format><dc:type
           rdf:resource="http://purl.org/dc/dcmitype/StillImage" /><dc:title /></cc:Work></rdf:RDF></metadata><defs
     id="defs6"><clipPath
       id="clipPath1554"
       clipPathUnits="userSpaceOnUse"><path
         style="clip-rule:evenodd"
         id="path1556"
         d="m 516.531,3532.05 c 240.246,0 435.071,-239.18 435.071,-534.12 0,-294.93 -194.825,-428.67 -435.071,-428.67 -240.242,0 -435.0662,133.74 -435.0662,428.67 0,294.94 194.8242,534.12 435.0662,534.12"
         inkscape:connector-curvature="0" /></clipPath><linearGradient
       id="linearGradient1558"
       spreadMethod="pad"
       gradientTransform="matrix(0,962.793,910.137,0,61.465,2569.26)"
       gradientUnits="userSpaceOnUse"
       y2="0"
       x2="1"
       y1="0"
       x1="0"><stop
         id="stop1560"
         offset="0"
         style="stop-opacity:1;stop-color:#7e8384" /><stop
         id="stop1562"
         offset="1"
         style="stop-opacity:1;stop-color:#c6c6c5" /></linearGradient><clipPath
       id="clipPath1570"
       clipPathUnits="userSpaceOnUse"><path
         style="clip-rule:evenodd"
         id="path1572"
         d="m 516.531,3528.82 c 238.785,0 432.422,-237.81 432.422,-531.07 0,-293.24 -193.637,-426.22 -432.422,-426.22 -238.781,0 -432.4216,132.98 -432.4216,426.22 0,293.26 193.6406,531.07 432.4216,531.07"
         inkscape:connector-curvature="0" /></clipPath><linearGradient
       id="linearGradient1574"
       spreadMethod="pad"
       gradientTransform="matrix(0,957.29,904.844,0,64.1109,2571.53)"
       gradientUnits="userSpaceOnUse"
       y2="0"
       x2="1"
       y1="0"
       x1="0"><stop
         id="stop1576"
         offset="0"
         style="stop-opacity:1;stop-color:#787c7e" /><stop
         id="stop1578"
         offset="1"
         style="stop-opacity:1;stop-color:#bbb9b8" /></linearGradient><clipPath
       id="clipPath1586"
       clipPathUnits="userSpaceOnUse"><path
         style="clip-rule:evenodd"
         id="path1588"
         d="m 516.531,3525.59 c 237.321,0 429.778,-236.45 429.778,-528.02 0,-291.56 -192.457,-423.77 -429.778,-423.77 -237.316,0 -429.7732,132.21 -429.7732,423.77 0,291.57 192.4572,528.02 429.7732,528.02"
         inkscape:connector-curvature="0" /></clipPath><linearGradient
       id="linearGradient1590"
       spreadMethod="pad"
       gradientTransform="matrix(0,951.787,899.551,0,66.758,2573.8)"
       gradientUnits="userSpaceOnUse"
       y2="0"
       x2="1"
       y1="0"
       x1="0"><stop
         id="stop1592"
         offset="0"
         style="stop-opacity:1;stop-color:#737677" /><stop
         id="stop1594"
         offset="1"
         style="stop-opacity:1;stop-color:#afadac" /></linearGradient><clipPath
       id="clipPath1602"
       clipPathUnits="userSpaceOnUse"><path
         style="clip-rule:evenodd"
         id="path1604"
         d="m 516.531,3522.35 c 235.864,0 427.125,-235.08 427.125,-524.96 0,-289.87 -191.261,-421.32 -427.125,-421.32 -235.855,0 -427.1208,131.45 -427.1208,421.32 0,289.88 191.2658,524.96 427.1208,524.96"
         inkscape:connector-curvature="0" /></clipPath><linearGradient
       id="linearGradient1606"
       spreadMethod="pad"
       gradientTransform="matrix(0,946.284,894.248,0,69.409,2576.07)"
       gradientUnits="userSpaceOnUse"
       y2="0"
       x2="1"
       y1="0"
       x1="0"><stop
         id="stop1608"
         offset="0"
         style="stop-opacity:1;stop-color:#6d7071" /><stop
         id="stop1610"
         offset="1"
         style="stop-opacity:1;stop-color:#a4a1a0" /></linearGradient><clipPath
       id="clipPath1618"
       clipPathUnits="userSpaceOnUse"><path
         style="clip-rule:evenodd"
         id="path1620"
         d="m 516.531,3519.12 c 234.399,0 424.481,-233.71 424.481,-521.91 0,-288.19 -190.082,-418.87 -424.481,-418.87 -234.39,0 -424.4763,130.68 -424.4763,418.87 0,288.2 190.0863,521.91 424.4763,521.91"
         inkscape:connector-curvature="0" /></clipPath><linearGradient
       id="linearGradient1622"
       spreadMethod="pad"
       gradientTransform="matrix(0,940.781,888.955,0,72.056,2578.34)"
       gradientUnits="userSpaceOnUse"
       y2="0"
       x2="1"
       y1="0"
       x1="0"><stop
         id="stop1624"
         offset="0"
         style="stop-opacity:1;stop-color:#686a6b" /><stop
         id="stop1626"
         offset="1"
         style="stop-opacity:1;stop-color:#999695" /></linearGradient><clipPath
       id="clipPath1634"
       clipPathUnits="userSpaceOnUse"><path
         style="clip-rule:evenodd"
         id="path1636"
         d="m 516.531,3515.89 c 232.938,0 421.832,-232.34 421.832,-518.85 0,-286.51 -188.894,-416.43 -421.832,-416.43 -232.933,0 -421.8279,129.92 -421.8279,416.43 0,286.51 188.8949,518.85 421.8279,518.85"
         inkscape:connector-curvature="0" /></clipPath><linearGradient
       id="linearGradient1638"
       spreadMethod="pad"
       gradientTransform="matrix(0,935.278,883.662,0,74.702,2580.61)"
       gradientUnits="userSpaceOnUse"
       y2="0"
       x2="1"
       y1="0"
       x1="0"><stop
         id="stop1640"
         offset="0"
         style="stop-opacity:1;stop-color:#626466" /><stop
         id="stop1642"
         offset="1"
         style="stop-opacity:1;stop-color:#8e8b8a" /></linearGradient><clipPath
       id="clipPath1650"
       clipPathUnits="userSpaceOnUse"><path
         style="clip-rule:evenodd"
         id="path1652"
         d="m 516.531,3512.66 c 231.473,0 419.188,-230.98 419.188,-515.8 0,-284.82 -187.715,-413.98 -419.188,-413.98 -231.468,0 -419.1833,129.16 -419.1833,413.98 0,284.82 187.7153,515.8 419.1833,515.8"
         inkscape:connector-curvature="0" /></clipPath><linearGradient
       id="linearGradient1654"
       spreadMethod="pad"
       gradientTransform="matrix(0,929.78,878.369,0,77.3489,2582.88)"
       gradientUnits="userSpaceOnUse"
       y2="0"
       x2="1"
       y1="0"
       x1="0"><stop
         id="stop1656"
         offset="0"
         style="stop-opacity:1;stop-color:#5d5f60" /><stop
         id="stop1658"
         offset="1"
         style="stop-opacity:1;stop-color:#858181" /></linearGradient><clipPath
       id="clipPath1666"
       clipPathUnits="userSpaceOnUse"><path
         style="clip-rule:evenodd"
         id="path1668"
         d="m 516.531,3509.43 c 230.012,0 416.539,-229.61 416.539,-512.75 0,-283.13 -186.527,-411.53 -416.539,-411.53 -230.008,0 -416.5349,128.4 -416.5349,411.53 0,283.14 186.5269,512.75 416.5349,512.75"
         inkscape:connector-curvature="0" /></clipPath><linearGradient
       id="linearGradient1670"
       spreadMethod="pad"
       gradientTransform="matrix(0,924.277,873.076,0,79.995,2585.15)"
       gradientUnits="userSpaceOnUse"
       y2="0"
       x2="1"
       y1="0"
       x1="0"><stop
         id="stop1672"
         offset="0"
         style="stop-opacity:1;stop-color:#58595a" /><stop
         id="stop1674"
         offset="1"
         style="stop-opacity:1;stop-color:#7b7877" /></linearGradient><clipPath
       id="clipPath1682"
       clipPathUnits="userSpaceOnUse"><path
         style="clip-rule:evenodd"
         id="path1684"
         d="m 516.531,3506.2 c 228.551,0 413.891,-228.25 413.891,-509.7 0,-281.45 -185.34,-409.08 -413.891,-409.08 -228.547,0 -413.883,127.63 -413.883,409.08 0,281.45 185.336,509.7 413.883,509.7"
         inkscape:connector-curvature="0" /></clipPath><linearGradient
       id="linearGradient1686"
       spreadMethod="pad"
       gradientTransform="matrix(0,918.774,867.773,0,82.6469,2587.42)"
       gradientUnits="userSpaceOnUse"
       y2="0"
       x2="1"
       y1="0"
       x1="0"><stop
         id="stop1688"
         offset="0"
         style="stop-opacity:1;stop-color:#535455" /><stop
         id="stop1690"
         offset="1"
         style="stop-opacity:1;stop-color:#726e6e" /></linearGradient><clipPath
       id="clipPath1698"
       clipPathUnits="userSpaceOnUse"><path
         style="clip-rule:evenodd"
         id="path1700"
         d="m 516.531,3502.96 c 227.086,0 411.242,-226.87 411.242,-506.64 0,-279.76 -184.156,-406.63 -411.242,-406.63 -227.082,0 -411.238,126.87 -411.238,406.63 0,279.77 184.156,506.64 411.238,506.64"
         inkscape:connector-curvature="0" /></clipPath><linearGradient
       id="linearGradient1702"
       spreadMethod="pad"
       gradientTransform="matrix(0,913.271,862.48,0,85.293,2589.69)"
       gradientUnits="userSpaceOnUse"
       y2="0"
       x2="1"
       y1="0"
       x1="0"><stop
         id="stop1704"
         offset="0"
         style="stop-opacity:1;stop-color:#4e4f50" /><stop
         id="stop1706"
         offset="1"
         style="stop-opacity:1;stop-color:#6a6565" /></linearGradient><clipPath
       id="clipPath1714"
       clipPathUnits="userSpaceOnUse"><path
         style="clip-rule:evenodd"
         id="path1716"
         d="m 516.531,3499.73 c 225.625,0 408.598,-225.51 408.598,-503.59 0,-278.07 -182.973,-404.18 -408.598,-404.18 -225.625,0 -408.593,126.11 -408.593,404.18 0,278.08 182.968,503.59 408.593,503.59"
         inkscape:connector-curvature="0" /></clipPath><linearGradient
       id="linearGradient1718"
       spreadMethod="pad"
       gradientTransform="matrix(0,907.769,857.188,0,87.939,2591.96)"
       gradientUnits="userSpaceOnUse"
       y2="0"
       x2="1"
       y1="0"
       x1="0"><stop
         id="stop1720"
         offset="0"
         style="stop-opacity:1;stop-color:#4a494b" /><stop
         id="stop1722"
         offset="1"
         style="stop-opacity:1;stop-color:#615d5d" /></linearGradient><clipPath
       id="clipPath1730"
       clipPathUnits="userSpaceOnUse"><path
         style="clip-rule:evenodd"
         id="path1732"
         d="m 516.531,3496.5 c 224.16,0 405.949,-224.14 405.949,-500.54 0,-276.39 -181.789,-401.72 -405.949,-401.72 -224.16,0 -405.945,125.33 -405.945,401.72 0,276.4 181.785,500.54 405.945,500.54"
         inkscape:connector-curvature="0" /></clipPath><linearGradient
       id="linearGradient1734"
       spreadMethod="pad"
       gradientTransform="matrix(0,902.261,851.895,0,90.5859,2594.24)"
       gradientUnits="userSpaceOnUse"
       y2="0"
       x2="1"
       y1="0"
       x1="0"><stop
         id="stop1736"
         offset="0"
         style="stop-opacity:1;stop-color:#454546" /><stop
         id="stop1738"
         offset="1"
         style="stop-opacity:1;stop-color:#595555" /></linearGradient><clipPath
       id="clipPath1746"
       clipPathUnits="userSpaceOnUse"><path
         style="clip-rule:evenodd"
         id="path1748"
         d="m 516.531,3493.27 c 222.703,0 403.305,-222.78 403.305,-497.49 0,-274.7 -180.602,-399.27 -403.305,-399.27 -222.699,0 -403.301,124.57 -403.301,399.27 0,274.71 180.602,497.49 403.301,497.49"
         inkscape:connector-curvature="0" /></clipPath><linearGradient
       id="linearGradient1750"
       spreadMethod="pad"
       gradientTransform="matrix(0,896.758,846.602,0,93.232,2596.51)"
       gradientUnits="userSpaceOnUse"
       y2="0"
       x2="1"
       y1="0"
       x1="0"><stop
         id="stop1752"
         offset="0"
         style="stop-opacity:1;stop-color:#404041" /><stop
         id="stop1754"
         offset="1"
         style="stop-opacity:1;stop-color:#524e4e" /></linearGradient><clipPath
       id="clipPath1762"
       clipPathUnits="userSpaceOnUse"><path
         style="clip-rule:evenodd"
         id="path1764"
         d="m 516.531,3490.04 c 221.239,0 400.657,-221.41 400.657,-494.44 0,-273.02 -179.418,-396.82 -400.657,-396.82 -221.234,0 -400.652,123.8 -400.652,396.82 0,273.03 179.418,494.44 400.652,494.44"
         inkscape:connector-curvature="0" /></clipPath><linearGradient
       id="linearGradient1766"
       spreadMethod="pad"
       gradientTransform="matrix(0,891.255,841.309,0,95.879,2598.78)"
       gradientUnits="userSpaceOnUse"
       y2="0"
       x2="1"
       y1="0"
       x1="0"><stop
         id="stop1768"
         offset="0"
         style="stop-opacity:1;stop-color:#3c3c3c" /><stop
         id="stop1770"
         offset="1"
         style="stop-opacity:1;stop-color:#4b4747" /></linearGradient><clipPath
       id="clipPath1778"
       clipPathUnits="userSpaceOnUse"><path
         style="clip-rule:evenodd"
         id="path1780"
         d="m 516.531,3486.8 c 219.778,0 398.004,-220.04 398.004,-491.37 0,-271.34 -178.226,-394.38 -398.004,-394.38 -219.773,0 -398,123.04 -398,394.38 0,271.33 178.227,491.37 398,491.37"
         inkscape:connector-curvature="0" /></clipPath><linearGradient
       id="linearGradient1782"
       spreadMethod="pad"
       gradientTransform="matrix(0,885.752,836.006,0,98.53,2601.05)"
       gradientUnits="userSpaceOnUse"
       y2="0"
       x2="1"
       y1="0"
       x1="0"><stop
         id="stop1784"
         offset="0"
         style="stop-opacity:1;stop-color:#383737" /><stop
         id="stop1786"
         offset="1"
         style="stop-opacity:1;stop-color:#444040" /></linearGradient><clipPath
       id="clipPath1794"
       clipPathUnits="userSpaceOnUse"><path
         style="clip-rule:evenodd"
         id="path1796"
         d="m 516.531,3483.57 c 218.317,0 395.36,-218.67 395.36,-488.33 0,-269.64 -177.043,-391.92 -395.36,-391.92 -218.312,0 -395.355,122.28 -395.355,391.92 0,269.66 177.043,488.33 395.355,488.33"
         inkscape:connector-curvature="0" /></clipPath><linearGradient
       id="linearGradient1798"
       spreadMethod="pad"
       gradientTransform="matrix(0,880.249,830.713,0,101.177,2603.32)"
       gradientUnits="userSpaceOnUse"
       y2="0"
       x2="1"
       y1="0"
       x1="0"><stop
         id="stop1800"
         offset="0"
         style="stop-opacity:1;stop-color:#343333" /><stop
         id="stop1802"
         offset="1"
         style="stop-opacity:1;stop-color:#3d3a3a" /></linearGradient><clipPath
       id="clipPath1810"
       clipPathUnits="userSpaceOnUse"><path
         style="clip-rule:evenodd"
         id="path1812"
         d="m 516.531,3480.34 c 216.852,0 392.711,-217.3 392.711,-485.28 0,-267.95 -175.859,-389.47 -392.711,-389.47 -216.847,0 -392.707,121.52 -392.707,389.47 0,267.98 175.86,485.28 392.707,485.28"
         inkscape:connector-curvature="0" /></clipPath><linearGradient
       id="linearGradient1814"
       spreadMethod="pad"
       gradientTransform="matrix(0,874.751,825.42,0,103.823,2605.59)"
       gradientUnits="userSpaceOnUse"
       y2="0"
       x2="1"
       y1="0"
       x1="0"><stop
         id="stop1816"
         offset="0"
         style="stop-opacity:1;stop-color:#2f2e2e" /><stop
         id="stop1818"
         offset="1"
         style="stop-opacity:1;stop-color:#373434" /></linearGradient><clipPath
       id="clipPath1826"
       clipPathUnits="userSpaceOnUse"><path
         style="clip-rule:evenodd"
         id="path1828"
         d="m 516.531,3477.11 c 215.395,0 390.067,-215.94 390.067,-482.22 0,-266.28 -174.672,-387.03 -390.067,-387.03 -215.386,0 -390.062,120.75 -390.062,387.03 0,266.28 174.676,482.22 390.062,482.22"
         inkscape:connector-curvature="0" /></clipPath><linearGradient
       id="linearGradient1830"
       spreadMethod="pad"
       gradientTransform="matrix(0,869.248,820.127,0,106.47,2607.86)"
       gradientUnits="userSpaceOnUse"
       y2="0"
       x2="1"
       y1="0"
       x1="0"><stop
         id="stop1832"
         offset="0"
         style="stop-opacity:1;stop-color:#2b2a2a" /><stop
         id="stop1834"
         offset="1"
         style="stop-opacity:1;stop-color:#312e2e" /></linearGradient><clipPath
       id="clipPath1842"
       clipPathUnits="userSpaceOnUse"><path
         style="clip-rule:evenodd"
         id="path1844"
         d="m 516.531,3473.88 c 213.93,0 387.418,-214.58 387.418,-479.17 0,-264.59 -173.488,-384.58 -387.418,-384.58 -213.926,0 -387.414,119.99 -387.414,384.58 0,264.59 173.488,479.17 387.414,479.17"
         inkscape:connector-curvature="0" /></clipPath><linearGradient
       id="linearGradient1846"
       spreadMethod="pad"
       gradientTransform="matrix(0,863.745,814.834,0,109.116,2610.13)"
       gradientUnits="userSpaceOnUse"
       y2="0"
       x2="1"
       y1="0"
       x1="0"><stop
         id="stop1848"
         offset="0"
         style="stop-opacity:1;stop-color:#272626" /><stop
         id="stop1850"
         offset="1"
         style="stop-opacity:1;stop-color:#2b2929" /></linearGradient><clipPath
       id="clipPath1858"
       clipPathUnits="userSpaceOnUse"><path
         style="clip-rule:evenodd"
         id="path1860"
         d="m 516.531,3470.64 c 212.469,0 384.77,-213.2 384.77,-476.11 0,-262.9 -172.301,-382.13 -384.77,-382.13 -212.465,0 -384.761,119.23 -384.761,382.13 0,262.91 172.296,476.11 384.761,476.11"
         inkscape:connector-curvature="0" /></clipPath><linearGradient
       id="linearGradient1862"
       spreadMethod="pad"
       gradientTransform="matrix(0,858.242,809.531,0,111.768,2612.4)"
       gradientUnits="userSpaceOnUse"
       y2="0"
       x2="1"
       y1="0"
       x1="0"><stop
         id="stop1864"
         offset="0"
         style="stop-opacity:1;stop-color:#242222" /><stop
         id="stop1866"
         offset="1"
         style="stop-opacity:1;stop-color:#262424" /></linearGradient><clipPath
       id="clipPath1874"
       clipPathUnits="userSpaceOnUse"><path
         style="clip-rule:evenodd"
         id="path1876"
         d="m 516.531,3467.41 c 211.004,0 382.121,-211.84 382.121,-473.06 0,-261.22 -171.117,-379.68 -382.121,-379.68 -211,0 -382.117,118.46 -382.117,379.68 0,261.22 171.117,473.06 382.117,473.06"
         inkscape:connector-curvature="0" /></clipPath><linearGradient
       id="linearGradient1878"
       spreadMethod="pad"
       gradientTransform="matrix(0,852.739,804.238,0,114.414,2614.67)"
       gradientUnits="userSpaceOnUse"
       y2="0"
       x2="1"
       y1="0"
       x1="0"><stop
         id="stop1880"
         offset="0"
         style="stop-opacity:1;stop-color:#201e1e" /><stop
         id="stop1882"
         offset="1"
         style="stop-opacity:1;stop-color:#211f1e" /></linearGradient></defs><path
     id="path1464"
     style="fill:#ffffff;fill-opacity:1;fill-rule:evenodd;stroke:none"
     d="m 55.792236,119.87533 c -21.49075,0 -38.825625,-0.1325 -38.825625,2.6963 0,2.8312 17.427625,3.9937 38.917875,3.9937 21.49075,0 38.918995,-1.1625 38.918995,-3.9937 0,-2.8288 -17.520995,-2.6963 -39.011245,-2.6963"
     inkscape:connector-curvature="0" /><path
     id="path1466"
     style="fill:#fcfdfd;fill-opacity:1;fill-rule:evenodd;stroke:none"
     d="m 55.966986,126.50033 c 21.225625,0 38.442375,-1.1475 38.442375,-3.8925 0,-2.745 -17.304625,-2.6587 -38.53075,-2.6587 -21.2255,0 -38.354,-0.086 -38.354,2.6587 0,2.745 17.216875,3.8925 38.442375,3.8925"
     inkscape:connector-curvature="0" /><path
     id="path1468"
     style="fill:#fafafb;fill-opacity:1;fill-rule:evenodd;stroke:none"
     d="m 56.049611,126.43663 c 20.961375,0 37.96675,-1.1338 37.96675,-3.7938 0,-2.66 -17.089875,-2.6212 -38.05025,-2.6212 -20.9615,0 -37.883375,-0.039 -37.883375,2.6212 0,2.66 17.006375,3.7938 37.966875,3.7938"
     inkscape:connector-curvature="0" /><path
     id="path1470"
     style="fill:#f7f8f9;fill-opacity:1;fill-rule:evenodd;stroke:none"
     d="m 56.132111,126.37163 c 20.69625,0 37.49075,-1.1188 37.49075,-3.6938 0,-2.575 -16.874125,-2.5825 -37.570375,-2.5825 -20.69625,0 -37.411125,0.01 -37.411125,2.5825 0,2.575 16.794,3.6938 37.49075,3.6938"
     inkscape:connector-curvature="0" /><path
     id="path1472"
     style="fill:#f5f6f6;fill-opacity:1;fill-rule:evenodd;stroke:none"
     d="m 56.214611,126.30663 c 20.431125,0 37.01462,-1.1038 37.01462,-3.5938 0,-2.49 -16.658245,-2.545 -37.08987,-2.545 -20.431625,0 -36.939875,0.055 -36.939875,2.545 0,2.49 16.5835,3.5938 37.015125,3.5938"
     inkscape:connector-curvature="0" /><path
     id="path1474"
     style="fill:#f2f4f4;fill-opacity:1;fill-rule:evenodd;stroke:none"
     d="m 56.296611,126.24163 c 20.1675,0 36.53962,-1.0888 36.53962,-3.4938 0,-2.405 -16.44287,-2.5062 -36.61037,-2.5062 -20.1665,0 -36.46825,0.1012 -36.46825,2.5062 0,2.405 16.3725,3.4938 36.539,3.4938"
     inkscape:connector-curvature="0" /><path
     id="path1476"
     style="fill:#f0f2f2;fill-opacity:1;fill-rule:evenodd;stroke:none"
     d="m 56.379111,126.17663 c 19.902375,0 36.063,-1.0738 36.063,-3.3938 0,-2.32 -16.227,-2.4687 -36.128875,-2.4687 -19.902375,0 -35.997625,0.1487 -35.997625,2.4687 0,2.32 16.161625,3.3938 36.0635,3.3938"
     inkscape:connector-curvature="0" /><path
     id="path1478"
     style="fill:#edeff0;fill-opacity:1;fill-rule:evenodd;stroke:none"
     d="m 56.461611,126.11163 c 19.63725,0 35.587,-1.0575 35.587,-3.2938 0,-2.235 -16.01125,-2.4312 -35.649,-2.4312 -19.637125,0 -35.525375,0.1962 -35.525375,2.4312 0,2.2363 15.94975,3.2938 35.587375,3.2938"
     inkscape:connector-curvature="0" /><path
     id="path1480"
     style="fill:#ebedee;fill-opacity:1;fill-rule:evenodd;stroke:none"
     d="m 56.544236,126.04783 c 19.373,0 35.111245,-1.045 35.111245,-3.195 0,-2.15 -15.79587,-2.3925 -35.16887,-2.3925 -19.372625,0 -35.05425,0.2425 -35.05425,2.3925 0,2.15 15.73875,3.195 35.111875,3.195"
     inkscape:connector-curvature="0" /><path
     id="path1482"
     style="fill:#e8ebec;fill-opacity:1;fill-rule:evenodd;stroke:none"
     d="m 56.626236,125.98283 c 19.108375,0 34.63575,-1.0287 34.63575,-3.095 0,-2.065 -15.580625,-2.355 -34.688,-2.355 -19.108375,0 -34.583,0.29 -34.583,2.355 0,2.0663 15.52775,3.095 34.63525,3.095"
     inkscape:connector-curvature="0" /><path
     id="path1484"
     style="fill:#e6e9ea;fill-opacity:1;fill-rule:evenodd;stroke:none"
     d="m 56.708736,125.91783 c 18.84325,0 34.159625,-1.015 34.159625,-2.995 0,-1.98 -15.36475,-2.3175 -34.208,-2.3175 -18.84325,0 -34.11125,0.3375 -34.11125,2.3175 0,1.98 15.316875,2.995 34.159625,2.995"
     inkscape:connector-curvature="0" /><path
     id="path1486"
     style="fill:#e3e7e8;fill-opacity:1;fill-rule:evenodd;stroke:none"
     d="m 56.791736,125.85283 c 18.578625,0 33.683625,-1 33.683625,-2.895 0,-1.895 -15.149375,-2.2787 -33.728,-2.2787 -18.578625,0 -33.640125,0.3837 -33.640125,2.2787 0,1.895 15.105375,2.895 33.6845,2.895"
     inkscape:connector-curvature="0" /><path
     id="path1488"
     style="fill:#e1e5e6;fill-opacity:1;fill-rule:evenodd;stroke:none"
     d="m 56.874236,125.78913 c 18.3135,0 33.207,-0.9863 33.207,-2.7963 0,-1.81 -14.933,-2.2412 -33.2475,-2.2412 -18.3135,0 -33.1685,0.4312 -33.1685,2.2412 0,1.81 14.894625,2.7963 33.209,2.7963"
     inkscape:connector-curvature="0" /><path
     id="path1490"
     style="fill:#dee3e4;fill-opacity:1;fill-rule:evenodd;stroke:none"
     d="m 56.956236,125.72413 c 18.048875,0 32.7315,-0.9713 32.7315,-2.6963 0,-1.7262 -14.71775,-2.2025 -32.766625,-2.2025 -18.04925,0 -32.69725,0.4763 -32.69725,2.2025 0,1.725 14.683625,2.6963 32.732375,2.6963"
     inkscape:connector-curvature="0" /><path
     id="path1492"
     style="fill:#dce1e3;fill-opacity:1;fill-rule:evenodd;stroke:none"
     d="m 57.038861,125.65913 c 17.784625,0 32.255875,-0.9563 32.255875,-2.5963 0,-1.64 -14.5025,-2.165 -32.286625,-2.165 -17.78475,0 -32.226125,0.525 -32.226125,2.165 0,1.64 14.472625,2.5963 32.256875,2.5963"
     inkscape:connector-curvature="0" /><path
     id="path1494"
     style="fill:#d9dfe1;fill-opacity:1;fill-rule:evenodd;stroke:none"
     d="m 57.121361,125.59413 c 17.5195,0 31.77975,-0.9413 31.77975,-2.4975 0,-1.5538 -14.286625,-2.125 -31.806625,-2.125 -17.5195,0 -31.753875,0.5712 -31.753875,2.125 0,1.5562 14.26075,2.4975 31.78075,2.4975"
     inkscape:connector-curvature="0" /><path
     id="path1496"
     style="fill:#d7dcdf;fill-opacity:1;fill-rule:evenodd;stroke:none"
     d="m 57.203861,125.52913 c 17.254375,0 31.30375,-0.9263 31.30375,-2.3963 0,-1.47 -14.071375,-2.0887 -31.32575,-2.0887 -17.255375,0 -31.283125,0.6187 -31.283125,2.0887 0,1.47 14.04975,2.3963 31.305125,2.3963"
     inkscape:connector-curvature="0" /><path
     id="path1498"
     style="fill:#d4dadd;fill-opacity:1;fill-rule:evenodd;stroke:none"
     d="m 57.285861,125.46413 c 16.99075,0 30.828625,-0.91 30.828625,-2.2963 0,-1.385 -13.856,-2.05 -30.846125,-2.05 -16.99025,0 -30.811625,0.665 -30.811625,2.05 0,1.3863 13.838875,2.2963 30.829125,2.2963"
     inkscape:connector-curvature="0" /><path
     id="path1500"
     style="fill:#d2d8db;fill-opacity:1;fill-rule:evenodd;stroke:none"
     d="m 57.368361,125.39913 c 16.725625,0 30.352625,-0.8963 30.352625,-2.1975 0,-1.2988 -13.640125,-2.0113 -30.36575,-2.0113 -16.725625,0 -30.340375,0.7125 -30.340375,2.0113 0,1.3012 13.6285,2.1975 30.3535,2.1975"
     inkscape:connector-curvature="0" /><path
     id="path1502"
     style="fill:#cfd6d9;fill-opacity:1;fill-rule:evenodd;stroke:none"
     d="m 57.450986,125.33533 c 16.460375,0 29.875875,-0.8812 29.875875,-2.0975 0,-1.215 -13.42375,-1.975 -29.88525,-1.975 -16.460375,0 -29.868125,0.76 -29.868125,1.975 0,1.2163 13.416,2.0975 29.8775,2.0975"
     inkscape:connector-curvature="0" /><path
     id="path1504"
     style="fill:#cdd5d8;fill-opacity:1;fill-rule:evenodd;stroke:none"
     d="m 57.533486,125.27033 c 16.19625,0 29.400375,-0.8662 29.400375,-1.9975 0,-1.1312 -13.209,-1.9375 -29.40475,-1.9375 -16.196375,0 -29.3975,0.8063 -29.3975,1.9375 0,1.1313 13.2055,1.9975 29.401875,1.9975"
     inkscape:connector-curvature="0" /><path
     id="path1506"
     style="fill:#cad3d6;fill-opacity:1;fill-rule:evenodd;stroke:none"
     d="m 57.615986,125.20533 c 15.931125,0 28.92425,-0.8525 28.92425,-1.8987 0,-1.0438 -12.993125,-1.8975 -28.92425,-1.8975 -15.931625,0 -28.92575,0.8537 -28.92575,1.8975 0,1.0462 12.994125,1.8987 28.92575,1.8987"
     inkscape:connector-curvature="0" /><path
     id="path1508"
     style="fill:#bdc5c9;fill-opacity:1;fill-rule:evenodd;stroke:none"
     d="m 57.587611,125.18163 c 15.417,0 27.99025,-0.8163 27.99025,-1.8188 0,-1.0012 -12.57325,-1.8175 -27.99025,-1.8175 -15.417,0 -27.991625,0.8163 -27.991625,1.8175 0,1.0025 12.574625,1.8188 27.991625,1.8188"
     inkscape:connector-curvature="0" /><path
     id="path1510"
     style="fill:#b1b8bd;fill-opacity:1;fill-rule:evenodd;stroke:none"
     d="m 57.558861,125.15663 c 14.90275,0 27.056625,-0.7813 27.056625,-1.7388 0,-0.9562 -12.153875,-1.7387 -27.056625,-1.7387 -14.901375,0 -27.056625,0.7825 -27.056625,1.7387 0,0.9575 12.15525,1.7388 27.056625,1.7388"
     inkscape:connector-curvature="0" /><path
     id="path1512"
     style="fill:#a5abb1;fill-opacity:1;fill-rule:evenodd;stroke:none"
     d="m 57.530986,125.13163 c 14.38775,0 26.122625,-0.7438 26.122625,-1.6588 0,-0.9112 -11.734875,-1.6575 -26.122625,-1.6575 -14.387625,0 -26.123,0.7463 -26.123,1.6575 0,0.915 11.735375,1.6588 26.123,1.6588"
     inkscape:connector-curvature="0" /><path
     id="path1514"
     style="fill:#999fa6;fill-opacity:1;fill-rule:evenodd;stroke:none"
     d="m 57.502736,125.10783 c 13.8735,0 25.187875,-0.7087 25.187875,-1.5787 0,-0.87 -11.314375,-1.5788 -25.187875,-1.5788 -13.873125,0 -25.189,0.7088 -25.189,1.5788 0,0.87 11.315875,1.5787 25.189,1.5787"
     inkscape:connector-curvature="0" /><path
     id="path1516"
     style="fill:#8e949c;fill-opacity:1;fill-rule:evenodd;stroke:none"
     d="m 57.474861,125.08283 c 13.358375,0 24.253375,-0.6725 24.253375,-1.4987 0,-0.825 -10.895,-1.4988 -24.253375,-1.4988 -13.358875,0 -24.255375,0.6738 -24.255375,1.4988 0,0.8262 10.8965,1.4987 24.255375,1.4987"
     inkscape:connector-curvature="0" /><path
     id="path1518"
     style="fill:#848a92;fill-opacity:1;fill-rule:evenodd;stroke:none"
     d="m 57.445986,125.05913 c 12.84475,0 23.319875,-0.6375 23.319875,-1.4188 0,-0.7812 -10.475125,-1.4187 -23.319875,-1.4187 -12.84375,0 -23.32025,0.6375 -23.32025,1.4187 0,0.7813 10.4765,1.4188 23.32025,1.4188"
     inkscape:connector-curvature="0" /><path
     id="path1520"
     style="fill:#798088;fill-opacity:1;fill-rule:evenodd;stroke:none"
     d="m 57.418236,125.03413 c 12.329625,0 22.38575,-0.6 22.38575,-1.3388 0,-0.7375 -10.056125,-1.3387 -22.38575,-1.3387 -12.330125,0 -22.38675,0.6012 -22.38675,1.3387 0,0.7388 10.056625,1.3388 22.38675,1.3388"
     inkscape:connector-curvature="0" /><path
     id="path1522"
     style="fill:#70767f;fill-opacity:1;fill-rule:evenodd;stroke:none"
     d="m 57.389861,125.00913 c 11.8155,0 21.45175,-0.565 21.45175,-1.2588 0,-0.6925 -9.63625,-1.2587 -21.45175,-1.2587 -11.814875,0 -21.452625,0.5662 -21.452625,1.2587 0,0.6938 9.63775,1.2588 21.452625,1.2588"
     inkscape:connector-curvature="0" /><path
     id="path1524"
     style="fill:#676d77;fill-opacity:1;fill-rule:evenodd;stroke:none"
     d="m 57.361111,124.98533 c 11.30125,0 20.5175,-0.5287 20.5175,-1.1787 0,-0.65 -9.21625,-1.18 -20.5175,-1.18 -11.299875,0 -20.517625,0.53 -20.517625,1.18 0,0.65 9.21775,1.1787 20.517625,1.1787"
     inkscape:connector-curvature="0" /><path
     id="path1526"
     style="fill:#5e656f;fill-opacity:1;fill-rule:evenodd;stroke:none"
     d="m 57.333236,124.96033 c 10.786625,0 19.583,-0.4925 19.583,-1.0987 0,-0.605 -8.796375,-1.1 -19.583,-1.1 -10.785625,0 -19.584,0.495 -19.584,1.1 0,0.6062 8.798375,1.0987 19.584,1.0987"
     inkscape:connector-curvature="0" /><path
     id="path1528"
     style="fill:#565d67;fill-opacity:1;fill-rule:evenodd;stroke:none"
     d="m 57.304986,124.93663 c 10.271375,0 18.649375,-0.4588 18.649375,-1.02 0,-0.5613 -8.378,-1.0188 -18.649375,-1.0188 -10.2715,0 -18.65,0.4575 -18.65,1.0188 0,0.5612 8.3785,1.02 18.65,1.02"
     inkscape:connector-curvature="0" /><path
     id="path1530"
     style="fill:#4e5560;fill-opacity:1;fill-rule:evenodd;stroke:none"
     d="m 57.277111,124.91163 c 9.756875,0 17.714875,-0.4213 17.714875,-0.94 0,-0.5163 -7.958,-0.9388 -17.714875,-0.9388 -9.757375,0 -17.716375,0.4225 -17.716375,0.9388 0,0.5187 7.959,0.94 17.716375,0.94"
     inkscape:connector-curvature="0" /><path
     id="path1532"
     style="fill:#464e58;fill-opacity:1;fill-rule:evenodd;stroke:none"
     d="m 57.248236,124.88663 c 9.24325,0 16.780875,-0.385 16.780875,-0.8588 0,-0.4737 -7.537625,-0.86 -16.780875,-0.86 -9.241625,0 -16.78125,0.3863 -16.78125,0.86 0,0.4738 7.539625,0.8588 16.78125,0.8588"
     inkscape:connector-curvature="0" /><path
     id="path1534"
     style="fill:#404852;fill-opacity:1;fill-rule:evenodd;stroke:none"
     d="m 57.220486,124.86163 c 8.7285,0 15.846125,-0.3488 15.846125,-0.7788 0,-0.4287 -7.117625,-0.7787 -15.846125,-0.7787 -8.727625,0 -15.847625,0.35 -15.847625,0.7787 0,0.43 7.12,0.7788 15.847625,0.7788"
     inkscape:connector-curvature="0" /><path
     id="path1536"
     style="fill:#39414b;fill-opacity:1;fill-rule:evenodd;stroke:none"
     d="m 57.192111,124.83783 c 8.213375,0 14.912625,-0.3137 14.912625,-0.7 0,-0.385 -6.69925,-0.6987 -14.912625,-0.6987 -8.213375,0 -14.913,0.3137 -14.913,0.6987 0,0.3863 6.699625,0.7 14.913,0.7"
     inkscape:connector-curvature="0" /><path
     id="path1538"
     style="fill:#333c45;fill-opacity:1;fill-rule:evenodd;stroke:none"
     d="m 57.163361,124.81283 c 7.699625,0 13.979,-0.2762 13.979,-0.6187 0,-0.3413 -6.279375,-0.62 -13.979,-0.62 -7.69825,0 -13.978,0.2787 -13.978,0.62 0,0.3425 6.27975,0.6187 13.978,0.6187"
     inkscape:connector-curvature="0" /><path
     id="path1540"
     style="fill:#2d3640;fill-opacity:1;fill-rule:evenodd;stroke:none"
     d="m 57.135486,124.78913 c 7.185125,0 13.0445,-0.2425 13.0445,-0.54 0,-0.2963 -5.859375,-0.54 -13.0445,-0.54 -7.184125,0 -13.044375,0.2437 -13.044375,0.54 0,0.2975 5.86025,0.54 13.044375,0.54"
     inkscape:connector-curvature="0" /><path
     id="path1542"
     style="fill:#27313a;fill-opacity:1;fill-rule:evenodd;stroke:none"
     d="m 57.107236,124.76413 c 6.670875,0 12.10975,-0.205 12.10975,-0.46 0,-0.2525 -5.438875,-0.4588 -12.10975,-0.4588 -6.669,0 -12.110375,0.2063 -12.110375,0.4588 0,0.255 5.441375,0.46 12.110375,0.46"
     inkscape:connector-curvature="0" /><path
     id="path1544"
     style="fill:#222c35;fill-opacity:1;fill-rule:evenodd;stroke:none"
     d="m 57.079361,124.73913 c 6.15525,0 11.17575,-0.1688 11.17575,-0.3788 0,-0.21 -5.0205,-0.38 -11.17575,-0.38 -6.15525,0 -11.17675,0.17 -11.17675,0.38 0,0.21 5.0215,0.3788 11.17675,0.3788"
     inkscape:connector-curvature="0" /><path
     id="path1546"
     style="fill:#1d2830;fill-opacity:1;fill-rule:evenodd;stroke:none"
     d="m 57.050486,124.71533 c 5.641625,0 10.24225,-0.1337 10.24225,-0.3 0,-0.165 -4.600625,-0.3 -10.24225,-0.3 -5.640125,0 -10.241625,0.135 -10.241625,0.3 0,0.1663 4.6015,0.3 10.241625,0.3"
     inkscape:connector-curvature="0" /><path
     id="path1548"
     style="fill:#19232b;fill-opacity:1;fill-rule:evenodd;stroke:none"
     d="m 57.022736,124.69033 c 5.126375,0 9.307625,-0.098 9.307625,-0.22 0,-0.12 -4.18125,-0.22 -9.307625,-0.22 -5.126,0 -9.308125,0.1 -9.308125,0.22 0,0.1225 4.182125,0.22 9.308125,0.22"
     inkscape:connector-curvature="0" /><g
     id="g1550"
     transform="matrix(0.125,0,0,-0.125,-8.6818894,444.74413)"><g
       clip-path="url(#clipPath1554)"
       id="g1552"><path
         id="path1564"
         style="fill:url(#linearGradient1558);fill-opacity:1;fill-rule:nonzero;stroke:none"
         d="m 516.531,3532.05 c 240.246,0 435.071,-239.18 435.071,-534.12 0,-294.93 -194.825,-428.67 -435.071,-428.67 -240.242,0 -435.0662,133.74 -435.0662,428.67 0,294.94 194.8242,534.12 435.0662,534.12"
         inkscape:connector-curvature="0" /></g></g><g
     id="g1566"
     transform="matrix(0.125,0,0,-0.125,-8.6818894,444.74413)"><g
       clip-path="url(#clipPath1570)"
       id="g1568"><path
         id="path1580"
         style="fill:url(#linearGradient1574);fill-opacity:1;fill-rule:nonzero;stroke:none"
         d="m 516.531,3528.82 c 238.785,0 432.422,-237.81 432.422,-531.07 0,-293.24 -193.637,-426.22 -432.422,-426.22 -238.781,0 -432.4216,132.98 -432.4216,426.22 0,293.26 193.6406,531.07 432.4216,531.07"
         inkscape:connector-curvature="0" /></g></g><g
     id="g1582"
     transform="matrix(0.125,0,0,-0.125,-8.6818894,444.74413)"><g
       clip-path="url(#clipPath1586)"
       id="g1584"><path
         id="path1596"
         style="fill:url(#linearGradient1590);fill-opacity:1;fill-rule:nonzero;stroke:none"
         d="m 516.531,3525.59 c 237.321,0 429.778,-236.45 429.778,-528.02 0,-291.56 -192.457,-423.77 -429.778,-423.77 -237.316,0 -429.7732,132.21 -429.7732,423.77 0,291.57 192.4572,528.02 429.7732,528.02"
         inkscape:connector-curvature="0" /></g></g><g
     id="g1598"
     transform="matrix(0.125,0,0,-0.125,-8.6818894,444.74413)"><g
       clip-path="url(#clipPath1602)"
       id="g1600"><path
         id="path1612"
         style="fill:url(#linearGradient1606);fill-opacity:1;fill-rule:nonzero;stroke:none"
         d="m 516.531,3522.35 c 235.864,0 427.125,-235.08 427.125,-524.96 0,-289.87 -191.261,-421.32 -427.125,-421.32 -235.855,0 -427.1208,131.45 -427.1208,421.32 0,289.88 191.2658,524.96 427.1208,524.96"
         inkscape:connector-curvature="0" /></g></g><g
     id="g1614"
     transform="matrix(0.125,0,0,-0.125,-8.6818894,444.74413)"><g
       clip-path="url(#clipPath1618)"
       id="g1616"><path
         id="path1628"
         style="fill:url(#linearGradient1622);fill-opacity:1;fill-rule:nonzero;stroke:none"
         d="m 516.531,3519.12 c 234.399,0 424.481,-233.71 424.481,-521.91 0,-288.19 -190.082,-418.87 -424.481,-418.87 -234.39,0 -424.4763,130.68 -424.4763,418.87 0,288.2 190.0863,521.91 424.4763,521.91"
         inkscape:connector-curvature="0" /></g></g><g
     id="g1630"
     transform="matrix(0.125,0,0,-0.125,-8.6818894,444.74413)"><g
       clip-path="url(#clipPath1634)"
       id="g1632"><path
         id="path1644"
         style="fill:url(#linearGradient1638);fill-opacity:1;fill-rule:nonzero;stroke:none"
         d="m 516.531,3515.89 c 232.938,0 421.832,-232.34 421.832,-518.85 0,-286.51 -188.894,-416.43 -421.832,-416.43 -232.933,0 -421.8279,129.92 -421.8279,416.43 0,286.51 188.8949,518.85 421.8279,518.85"
         inkscape:connector-curvature="0" /></g></g><g
     id="g1646"
     transform="matrix(0.125,0,0,-0.125,-8.6818894,444.74413)"><g
       clip-path="url(#clipPath1650)"
       id="g1648"><path
         id="path1660"
         style="fill:url(#linearGradient1654);fill-opacity:1;fill-rule:nonzero;stroke:none"
         d="m 516.531,3512.66 c 231.473,0 419.188,-230.98 419.188,-515.8 0,-284.82 -187.715,-413.98 -419.188,-413.98 -231.468,0 -419.1833,129.16 -419.1833,413.98 0,284.82 187.7153,515.8 419.1833,515.8"
         inkscape:connector-curvature="0" /></g></g><g
     id="g1662"
     transform="matrix(0.125,0,0,-0.125,-8.6818894,444.74413)"><g
       clip-path="url(#clipPath1666)"
       id="g1664"><path
         id="path1676"
         style="fill:url(#linearGradient1670);fill-opacity:1;fill-rule:nonzero;stroke:none"
         d="m 516.531,3509.43 c 230.012,0 416.539,-229.61 416.539,-512.75 0,-283.13 -186.527,-411.53 -416.539,-411.53 -230.008,0 -416.5349,128.4 -416.5349,411.53 0,283.14 186.5269,512.75 416.5349,512.75"
         inkscape:connector-curvature="0" /></g></g><g
     id="g1678"
     transform="matrix(0.125,0,0,-0.125,-8.6818894,444.74413)"><g
       clip-path="url(#clipPath1682)"
       id="g1680"><path
         id="path1692"
         style="fill:url(#linearGradient1686);fill-opacity:1;fill-rule:nonzero;stroke:none"
         d="m 516.531,3506.2 c 228.551,0 413.891,-228.25 413.891,-509.7 0,-281.45 -185.34,-409.08 -413.891,-409.08 -228.547,0 -413.883,127.63 -413.883,409.08 0,281.45 185.336,509.7 413.883,509.7"
         inkscape:connector-curvature="0" /></g></g><g
     id="g1694"
     transform="matrix(0.125,0,0,-0.125,-8.6818894,444.74413)"><g
       clip-path="url(#clipPath1698)"
       id="g1696"><path
         id="path1708"
         style="fill:url(#linearGradient1702);fill-opacity:1;fill-rule:nonzero;stroke:none"
         d="m 516.531,3502.96 c 227.086,0 411.242,-226.87 411.242,-506.64 0,-279.76 -184.156,-406.63 -411.242,-406.63 -227.082,0 -411.238,126.87 -411.238,406.63 0,279.77 184.156,506.64 411.238,506.64"
         inkscape:connector-curvature="0" /></g></g><g
     id="g1710"
     transform="matrix(0.125,0,0,-0.125,-8.6818894,444.74413)"><g
       clip-path="url(#clipPath1714)"
       id="g1712"><path
         id="path1724"
         style="fill:url(#linearGradient1718);fill-opacity:1;fill-rule:nonzero;stroke:none"
         d="m 516.531,3499.73 c 225.625,0 408.598,-225.51 408.598,-503.59 0,-278.07 -182.973,-404.18 -408.598,-404.18 -225.625,0 -408.593,126.11 -408.593,404.18 0,278.08 182.968,503.59 408.593,503.59"
         inkscape:connector-curvature="0" /></g></g><g
     id="g1726"
     transform="matrix(0.125,0,0,-0.125,-8.6818894,444.74413)"><g
       clip-path="url(#clipPath1730)"
       id="g1728"><path
         id="path1740"
         style="fill:url(#linearGradient1734);fill-opacity:1;fill-rule:nonzero;stroke:none"
         d="m 516.531,3496.5 c 224.16,0 405.949,-224.14 405.949,-500.54 0,-276.39 -181.789,-401.72 -405.949,-401.72 -224.16,0 -405.945,125.33 -405.945,401.72 0,276.4 181.785,500.54 405.945,500.54"
         inkscape:connector-curvature="0" /></g></g><g
     id="g1742"
     transform="matrix(0.125,0,0,-0.125,-8.6818894,444.74413)"><g
       clip-path="url(#clipPath1746)"
       id="g1744"><path
         id="path1756"
         style="fill:url(#linearGradient1750);fill-opacity:1;fill-rule:nonzero;stroke:none"
         d="m 516.531,3493.27 c 222.703,0 403.305,-222.78 403.305,-497.49 0,-274.7 -180.602,-399.27 -403.305,-399.27 -222.699,0 -403.301,124.57 -403.301,399.27 0,274.71 180.602,497.49 403.301,497.49"
         inkscape:connector-curvature="0" /></g></g><g
     id="g1758"
     transform="matrix(0.125,0,0,-0.125,-8.6818894,444.74413)"><g
       clip-path="url(#clipPath1762)"
       id="g1760"><path
         id="path1772"
         style="fill:url(#linearGradient1766);fill-opacity:1;fill-rule:nonzero;stroke:none"
         d="m 516.531,3490.04 c 221.239,0 400.657,-221.41 400.657,-494.44 0,-273.02 -179.418,-396.82 -400.657,-396.82 -221.234,0 -400.652,123.8 -400.652,396.82 0,273.03 179.418,494.44 400.652,494.44"
         inkscape:connector-curvature="0" /></g></g><g
     id="g1774"
     transform="matrix(0.125,0,0,-0.125,-8.6818894,444.74413)"><g
       clip-path="url(#clipPath1778)"
       id="g1776"><path
         id="path1788"
         style="fill:url(#linearGradient1782);fill-opacity:1;fill-rule:nonzero;stroke:none"
         d="m 516.531,3486.8 c 219.778,0 398.004,-220.04 398.004,-491.37 0,-271.34 -178.226,-394.38 -398.004,-394.38 -219.773,0 -398,123.04 -398,394.38 0,271.33 178.227,491.37 398,491.37"
         inkscape:connector-curvature="0" /></g></g><g
     id="g1790"
     transform="matrix(0.125,0,0,-0.125,-8.6818894,444.74413)"><g
       clip-path="url(#clipPath1794)"
       id="g1792"><path
         id="path1804"
         style="fill:url(#linearGradient1798);fill-opacity:1;fill-rule:nonzero;stroke:none"
         d="m 516.531,3483.57 c 218.317,0 395.36,-218.67 395.36,-488.33 0,-269.64 -177.043,-391.92 -395.36,-391.92 -218.312,0 -395.355,122.28 -395.355,391.92 0,269.66 177.043,488.33 395.355,488.33"
         inkscape:connector-curvature="0" /></g></g><g
     id="g1806"
     transform="matrix(0.125,0,0,-0.125,-8.6818894,444.74413)"><g
       clip-path="url(#clipPath1810)"
       id="g1808"><path
         id="path1820"
         style="fill:url(#linearGradient1814);fill-opacity:1;fill-rule:nonzero;stroke:none"
         d="m 516.531,3480.34 c 216.852,0 392.711,-217.3 392.711,-485.28 0,-267.95 -175.859,-389.47 -392.711,-389.47 -216.847,0 -392.707,121.52 -392.707,389.47 0,267.98 175.86,485.28 392.707,485.28"
         inkscape:connector-curvature="0" /></g></g><g
     id="g1822"
     transform="matrix(0.125,0,0,-0.125,-8.6818894,444.74413)"><g
       clip-path="url(#clipPath1826)"
       id="g1824"><path
         id="path1836"
         style="fill:url(#linearGradient1830);fill-opacity:1;fill-rule:nonzero;stroke:none"
         d="m 516.531,3477.11 c 215.395,0 390.067,-215.94 390.067,-482.22 0,-266.28 -174.672,-387.03 -390.067,-387.03 -215.386,0 -390.062,120.75 -390.062,387.03 0,266.28 174.676,482.22 390.062,482.22"
         inkscape:connector-curvature="0" /></g></g><g
     id="g1838"
     transform="matrix(0.125,0,0,-0.125,-8.6818894,444.74413)"><g
       clip-path="url(#clipPath1842)"
       id="g1840"><path
         id="path1852"
         style="fill:url(#linearGradient1846);fill-opacity:1;fill-rule:nonzero;stroke:none"
         d="m 516.531,3473.88 c 213.93,0 387.418,-214.58 387.418,-479.17 0,-264.59 -173.488,-384.58 -387.418,-384.58 -213.926,0 -387.414,119.99 -387.414,384.58 0,264.59 173.488,479.17 387.414,479.17"
         inkscape:connector-curvature="0" /></g></g><g
     id="g1854"
     transform="matrix(0.125,0,0,-0.125,-8.6818894,444.74413)"><g
       clip-path="url(#clipPath1858)"
       id="g1856"><path
         id="path1868"
         style="fill:url(#linearGradient1862);fill-opacity:1;fill-rule:nonzero;stroke:none"
         d="m 516.531,3470.64 c 212.469,0 384.77,-213.2 384.77,-476.11 0,-262.9 -172.301,-382.13 -384.77,-382.13 -212.465,0 -384.761,119.23 -384.761,382.13 0,262.91 172.296,476.11 384.761,476.11"
         inkscape:connector-curvature="0" /></g></g><g
     id="g1870"
     transform="matrix(0.125,0,0,-0.125,-8.6818894,444.74413)"><g
       clip-path="url(#clipPath1874)"
       id="g1872"><path
         id="path1884"
         style="fill:url(#linearGradient1878);fill-opacity:1;fill-rule:nonzero;stroke:none"
         d="m 516.531,3467.41 c 211.004,0 382.121,-211.84 382.121,-473.06 0,-261.22 -171.117,-379.68 -382.121,-379.68 -211,0 -382.117,118.46 -382.117,379.68 0,261.22 171.117,473.06 382.117,473.06"
         inkscape:connector-curvature="0" /></g></g><path
     id="path1886"
     style="fill:#1c1b1a;fill-opacity:1;fill-rule:evenodd;stroke:none"
     d="m 55.884486,11.721627 c 26.192875,0 47.434624,26.3087 47.434624,58.7512 0,32.441203 -21.241749,47.153703 -47.434624,47.153703 -26.192375,0 -47.4335004,-14.7125 -47.4335004,-47.153703 0,-32.4425 21.2411254,-58.7512 47.4335004,-58.7512"
     inkscape:connector-curvature="0" /><path
     id="path1888"
     style="fill:#1c1b1a;fill-opacity:1;fill-rule:evenodd;stroke:none"
     d="m 54.374736,12.779127 c 25.481,0 42.159625,22.5875 42.159625,31.7712 10.176869,30.7775 -16.261125,46.4175 -38.763625,46.4175 -22.5015,0 -51.6698754,-15.3912 -42.735875,-46.4175 0,-9.1837 16.838375,-31.7712 39.339875,-31.7712"
     inkscape:connector-curvature="0" /><path
     id="path1890"
     style="fill:#1e1c1b;fill-opacity:1;fill-rule:evenodd;stroke:none"
     d="m 54.423111,13.409127 c 24.943375,0 41.418,21.955 41.418,30.8825 9.692369,29.4925 -16.03475,44.5324 -38.141125,44.5324 -22.105,0 -50.4326254,-14.8037 -41.923875,-44.5324 0,-8.9275 16.5415,-30.8825 38.647,-30.8825"
     inkscape:connector-curvature="0" /><path
     id="path1892"
     style="fill:#201e1d;fill-opacity:1;fill-rule:evenodd;stroke:none"
     d="m 54.471861,14.039127 c 24.404875,0 40.67587,21.3237 40.67587,29.9925 9.207499,28.2075 -15.80812,42.6499 -37.51862,42.6499 -21.709375,0 -49.1962504,-14.2174 -41.11275,-42.6499 0,-8.6688 16.246125,-29.9925 37.9555,-29.9925"
     inkscape:connector-curvature="0" /><path
     id="path1894"
     style="fill:#21201f;fill-opacity:1;fill-rule:evenodd;stroke:none"
     d="m 54.519736,14.669127 c 23.86825,0 39.934625,20.6912 39.934625,29.1037 8.722619,26.9213 -15.582,40.7662 -36.8965,40.7662 -21.313,0 -47.9585004,-13.6312 -40.30025,-40.7662 0,-8.4125 15.949625,-29.1037 37.262125,-29.1037"
     inkscape:connector-curvature="0" /><path
     id="path1896"
     style="fill:#232121;fill-opacity:1;fill-rule:evenodd;stroke:none"
     d="m 54.569111,15.300327 c 23.329125,0 39.19188,20.0588 39.19188,28.2138 8.238249,25.6362 -15.355505,38.8812 -36.27388,38.8812 -20.9175,0 -46.72125,-13.0437 -39.48925,-38.8812 0,-8.155 15.65375,-28.2138 36.57125,-28.2138"
     inkscape:connector-curvature="0" /><path
     id="path1898"
     style="fill:#252323;fill-opacity:1;fill-rule:evenodd;stroke:none"
     d="m 54.616986,15.929127 c 22.792,0 38.450125,19.4275 38.450125,27.3262 7.753869,24.35 -15.128375,36.9975 -35.650875,36.9975 -20.5215,0 -45.484875,-12.4575 -38.67775,-36.9975 0,-7.8987 15.3575,-27.3262 35.8785,-27.3262"
     inkscape:connector-curvature="0" /><path
     id="path1900"
     style="fill:#262525;fill-opacity:1;fill-rule:evenodd;stroke:none"
     d="m 54.665736,16.560327 c 22.2535,0 37.707505,18.7938 37.707505,26.435 7.26962,23.0663 -14.90138,35.115 -35.027755,35.115 -20.126,0 -44.247625,-11.8712 -37.86575,-35.115 0,-7.6412 15.0605,-26.435 35.186,-26.435"
     inkscape:connector-curvature="0" /><path
     id="path1902"
     style="fill:#282626;fill-opacity:1;fill-rule:evenodd;stroke:none"
     d="m 54.714111,17.190327 c 21.715875,0 36.96587,18.1625 36.96587,25.5463 6.78463,21.78 -14.67537,33.23 -34.40537,33.23 -19.729875,0 -43.01025,-11.2838 -37.054625,-33.23 0,-7.3838 14.764625,-25.5463 34.494125,-25.5463"
     inkscape:connector-curvature="0" /><path
     id="path1904"
     style="fill:#2a2828;fill-opacity:1;fill-rule:evenodd;stroke:none"
     d="m 54.762486,17.820327 c 21.178125,0 36.224125,17.53 36.224125,24.6575 6.30025,20.495 -14.44875,31.3463 -33.78375,31.3463 -19.3325,0 -41.772875,-10.6975 -36.241625,-31.3463 0,-7.1275 14.46825,-24.6575 33.80125,-24.6575"
     inkscape:connector-curvature="0" /><path
     id="path1906"
     style="fill:#2b2a2a;fill-opacity:1;fill-rule:evenodd;stroke:none"
     d="m 54.811236,18.450327 c 20.640125,0 35.482,16.8988 35.482,23.7688 5.815375,19.2087 -14.22225,29.4612 -33.160625,29.4612 -18.9375,0 -40.536125,-10.11 -35.43075,-29.4612 0,-6.87 14.171875,-23.7688 33.109375,-23.7688"
     inkscape:connector-curvature="0" /><path
     id="path1908"
     style="fill:#2d2c2c;fill-opacity:1;fill-rule:evenodd;stroke:none"
     d="m 54.859111,19.080327 c 20.1025,0 34.74075,16.2663 34.74075,22.8788 5.331,17.925 -13.996125,27.5787 -32.538625,27.5787 -18.541,0 -39.29825,-9.5237 -34.619125,-27.5787 0,-6.6125 13.876,-22.8788 32.417,-22.8788"
     inkscape:connector-curvature="0" /><path
     id="path1910"
     style="fill:#2f2e2e;fill-opacity:1;fill-rule:evenodd;stroke:none"
     d="m 54.908486,19.710327 c 19.563875,0 33.998,15.6338 33.998,21.99 4.846245,16.64 -13.77,25.695 -31.9155,25.695 -18.146,0 -38.0625,-8.9375 -33.807625,-25.695 0,-6.3562 13.579125,-21.99 31.725125,-21.99"
     inkscape:connector-curvature="0" /><path
     id="path1912"
     style="fill:#312f30;fill-opacity:1;fill-rule:evenodd;stroke:none"
     d="m 54.956236,20.341627 c 19.026375,0 33.256875,15.0012 33.256875,21.0987 4.36188,15.355 -13.543375,23.8125 -31.293375,23.8125 -17.749625,0 -36.82475,-8.3512 -32.996125,-23.8125 0,-6.0975 13.283125,-21.0987 31.032625,-21.0987"
     inkscape:connector-curvature="0" /><path
     id="path1914"
     style="fill:#323132;fill-opacity:1;fill-rule:evenodd;stroke:none"
     d="m 55.005111,20.971627 c 18.48825,0 32.514625,14.3687 32.514625,20.21 3.877005,14.0687 -13.317375,21.9287 -30.670875,21.9287 -17.354,0 -35.587375,-7.7637 -32.184125,-21.9287 0,-5.8413 12.986375,-20.21 30.340375,-20.21"
     inkscape:connector-curvature="0" /><path
     id="path1916"
     style="fill:#343334;fill-opacity:1;fill-rule:evenodd;stroke:none"
     d="m 55.053486,21.601627 c 17.951125,0 31.772875,13.7362 31.772875,19.3212 3.392625,12.7838 -13.09075,20.0438 -30.04875,20.0438 -16.957,0 -34.350625,-7.1775 -31.372125,-20.0438 0,-5.585 12.6905,-19.3212 29.648,-19.3212"
     inkscape:connector-curvature="0" /><path
     id="path1918"
     style="fill:#363536;fill-opacity:1;fill-rule:evenodd;stroke:none"
     d="m 55.101861,22.231627 c 17.413,0 31.03125,13.105 31.03125,18.4325 2.907625,11.4987 -12.864375,18.16 -29.426375,18.16 -16.561,0 -33.11325,-6.5913 -30.561,-18.16 0,-5.3275 12.3945,-18.4325 28.956125,-18.4325"
     inkscape:connector-curvature="0" /><path
     id="path1920"
     style="fill:#373738;fill-opacity:1;fill-rule:evenodd;stroke:none"
     d="m 55.150611,22.861627 c 16.875,0 30.288625,12.4725 30.288625,17.5437 2.42325,10.2125 -12.63725,16.275 -28.80325,16.275 -16.1655,0 -31.876,-6.0037 -29.749,-16.275 0,-5.0712 12.097625,-17.5437 28.263625,-17.5437"
     inkscape:connector-curvature="0" /><path
     id="path1922"
     style="fill:#39393a;fill-opacity:1;fill-rule:evenodd;stroke:none"
     d="m 55.198986,23.491627 c 16.336875,0 29.546875,11.84 29.546875,16.6537 1.9385,8.9275 -12.410625,14.3925 -28.180625,14.3925 -15.769625,0 -30.63975,-5.4162 -28.937125,-14.3925 0,-4.8137 11.800875,-16.6537 27.570875,-16.6537"
     inkscape:connector-curvature="0" /><path
     id="path1924"
     style="fill:#3b3b3c;fill-opacity:1;fill-rule:evenodd;stroke:none"
     d="m 55.247861,24.121627 c 15.79875,0 28.804625,11.2087 28.804625,15.765 1.454125,7.6425 -12.184625,12.5087 -27.558125,12.5087 -15.374,0 -29.402375,-4.8312 -28.126,-12.5087 0,-4.5563 11.504875,-15.765 26.8795,-15.765"
     inkscape:connector-curvature="0" /><path
     id="path1926"
     style="fill:#3d3c3e;fill-opacity:1;fill-rule:evenodd;stroke:none"
     d="m 55.295611,24.751627 c 15.26225,0 28.0635,10.5762 28.0635,14.8762 0.96925,6.3575 -11.958,10.6238 -26.936,10.6238 -14.9775,0 -28.164625,-4.2438 -27.314,-10.6238 0,-4.3 11.2095,-14.8762 26.1865,-14.8762"
     inkscape:connector-curvature="0" /><path
     id="path1928"
     style="fill:#3f3e40;fill-opacity:1;fill-rule:evenodd;stroke:none"
     d="m 55.344486,25.382827 c 14.723625,0 27.32125,9.9425 27.32125,13.985 0.484375,5.0725 -11.731375,8.7413 -26.3135,8.7413 -14.582,0 -26.928125,-3.6575 -26.502375,-8.7413 0,-4.0425 10.913125,-13.985 25.494625,-13.985"
     inkscape:connector-curvature="0" /><path
     id="path1930"
     style="fill:#414042;fill-opacity:1;fill-rule:evenodd;stroke:none"
     d="m 55.392861,26.012827 c 14.186,0 26.5795,9.3113 26.5795,13.0963 0,3.7862 -11.505375,6.8575 -25.690875,6.8575 -14.1855,0 -25.690875,-3.0713 -25.690875,-6.8575 0,-3.785 10.616125,-13.0963 24.80225,-13.0963"
     inkscape:connector-curvature="0" /><path
     id="path1932"
     style="fill:#434344;fill-opacity:1;fill-rule:evenodd;stroke:none"
     d="m 55.402111,26.111627 c 14.0405,0 26.308125,9.1975 26.308125,12.9362 0,3.7413 -11.38825,6.7738 -25.42875,6.7738 -14.0405,0 -25.42875,-3.0325 -25.42875,-6.7738 0,-3.7387 10.508375,-12.9362 24.549375,-12.9362"
     inkscape:connector-curvature="0" /><path
     id="path1934"
     style="fill:#454546;fill-opacity:1;fill-rule:evenodd;stroke:none"
     d="m 55.410861,26.211627 c 13.896,0 26.036125,9.0837 26.036125,12.7762 0,3.6938 -11.2695,6.6888 -25.1655,6.6888 -13.896,0 -25.1655,-2.995 -25.1655,-6.6888 0,-3.6925 10.399375,-12.7762 24.294875,-12.7762"
     inkscape:connector-curvature="0" /><path
     id="path1936"
     style="fill:#484749;fill-opacity:1;fill-rule:evenodd;stroke:none"
     d="m 55.420111,26.310327 c 13.7505,0 25.76425,8.97 25.76425,12.6163 0,3.6487 -11.152375,6.605 -24.902875,6.605 -13.7505,0 -24.902875,-2.9563 -24.902875,-6.605 0,-3.6463 10.290625,-12.6163 24.0415,-12.6163"
     inkscape:connector-curvature="0" /><path
     id="path1938"
     style="fill:#4a4a4b;fill-opacity:1;fill-rule:evenodd;stroke:none"
     d="m 55.428986,26.409127 c 13.605875,0 25.493125,8.8575 25.493125,12.4575 0,3.6012 -11.034625,6.5212 -24.640625,6.5212 -13.606,0 -24.639625,-2.92 -24.639625,-6.5212 0,-3.6 10.181625,-12.4575 23.787125,-12.4575"
     inkscape:connector-curvature="0" /><path
     id="path1940"
     style="fill:#4c4c4e;fill-opacity:1;fill-rule:evenodd;stroke:none"
     d="m 55.438236,26.509127 c 13.460875,0 25.221125,8.7425 25.221125,12.2962 0,3.555 -10.916875,6.4375 -24.377875,6.4375 -13.4605,0 -24.377375,-2.8825 -24.377375,-6.4375 0,-3.5537 10.073125,-12.2962 23.534125,-12.2962"
     inkscape:connector-curvature="0" /><path
     id="path1942"
     style="fill:#4f4f50;fill-opacity:1;fill-rule:evenodd;stroke:none"
     d="m 55.446986,26.609127 c 13.3165,0 24.94975,8.6287 24.94975,12.1362 0,3.5088 -10.799375,6.3538 -24.11525,6.3538 -13.315375,0 -24.11525,-2.845 -24.11525,-6.3538 0,-3.5075 9.965375,-12.1362 23.28075,-12.1362"
     inkscape:connector-curvature="0" /><path
     id="path1944"
     style="fill:#515153;fill-opacity:1;fill-rule:evenodd;stroke:none"
     d="m 55.456236,26.707827 c 13.171,0 24.67775,8.515 24.67775,11.9763 0,3.4625 -10.681625,6.27 -23.8525,6.27 -13.170875,0 -23.852,-2.8075 -23.852,-6.27 0,-3.4613 9.855875,-11.9763 23.02675,-11.9763"
     inkscape:connector-curvature="0" /><path
     id="path1946"
     style="fill:#545455;fill-opacity:1;fill-rule:evenodd;stroke:none"
     d="m 55.465611,26.806627 c 13.025875,0 24.40625,8.4012 24.40625,11.8175 0,3.415 -10.564,6.185 -23.590375,6.185 -13.025375,0 -23.589375,-2.77 -23.589375,-6.185 0,-3.4163 9.748125,-11.8175 22.7735,-11.8175"
     inkscape:connector-curvature="0" /><path
     id="path1948"
     style="fill:#565658;fill-opacity:1;fill-rule:evenodd;stroke:none"
     d="m 55.474861,26.906627 c 12.880875,0 24.13375,8.2875 24.13375,11.6562 0,3.37 -10.44625,6.1025 -23.327125,6.1025 -12.880375,0 -23.327125,-2.7325 -23.327125,-6.1025 0,-3.3687 9.639125,-11.6562 22.5205,-11.6562"
     inkscape:connector-curvature="0" /><path
     id="path1950"
     style="fill:#59595b;fill-opacity:1;fill-rule:evenodd;stroke:none"
     d="m 55.483611,27.006627 c 12.735875,0 23.862375,8.1725 23.862375,11.495 0,3.325 -10.328125,6.0187 -23.0645,6.0187 -12.735875,0 -23.064,-2.6937 -23.064,-6.0187 0,-3.3225 9.53075,-11.495 22.266125,-11.495"
     inkscape:connector-curvature="0" /><path
     id="path1952"
     style="fill:#5c5c5d;fill-opacity:1;fill-rule:evenodd;stroke:none"
     d="m 55.492486,27.105327 c 12.59125,0 23.59125,8.0588 23.59125,11.335 0,3.2788 -10.211375,5.935 -22.80225,5.935 -12.590375,0 -22.80125,-2.6562 -22.80125,-5.935 0,-3.2762 9.421875,-11.335 22.01225,-11.335"
     inkscape:connector-curvature="0" /><path
     id="path1954"
     style="fill:#5e5f60;fill-opacity:1;fill-rule:evenodd;stroke:none"
     d="m 55.501736,27.204127 c 12.44575,0 23.31925,7.9462 23.31925,11.1762 0,3.2313 -10.09325,5.8513 -22.5395,5.8513 -12.44575,0 -22.538625,-2.62 -22.538625,-5.8513 0,-3.23 9.3135,-11.1762 21.758875,-11.1762"
     inkscape:connector-curvature="0" /><path
     id="path1956"
     style="fill:#616163;fill-opacity:1;fill-rule:evenodd;stroke:none"
     d="m 55.510486,27.304127 c 12.30125,0 23.047875,7.8325 23.047875,11.0162 0,3.185 -9.976125,5.7663 -22.276875,5.7663 -12.30025,0 -22.275875,-2.5813 -22.275875,-5.7663 0,-3.1837 9.204625,-11.0162 21.504875,-11.0162"
     inkscape:connector-curvature="0" /><path
     id="path1958"
     style="fill:#646466;fill-opacity:1;fill-rule:evenodd;stroke:none"
     d="m 55.519736,27.402827 c 12.15625,0 22.775875,7.7188 22.775875,10.8563 0,3.1387 -9.857875,5.6837 -22.014125,5.6837 -12.15525,0 -22.013625,-2.545 -22.013625,-5.6837 0,-3.1375 9.096625,-10.8563 21.251875,-10.8563"
     inkscape:connector-curvature="0" /><path
     id="path1960"
     style="fill:#666769;fill-opacity:1;fill-rule:evenodd;stroke:none"
     d="m 55.529111,27.502827 c 12.010625,0 22.504375,7.6038 22.504375,10.695 0,3.0925 -9.74075,5.6 -21.752,5.6 -12.01075,0 -21.7505,-2.5075 -21.7505,-5.6 0,-3.0912 8.987375,-10.695 20.998125,-10.695"
     inkscape:connector-curvature="0" /><path
     id="path1962"
     style="fill:#696a6c;fill-opacity:1;fill-rule:evenodd;stroke:none"
     d="m 55.538361,27.601627 c 11.86575,0 22.231875,7.4912 22.231875,10.5362 0,3.0463 -9.622,5.515 -21.48875,5.515 -11.86525,0 -21.48775,-2.4687 -21.48775,-5.515 0,-3.045 8.879375,-10.5362 20.744625,-10.5362"
     inkscape:connector-curvature="0" /><path
     id="path1964"
     style="fill:#6c6d6f;fill-opacity:1;fill-rule:evenodd;stroke:none"
     d="m 55.547111,27.701627 c 11.72125,0 21.9605,7.3762 21.9605,10.375 0,3 -9.504875,5.4312 -21.226125,5.4312 -11.72025,0 -21.225625,-2.4312 -21.225625,-5.4312 0,-2.9988 8.7705,-10.375 20.49125,-10.375"
     inkscape:connector-curvature="0" /><path
     id="path1966"
     style="fill:#6f7072;fill-opacity:1;fill-rule:evenodd;stroke:none"
     d="m 55.555861,27.800327 c 11.57675,0 21.6895,7.2625 21.6895,10.2163 0,2.9525 -9.38725,5.3475 -20.963875,5.3475 -11.57525,0 -20.962375,-2.395 -20.962375,-5.3475 0,-2.9538 8.662125,-10.2163 20.23675,-10.2163"
     inkscape:connector-curvature="0" /><path
     id="path1968"
     style="fill:#727375;fill-opacity:1;fill-rule:evenodd;stroke:none"
     d="m 55.565236,27.899127 c 11.431125,0 21.417375,7.15 21.417375,10.0562 0,2.9075 -9.27,5.2638 -20.701125,5.2638 -11.430125,0 -20.70025,-2.3563 -20.70025,-5.2638 0,-2.9062 8.55375,-10.0562 19.984,-10.0562"
     inkscape:connector-curvature="0" /><path
     id="path1970"
     style="fill:#757778;fill-opacity:1;fill-rule:evenodd;stroke:none"
     d="m 55.573986,27.999127 c 11.286625,0 21.146,7.035 21.146,9.895 0,2.8612 -9.151875,5.18 -20.4385,5.18 -11.285125,0 -20.437,-2.3188 -20.437,-5.18 0,-2.86 8.444875,-9.895 19.7295,-9.895"
     inkscape:connector-curvature="0" /><path
     id="path1972"
     style="fill:#787a7b;fill-opacity:1;fill-rule:evenodd;stroke:none"
     d="m 55.583236,28.099127 c 11.141625,0 20.874,6.9212 20.874,9.735 0,2.815 -9.034125,5.0962 -20.17575,5.0962 -11.140125,0 -20.17425,-2.2812 -20.17425,-5.0962 0,-2.8138 8.335875,-9.735 19.476,-9.735"
     inkscape:connector-curvature="0" /><path
     id="path1974"
     style="fill:#1c1b1a;fill-opacity:1;fill-rule:evenodd;stroke:none"
     d="m 54.374736,116.23033 c 25.481,0 42.159625,-16.613803 42.159625,-23.368803 10.176869,-22.6387 -16.261125,-34.1412 -38.763625,-34.1412 -22.5015,0 -51.6698754,11.3188 -42.735875,34.1412 0,6.755 16.838375,23.368803 39.339875,23.368803"
     inkscape:connector-curvature="0" /><path
     id="path1976"
     style="fill:#1d1c1b;fill-opacity:1;fill-rule:evenodd;stroke:none"
     d="m 54.423111,115.92653 c 24.943375,0 41.418,-16.150003 41.418,-22.716203 9.692369,-21.6925 -16.03475,-32.755 -38.141125,-32.755 -22.105,0 -50.4326254,10.8875 -41.923875,32.755 0,6.5662 16.5415,22.716203 38.647,22.716203"
     inkscape:connector-curvature="0" /><path
     id="path1978"
     style="fill:#1e1c1c;fill-opacity:1;fill-rule:evenodd;stroke:none"
     d="m 54.471861,115.62153 c 24.404875,0 40.67587,-15.685003 40.67587,-22.061203 9.207499,-20.7475 -15.80812,-31.37 -37.51862,-31.37 -21.709375,0 -49.1962504,10.4563 -41.11275,31.37 0,6.3762 16.246125,22.061203 37.9555,22.061203"
     inkscape:connector-curvature="0" /><path
     id="path1980"
     style="fill:#1f1d1c;fill-opacity:1;fill-rule:evenodd;stroke:none"
     d="m 54.519736,115.31783 c 23.86825,0 39.934625,-15.2213 39.934625,-21.408803 8.722619,-19.8012 -15.582,-29.9837 -36.8965,-29.9837 -21.313,0 -47.9585004,10.025 -40.30025,29.9837 0,6.187503 15.949625,21.408803 37.262125,21.408803"
     inkscape:connector-curvature="0" /><path
     id="path1982"
     style="fill:#1f1e1d;fill-opacity:1;fill-rule:evenodd;stroke:none"
     d="m 54.569111,115.01153 c 23.329125,0 39.19188,-14.7537 39.19188,-20.752503 8.238249,-18.8562 -15.355505,-28.5987 -36.27388,-28.5987 -20.9175,0 -46.72125,9.5938 -39.48925,28.5987 0,5.998803 15.65375,20.752503 36.57125,20.752503"
     inkscape:connector-curvature="0" /><path
     id="path1984"
     style="fill:#201f1e;fill-opacity:1;fill-rule:evenodd;stroke:none"
     d="m 54.616986,114.70783 c 22.792,0 38.450125,-14.29 38.450125,-20.100003 7.753869,-17.9112 -15.128375,-27.2125 -35.650875,-27.2125 -20.5215,0 -45.484875,9.1625 -38.67775,27.2125 0,5.810003 15.3575,20.100003 35.8785,20.100003"
     inkscape:connector-curvature="0" /><path
     id="path1986"
     style="fill:#211f1f;fill-opacity:1;fill-rule:evenodd;stroke:none"
     d="m 54.665736,114.40283 c 22.2535,0 37.707505,-13.8238 37.707505,-19.445003 7.26962,-16.9663 -14.90138,-25.8275 -35.027755,-25.8275 -20.126,0 -44.247625,8.7312 -37.86575,25.8275 0,5.621203 15.0605,19.445003 35.186,19.445003"
     inkscape:connector-curvature="0" /><path
     id="path1988"
     style="fill:#212020;fill-opacity:1;fill-rule:evenodd;stroke:none"
     d="m 54.714111,114.09783 c 21.715875,0 36.96587,-13.36 36.96587,-18.790003 6.78463,-16.0213 -14.67537,-24.4412 -34.40537,-24.4412 -19.729875,0 -43.01025,8.2987 -37.054625,24.4412 0,5.430003 14.764625,18.790003 34.494125,18.790003"
     inkscape:connector-curvature="0" /><path
     id="path1990"
     style="fill:#222121;fill-opacity:1;fill-rule:evenodd;stroke:none"
     d="m 54.762486,113.79403 c 21.178125,0 36.224125,-12.895 36.224125,-18.137503 6.30025,-15.075 -14.44875,-23.0549 -33.78375,-23.0549 -19.3325,0 -41.772875,7.8662 -36.241625,23.0549 0,5.242503 14.46825,18.137503 33.80125,18.137503"
     inkscape:connector-curvature="0" /><path
     id="path1992"
     style="fill:#232222;fill-opacity:1;fill-rule:evenodd;stroke:none"
     d="m 54.811236,113.48903 c 20.640125,0 35.482,-12.43 35.482,-17.482503 5.815375,-14.13 -14.22225,-21.6699 -33.160625,-21.6699 -18.9375,0 -40.536125,7.4349 -35.43075,21.6699 0,5.052503 14.171875,17.482503 33.109375,17.482503"
     inkscape:connector-curvature="0" /><path
     id="path1994"
     style="fill:#242322;fill-opacity:1;fill-rule:evenodd;stroke:none"
     d="m 54.859111,113.18403 c 20.1025,0 34.74075,-11.9637 34.74075,-16.828703 5.331,-13.1838 -13.996125,-20.2837 -32.538625,-20.2837 -18.541,0 -39.29825,7.0037 -34.619125,20.2837 0,4.865003 13.876,16.828703 32.417,16.828703"
     inkscape:connector-curvature="0" /><path
     id="path1996"
     style="fill:#242323;fill-opacity:1;fill-rule:evenodd;stroke:none"
     d="m 54.908486,112.87913 c 19.563875,0 33.998,-11.4988 33.998,-16.173803 4.846245,-12.2387 -13.77,-18.8987 -31.9155,-18.8987 -18.146,0 -38.0625,6.5725 -33.807625,18.8987 0,4.675003 13.579125,16.173803 31.725125,16.173803"
     inkscape:connector-curvature="0" /><path
     id="path1998"
     style="fill:#252424;fill-opacity:1;fill-rule:evenodd;stroke:none"
     d="m 54.956236,112.57533 c 19.026375,0 33.256875,-11.035 33.256875,-15.520003 4.36188,-11.2937 -13.543375,-17.5137 -31.293375,-17.5137 -17.749625,0 -36.82475,6.1412 -32.996125,17.5137 0,4.485003 13.283125,15.520003 31.032625,15.520003"
     inkscape:connector-curvature="0" /><path
     id="path2000"
     style="fill:#262525;fill-opacity:1;fill-rule:evenodd;stroke:none"
     d="m 55.005111,112.27033 c 18.48825,0 32.514625,-10.5687 32.514625,-14.866203 3.877005,-10.3475 -13.317375,-16.1275 -30.670875,-16.1275 -17.354,0 -35.587375,5.71 -32.184125,16.1275 0,4.297503 12.986375,14.866203 30.340375,14.866203"
     inkscape:connector-curvature="0" /><path
     id="path2002"
     style="fill:#262626;fill-opacity:1;fill-rule:evenodd;stroke:none"
     d="m 55.053486,111.96533 c 17.951125,0 31.772875,-10.1037 31.772875,-14.211203 3.392625,-9.4038 -13.09075,-14.7425 -30.04875,-14.7425 -16.957,0 -34.350625,5.2775 -31.372125,14.7425 0,4.107503 12.6905,14.211203 29.648,14.211203"
     inkscape:connector-curvature="0" /><path
     id="path2004"
     style="fill:#272727;fill-opacity:1;fill-rule:evenodd;stroke:none"
     d="m 55.101861,111.66163 c 17.413,0 31.03125,-9.64 31.03125,-13.558803 2.907625,-8.4575 -12.864375,-13.3562 -29.426375,-13.3562 -16.561,0 -33.11325,4.8462 -30.561,13.3562 0,3.918803 12.3945,13.558803 28.956125,13.558803"
     inkscape:connector-curvature="0" /><path
     id="path2006"
     style="fill:#282828;fill-opacity:1;fill-rule:evenodd;stroke:none"
     d="m 55.150611,111.35663 c 16.875,0 30.288625,-9.175 30.288625,-12.903803 2.42325,-7.5125 -12.63725,-11.97 -28.80325,-11.97 -16.1655,0 -31.876,4.4138 -29.749,11.97 0,3.728803 12.097625,12.903803 28.263625,12.903803"
     inkscape:connector-curvature="0" /><path
     id="path2008"
     style="fill:#282829;fill-opacity:1;fill-rule:evenodd;stroke:none"
     d="m 55.198986,111.05163 c 16.336875,0 29.546875,-8.7088 29.546875,-12.250003 1.9385,-6.5663 -12.410625,-10.5838 -28.180625,-10.5838 -15.769625,0 -30.63975,3.9825 -28.937125,10.5838 0,3.541203 11.800875,12.250003 27.570875,12.250003"
     inkscape:connector-curvature="0" /><path
     id="path2010"
     style="fill:#292929;fill-opacity:1;fill-rule:evenodd;stroke:none"
     d="m 55.247861,110.74663 c 15.79875,0 28.804625,-8.2438 28.804625,-11.595003 1.454125,-5.6213 -12.184625,-9.2 -27.558125,-9.2 -15.374,0 -29.402375,3.5525 -28.126,9.2 0,3.351203 11.504875,11.595003 26.8795,11.595003"
     inkscape:connector-curvature="0" /><path
     id="path2012"
     style="fill:#2a2a2a;fill-opacity:1;fill-rule:evenodd;stroke:none"
     d="m 55.295611,110.44283 c 15.26225,0 28.0635,-7.78 28.0635,-10.942503 0.96925,-4.675 -11.958,-7.8125 -26.936,-7.8125 -14.9775,0 -28.164625,3.12 -27.314,7.8125 0,3.162503 11.2095,10.942503 26.1865,10.942503"
     inkscape:connector-curvature="0" /><path
     id="path2014"
     style="fill:#2a2b2b;fill-opacity:1;fill-rule:evenodd;stroke:none"
     d="m 55.344486,110.13783 c 14.723625,0 27.32125,-7.315 27.32125,-10.287503 0.484375,-3.73 -11.731375,-6.4275 -26.3135,-6.4275 -14.582,0 -26.928125,2.6888 -26.502375,6.4275 0,2.972503 10.913125,10.287503 25.494625,10.287503"
     inkscape:connector-curvature="0" /><path
     id="path2016"
     style="fill:#2b2b2c;fill-opacity:1;fill-rule:evenodd;stroke:none"
     d="m 55.392861,109.83283 c 14.186,0 26.5795,-6.8487 26.5795,-9.6337 0,-2.783803 -11.505375,-5.041303 -25.690875,-5.041303 -14.1855,0 -25.690875,2.2575 -25.690875,5.041303 0,2.785 10.616125,9.6337 24.80225,9.6337"
     inkscape:connector-curvature="0" /></svg>