<?xml version="1.0" encoding="UTF-8" standalone="no"?>
<!-- Created with Inkscape (http://www.inkscape.org/) -->

<svg
   xmlns:dc="http://purl.org/dc/elements/1.1/"
   xmlns:cc="http://creativecommons.org/ns#"
   xmlns:rdf="http://www.w3.org/1999/02/22-rdf-syntax-ns#"
   xmlns:svg="http://www.w3.org/2000/svg"
   xmlns="http://www.w3.org/2000/svg"
   xmlns:xlink="http://www.w3.org/1999/xlink"
   xmlns:sodipodi="http://sodipodi.sourceforge.net/DTD/sodipodi-0.dtd"
   xmlns:inkscape="http://www.inkscape.org/namespaces/inkscape"
   width="51"
   height="51"
   id="svg6731"
   version="1.1"
   inkscape:version="0.91 r13725"
   sodipodi:docname="gear-stick-2.svg">
  <title
     id="title11584">Gear Shift knob icon</title>
  <defs
     id="defs6733">
    <linearGradient
       inkscape:collect="always"
       id="linearGradient11576">
      <stop
         style="stop-color:#2d2d2d;stop-opacity:1;"
         offset="0"
         id="stop11578" />
      <stop
         style="stop-color:#2d2d2d;stop-opacity:1"
         offset="1"
         id="stop11580" />
    </linearGradient>
    <linearGradient
       id="linearGradient11311"
       inkscape:collect="always">
      <stop
         id="stop11313"
         offset="0"
         style="stop-color:#2d2d2d;stop-opacity:1;" />
      <stop
         id="stop11315"
         offset="1"
         style="stop-color:#ffffff;stop-opacity:1" />
    </linearGradient>
    <linearGradient
       id="linearGradient11305"
       inkscape:collect="always">
      <stop
         id="stop11307"
         offset="0"
         style="stop-color:#2d2d2d;stop-opacity:1;" />
      <stop
         id="stop11309"
         offset="1"
         style="stop-color:#ffffff;stop-opacity:1" />
    </linearGradient>
    <linearGradient
       id="linearGradient11299"
       inkscape:collect="always">
      <stop
         id="stop11301"
         offset="0"
         style="stop-color:#2d2d2d;stop-opacity:1;" />
      <stop
         id="stop11303"
         offset="1"
         style="stop-color:#ffffff;stop-opacity:1" />
    </linearGradient>
    <linearGradient
       id="linearGradient11293"
       inkscape:collect="always">
      <stop
         id="stop11295"
         offset="0"
         style="stop-color:#2d2d2d;stop-opacity:1;" />
      <stop
         id="stop11297"
         offset="1"
         style="stop-color:#ffffff;stop-opacity:1" />
    </linearGradient>
    <linearGradient
       id="linearGradient11287"
       inkscape:collect="always">
      <stop
         id="stop11289"
         offset="0"
         style="stop-color:#2d2d2d;stop-opacity:1;" />
      <stop
         id="stop11291"
         offset="1"
         style="stop-color:#ffffff;stop-opacity:1" />
    </linearGradient>
    <linearGradient
       id="linearGradient11281"
       inkscape:collect="always">
      <stop
         id="stop11283"
         offset="0"
         style="stop-color:#2d2d2d;stop-opacity:1;" />
      <stop
         id="stop11285"
         offset="1"
         style="stop-color:#ffffff;stop-opacity:1" />
    </linearGradient>
    <filter
       inkscape:collect="always"
       id="filter11130"
       style="color-interpolation-filters:sRGB">
      <feGaussianBlur
         inkscape:collect="always"
         stdDeviation="1.7520756"
         id="feGaussianBlur11132" />
    </filter>
    <filter
       inkscape:collect="always"
       id="filter11134"
       style="color-interpolation-filters:sRGB">
      <feGaussianBlur
         inkscape:collect="always"
         stdDeviation="1.7520756"
         id="feGaussianBlur11136" />
    </filter>
    <radialGradient
       inkscape:collect="always"
       xlink:href="#linearGradient11311"
       id="radialGradient11269"
       cx="105"
       cy="551.6012"
       fx="105"
       fy="551.6012"
       r="6.178"
       gradientTransform="matrix(16.348333,1.4567818,-0.13641636,1.5308951,-1536.3275,-445.04346)"
       gradientUnits="userSpaceOnUse" />
    <radialGradient
       inkscape:collect="always"
       xlink:href="#linearGradient11305"
       id="radialGradient11271"
       cx="104.99999"
       cy="551.69843"
       fx="104.99999"
       fy="551.69843"
       r="6.2541151"
       gradientTransform="matrix(16.149373,1.4389918,-0.13249986,1.487006,-1517.5841,-419.1108)"
       gradientUnits="userSpaceOnUse" />
    <radialGradient
       inkscape:collect="always"
       xlink:href="#linearGradient11299"
       id="radialGradient11273"
       cx="105"
       cy="551.04773"
       fx="105"
       fy="551.04773"
       r="4.0848379"
       gradientTransform="matrix(24.725587,2.2032294,-0.20286882,2.2766811,-2379.3962,-933.53687)"
       gradientUnits="userSpaceOnUse" />
    <radialGradient
       inkscape:collect="always"
       xlink:href="#linearGradient11293"
       id="radialGradient11275"
       cx="105"
       cy="561.11511"
       fx="105"
       fy="561.11511"
       r="7.4609199"
       gradientTransform="matrix(13.537205,1.2062835,-0.0987237,1.1079012,-1261.0111,-195.95769)"
       gradientUnits="userSpaceOnUse" />
    <radialGradient
       inkscape:collect="always"
       xlink:href="#linearGradient11287"
       id="radialGradient11277"
       cx="105.00001"
       cy="577.25568"
       fx="105.00001"
       fy="577.25568"
       r="6.6854348"
       gradientTransform="matrix(15.107462,1.3462829,-0.12396306,1.3910651,-1409.7252,-391.99769)"
       gradientUnits="userSpaceOnUse" />
    <radialGradient
       inkscape:collect="always"
       xlink:href="#linearGradient11281"
       id="radialGradient11279"
       cx="105"
       cy="581.69574"
       fx="105"
       fy="581.69574"
       r="6.2477732"
       gradientTransform="matrix(16.16576,1.4405064,-0.13263956,1.4885177,-1515.2489,-464.75537)"
       gradientUnits="userSpaceOnUse" />
    <filter
       inkscape:collect="always"
       id="filter11445"
       style="color-interpolation-filters:sRGB">
      <feGaussianBlur
         inkscape:collect="always"
         stdDeviation="1.7150866"
         id="feGaussianBlur11447" />
    </filter>
    <linearGradient
       inkscape:collect="always"
       xlink:href="#linearGradient11576"
       id="linearGradient11582"
       x1="435.74805"
       y1="466.46683"
       x2="343.38788"
       y2="446.71707"
       gradientUnits="userSpaceOnUse"
       gradientTransform="matrix(0.25275899,0,0,0.26721226,-69.219074,903.70145)" />
  </defs>
  <sodipodi:namedview
     id="base"
     pagecolor="#ffffff"
     bordercolor="#666666"
     borderopacity="1.0"
     inkscape:pageopacity="0.0"
     inkscape:pageshadow="2"
     inkscape:zoom="9.0178572"
     inkscape:cx="23.99014"
     inkscape:cy="25.726946"
     inkscape:document-units="px"
     inkscape:current-layer="layer1"
     showgrid="false"
     inkscape:window-width="1920"
     inkscape:window-height="980"
     inkscape:window-x="0"
     inkscape:window-y="0"
     inkscape:window-maximized="1" />
  <metadata
     id="metadata6736">
    <rdf:RDF>
      <cc:Work
         rdf:about="">
        <dc:format>image/svg+xml</dc:format>
        <dc:type
           rdf:resource="http://purl.org/dc/dcmitype/StillImage" />
        <dc:title>Gear Shift knob icon</dc:title>
        <cc:license
           rdf:resource="http://creativecommons.org/publicdomain/zero/1.0/" />
        <dc:subject>
          <rdf:Bag>
            <rdf:li>icon</rdf:li>
            <rdf:li>gear shift knob</rdf:li>
            <rdf:li>motor sports</rdf:li>
            <rdf:li>automotive</rdf:li>
            <rdf:li>car</rdf:li>
            <rdf:li>motorsports</rdf:li>
            <rdf:li>racing</rdf:li>
            <rdf:li>5 speed gears</rdf:li>
            <rdf:li>motorsports public domain</rdf:li>
          </rdf:Bag>
        </dc:subject>
        <dc:date>2011-01-23</dc:date>
        <dc:creator>
          <cc:Agent>
            <dc:title>netalloy.com</dc:title>
          </cc:Agent>
        </dc:creator>
        <dc:description>motor sports icons by NetAlloy</dc:description>
      </cc:Work>
      <cc:License
         rdf:about="http://creativecommons.org/publicdomain/zero/1.0/">
        <cc:permits
           rdf:resource="http://creativecommons.org/ns#Reproduction" />
        <cc:permits
           rdf:resource="http://creativecommons.org/ns#Distribution" />
        <cc:permits
           rdf:resource="http://creativecommons.org/ns#DerivativeWorks" />
      </cc:License>
    </rdf:RDF>
  </metadata>
  <g
     inkscape:label="Layer 1"
     inkscape:groupmode="layer"
     id="layer1"
     transform="translate(0,-1001.36)">
    <g
       transform="matrix(0.25010054,0,0,0.26721226,-6.3337459,867.89504)"
       style="fill:#ffffff;fill-opacity:1"
       id="g11331">
      <g
         style="font-style:normal;font-variant:normal;font-weight:bold;font-stretch:normal;font-size:25.98058701px;line-height:125%;font-family:Arial;-inkscape-font-specification:'Arial Bold';text-align:start;letter-spacing:0px;word-spacing:0px;writing-mode:lr-tb;text-anchor:start;fill:#ffffff;fill-opacity:1;stroke:none"
         id="g11333">
        <path
           inkscape:connector-curvature="0"
           d="m 84.22131,559.36218 -3.564719,0 0,-13.4343 c -1.302417,1.21786 -2.837402,2.11855 -4.604957,2.70209 l 0,-3.23489 c 0.930291,-0.30445 1.940928,-0.88165 3.031914,-1.73162 1.090975,-0.84993 1.839439,-1.84154 2.245392,-2.97482 l 2.89237,0 z"
           style="fill:#ffffff;fill-opacity:1"
           id="path11335" />
      </g>
      <g
         style="font-style:normal;font-variant:normal;font-weight:bold;font-stretch:normal;font-size:25.98058701px;line-height:125%;font-family:Arial;-inkscape-font-specification:'Arial Bold';text-align:start;letter-spacing:0px;word-spacing:0px;writing-mode:lr-tb;text-anchor:start;fill:#ffffff;fill-opacity:1;stroke:none"
         id="g11337">
        <path
           inkscape:connector-curvature="0"
           d="m 88.139052,647.05118 0,3.311 -12.495546,0 c 0.135315,-1.25167 0.541261,-2.43779 1.21784,-3.55837 0.676575,-1.12058 2.012815,-2.60694 4.008724,-4.45907 1.606864,-1.49692 2.59213,-2.51179 2.955799,-3.0446 0.490509,-0.73577 0.735769,-1.46309 0.735778,-2.18197 -9e-6,-0.79496 -0.213554,-1.406 -0.640635,-1.8331 -0.427098,-0.42707 -1.016988,-0.64062 -1.769673,-0.64064 -0.744242,2e-5 -1.336247,0.22414 -1.776017,0.67235 -0.43978,0.44825 -0.693497,1.19249 -0.76115,2.23271 l -3.552033,-0.3552 c 0.211429,-1.96206 0.87532,-3.37019 1.991675,-4.22439 1.11635,-0.85416 2.51179,-1.28125 4.186326,-1.28126 1.835208,1e-5 3.277163,0.49476 4.325869,1.48424 1.048683,0.98951 1.57303,2.22003 1.573043,3.69158 -1.3e-5,0.83727 -0.150129,1.63437 -0.450347,2.39128 -0.300244,0.75693 -0.775962,1.54979 -1.427156,2.37859 -0.431329,0.54973 -1.209393,1.34048 -2.334194,2.37225 -1.124818,1.03179 -1.837338,1.71682 -2.137563,2.05511 -0.300237,0.33829 -0.543382,0.66812 -0.729435,0.98949 z"
           style="fill:#ffffff;fill-opacity:1"
           id="path11339" />
      </g>
      <g
         style="font-style:normal;font-variant:normal;font-weight:bold;font-stretch:normal;font-size:25.98058701px;line-height:125%;font-family:Arial;-inkscape-font-specification:'Arial Bold';text-align:start;letter-spacing:0px;word-spacing:0px;writing-mode:lr-tb;text-anchor:start;fill:#ffffff;fill-opacity:1;stroke:none"
         id="g11341">
        <path
           inkscape:connector-curvature="0"
           d="m 153.15093,554.57962 3.55204,-0.36789 c 0.10148,0.80344 0.40171,1.43985 0.90069,1.90922 0.49897,0.46938 1.07406,0.70407 1.72527,0.70407 0.74423,0 1.37429,-0.30235 1.89019,-0.90704 0.51588,-0.60469 0.77383,-1.51595 0.77384,-2.7338 -1e-5,-1.14172 -0.25584,-1.99801 -0.7675,-2.56888 -0.51167,-0.57085 -1.17767,-0.85628 -1.99801,-0.85629 -1.02333,10e-6 -1.94094,0.45247 -2.75283,1.35738 l -2.89237,-0.41863 1.82676,-9.67929 9.42557,0 0,3.33637 -6.72349,0 -0.55817,3.15877 c 0.79497,-0.39747 1.60686,-0.59622 2.43568,-0.59623 1.58149,10e-6 2.92196,0.5751 4.02141,1.72527 1.09942,1.1502 1.64914,2.64289 1.64915,4.4781 -1e-5,1.53076 -0.44401,2.8966 -1.33201,4.09753 -1.20939,1.6407 -2.88815,2.46105 -5.03627,2.46105 -1.71683,0 -3.1165,-0.46092 -4.19902,-1.38276 -1.08252,-0.92183 -1.7295,-2.16081 -1.94093,-3.71695 z"
           style="fill:#ffffff;fill-opacity:1"
           id="path11343" />
      </g>
      <g
         style="font-style:normal;font-variant:normal;font-weight:bold;font-stretch:normal;font-size:25.98058701px;line-height:125%;font-family:Arial;-inkscape-font-specification:'Arial Bold';text-align:start;letter-spacing:0px;word-spacing:0px;writing-mode:lr-tb;text-anchor:start;fill:#ffffff;fill-opacity:1;stroke:none"
         id="g11345">
        <path
           inkscape:connector-curvature="0"
           d="m 113.97334,554.42739 3.45054,-0.41863 c 0.10994,0.87956 0.40595,1.5519 0.88801,2.01705 0.48206,0.46515 1.06561,0.69772 1.75065,0.69772 0.73577,0 1.35526,-0.27909 1.85847,-0.83727 0.5032,-0.55817 0.7548,-1.31086 0.75481,-2.25807 -1e-5,-0.89646 -0.24104,-1.60687 -0.72309,-2.13122 -0.48207,-0.52434 -1.06985,-0.78652 -1.76333,-0.78653 -0.4567,1e-5 -1.00219,0.0888 -1.63648,0.26641 l 0.39326,-2.90506 c 0.96412,0.0254 1.6999,-0.18393 2.20734,-0.62795 0.50742,-0.44399 0.76114,-1.03388 0.76115,-1.76967 -1e-5,-0.62582 -0.18607,-1.1248 -0.55818,-1.49693 -0.37212,-0.3721 -0.86687,-0.55816 -1.48424,-0.55818 -0.60893,2e-5 -1.12904,0.21145 -1.56036,0.63429 -0.43132,0.42288 -0.69349,1.04026 -0.78652,1.85214 l -3.28563,-0.55818 c 0.22834,-1.1248 0.57298,-2.02337 1.0339,-2.69574 0.46091,-0.67233 1.10366,-1.20091 1.92824,-1.58573 0.82458,-0.38478 1.74853,-0.57719 2.77186,-0.5772 1.75063,1e-5 3.15453,0.55819 4.21169,1.67453 0.87109,0.91339 1.30663,1.94517 1.30664,3.09534 -1e-5,1.63226 -0.89224,2.93467 -2.67671,3.90724 1.0656,0.22835 1.91767,0.74001 2.5562,1.53498 0.63851,0.79499 0.95777,1.75488 0.95778,2.87969 -1e-5,1.63224 -0.59625,3.02346 -1.7887,4.17364 -1.19248,1.15018 -2.67672,1.72527 -4.45273,1.72527 -1.68299,0 -3.07843,-0.48418 -4.18633,-1.45253 -1.10789,-0.96835 -1.75064,-2.23482 -1.92824,-3.79941 z"
           style="fill:#ffffff;fill-opacity:1"
           id="path11347" />
      </g>
      <g
         style="font-style:normal;font-variant:normal;font-weight:bold;font-stretch:normal;font-size:25.98058701px;line-height:125%;font-family:Arial;-inkscape-font-specification:'Arial Bold';text-align:start;letter-spacing:0px;word-spacing:0px;writing-mode:lr-tb;text-anchor:start;fill:#ffffff;fill-opacity:1;stroke:none"
         id="g11349">
        <path
           inkscape:connector-curvature="0"
           d="m 122.09009,649.36218 0,-3.74232 -7.6115,0 0,-3.12071 8.06819,-11.81051 2.99386,0 0,11.79782 2.30882,0 0,3.1334 -2.30882,0 0,3.74232 z m 0,-6.87572 0,-6.3556 -4.27513,6.3556 z"
           style="fill:#ffffff;fill-opacity:1"
           id="path11351" />
      </g>
      <g
         style="font-style:normal;font-variant:normal;font-weight:bold;font-stretch:normal;font-size:23.18659019px;line-height:125%;font-family:Arial;-inkscape-font-specification:'Arial Bold';text-align:start;letter-spacing:0px;word-spacing:0px;writing-mode:lr-tb;text-anchor:start;fill:#ffffff;fill-opacity:1;stroke:none"
         id="g11353">
        <path
           inkscape:connector-curvature="0"
           d="m 155.79844,647.36218 0,-16.59743 7.05334,0 c 1.77371,2e-5 3.06248,0.14908 3.86632,0.4472 0.80382,0.29815 1.44726,0.82838 1.93033,1.59068 0.48304,0.76234 0.72457,1.6341 0.72458,2.61529 -1e-5,1.24538 -0.36608,2.27376 -1.09819,3.08513 -0.73214,0.81139 -1.82656,1.32274 -3.28326,1.53407 0.72457,0.42268 1.32273,0.88687 1.79447,1.39256 0.47172,0.5057 1.10762,1.40388 1.90769,2.69453 l 2.02656,3.23797 -4.00784,0 -2.42282,-3.61158 c -0.86045,-1.29066 -1.44917,-2.10392 -1.76616,-2.4398 -0.31701,-0.33587 -0.65289,-0.56607 -1.00762,-0.69062 -0.35475,-0.12453 -0.91706,-0.1868 -1.68692,-0.1868 l -0.67929,0 0,6.9288 z m 3.35119,-9.57805 2.47942,0 c 1.60766,10e-6 2.6115,-0.0679 3.01154,-0.20379 0.40002,-0.13585 0.71325,-0.36983 0.93969,-0.70194 0.22642,-0.33209 0.33964,-0.74721 0.33965,-1.24537 -1e-5,-0.55852 -0.14908,-1.0095 -0.4472,-1.35293 -0.29815,-0.34341 -0.71893,-0.5604 -1.26236,-0.65099 -0.27172,-0.0377 -1.08688,-0.0566 -2.44546,-0.0566 l -2.61528,0 z"
           style="fill:#ffffff;fill-opacity:1"
           id="path11355" />
      </g>
    </g>
    <ellipse
       style="fill:url(#linearGradient11582);fill-opacity:1;stroke:#645757;stroke-width:0.28587368;stroke-linecap:round;stroke-linejoin:round;stroke-miterlimit:4;stroke-dasharray:none;stroke-dashoffset:0;stroke-opacity:1"
       id="path10546"
       cx="25.565546"
       cy="1027.1167"
       rx="25.02314"
       ry="24.984346" />
    <path
       style="opacity:0.67317074;fill:#666666;fill-opacity:1;stroke:#ece5e5;stroke-width:0;stroke-linecap:round;stroke-linejoin:round;stroke-miterlimit:4;stroke-dasharray:none;stroke-dashoffset:0;stroke-opacity:1;filter:url(#filter11130)"
       d="m 148.34823,509.05623 c -47.7281,-12.77186 -96.210696,13.36812 -108.288917,58.38527 -1.926425,7.18006 -2.801313,14.3908 -2.732721,21.51828 0.376669,-2.00307 0.838866,-3.99836 1.375203,-5.99736 12.078222,-45.01716 60.560827,-71.15714 108.288915,-58.38528 40.11566,10.7348 66.92843,45.5307 67.28984,83.09077 8.10323,-43.10441 -20.32512,-86.40736 -65.93232,-98.61168 z"
       id="path11087"
       inkscape:connector-curvature="0"
       transform="matrix(0.24484971,0,0,0.25885069,-5.0486537,873.15613)" />
    <path
       inkscape:connector-curvature="0"
       id="path11110"
       d="m 99.63087,685.42918 c 47.7281,12.77186 96.2107,-13.36812 108.28892,-58.38527 1.92643,-7.18006 2.80131,-14.3908 2.73272,-21.51828 -0.37667,2.00307 -0.83886,3.99836 -1.3752,5.99736 -12.07822,45.01716 -60.56083,71.15714 -108.28892,58.38528 -40.115655,-10.7348 -66.928425,-45.5307 -67.289835,-83.09077 -8.10323,43.10441 20.32512,86.40736 65.932315,98.61168 z"
       style="opacity:0.67317074;fill:#666666;fill-opacity:1;stroke:#ece5e5;stroke-width:0;stroke-linecap:round;stroke-linejoin:round;stroke-miterlimit:4;stroke-dasharray:none;stroke-dashoffset:0;stroke-opacity:1;filter:url(#filter11134)"
       transform="matrix(0.24484971,0,0,0.25885069,-5.0486537,873.15613)" />
    <g
       id="g11205"
       transform="matrix(0.30820483,0,0,0.32582854,-103.6171,808.02958)"
       style="fill:#2d2d2d">
      <path
         style="color:#000000;font-style:normal;font-variant:normal;font-weight:normal;font-stretch:normal;font-size:medium;line-height:normal;font-family:Sans;-inkscape-font-specification:Sans;text-indent:0;text-align:start;text-decoration:none;text-decoration-line:none;letter-spacing:normal;word-spacing:normal;text-transform:none;direction:ltr;block-progression:tb;writing-mode:lr-tb;baseline-shift:baseline;text-anchor:start;display:inline;overflow:visible;visibility:visible;fill:#2d2d2d;fill-opacity:1;stroke:none;stroke-width:4.51399994;marker:none;enable-background:accumulate"
         d="m 447.25,675.09375 -65.78125,1 a 2.2658405,2.2658405 0 1 0 0.0625,4.53125 l 65.78125,-1 a 2.2658405,2.2658405 0 1 0 -0.0625,-4.53125 z"
         id="path11191"
         inkscape:connector-curvature="0" />
      <path
         style="color:#000000;font-style:normal;font-variant:normal;font-weight:normal;font-stretch:normal;font-size:medium;line-height:normal;font-family:Sans;-inkscape-font-specification:Sans;text-indent:0;text-align:start;text-decoration:none;text-decoration-line:none;letter-spacing:normal;word-spacing:normal;text-transform:none;direction:ltr;block-progression:tb;writing-mode:lr-tb;baseline-shift:baseline;text-anchor:start;display:inline;overflow:visible;visibility:visible;fill:#2d2d2d;fill-opacity:1;stroke:none;stroke-width:4.51399994;marker:none;enable-background:accumulate"
         d="m 380.78125,649.21875 a 2.2572257,2.2572257 0 0 0 -2,2.3125 L 379.1875,700.25 a 2.2656789,2.2656789 0 1 0 4.53125,-0.0312 l -0.40625,-48.75 a 2.2572257,2.2572257 0 0 0 -2.53125,-2.25 z"
         id="path11193"
         inkscape:connector-curvature="0" />
      <path
         style="color:#000000;font-style:normal;font-variant:normal;font-weight:normal;font-stretch:normal;font-size:medium;line-height:normal;font-family:Sans;-inkscape-font-specification:Sans;text-indent:0;text-align:start;text-decoration:none;text-decoration-line:none;letter-spacing:normal;word-spacing:normal;text-transform:none;direction:ltr;block-progression:tb;writing-mode:lr-tb;baseline-shift:baseline;text-anchor:start;display:inline;overflow:visible;visibility:visible;fill:#2d2d2d;fill-opacity:1;stroke:none;stroke-width:4.51399994;marker:none;enable-background:accumulate"
         d="m 412.78125,649.21875 a 2.2572257,2.2572257 0 0 0 -2,2.3125 L 411.1875,700.25 a 2.2656789,2.2656789 0 1 0 4.53125,-0.0312 l -0.40625,-48.75 a 2.2572257,2.2572257 0 0 0 -2.53125,-2.25 z"
         id="path11195"
         inkscape:connector-curvature="0" />
      <path
         style="color:#000000;font-style:normal;font-variant:normal;font-weight:normal;font-stretch:normal;font-size:medium;line-height:normal;font-family:Sans;-inkscape-font-specification:Sans;text-indent:0;text-align:start;text-decoration:none;text-decoration-line:none;letter-spacing:normal;word-spacing:normal;text-transform:none;direction:ltr;block-progression:tb;writing-mode:lr-tb;baseline-shift:baseline;text-anchor:start;display:inline;overflow:visible;visibility:visible;fill:#2d2d2d;fill-opacity:1;stroke:none;stroke-width:4.51399994;marker:none;enable-background:accumulate"
         d="m 446.78125,649.21875 a 2.2572257,2.2572257 0 0 0 -2,2.3125 L 445.1875,700.25 a 2.2656789,2.2656789 0 1 0 4.53125,-0.0312 l -0.40625,-48.75 a 2.2572257,2.2572257 0 0 0 -2.53125,-2.25 z"
         id="path11197"
         inkscape:connector-curvature="0" />
    </g>
    <g
       id="g11199"
       style="opacity:0.74634148;fill:#999999;fill-opacity:1"
       transform="matrix(0.30820483,0,0,0.32582854,-14.07134,832.85114)">
      <path
         inkscape:connector-curvature="0"
         id="path11164"
         d="m 156.25,596.09375 -65.78125,1 a 2.2658405,2.2658405 0 1 0 0.0625,4.53125 l 65.78125,-1 a 2.2658405,2.2658405 0 1 0 -0.0625,-4.53125 z"
         style="color:#000000;font-style:normal;font-variant:normal;font-weight:normal;font-stretch:normal;font-size:medium;line-height:normal;font-family:Sans;-inkscape-font-specification:Sans;text-indent:0;text-align:start;text-decoration:none;text-decoration-line:none;letter-spacing:normal;word-spacing:normal;text-transform:none;direction:ltr;block-progression:tb;writing-mode:lr-tb;baseline-shift:baseline;text-anchor:start;display:inline;overflow:visible;visibility:visible;fill:#999999;fill-opacity:1;stroke:none;stroke-width:4.51399994;marker:none;enable-background:accumulate" />
      <path
         inkscape:connector-curvature="0"
         id="path11166"
         d="m 89.78125,570.21875 a 2.2572257,2.2572257 0 0 0 -2,2.3125 L 88.1875,621.25 a 2.2656789,2.2656789 0 1 0 4.53125,-0.0312 l -0.40625,-48.75 a 2.2572257,2.2572257 0 0 0 -2.53125,-2.25 z"
         style="color:#000000;font-style:normal;font-variant:normal;font-weight:normal;font-stretch:normal;font-size:medium;line-height:normal;font-family:Sans;-inkscape-font-specification:Sans;text-indent:0;text-align:start;text-decoration:none;text-decoration-line:none;letter-spacing:normal;word-spacing:normal;text-transform:none;direction:ltr;block-progression:tb;writing-mode:lr-tb;baseline-shift:baseline;text-anchor:start;display:inline;overflow:visible;visibility:visible;fill:#999999;fill-opacity:1;stroke:none;stroke-width:4.51399994;marker:none;enable-background:accumulate" />
      <path
         inkscape:connector-curvature="0"
         id="path11170"
         d="m 121.78125,570.21875 a 2.2572257,2.2572257 0 0 0 -2,2.3125 L 120.1875,621.25 a 2.2656789,2.2656789 0 1 0 4.53125,-0.0312 l -0.40625,-48.75 a 2.2572257,2.2572257 0 0 0 -2.53125,-2.25 z"
         style="color:#000000;font-style:normal;font-variant:normal;font-weight:normal;font-stretch:normal;font-size:medium;line-height:normal;font-family:Sans;-inkscape-font-specification:Sans;text-indent:0;text-align:start;text-decoration:none;text-decoration-line:none;letter-spacing:normal;word-spacing:normal;text-transform:none;direction:ltr;block-progression:tb;writing-mode:lr-tb;baseline-shift:baseline;text-anchor:start;display:inline;overflow:visible;visibility:visible;fill:#999999;fill-opacity:1;stroke:none;stroke-width:4.51399994;marker:none;enable-background:accumulate" />
      <path
         inkscape:connector-curvature="0"
         id="path11172"
         d="m 155.78125,570.21875 a 2.2572257,2.2572257 0 0 0 -2,2.3125 L 154.1875,621.25 a 2.2656789,2.2656789 0 1 0 4.53125,-0.0312 l -0.40625,-48.75 a 2.2572257,2.2572257 0 0 0 -2.53125,-2.25 z"
         style="color:#000000;font-style:normal;font-variant:normal;font-weight:normal;font-stretch:normal;font-size:medium;line-height:normal;font-family:Sans;-inkscape-font-specification:Sans;text-indent:0;text-align:start;text-decoration:none;text-decoration-line:none;letter-spacing:normal;word-spacing:normal;text-transform:none;direction:ltr;block-progression:tb;writing-mode:lr-tb;baseline-shift:baseline;text-anchor:start;display:inline;overflow:visible;visibility:visible;fill:#999999;fill-opacity:1;stroke:none;stroke-width:4.51399994;marker:none;enable-background:accumulate" />
    </g>
    <g
       id="g11317"
       style="opacity:0.86829277;fill:#0e232e;fill-opacity:1;filter:url(#filter11445)"
       transform="matrix(0.25010054,0,0,0.26721226,-7.0920228,868.42947)">
      <g
         id="text11227"
         style="font-style:normal;font-variant:normal;font-weight:bold;font-stretch:normal;font-size:25.98058701px;line-height:125%;font-family:Arial;-inkscape-font-specification:'Arial Bold';text-align:start;letter-spacing:0px;word-spacing:0px;writing-mode:lr-tb;text-anchor:start;fill:#0e232e;fill-opacity:1;stroke:none">
        <path
           id="path11258"
           style="fill:#0e232e;fill-opacity:1"
           d="m 84.22131,559.36218 -3.564719,0 0,-13.4343 c -1.302417,1.21786 -2.837402,2.11855 -4.604957,2.70209 l 0,-3.23489 c 0.930291,-0.30445 1.940928,-0.88165 3.031914,-1.73162 1.090975,-0.84993 1.839439,-1.84154 2.245392,-2.97482 l 2.89237,0 z"
           inkscape:connector-curvature="0" />
      </g>
      <g
         id="text11231"
         style="font-style:normal;font-variant:normal;font-weight:bold;font-stretch:normal;font-size:25.98058701px;line-height:125%;font-family:Arial;-inkscape-font-specification:'Arial Bold';text-align:start;letter-spacing:0px;word-spacing:0px;writing-mode:lr-tb;text-anchor:start;fill:#0e232e;fill-opacity:1;stroke:none">
        <path
           id="path11267"
           style="fill:#0e232e;fill-opacity:1"
           d="m 88.139052,647.05118 0,3.311 -12.495546,0 c 0.135315,-1.25167 0.541261,-2.43779 1.21784,-3.55837 0.676575,-1.12058 2.012815,-2.60694 4.008724,-4.45907 1.606864,-1.49692 2.59213,-2.51179 2.955799,-3.0446 0.490509,-0.73577 0.735769,-1.46309 0.735778,-2.18197 -9e-6,-0.79496 -0.213554,-1.406 -0.640635,-1.8331 -0.427098,-0.42707 -1.016988,-0.64062 -1.769673,-0.64064 -0.744242,2e-5 -1.336247,0.22414 -1.776017,0.67235 -0.43978,0.44825 -0.693497,1.19249 -0.76115,2.23271 l -3.552033,-0.3552 c 0.211429,-1.96206 0.87532,-3.37019 1.991675,-4.22439 1.11635,-0.85416 2.51179,-1.28125 4.186326,-1.28126 1.835208,1e-5 3.277163,0.49476 4.325869,1.48424 1.048683,0.98951 1.57303,2.22003 1.573043,3.69158 -1.3e-5,0.83727 -0.150129,1.63437 -0.450347,2.39128 -0.300244,0.75693 -0.775962,1.54979 -1.427156,2.37859 -0.431329,0.54973 -1.209393,1.34048 -2.334194,2.37225 -1.124818,1.03179 -1.837338,1.71682 -2.137563,2.05511 -0.300237,0.33829 -0.543382,0.66812 -0.729435,0.98949 z"
           inkscape:connector-curvature="0" />
      </g>
      <g
         id="text11235"
         style="font-style:normal;font-variant:normal;font-weight:bold;font-stretch:normal;font-size:25.98058701px;line-height:125%;font-family:Arial;-inkscape-font-specification:'Arial Bold';text-align:start;letter-spacing:0px;word-spacing:0px;writing-mode:lr-tb;text-anchor:start;fill:#0e232e;fill-opacity:1;stroke:none">
        <path
           id="path11255"
           style="fill:#0e232e;fill-opacity:1"
           d="m 153.15093,554.57962 3.55204,-0.36789 c 0.10148,0.80344 0.40171,1.43985 0.90069,1.90922 0.49897,0.46938 1.07406,0.70407 1.72527,0.70407 0.74423,0 1.37429,-0.30235 1.89019,-0.90704 0.51588,-0.60469 0.77383,-1.51595 0.77384,-2.7338 -1e-5,-1.14172 -0.25584,-1.99801 -0.7675,-2.56888 -0.51167,-0.57085 -1.17767,-0.85628 -1.99801,-0.85629 -1.02333,10e-6 -1.94094,0.45247 -2.75283,1.35738 l -2.89237,-0.41863 1.82676,-9.67929 9.42557,0 0,3.33637 -6.72349,0 -0.55817,3.15877 c 0.79497,-0.39747 1.60686,-0.59622 2.43568,-0.59623 1.58149,10e-6 2.92196,0.5751 4.02141,1.72527 1.09942,1.1502 1.64914,2.64289 1.64915,4.4781 -1e-5,1.53076 -0.44401,2.8966 -1.33201,4.09753 -1.20939,1.6407 -2.88815,2.46105 -5.03627,2.46105 -1.71683,0 -3.1165,-0.46092 -4.19902,-1.38276 -1.08252,-0.92183 -1.7295,-2.16081 -1.94093,-3.71695 z"
           inkscape:connector-curvature="0" />
      </g>
      <g
         id="text11239"
         style="font-style:normal;font-variant:normal;font-weight:bold;font-stretch:normal;font-size:25.98058701px;line-height:125%;font-family:Arial;-inkscape-font-specification:'Arial Bold';text-align:start;letter-spacing:0px;word-spacing:0px;writing-mode:lr-tb;text-anchor:start;fill:#0e232e;fill-opacity:1;stroke:none">
        <path
           id="path11252"
           style="fill:#0e232e;fill-opacity:1"
           d="m 113.97334,554.42739 3.45054,-0.41863 c 0.10994,0.87956 0.40595,1.5519 0.88801,2.01705 0.48206,0.46515 1.06561,0.69772 1.75065,0.69772 0.73577,0 1.35526,-0.27909 1.85847,-0.83727 0.5032,-0.55817 0.7548,-1.31086 0.75481,-2.25807 -1e-5,-0.89646 -0.24104,-1.60687 -0.72309,-2.13122 -0.48207,-0.52434 -1.06985,-0.78652 -1.76333,-0.78653 -0.4567,1e-5 -1.00219,0.0888 -1.63648,0.26641 l 0.39326,-2.90506 c 0.96412,0.0254 1.6999,-0.18393 2.20734,-0.62795 0.50742,-0.44399 0.76114,-1.03388 0.76115,-1.76967 -1e-5,-0.62582 -0.18607,-1.1248 -0.55818,-1.49693 -0.37212,-0.3721 -0.86687,-0.55816 -1.48424,-0.55818 -0.60893,2e-5 -1.12904,0.21145 -1.56036,0.63429 -0.43132,0.42288 -0.69349,1.04026 -0.78652,1.85214 l -3.28563,-0.55818 c 0.22834,-1.1248 0.57298,-2.02337 1.0339,-2.69574 0.46091,-0.67233 1.10366,-1.20091 1.92824,-1.58573 0.82458,-0.38478 1.74853,-0.57719 2.77186,-0.5772 1.75063,1e-5 3.15453,0.55819 4.21169,1.67453 0.87109,0.91339 1.30663,1.94517 1.30664,3.09534 -1e-5,1.63226 -0.89224,2.93467 -2.67671,3.90724 1.0656,0.22835 1.91767,0.74001 2.5562,1.53498 0.63851,0.79499 0.95777,1.75488 0.95778,2.87969 -1e-5,1.63224 -0.59625,3.02346 -1.7887,4.17364 -1.19248,1.15018 -2.67672,1.72527 -4.45273,1.72527 -1.68299,0 -3.07843,-0.48418 -4.18633,-1.45253 -1.10789,-0.96835 -1.75064,-2.23482 -1.92824,-3.79941 z"
           inkscape:connector-curvature="0" />
      </g>
      <g
         id="text11243"
         style="font-style:normal;font-variant:normal;font-weight:bold;font-stretch:normal;font-size:25.98058701px;line-height:125%;font-family:Arial;-inkscape-font-specification:'Arial Bold';text-align:start;letter-spacing:0px;word-spacing:0px;writing-mode:lr-tb;text-anchor:start;fill:#0e232e;fill-opacity:1;stroke:none">
        <path
           id="path11264"
           style="fill:#0e232e;fill-opacity:1"
           d="m 122.09009,649.36218 0,-3.74232 -7.6115,0 0,-3.12071 8.06819,-11.81051 2.99386,0 0,11.79782 2.30882,0 0,3.1334 -2.30882,0 0,3.74232 z m 0,-6.87572 0,-6.3556 -4.27513,6.3556 z"
           inkscape:connector-curvature="0" />
      </g>
      <g
         id="text11247"
         style="font-style:normal;font-variant:normal;font-weight:bold;font-stretch:normal;font-size:23.18659019px;line-height:125%;font-family:Arial;-inkscape-font-specification:'Arial Bold';text-align:start;letter-spacing:0px;word-spacing:0px;writing-mode:lr-tb;text-anchor:start;fill:#0e232e;fill-opacity:1;stroke:none">
        <path
           id="path11261"
           style="fill:#0e232e;fill-opacity:1"
           d="m 155.79844,647.36218 0,-16.59743 7.05334,0 c 1.77371,2e-5 3.06248,0.14908 3.86632,0.4472 0.80382,0.29815 1.44726,0.82838 1.93033,1.59068 0.48304,0.76234 0.72457,1.6341 0.72458,2.61529 -1e-5,1.24538 -0.36608,2.27376 -1.09819,3.08513 -0.73214,0.81139 -1.82656,1.32274 -3.28326,1.53407 0.72457,0.42268 1.32273,0.88687 1.79447,1.39256 0.47172,0.5057 1.10762,1.40388 1.90769,2.69453 l 2.02656,3.23797 -4.00784,0 -2.42282,-3.61158 c -0.86045,-1.29066 -1.44917,-2.10392 -1.76616,-2.4398 -0.31701,-0.33587 -0.65289,-0.56607 -1.00762,-0.69062 -0.35475,-0.12453 -0.91706,-0.1868 -1.68692,-0.1868 l -0.67929,0 0,6.9288 z m 3.35119,-9.57805 2.47942,0 c 1.60766,10e-6 2.6115,-0.0679 3.01154,-0.20379 0.40002,-0.13585 0.71325,-0.36983 0.93969,-0.70194 0.22642,-0.33209 0.33964,-0.74721 0.33965,-1.24537 -1e-5,-0.55852 -0.14908,-1.0095 -0.4472,-1.35293 -0.29815,-0.34341 -0.71893,-0.5604 -1.26236,-0.65099 -0.27172,-0.0377 -1.08688,-0.0566 -2.44546,-0.0566 l -2.61528,0 z"
           inkscape:connector-curvature="0" />
      </g>
    </g>
    <g
       transform="matrix(0.25010054,0,0,0.26721226,-7.0920228,868.16223)"
       style="opacity:0.86829277;fill:#cccccc;fill-opacity:1"
       id="g11449">
      <g
         style="font-style:normal;font-variant:normal;font-weight:bold;font-stretch:normal;font-size:25.98058701px;line-height:125%;font-family:Arial;-inkscape-font-specification:'Arial Bold';text-align:start;letter-spacing:0px;word-spacing:0px;writing-mode:lr-tb;text-anchor:start;fill:#cccccc;fill-opacity:1;stroke:none"
         id="g11451">
        <path
           inkscape:connector-curvature="0"
           d="m 84.22131,559.36218 -3.564719,0 0,-13.4343 c -1.302417,1.21786 -2.837402,2.11855 -4.604957,2.70209 l 0,-3.23489 c 0.930291,-0.30445 1.940928,-0.88165 3.031914,-1.73162 1.090975,-0.84993 1.839439,-1.84154 2.245392,-2.97482 l 2.89237,0 z"
           style="fill:#cccccc;fill-opacity:1"
           id="path11453" />
      </g>
      <g
         style="font-style:normal;font-variant:normal;font-weight:bold;font-stretch:normal;font-size:25.98058701px;line-height:125%;font-family:Arial;-inkscape-font-specification:'Arial Bold';text-align:start;letter-spacing:0px;word-spacing:0px;writing-mode:lr-tb;text-anchor:start;fill:#cccccc;fill-opacity:1;stroke:none"
         id="g11455">
        <path
           inkscape:connector-curvature="0"
           d="m 88.139052,647.05118 0,3.311 -12.495546,0 c 0.135315,-1.25167 0.541261,-2.43779 1.21784,-3.55837 0.676575,-1.12058 2.012815,-2.60694 4.008724,-4.45907 1.606864,-1.49692 2.59213,-2.51179 2.955799,-3.0446 0.490509,-0.73577 0.735769,-1.46309 0.735778,-2.18197 -9e-6,-0.79496 -0.213554,-1.406 -0.640635,-1.8331 -0.427098,-0.42707 -1.016988,-0.64062 -1.769673,-0.64064 -0.744242,2e-5 -1.336247,0.22414 -1.776017,0.67235 -0.43978,0.44825 -0.693497,1.19249 -0.76115,2.23271 l -3.552033,-0.3552 c 0.211429,-1.96206 0.87532,-3.37019 1.991675,-4.22439 1.11635,-0.85416 2.51179,-1.28125 4.186326,-1.28126 1.835208,1e-5 3.277163,0.49476 4.325869,1.48424 1.048683,0.98951 1.57303,2.22003 1.573043,3.69158 -1.3e-5,0.83727 -0.150129,1.63437 -0.450347,2.39128 -0.300244,0.75693 -0.775962,1.54979 -1.427156,2.37859 -0.431329,0.54973 -1.209393,1.34048 -2.334194,2.37225 -1.124818,1.03179 -1.837338,1.71682 -2.137563,2.05511 -0.300237,0.33829 -0.543382,0.66812 -0.729435,0.98949 z"
           style="fill:#cccccc;fill-opacity:1"
           id="path11457" />
      </g>
      <g
         style="font-style:normal;font-variant:normal;font-weight:bold;font-stretch:normal;font-size:25.98058701px;line-height:125%;font-family:Arial;-inkscape-font-specification:'Arial Bold';text-align:start;letter-spacing:0px;word-spacing:0px;writing-mode:lr-tb;text-anchor:start;fill:#cccccc;fill-opacity:1;stroke:none"
         id="g11459">
        <path
           inkscape:connector-curvature="0"
           d="m 153.15093,554.57962 3.55204,-0.36789 c 0.10148,0.80344 0.40171,1.43985 0.90069,1.90922 0.49897,0.46938 1.07406,0.70407 1.72527,0.70407 0.74423,0 1.37429,-0.30235 1.89019,-0.90704 0.51588,-0.60469 0.77383,-1.51595 0.77384,-2.7338 -1e-5,-1.14172 -0.25584,-1.99801 -0.7675,-2.56888 -0.51167,-0.57085 -1.17767,-0.85628 -1.99801,-0.85629 -1.02333,10e-6 -1.94094,0.45247 -2.75283,1.35738 l -2.89237,-0.41863 1.82676,-9.67929 9.42557,0 0,3.33637 -6.72349,0 -0.55817,3.15877 c 0.79497,-0.39747 1.60686,-0.59622 2.43568,-0.59623 1.58149,10e-6 2.92196,0.5751 4.02141,1.72527 1.09942,1.1502 1.64914,2.64289 1.64915,4.4781 -1e-5,1.53076 -0.44401,2.8966 -1.33201,4.09753 -1.20939,1.6407 -2.88815,2.46105 -5.03627,2.46105 -1.71683,0 -3.1165,-0.46092 -4.19902,-1.38276 -1.08252,-0.92183 -1.7295,-2.16081 -1.94093,-3.71695 z"
           style="fill:#cccccc;fill-opacity:1"
           id="path11461" />
      </g>
      <g
         style="font-style:normal;font-variant:normal;font-weight:bold;font-stretch:normal;font-size:25.98058701px;line-height:125%;font-family:Arial;-inkscape-font-specification:'Arial Bold';text-align:start;letter-spacing:0px;word-spacing:0px;writing-mode:lr-tb;text-anchor:start;fill:#cccccc;fill-opacity:1;stroke:none"
         id="g11463">
        <path
           inkscape:connector-curvature="0"
           d="m 113.97334,554.42739 3.45054,-0.41863 c 0.10994,0.87956 0.40595,1.5519 0.88801,2.01705 0.48206,0.46515 1.06561,0.69772 1.75065,0.69772 0.73577,0 1.35526,-0.27909 1.85847,-0.83727 0.5032,-0.55817 0.7548,-1.31086 0.75481,-2.25807 -1e-5,-0.89646 -0.24104,-1.60687 -0.72309,-2.13122 -0.48207,-0.52434 -1.06985,-0.78652 -1.76333,-0.78653 -0.4567,1e-5 -1.00219,0.0888 -1.63648,0.26641 l 0.39326,-2.90506 c 0.96412,0.0254 1.6999,-0.18393 2.20734,-0.62795 0.50742,-0.44399 0.76114,-1.03388 0.76115,-1.76967 -1e-5,-0.62582 -0.18607,-1.1248 -0.55818,-1.49693 -0.37212,-0.3721 -0.86687,-0.55816 -1.48424,-0.55818 -0.60893,2e-5 -1.12904,0.21145 -1.56036,0.63429 -0.43132,0.42288 -0.69349,1.04026 -0.78652,1.85214 l -3.28563,-0.55818 c 0.22834,-1.1248 0.57298,-2.02337 1.0339,-2.69574 0.46091,-0.67233 1.10366,-1.20091 1.92824,-1.58573 0.82458,-0.38478 1.74853,-0.57719 2.77186,-0.5772 1.75063,1e-5 3.15453,0.55819 4.21169,1.67453 0.87109,0.91339 1.30663,1.94517 1.30664,3.09534 -1e-5,1.63226 -0.89224,2.93467 -2.67671,3.90724 1.0656,0.22835 1.91767,0.74001 2.5562,1.53498 0.63851,0.79499 0.95777,1.75488 0.95778,2.87969 -1e-5,1.63224 -0.59625,3.02346 -1.7887,4.17364 -1.19248,1.15018 -2.67672,1.72527 -4.45273,1.72527 -1.68299,0 -3.07843,-0.48418 -4.18633,-1.45253 -1.10789,-0.96835 -1.75064,-2.23482 -1.92824,-3.79941 z"
           style="fill:#cccccc;fill-opacity:1"
           id="path11465" />
      </g>
      <g
         style="font-style:normal;font-variant:normal;font-weight:bold;font-stretch:normal;font-size:25.98058701px;line-height:125%;font-family:Arial;-inkscape-font-specification:'Arial Bold';text-align:start;letter-spacing:0px;word-spacing:0px;writing-mode:lr-tb;text-anchor:start;fill:#cccccc;fill-opacity:1;stroke:none"
         id="g11467">
        <path
           inkscape:connector-curvature="0"
           d="m 122.09009,649.36218 0,-3.74232 -7.6115,0 0,-3.12071 8.06819,-11.81051 2.99386,0 0,11.79782 2.30882,0 0,3.1334 -2.30882,0 0,3.74232 z m 0,-6.87572 0,-6.3556 -4.27513,6.3556 z"
           style="fill:#cccccc;fill-opacity:1"
           id="path11469" />
      </g>
      <g
         style="font-style:normal;font-variant:normal;font-weight:bold;font-stretch:normal;font-size:23.18659019px;line-height:125%;font-family:Arial;-inkscape-font-specification:'Arial Bold';text-align:start;letter-spacing:0px;word-spacing:0px;writing-mode:lr-tb;text-anchor:start;fill:#cccccc;fill-opacity:1;stroke:none"
         id="g11471">
        <path
           inkscape:connector-curvature="0"
           d="m 155.79844,647.36218 0,-16.59743 7.05334,0 c 1.77371,2e-5 3.06248,0.14908 3.86632,0.4472 0.80382,0.29815 1.44726,0.82838 1.93033,1.59068 0.48304,0.76234 0.72457,1.6341 0.72458,2.61529 -1e-5,1.24538 -0.36608,2.27376 -1.09819,3.08513 -0.73214,0.81139 -1.82656,1.32274 -3.28326,1.53407 0.72457,0.42268 1.32273,0.88687 1.79447,1.39256 0.47172,0.5057 1.10762,1.40388 1.90769,2.69453 l 2.02656,3.23797 -4.00784,0 -2.42282,-3.61158 c -0.86045,-1.29066 -1.44917,-2.10392 -1.76616,-2.4398 -0.31701,-0.33587 -0.65289,-0.56607 -1.00762,-0.69062 -0.35475,-0.12453 -0.91706,-0.1868 -1.68692,-0.1868 l -0.67929,0 0,6.9288 z m 3.35119,-9.57805 2.47942,0 c 1.60766,10e-6 2.6115,-0.0679 3.01154,-0.20379 0.40002,-0.13585 0.71325,-0.36983 0.93969,-0.70194 0.22642,-0.33209 0.33964,-0.74721 0.33965,-1.24537 -1e-5,-0.55852 -0.14908,-1.0095 -0.4472,-1.35293 -0.29815,-0.34341 -0.71893,-0.5604 -1.26236,-0.65099 -0.27172,-0.0377 -1.08688,-0.0566 -2.44546,-0.0566 l -2.61528,0 z"
           style="fill:#cccccc;fill-opacity:1"
           id="path11473" />
      </g>
    </g>
    <rect
       style="opacity:0;fill:#666666;fill-opacity:1;stroke:#645757;stroke-width:0.53359824;stroke-linecap:round;stroke-linejoin:round;stroke-miterlimit:4;stroke-dasharray:none;stroke-dashoffset:0;stroke-opacity:1"
       id="rect11558"
       width="63.019371"
       height="62.920921"
       x="0.26688391"
       y="988.62927"
       ry="0.47494653" />
  </g>
</svg>
