#define sequent_width 16
#define sequent_height 16
static unsigned char sequent_bits[] = {
   0x0c, 0x00, 0x0c, 0x00, 0x0c, 0x00, 0x0c, 0x00, 0x0c, 0x00, 0x0c, 0x00,
   0x0c, 0x00, 0xfc, 0x1f, 0xfc, 0x1f, 0x0c, 0x00, 0x0c, 0x00, 0x0c, 0x00,
   0x0c, 0x00, 0x0c, 0x00, 0x0c, 0x00, 0x0c, 0x00};
