<?xml version="1.0" encoding="UTF-8" standalone="no"?>
<!-- Created with Inkscape (http://www.inkscape.org/) -->

<svg
   xmlns:dc="http://purl.org/dc/elements/1.1/"
   xmlns:cc="http://creativecommons.org/ns#"
   xmlns:rdf="http://www.w3.org/1999/02/22-rdf-syntax-ns#"
   xmlns:svg="http://www.w3.org/2000/svg"
   xmlns="http://www.w3.org/2000/svg"
   xmlns:sodipodi="http://sodipodi.sourceforge.net/DTD/sodipodi-0.dtd"
   xmlns:inkscape="http://www.inkscape.org/namespaces/inkscape"
   viewBox="0 0 37.894834 95.544687"
   id="svg4199"
   version="1.1"
   inkscape:version="0.91 r13725"
   sodipodi:docname="gauge-pointer-3.svg">
  <defs
     id="defs4201" />
  <sodipodi:namedview
     id="base"
     pagecolor="#ffffff"
     bordercolor="#666666"
     borderopacity="1.0"
     inkscape:pageopacity="0.0"
     inkscape:pageshadow="2"
     inkscape:zoom="3.959798"
     inkscape:cx="-53.589781"
     inkscape:cy="30.995981"
     inkscape:document-units="px"
     inkscape:current-layer="layer1"
     showgrid="false"
     fit-margin-top="0"
     fit-margin-left="0"
     fit-margin-right="0"
     fit-margin-bottom="0"
     inkscape:window-width="1855"
     inkscape:window-height="1056"
     inkscape:window-x="65"
     inkscape:window-y="24"
     inkscape:window-maximized="1" />
  <metadata
     id="metadata4204">
    <rdf:RDF>
      <cc:Work
         rdf:about="">
        <dc:format>image/svg+xml</dc:format>
        <dc:type
           rdf:resource="http://purl.org/dc/dcmitype/StillImage" />
        <dc:title></dc:title>
      </cc:Work>
    </rdf:RDF>
  </metadata>
  <g
     inkscape:label="Layer 1"
     inkscape:groupmode="layer"
     id="layer1"
     transform="translate(-335.87637,-578.68671)">
    <path
       id="path184"
       style="fill:#ee2132;fill-opacity:1;fill-rule:evenodd;stroke:none"
       d="m 359.51514,618.46891 -2.7496,55.76248 -2.98951,-1e-5 -2.79113,-55.75279 c 2.84938,0.55804 5.74653,0.54039 8.53024,-0.01"
       inkscape:connector-curvature="0" />
    <path
       id="path186"
       style="fill:#ee2132;fill-opacity:1;fill-rule:evenodd;stroke:none"
       d="m 339.69268,586.23293 c 6.29739,-8.35692 18.17776,-10.02755 26.53361,-3.73096 8.35479,6.29579 10.02674,18.17881 3.72935,26.53574 -6.29659,8.35586 -18.18094,10.02514 -26.53574,3.72935 -8.35585,-6.29659 -10.02381,-18.17827 -3.72722,-26.53413 z m 3.76424,2.83655 c -4.73027,6.27728 -3.47506,15.20176 2.80114,19.93122 6.27622,4.72946 15.20202,3.47693 19.93229,-2.80035 4.72946,-6.27621 3.47479,-15.20361 -2.80142,-19.93308 -6.27621,-4.72946 -15.20255,-3.474 -19.93201,2.80221"
       inkscape:connector-curvature="0" />
  </g>
</svg>
