<?xml version="1.0" encoding="UTF-8" standalone="no"?>
<!-- Created with Inkscape (http://www.inkscape.org/) -->

<svg
   xmlns:dc="http://purl.org/dc/elements/1.1/"
   xmlns:cc="http://creativecommons.org/ns#"
   xmlns:rdf="http://www.w3.org/1999/02/22-rdf-syntax-ns#"
   xmlns:svg="http://www.w3.org/2000/svg"
   xmlns="http://www.w3.org/2000/svg"
   xmlns:sodipodi="http://sodipodi.sourceforge.net/DTD/sodipodi-0.dtd"
   xmlns:inkscape="http://www.inkscape.org/namespaces/inkscape"
   width="6.0484509mm"
   height="23.830072mm"
   viewBox="0 0 21.431519 84.437264"
   id="svg6633"
   version="1.1"
   inkscape:version="0.91 r13725"
   sodipodi:docname="gauge-sport-pointer-5.svg">
  <defs
     id="defs6635">
    <clipPath
       id="clipPath700"
       clipPathUnits="userSpaceOnUse">
      <path
         inkscape:connector-curvature="0"
         id="path702"
         d="m 4924.14,3603.64 c 1.16,33.77 29.49,60.22 63.27,59.05 33.81,-1.16 60.25,-29.52 59.08,-63.28 -1.16,-33.82 -29.51,-60.27 -63.31,-59.1 -33.78,1.17 -60.21,29.51 -59.04,63.33 z" />
    </clipPath>
    <radialGradient
       id="radialGradient704"
       spreadMethod="pad"
       gradientTransform="matrix(122.122,-4.22534,-4.22534,-122.122,4941.46,3621.85)"
       gradientUnits="userSpaceOnUse"
       r="1"
       cy="0"
       cx="0"
       fy="0"
       fx="0">
      <stop
         id="stop706"
         offset="0"
         style="stop-opacity:1;stop-color:#ffffff" />
      <stop
         id="stop708"
         offset="0.0181818"
         style="stop-opacity:1;stop-color:#ffffff" />
      <stop
         id="stop710"
         offset="1"
         style="stop-opacity:1;stop-color:#000000" />
    </radialGradient>
    <clipPath
       id="clipPath682"
       clipPathUnits="userSpaceOnUse">
      <path
         inkscape:connector-curvature="0"
         id="path684"
         d="m 4899.67,3604.49 c 1.63,47.28 41.29,84.3 88.57,82.67 47.35,-1.64 84.38,-41.31 82.74,-88.6 -1.63,-47.33 -41.32,-84.36 -88.66,-82.72 -47.29,1.63 -84.29,41.31 -82.65,88.65 z" />
    </clipPath>
    <linearGradient
       id="linearGradient686"
       spreadMethod="pad"
       gradientTransform="matrix(171.304,-5.92702,-5.92702,-171.304,4899.67,3604.46)"
       gradientUnits="userSpaceOnUse"
       y2="0"
       x2="1"
       y1="0"
       x1="0">
      <stop
         id="stop688"
         offset="0"
         style="stop-opacity:1;stop-color:#ffffff" />
      <stop
         id="stop690"
         offset="0.0181818"
         style="stop-opacity:1;stop-color:#ffffff" />
      <stop
         id="stop692"
         offset="1"
         style="stop-opacity:1;stop-color:#000000" />
    </linearGradient>
    <clipPath
       id="clipPath664"
       clipPathUnits="userSpaceOnUse">
      <path
         inkscape:connector-curvature="0"
         id="path666"
         d="m 5554.44,3506.03 -416.73,134.19 c -35.6,11.46 -71.87,20.96 -108.54,28.56 3.12,-42.74 -9.92,-84.3 -18.96,-127.13 35.94,-7.05 72.22,-12.52 108.65,-16.22 l 430.38,-43.7 c 17.69,-1.8 22.12,18.85 5.2,24.3 z" />
    </clipPath>
    <radialGradient
       id="radialGradient668"
       spreadMethod="pad"
       gradientTransform="matrix(348.98,-211.279,-211.279,-348.98,5016.55,3597.8)"
       gradientUnits="userSpaceOnUse"
       r="1"
       cy="0"
       cx="0"
       fy="0"
       fx="0">
      <stop
         id="stop670"
         offset="0"
         style="stop-opacity:1;stop-color:#000000" />
      <stop
         id="stop672"
         offset="0.55896837"
         style="stop-opacity:1;stop-color:#ed1c24" />
      <stop
         id="stop674"
         offset="1"
         style="stop-opacity:1;stop-color:#ed1c24" />
    </radialGradient>
  </defs>
  <sodipodi:namedview
     id="base"
     pagecolor="#ffffff"
     bordercolor="#666666"
     borderopacity="1.0"
     inkscape:pageopacity="0.0"
     inkscape:pageshadow="2"
     inkscape:zoom="2.8"
     inkscape:cx="-31.293233"
     inkscape:cy="-34.286347"
     inkscape:document-units="px"
     inkscape:current-layer="layer1"
     showgrid="false"
     fit-margin-top="0"
     fit-margin-left="0"
     fit-margin-right="0"
     fit-margin-bottom="0"
     inkscape:window-width="1855"
     inkscape:window-height="1056"
     inkscape:window-x="65"
     inkscape:window-y="24"
     inkscape:window-maximized="1" />
  <metadata
     id="metadata6638">
    <rdf:RDF>
      <cc:Work
         rdf:about="">
        <dc:format>image/svg+xml</dc:format>
        <dc:type
           rdf:resource="http://purl.org/dc/dcmitype/StillImage" />
        <dc:title></dc:title>
      </cc:Work>
    </rdf:RDF>
  </metadata>
  <g
     inkscape:label="Layer 1"
     inkscape:groupmode="layer"
     id="layer1"
     transform="translate(-365.83632,-472.14488)">
    <g
       id="g9654"
       transform="matrix(0.2079117,0.9781476,-0.9781476,0.2079117,799.83759,35.966432)">
      <g
         transform="matrix(0.125,0,0,-0.125,-274.0428,957.1367)"
         id="g660">
        <g
           id="g662"
           clip-path="url(#clipPath664)">
          <path
             inkscape:connector-curvature="0"
             d="m 5554.44,3506.03 -416.73,134.19 c -35.6,11.46 -71.87,20.96 -108.54,28.56 3.12,-42.74 -9.92,-84.3 -18.96,-127.13 35.94,-7.05 72.22,-12.52 108.65,-16.22 l 430.38,-43.7 c 17.69,-1.8 22.12,18.85 5.2,24.3"
             style="fill:url(#radialGradient668);fill-opacity:1;fill-rule:nonzero;stroke:none"
             id="path676" />
        </g>
      </g>
      <g
         transform="matrix(0.125,0,0,-0.125,-274.0428,957.1367)"
         id="g678">
        <g
           id="g680"
           clip-path="url(#clipPath682)">
          <path
             inkscape:connector-curvature="0"
             d="m 4899.67,3604.49 c 1.63,47.28 41.29,84.3 88.57,82.67 47.35,-1.64 84.38,-41.31 82.74,-88.6 -1.63,-47.33 -41.32,-84.36 -88.66,-82.72 -47.29,1.63 -84.29,41.31 -82.65,88.65"
             style="fill:url(#linearGradient686);fill-opacity:1;fill-rule:nonzero;stroke:none"
             id="path694" />
        </g>
      </g>
      <g
         transform="matrix(0.125,0,0,-0.125,-274.0428,957.1367)"
         id="g696">
        <g
           id="g698"
           clip-path="url(#clipPath700)">
          <path
             inkscape:connector-curvature="0"
             d="m 4924.14,3603.64 c 1.16,33.77 29.49,60.22 63.27,59.05 33.81,-1.16 60.25,-29.52 59.08,-63.28 -1.16,-33.82 -29.51,-60.27 -63.31,-59.1 -33.78,1.17 -60.21,29.51 -59.04,63.33"
             style="fill:url(#radialGradient704);fill-opacity:1;fill-rule:nonzero;stroke:none"
             id="path712" />
        </g>
      </g>
    </g>
  </g>
</svg>
