<?xml version="1.0" encoding="UTF-8" standalone="no"?>
<svg
   xmlns:dc="http://purl.org/dc/elements/1.1/"
   xmlns:cc="http://creativecommons.org/ns#"
   xmlns:rdf="http://www.w3.org/1999/02/22-rdf-syntax-ns#"
   xmlns:svg="http://www.w3.org/2000/svg"
   xmlns="http://www.w3.org/2000/svg"
   xmlns:sodipodi="http://sodipodi.sourceforge.net/DTD/sodipodi-0.dtd"
   xmlns:inkscape="http://www.inkscape.org/namespaces/inkscape"
   viewBox="0 0 51 178"
   xml:space="preserve"
   version="1.1"
   id="svg2"
   inkscape:version="0.91 r13725"
   sodipodi:docname="new-pointer.svg"><sodipodi:namedview
     pagecolor="#ffffff"
     bordercolor="#666666"
     borderopacity="1"
     objecttolerance="10"
     gridtolerance="10"
     guidetolerance="10"
     inkscape:pageopacity="0"
     inkscape:pageshadow="2"
     inkscape:window-width="1917"
     inkscape:window-height="971"
     id="namedview930"
     showgrid="false"
     inkscape:showpageshadow="false"
     inkscape:zoom="2.5173333"
     inkscape:cx="256.81188"
     inkscape:cy="105.34063"
     inkscape:window-x="0"
     inkscape:window-y="0"
     inkscape:window-maximized="0"
     inkscape:current-layer="svg2" /><metadata
     id="metadata8"><rdf:RDF><cc:Work
         rdf:about=""><dc:format>image/svg+xml</dc:format><dc:type
           rdf:resource="http://purl.org/dc/dcmitype/StillImage" /><dc:title></dc:title></cc:Work></rdf:RDF></metadata><defs
     id="defs6"><clipPath
       id="clipPath20"
       clipPathUnits="userSpaceOnUse"><path
         id="path22"
         d="m 4881.96,626.211 c 0,-18.371 -12.61,-33.215 -28.16,-33.215 l -663.64,0 c -15.55,0 -28.2,14.844 -28.2,33.215 l 0,88.633 c 0,18.371 12.65,33.23 28.2,33.23 l 663.64,0 c 15.55,0 28.16,-14.859 28.16,-33.23 l 0,-88.633"
         inkscape:connector-curvature="0" /></clipPath><clipPath
       id="clipPath32"
       clipPathUnits="userSpaceOnUse"><path
         id="path34"
         d="m 4289.35,628.672 c 0,-7.481 -6.42,-13.527 -14.39,-13.527 l -59.85,0 c -7.95,0 -14.36,6.046 -14.36,13.527 l 0,83.719 c 0,7.472 6.41,13.527 14.36,13.527 l 59.85,0 c 7.97,0 14.39,-6.055 14.39,-13.527 l 0,-83.719"
         inkscape:connector-curvature="0" /></clipPath><clipPath
       id="clipPath54"
       clipPathUnits="userSpaceOnUse"><path
         id="path56"
         d="m 4400.1,628.672 c 0,-7.481 -6.39,-13.527 -14.36,-13.527 l -59.86,0 c -7.93,0 -14.39,6.046 -14.39,13.527 l 0,83.719 c 0,7.472 6.46,13.527 14.39,13.527 l 59.86,0 c 7.97,0 14.36,-6.055 14.36,-13.527 l 0,-83.719"
         inkscape:connector-curvature="0" /></clipPath><clipPath
       id="clipPath76"
       clipPathUnits="userSpaceOnUse"><path
         id="path78"
         d="m 4510.9,628.672 c 0,-7.481 -6.48,-13.527 -14.38,-13.527 l -59.86,0 c -7.93,0 -14.37,6.046 -14.37,13.527 l 0,83.719 c 0,7.472 6.44,13.527 14.37,13.527 l 59.86,0 c 7.9,0 14.38,-6.055 14.38,-13.527 l 0,-83.719"
         inkscape:connector-curvature="0" /></clipPath><clipPath
       id="clipPath98"
       clipPathUnits="userSpaceOnUse"><path
         id="path100"
         d="m 4732.4,628.672 c 0,-7.481 -6.39,-13.527 -14.34,-13.527 l -59.88,0 c -7.93,0 -14.37,6.046 -14.37,13.527 l 0,83.719 c 0,7.472 6.44,13.527 14.37,13.527 l 59.88,0 c 7.95,0 14.34,-6.055 14.34,-13.527 l 0,-83.719"
         inkscape:connector-curvature="0" /></clipPath><clipPath
       id="clipPath120"
       clipPathUnits="userSpaceOnUse"><path
         id="path122"
         d="m 4621.66,628.672 c 0,-7.481 -6.44,-13.527 -14.34,-13.527 l -59.88,0 c -7.97,0 -14.37,6.046 -14.37,13.527 l 0,83.719 c 0,7.472 6.4,13.527 14.37,13.527 l 59.88,0 c 7.9,0 14.34,-6.055 14.34,-13.527 l 0,-83.719"
         inkscape:connector-curvature="0" /></clipPath><clipPath
       id="clipPath142"
       clipPathUnits="userSpaceOnUse"><path
         id="path144"
         d="m 4843.2,628.672 c 0,-7.481 -6.4,-13.527 -14.37,-13.527 l -59.87,0 c -7.91,0 -14.37,6.046 -14.37,13.527 l 0,83.719 c 0,7.472 6.46,13.527 14.37,13.527 l 59.87,0 c 7.97,0 14.37,-6.055 14.37,-13.527 l 0,-83.719"
         inkscape:connector-curvature="0" /></clipPath><clipPath
       id="clipPath446"
       clipPathUnits="userSpaceOnUse"><path
         id="path448"
         d="m 4617.63,1404 c 17.88,-53.3 -10.81,-111.01 -64.15,-128.89 -53.32,-17.91 -111.04,10.83 -128.93,64.16 -17.87,53.32 10.86,111.02 64.2,128.93 53.29,17.88 111,-10.85 128.88,-64.2"
         inkscape:connector-curvature="0" /></clipPath><clipPath
       id="clipPath460"
       clipPathUnits="userSpaceOnUse"><path
         id="path462"
         d="m 1665.81,1458.19 c 54.21,-44.78 61.87,-125.02 17.07,-179.24 -44.83,-54.24 -125.06,-61.86 -179.25,-17.04 -54.24,44.76 -61.86,125.02 -17.06,179.24 44.77,54.21 125.02,61.86 179.24,17.04"
         inkscape:connector-curvature="0" /></clipPath><clipPath
       id="clipPath958"
       clipPathUnits="userSpaceOnUse"><path
         id="path960"
         d="m 4382.79,2924.8 c -781.95,0 -1415.83,633.93 -1415.83,1415.86 0,781.96 633.88,1415.85 1415.83,1415.85 781.97,0 1415.85,-633.89 1415.85,-1415.85 0,-781.93 -633.88,-1415.86 -1415.85,-1415.86 m 0,2885.86 c -811.85,0 -1470,-658.12 -1470,-1470 0,-811.86 658.15,-1469.99 1470,-1469.99 811.87,0 1470,658.13 1470,1469.99 0,811.88 -658.13,1470 -1470,1470"
         inkscape:connector-curvature="0" /></clipPath><clipPath
       id="clipPath970"
       clipPathUnits="userSpaceOnUse"><path
         id="path972"
         d="m 4382.79,3009.92 c -734.95,0 -1330.74,595.8 -1330.74,1330.74 0,734.95 595.79,1330.75 1330.74,1330.75 734.95,0 1330.77,-595.8 1330.77,-1330.75 0,-734.94 -595.82,-1330.74 -1330.77,-1330.74 m 0,2746.59 c -781.95,0 -1415.83,-633.89 -1415.83,-1415.85 0,-781.93 633.88,-1415.86 1415.83,-1415.86 781.97,0 1415.85,633.93 1415.85,1415.86 0,781.96 -633.88,1415.85 -1415.85,1415.85"
         inkscape:connector-curvature="0" /></clipPath><clipPath
       id="clipPath988"
       clipPathUnits="userSpaceOnUse"><path
         id="path990"
         d="m 4576.21,4340.66 c 0,-106.82 -86.6,-193.43 -193.42,-193.43 -106.81,0 -193.41,86.61 -193.41,193.43 0,106.82 86.6,193.41 193.41,193.41 106.82,0 193.42,-86.59 193.42,-193.41"
         inkscape:connector-curvature="0" /></clipPath><clipPath
       id="clipPath1256"
       clipPathUnits="userSpaceOnUse"><path
         id="path1258"
         d="m 4885.7,3362.64 c 0,-25.66 -17.66,-46.41 -39.37,-46.41 l -927.09,0 c -21.72,0 -39.35,20.75 -39.35,46.41 l 0,123.81 c 0,25.66 17.63,46.41 39.35,46.41 l 927.09,0 c 21.71,0 39.37,-20.75 39.37,-46.41 l 0,-123.81"
         inkscape:connector-curvature="0" /></clipPath><clipPath
       id="clipPath1268"
       clipPathUnits="userSpaceOnUse"><path
         id="path1270"
         d="m 4057.83,3366.09 c 0,-10.45 -8.98,-18.9 -20.09,-18.9 l -83.61,0 c -11.11,0 -20.08,8.45 -20.08,18.9 l 0,116.9 c 0,10.46 8.97,18.92 20.08,18.92 l 83.61,0 c 11.11,0 20.09,-8.46 20.09,-18.92 l 0,-116.9"
         inkscape:connector-curvature="0" /></clipPath><clipPath
       id="clipPath1288"
       clipPathUnits="userSpaceOnUse"><path
         id="path1290"
         d="m 4036.87,3425.84 c 0,-41.01 -15.23,-63.64 -41.96,-63.64 -23.55,0 -39.53,22.05 -39.87,61.99 0,40.44 17.42,62.69 41.91,62.69 25.44,0 39.92,-22.64 39.92,-61.04 z m -65.51,-1.84 c 0,-31.37 9.63,-49.2 24.5,-49.2 16.68,0 24.65,19.5 24.65,50.27 0,29.72 -7.6,49.22 -24.47,49.22 -14.29,0 -24.68,-17.46 -24.68,-50.29"
         inkscape:connector-curvature="0" /></clipPath><clipPath
       id="clipPath1304"
       clipPathUnits="userSpaceOnUse"><path
         id="path1306"
         d="m 4212.57,3366.09 c 0,-10.45 -8.98,-18.9 -20.09,-18.9 l -83.61,0 c -11.1,0 -20.08,8.45 -20.08,18.9 l 0,116.9 c 0,10.46 8.98,18.92 20.08,18.92 l 83.61,0 c 11.11,0 20.09,-8.46 20.09,-18.92 l 0,-116.9"
         inkscape:connector-curvature="0" /></clipPath><clipPath
       id="clipPath1324"
       clipPathUnits="userSpaceOnUse"><path
         id="path1326"
         d="m 4191.61,3425.84 c 0,-41.01 -15.24,-63.64 -41.96,-63.64 -23.56,0 -39.54,22.05 -39.88,61.99 0,40.44 17.43,62.69 41.93,62.69 25.43,0 39.91,-22.64 39.91,-61.04 z m -65.52,-1.84 c 0,-31.37 9.65,-49.2 24.5,-49.2 16.71,0 24.69,19.5 24.69,50.27 0,29.72 -7.61,49.22 -24.53,49.22 -14.28,0 -24.66,-17.46 -24.66,-50.29"
         inkscape:connector-curvature="0" /></clipPath><clipPath
       id="clipPath1340"
       clipPathUnits="userSpaceOnUse"><path
         id="path1342"
         d="m 4367.32,3366.09 c 0,-10.45 -9,-18.9 -20.09,-18.9 l -83.62,0 c -11.11,0 -20.09,8.45 -20.09,18.9 l 0,116.9 c 0,10.46 8.98,18.92 20.09,18.92 l 83.62,0 c 11.09,0 20.09,-8.46 20.09,-18.92 l 0,-116.9"
         inkscape:connector-curvature="0" /></clipPath><clipPath
       id="clipPath1360"
       clipPathUnits="userSpaceOnUse"><path
         id="path1362"
         d="m 4266.9,3363.19 0,10.03 12.81,12.44 c 30.82,29.3 44.74,44.9 44.9,63.08 0,12.24 -5.92,23.59 -23.92,23.59 -10.98,0 -20.04,-5.57 -25.62,-10.22 l -5.18,11.51 c 8.35,7.04 20.23,12.24 34.14,12.24 25.97,0 36.92,-17.79 36.92,-35.06 0,-22.26 -16.12,-40.28 -41.55,-64.76 l -9.69,-8.92 0,-0.36 54.24,0 0,-13.57 -77.05,0"
         inkscape:connector-curvature="0" /></clipPath><clipPath
       id="clipPath1376"
       clipPathUnits="userSpaceOnUse"><path
         id="path1378"
         d="m 4676.79,3366.09 c 0,-10.45 -8.99,-18.9 -20.09,-18.9 l -83.62,0 c -11.08,0 -20.1,8.45 -20.1,18.9 l 0,116.9 c 0,10.46 9.02,18.92 20.1,18.92 l 83.62,0 c 11.1,0 20.09,-8.46 20.09,-18.92 l 0,-116.9"
         inkscape:connector-curvature="0" /></clipPath><clipPath
       id="clipPath1396"
       clipPathUnits="userSpaceOnUse"><path
         id="path1398"
         d="m 4581.68,3382.95 c 4.61,-2.96 15.39,-7.57 26.7,-7.57 21,0 27.48,13.33 27.3,23.35 -0.19,16.9 -15.4,24.14 -31.19,24.14 l -9.08,0 0,12.25 9.08,0 c 11.87,0 26.92,6.13 26.92,20.39 0,9.67 -6.15,18.2 -21.16,18.2 -9.66,0 -18.92,-4.25 -24.14,-7.98 l -4.27,11.88 c 6.34,4.65 18.57,9.27 31.55,9.27 23.76,0 34.54,-14.08 34.54,-28.77 0,-12.42 -7.45,-22.99 -22.28,-28.38 l 0,-0.35 c 14.83,-2.99 26.94,-14.12 26.94,-31.02 0,-19.3 -15.05,-36.16 -44,-36.16 -13.55,0 -25.43,4.26 -31.37,8.15 l 4.46,12.6"
         inkscape:connector-curvature="0" /></clipPath><clipPath
       id="clipPath1412"
       clipPathUnits="userSpaceOnUse"><path
         id="path1414"
         d="m 4522.05,3366.09 c 0,-10.45 -9.01,-18.9 -20.08,-18.9 l -83.63,0 c -11.08,0 -20.08,8.45 -20.08,18.9 l 0,116.9 c 0,10.46 9,18.92 20.08,18.92 l 83.63,0 c 11.07,0 20.08,-8.46 20.08,-18.92 l 0,-116.9"
         inkscape:connector-curvature="0" /></clipPath><clipPath
       id="clipPath1432"
       clipPathUnits="userSpaceOnUse"><path
         id="path1434"
         d="m 4489.64,3473.41 c -3.34,0.21 -7.59,0 -12.25,-0.73 -25.61,-4.25 -39.15,-23.03 -41.94,-42.89 l 0.56,0 c 5.77,7.62 15.77,13.95 29.14,13.95 21.35,0 36.38,-15.42 36.38,-38.99 0,-22.07 -15.03,-42.49 -40.08,-42.49 -25.81,0 -42.68,20.04 -42.68,51.39 0,23.76 8.53,42.5 20.41,54.38 10,9.86 23.36,15.96 38.6,17.83 4.83,0.71 8.9,0.94 11.86,0.94 l 0,-13.39 z m -28,-98.52 c 13.91,0 23.36,11.7 23.36,28.94 0,17.26 -9.82,27.67 -24.84,27.67 -9.84,0 -18.95,-6.15 -23.4,-14.87 -1.12,-1.85 -1.84,-4.25 -1.84,-7.24 0.37,-19.84 9.46,-34.5 26.53,-34.5 l 0.19,0"
         inkscape:connector-curvature="0" /></clipPath><clipPath
       id="clipPath1448"
       clipPathUnits="userSpaceOnUse"><path
         id="path1450"
         d="m 4831.52,3366.09 c 0,-10.45 -8.98,-18.9 -20.08,-18.9 l -83.63,0 c -11.1,0 -20.08,8.45 -20.08,18.9 l 0,116.9 c 0,10.46 8.98,18.92 20.08,18.92 l 83.63,0 c 11.1,0 20.08,-8.46 20.08,-18.92 l 0,-116.9"
         inkscape:connector-curvature="0" /></clipPath><clipPath
       id="clipPath1468"
       clipPathUnits="userSpaceOnUse"><path
         id="path1470"
         d="m 4807.65,3484.86 0,-10.77 -52.49,-109.87 -16.89,0 52.33,106.72 0,0.36 -59.01,0 0,13.56 76.06,0"
         inkscape:connector-curvature="0" /></clipPath><clipPath
       id="clipPath1768"
       clipPathUnits="userSpaceOnUse"><path
         id="path1770"
         d="m 1545.94,4259.24 c 19.9,-59.33 -12.04,-123.54 -71.38,-143.45 -59.35,-19.91 -123.56,12.07 -143.43,71.41 -19.9,59.31 12.07,123.52 71.39,143.43 59.32,19.9 123.51,-12.07 143.42,-71.39"
         inkscape:connector-curvature="0" /></clipPath></defs><g
     id="g984"
     transform="matrix(-0.04682583,0.11589794,0.11589794,0.04682583,-271.75652,-685.86527)"><g
       clip-path="url(#clipPath988)"
       id="g986"><path
         id="path992"
         d="m 4576.21,4340.66 c 0,-106.82 -86.6,-193.43 -193.42,-193.43 -106.81,0 -193.41,86.61 -193.41,193.43 0,106.82 86.6,193.41 193.41,193.41 106.82,0 193.42,-86.59 193.42,-193.41"
         inkscape:connector-curvature="0" /><path
         id="path994"
         d="m 4576.21,4340.66 c 0,-106.82 -86.6,-193.43 -193.42,-193.43 -106.81,0 -193.41,86.61 -193.41,193.43 0,106.82 86.6,193.41 193.41,193.41 106.82,0 193.42,-86.59 193.42,-193.41"
         inkscape:connector-curvature="0" /></g></g><path
     id="path996"
     style="fill:#be1c2e;fill-opacity:1;fill-rule:nonzero;stroke:none"
     d="m 21.559942,36.55709 c -6.18777,-2.50001 -9.181396,-9.54576 -6.679008,-15.73933 2.500954,-6.19014 9.548755,-9.17884 15.736538,-6.67882 6.19126,2.50143 9.18143,9.54575 6.68046,15.73586 -2.50241,6.19355 -9.54669,9.1837 -15.73799,6.68229"
     inkscape:connector-curvature="0" /><path
     id="path1480"
     style="fill:#be1c2e;fill-opacity:1;fill-rule:nonzero;stroke:none"
     d="M 30.244382,22.994 25.690919,178.22527 22.785566,22.9558 30.244382,22.994"
     inkscape:connector-curvature="0" /></svg>