<?xml version="1.0" encoding="UTF-8" standalone="no"?>
<!-- Created with Inkscape (http://www.inkscape.org/) -->

<svg
   xmlns:dc="http://purl.org/dc/elements/1.1/"
   xmlns:cc="http://creativecommons.org/ns#"
   xmlns:rdf="http://www.w3.org/1999/02/22-rdf-syntax-ns#"
   xmlns:svg="http://www.w3.org/2000/svg"
   xmlns="http://www.w3.org/2000/svg"
   xmlns:sodipodi="http://sodipodi.sourceforge.net/DTD/sodipodi-0.dtd"
   xmlns:inkscape="http://www.inkscape.org/namespaces/inkscape"
   viewBox="0 0 54.170022 204.57413"
   id="svg7866"
   version="1.1"
   inkscape:version="0.91 r13725"
   sodipodi:docname="gauge-classic.svg">
  <defs
     id="defs7868" />
  <sodipodi:namedview
     id="base"
     pagecolor="#ffffff"
     bordercolor="#666666"
     borderopacity="1.0"
     inkscape:pageopacity="0.0"
     inkscape:pageshadow="2"
     inkscape:zoom="0.98994949"
     inkscape:cx="-100.4312"
     inkscape:cy="-16.861844"
     inkscape:document-units="px"
     inkscape:current-layer="layer1"
     showgrid="false"
     fit-margin-top="0"
     fit-margin-left="0"
     fit-margin-right="0"
     fit-margin-bottom="0"
     inkscape:window-width="1855"
     inkscape:window-height="1056"
     inkscape:window-x="65"
     inkscape:window-y="24"
     inkscape:window-maximized="1" />
  <metadata
     id="metadata7871">
    <rdf:RDF>
      <cc:Work
         rdf:about="">
        <dc:format>image/svg+xml</dc:format>
        <dc:type
           rdf:resource="http://purl.org/dc/dcmitype/StillImage" />
        <dc:title></dc:title>
      </cc:Work>
    </rdf:RDF>
  </metadata>
  <g
     inkscape:label="Layer 1"
     inkscape:groupmode="layer"
     id="layer1"
     transform="translate(-353.90617,-405.65077)">
    <g
       id="g8422"
       transform="matrix(-0.82903758,-0.55919288,0.55919288,-0.82903758,415.87758,1137.0382)">
      <path
         inkscape:connector-curvature="0"
         d="m 422.76296,537.30077 c 14.95466,0 27.08399,12.12933 27.08399,27.08533 0,14.95333 -12.12933,27.08267 -27.08399,27.08267 -14.95334,0 -27.084,-12.12934 -27.084,-27.08267 0,-14.956 12.13066,-27.08533 27.084,-27.08533 z m 0,4.932 c -12.232,0 -22.15067,9.92 -22.15067,22.15333 0,12.232 9.91867,22.15067 22.15067,22.15067 12.232,0 22.15599,-9.91867 22.15599,-22.15067 0,-12.23333 -9.92399,-22.15333 -22.15599,-22.15333"
         style="fill:#ee2132;fill-opacity:1;fill-rule:evenodd;stroke:none"
         id="path74" />
      <path
         inkscape:connector-curvature="0"
         d="m 321.58162,418.54212 3.608,-2.42933 88.22134,125.69598 c -3.25734,1.31067 -6.18934,3.29733 -8.604,5.79866 L 321.58162,418.54212"
         style="fill:#ee2132;fill-opacity:1;fill-rule:evenodd;stroke:none"
         id="path86" />
    </g>
  </g>
</svg>
