<?xml version="1.0" encoding="UTF-8" standalone="no"?>
<!-- Created with Inkscape (http://www.inkscape.org/) -->

<svg
   xmlns:dc="http://purl.org/dc/elements/1.1/"
   xmlns:cc="http://creativecommons.org/ns#"
   xmlns:rdf="http://www.w3.org/1999/02/22-rdf-syntax-ns#"
   xmlns:svg="http://www.w3.org/2000/svg"
   xmlns="http://www.w3.org/2000/svg"
   xmlns:sodipodi="http://sodipodi.sourceforge.net/DTD/sodipodi-0.dtd"
   xmlns:inkscape="http://www.inkscape.org/namespaces/inkscape"
   width="7.267633mm"
   height="26.813381mm"
   viewBox="0 0 25.751455 95.008043"
   id="svg39523"
   version="1.1"
   inkscape:version="0.91 r13725"
   sodipodi:docname="gauge-sport-pointer-6.svg">
  <defs
     id="defs39525" />
  <sodipodi:namedview
     id="base"
     pagecolor="#ffffff"
     bordercolor="#666666"
     borderopacity="1.0"
     inkscape:pageopacity="0.0"
     inkscape:pageshadow="2"
     inkscape:zoom="3.959798"
     inkscape:cx="-79.345111"
     inkscape:cy="-4.3377568"
     inkscape:document-units="px"
     inkscape:current-layer="layer1"
     showgrid="false"
     fit-margin-top="0"
     fit-margin-left="0"
     fit-margin-right="0"
     fit-margin-bottom="0"
     inkscape:window-width="1855"
     inkscape:window-height="1056"
     inkscape:window-x="65"
     inkscape:window-y="24"
     inkscape:window-maximized="1" />
  <metadata
     id="metadata39528">
    <rdf:RDF>
      <cc:Work
         rdf:about="">
        <dc:format>image/svg+xml</dc:format>
        <dc:type
           rdf:resource="http://purl.org/dc/dcmitype/StillImage" />
        <dc:title></dc:title>
      </cc:Work>
    </rdf:RDF>
  </metadata>
  <g
     inkscape:label="Layer 1"
     inkscape:groupmode="layer"
     id="layer1"
     transform="translate(-278.6529,-490.33666)">
    <g
       id="g47009"
       transform="matrix(0.54463904,-0.83867056,0.83867056,0.54463904,-316.69189,489.39668)">
      <path
         inkscape:connector-curvature="0"
         d="m 251.29449,558.66515 c 1.8262,-1.40125 30.5212,-20.31125 32.145,-21.32875 1.855,-1.79875 16.7337,-15.10125 17.9075,-16.20875 0.01,-2.28625 0.53,-7.21375 5.2125,-10.34125 5.6725,-3.78875 12.5762,-1.3625 13.6575,-0.59125 1.2062,-0.82125 5.7438,-3.2675 6.875,-3.1225 1.4138,0.22625 5.8325,6.575 5.4225,8.145 -0.2825,0.72125 -5.1775,4.79875 -5.8312,5.09 0.2187,1.61875 0.23,8.08 -4.8813,11.2825 -5.1788,3.24375 -10.98,1.48375 -12.4763,0.85375 -1.2237,0.99125 -20.4275,8.97875 -22.1487,9.76 -2.0513,1.3275 -32.4,20.22125 -33.7738,20.9725 -1.135,0.61875 -2.3025,-0.36375 -2.775,-1.075 -0.565,-0.84375 -0.375,-2.545 0.6663,-3.43625"
         style="fill:#d5cbc9;fill-opacity:1;fill-rule:nonzero;stroke:none"
         id="path11324" />
      <path
         inkscape:connector-curvature="0"
         d="m 303.72319,521.71265 c 0.4975,0.72375 2.1588,3.6 2.7513,4.52375 0.5362,0.83 2.49,3.1475 3.3187,4.2425 -1.2562,0.89125 -22.085,10.07875 -24.5125,11.49125 -1.3112,0.76125 -2.8862,1.63125 -4.1937,2.445 -2.0325,1.25625 -27.6188,17.52375 -28.36,17.9075 -0.6588,0.33875 -2.085,-1.2975 -1.405,-2.035 0.7625,-0.8325 29.2225,-19.45 31.6587,-20.99875 2.3388,-1.48875 18.1738,-16.3925 20.7425,-17.57625"
         style="fill:#e81d24;fill-opacity:1;fill-rule:nonzero;stroke:none"
         id="path11326" />
      <path
         inkscape:connector-curvature="0"
         d="m 325.44079,521.9564 c -0.4725,6.06375 -5.9051,10.5825 -12.1313,10.09625 -6.225,-0.48625 -10.8888,-5.7975 -10.4138,-11.86 0.4725,-6.06125 5.905,-10.58 12.1313,-10.09375 6.225,0.4875 10.8875,5.79625 10.4138,11.8575"
         style="fill:#100f0d;fill-opacity:1;fill-rule:nonzero;stroke:none"
         id="path11328" />
      <path
         inkscape:connector-curvature="0"
         d="m 324.45579,521.88015 c -0.4338,5.53375 -5.3863,9.65875 -11.0688,9.21375 -5.68,-0.44375 -9.94,-5.29 -9.5063,-10.8225 0.4338,-5.5325 5.3913,-9.65875 11.07,-9.215 5.6838,0.445 9.9413,5.29125 9.5051,10.82375"
         style="fill:#232221;fill-opacity:1;fill-rule:nonzero;stroke:none"
         id="path11330" />
      <path
         inkscape:connector-curvature="0"
         d="m 322.29319,521.71015 c -0.3437,4.3675 -4.2575,7.62625 -8.7437,7.275 -4.485,-0.3525 -7.8463,-4.1775 -7.505,-8.54625 0.345,-4.3675 4.2562,-7.6225 8.7425,-7.2725 4.49,0.35125 7.8437,4.17625 7.5062,8.54375"
         style="fill:#515254;fill-opacity:1;fill-rule:nonzero;stroke:none"
         id="path11332" />
      <path
         inkscape:connector-curvature="0"
         d="m 321.94949,521.68265 c -0.3288,4.18625 -4.0763,7.305 -8.3738,6.97125 -4.2987,-0.3375 -7.5187,-4.0025 -7.1887,-8.1875 0.3275,-4.185 4.075,-7.3025 8.3737,-6.9675 4.295,0.335 7.5188,4.00125 7.1888,8.18375"
         style="fill:#2e2d2d;fill-opacity:1;fill-rule:nonzero;stroke:none"
         id="path11334" />
      <path
         inkscape:connector-curvature="0"
         d="m 320.28949,511.79765 c 1.005,-0.5275 5.0762,-2.7725 6.385,-3.06625 1.1938,0.57625 4.1387,4.8425 4.2563,6.2625 -0.8625,0.92125 -4.6338,3.34875 -5.6538,3.9725 -0.275,-0.21125 -0.945,-0.99625 -1.1588,-1.4325 -1.285,0.85125 -14.6475,9.12375 -15.1762,9.57625 -0.7538,0.355 -0.6888,1.9 -0.5488,2.28375 -1.2737,0.80125 -21.1762,10.09875 -21.875,9.55625 -0.03,-0.89375 7.4825,-7.61375 9.7213,-9.61875 2.235,-2.00375 7.44,-5.93625 7.8425,-6.10375 0.4337,-0.195 1.6475,-0.55625 2.1325,-0.5475 0.7262,-0.4875 14.3325,-9.08 14.6675,-9.5475 -0.2038,-0.34625 -0.5025,-0.92125 -0.5925,-1.335"
         style="fill:#2e2d2d;fill-opacity:1;fill-rule:nonzero;stroke:none"
         id="path11336" />
      <path
         inkscape:connector-curvature="0"
         d="m 329.24569,511.5939 c -10.8462,7.02125 -64.9687,41.97 -77.6687,50.17125 -0.081,-0.0375 -0.2388,-0.25125 -0.2575,-0.355 12.3962,-8.01375 64.2287,-41.51625 77.6612,-50.1875 0.1163,0.0825 0.26,0.27875 0.265,0.37125"
         style="fill:#d5cbc9;fill-opacity:1;fill-rule:nonzero;stroke:none"
         id="path11338" />
      <path
         inkscape:connector-curvature="0"
         d="m 315.59319,521.1864 c -0.061,0.765 -0.7487,1.33625 -1.53,1.275 -0.7887,-0.0613 -1.3775,-0.7325 -1.3175,-1.4975 0.059,-0.76375 0.745,-1.335 1.5313,-1.2725 0.7837,0.0625 1.3737,0.73 1.3162,1.495"
         style="fill:#515254;fill-opacity:1;fill-rule:nonzero;stroke:none"
         id="path11340" />
      <path
         inkscape:connector-curvature="0"
         d="m 315.35699,521.16765 c -0.049,0.64 -0.625,1.1175 -1.2788,1.06625 -0.6575,-0.0513 -1.15,-0.61125 -1.1,-1.25125 0.051,-0.64 0.625,-1.1175 1.2825,-1.06375 0.655,0.0512 1.1475,0.61 1.0963,1.24875"
         style="fill:#100f0d;fill-opacity:1;fill-rule:nonzero;stroke:none"
         id="path11342" />
    </g>
  </g>
</svg>
