<?xml version="1.0" encoding="UTF-8" standalone="no"?>
<svg
   xmlns:dc="http://purl.org/dc/elements/1.1/"
   xmlns:cc="http://creativecommons.org/ns#"
   xmlns:rdf="http://www.w3.org/1999/02/22-rdf-syntax-ns#"
   xmlns:svg="http://www.w3.org/2000/svg"
   xmlns="http://www.w3.org/2000/svg"
   xmlns:sodipodi="http://sodipodi.sourceforge.net/DTD/sodipodi-0.dtd"
   xmlns:inkscape="http://www.inkscape.org/namespaces/inkscape"
   viewBox="0 0 25.5 137"
   xml:space="preserve"
   version="1.1"
   id="svg2"
   inkscape:version="0.91 r13725"
   sodipodi:docname="new-pointer.svg"><sodipodi:namedview
     pagecolor="#ffffff"
     bordercolor="#666666"
     borderopacity="1"
     objecttolerance="10"
     gridtolerance="10"
     guidetolerance="10"
     inkscape:pageopacity="0"
     inkscape:pageshadow="2"
     inkscape:window-width="1922"
     inkscape:window-height="983"
     id="namedview1033"
     showgrid="false"
     inkscape:showpageshadow="false"
     inkscape:zoom="3.1678384"
     inkscape:cx="41.643282"
     inkscape:cy="90.277866"
     inkscape:window-x="0"
     inkscape:window-y="0"
     inkscape:window-maximized="0"
     inkscape:current-layer="svg2" /><metadata
     id="metadata8"><rdf:RDF><cc:Work
         rdf:about=""><dc:format>image/svg+xml</dc:format><dc:type
           rdf:resource="http://purl.org/dc/dcmitype/StillImage" /><dc:title></dc:title></cc:Work></rdf:RDF></metadata><defs
     id="defs6"><clipPath
       id="clipPath172"
       clipPathUnits="userSpaceOnUse"><path
         style="clip-rule:evenodd"
         id="path174"
         d="m 3700,5770 c 558.11,0 1010.7,-452.59 1010.7,-1010.7 0,-558.1 -452.59,-1010.69 -1010.7,-1010.69 -558.1,0 -1010.68,452.59 -1010.68,1010.69 0,558.11 452.58,1010.7 1010.68,1010.7 l 0,0 z m 0,-117.93 c -492.98,0 -892.77,-399.8 -892.77,-892.77 0,-492.99 399.79,-892.77 892.77,-892.77 492.99,0 892.77,399.78 892.77,892.77 0,492.97 -399.78,892.77 -892.77,892.77"
         inkscape:connector-curvature="0" /></clipPath><clipPath
       id="clipPath486"
       clipPathUnits="userSpaceOnUse"><path
         id="path488"
         d="m 1204.84,814.719 c 12.7,-37.856 -7.67,-78.828 -45.53,-91.528 -37.86,-12.695 -78.82,7.707 -91.52,45.571 -12.69,37.82 7.72,78.797 45.57,91.492 37.84,12.695 78.78,-7.688 91.48,-45.535"
         inkscape:connector-curvature="0" /></clipPath><clipPath
       id="clipPath498"
       clipPathUnits="userSpaceOnUse"><path
         id="path500"
         d="m 4210.73,2256.19 c 0,-11.26 -7.74,-20.37 -17.27,-20.37 l -407.24,0 c -9.53,0 -17.3,9.11 -17.3,20.37 l 0,54.38 c 0,11.29 7.77,20.4 17.3,20.4 l 407.24,0 c 9.53,0 17.27,-9.11 17.27,-20.4 l 0,-54.38"
         inkscape:connector-curvature="0" /></clipPath><clipPath
       id="clipPath510"
       clipPathUnits="userSpaceOnUse"><path
         id="path512"
         d="m 3847.09,2257.71 c 0,-4.6 -3.94,-8.31 -8.82,-8.31 l -36.73,0 c -4.87,0 -8.83,3.71 -8.83,8.31 l 0,51.36 c 0,4.59 3.96,8.31 8.83,8.31 l 36.73,0 c 4.88,0 8.82,-3.72 8.82,-8.31 l 0,-51.36"
         inkscape:connector-curvature="0" /></clipPath><clipPath
       id="clipPath530"
       clipPathUnits="userSpaceOnUse"><path
         id="path532"
         d="m 3837.88,2283.95 c 0,-17.99 -6.69,-27.95 -18.42,-27.95 -10.36,0 -17.36,9.7 -17.53,27.23 0,17.77 7.66,27.55 18.42,27.55 11.17,0 17.53,-9.95 17.53,-26.83 z m -28.78,-0.8 c 0,-13.79 4.24,-21.61 10.78,-21.61 7.32,0 10.81,8.57 10.81,22.09 0,13.04 -3.33,21.6 -10.73,21.6 -6.28,0 -10.86,-7.66 -10.86,-22.08"
         inkscape:connector-curvature="0" /></clipPath><clipPath
       id="clipPath546"
       clipPathUnits="userSpaceOnUse"><path
         id="path548"
         d="m 3915.07,2257.71 c 0,-4.6 -3.94,-8.31 -8.83,-8.31 l -36.73,0 c -4.86,0 -8.83,3.71 -8.83,8.31 l 0,51.36 c 0,4.59 3.97,8.31 8.83,8.31 l 36.73,0 c 4.89,0 8.83,-3.72 8.83,-8.31 l 0,-51.36"
         inkscape:connector-curvature="0" /></clipPath><clipPath
       id="clipPath566"
       clipPathUnits="userSpaceOnUse"><path
         id="path568"
         d="m 3905.86,2283.95 c 0,-17.99 -6.69,-27.95 -18.44,-27.95 -10.33,0 -17.34,9.7 -17.51,27.23 0,17.77 7.66,27.55 18.42,27.55 11.16,0 17.53,-9.95 17.53,-26.83 z m -28.77,-0.8 c 0,-13.79 4.24,-21.61 10.75,-21.61 7.32,0 10.81,8.57 10.81,22.09 0,13.04 -3.31,21.6 -10.72,21.6 -6.28,0 -10.84,-7.66 -10.84,-22.08"
         inkscape:connector-curvature="0" /></clipPath><clipPath
       id="clipPath582"
       clipPathUnits="userSpaceOnUse"><path
         id="path584"
         d="m 3983.04,2257.71 c 0,-4.6 -3.97,-8.31 -8.82,-8.31 l -36.72,0 c -4.88,0 -8.84,3.71 -8.84,8.31 l 0,51.36 c 0,4.59 3.96,8.31 8.84,8.31 l 36.72,0 c 4.85,0 8.82,-3.72 8.82,-8.31 l 0,-51.36"
         inkscape:connector-curvature="0" /></clipPath><clipPath
       id="clipPath602"
       clipPathUnits="userSpaceOnUse"><path
         id="path604"
         d="m 3938.93,2256.45 0,4.4 5.62,5.46 c 13.56,12.88 19.66,19.71 19.72,27.71 0,5.38 -2.6,10.37 -10.49,10.37 -4.8,0 -8.81,-2.46 -11.25,-4.5 l -2.28,5.05 c 3.66,3.1 8.87,5.39 15.02,5.39 11.37,0 16.19,-7.82 16.19,-15.41 0,-9.78 -7.1,-17.69 -18.26,-28.44 l -4.22,-3.92 0,-0.16 23.79,0 0,-5.95 -33.84,0"
         inkscape:connector-curvature="0" /></clipPath><clipPath
       id="clipPath618"
       clipPathUnits="userSpaceOnUse"><path
         id="path620"
         d="m 4118.96,2257.71 c 0,-4.6 -3.93,-8.31 -8.79,-8.31 l -36.75,0 c -4.87,0 -8.82,3.71 -8.82,8.31 l 0,51.36 c 0,4.59 3.95,8.31 8.82,8.31 l 36.75,0 c 4.86,0 8.79,-3.72 8.79,-8.31 l 0,-51.36"
         inkscape:connector-curvature="0" /></clipPath><clipPath
       id="clipPath638"
       clipPathUnits="userSpaceOnUse"><path
         id="path640"
         d="m 4077.21,2265.13 c 2.02,-1.31 6.75,-3.34 11.72,-3.34 9.22,0 12.08,5.87 11.98,10.26 -0.07,7.43 -6.77,10.61 -13.69,10.61 l -4.01,0 0,5.38 4.01,0 c 5.21,0 11.82,2.69 11.82,8.94 0,4.27 -2.69,8.02 -9.28,8.02 -4.25,0 -8.31,-1.89 -10.62,-3.52 l -1.85,5.22 c 2.75,2.05 8.13,4.08 13.84,4.08 10.43,0 15.18,-6.2 15.18,-12.64 0,-5.45 -3.27,-10.1 -9.79,-12.48 l 0,-0.13 c 6.52,-1.32 11.81,-6.21 11.81,-13.63 0,-8.48 -6.61,-15.9 -19.31,-15.9 -5.95,0 -11.16,1.87 -13.79,3.58 l 1.98,5.55"
         inkscape:connector-curvature="0" /></clipPath><clipPath
       id="clipPath654"
       clipPathUnits="userSpaceOnUse"><path
         id="path656"
         d="m 4051,2257.71 c 0,-4.6 -3.94,-8.31 -8.79,-8.31 l -36.75,0 c -4.89,0 -8.82,3.71 -8.82,8.31 l 0,51.36 c 0,4.59 3.93,8.31 8.82,8.31 l 36.75,0 c 4.85,0 8.79,-3.72 8.79,-8.31 l 0,-51.36"
         inkscape:connector-curvature="0" /></clipPath><clipPath
       id="clipPath674"
       clipPathUnits="userSpaceOnUse"><path
         id="path676"
         d="m 4036.77,2304.86 c -1.46,0.08 -3.33,0 -5.38,-0.33 -11.25,-1.86 -17.19,-10.1 -18.42,-18.83 l 0.25,0 c 2.51,3.35 6.92,6.12 12.82,6.12 9.35,0 15.95,-6.77 15.95,-17.12 0,-9.71 -6.6,-18.66 -17.6,-18.66 -11.33,0 -18.75,8.78 -18.75,22.57 0,10.44 3.75,18.68 8.96,23.89 4.4,4.32 10.28,7 16.96,7.83 2.14,0.32 3.92,0.4 5.21,0.4 l 0,-5.87 z m -12.3,-43.29 c 6.12,0 10.26,5.15 10.26,12.73 0,7.58 -4.32,12.15 -10.89,12.15 -4.36,0 -8.33,-2.71 -10.29,-6.55 -0.49,-0.8 -0.82,-1.86 -0.82,-3.17 0.16,-8.7 4.16,-15.16 11.66,-15.16 l 0.08,0"
         inkscape:connector-curvature="0" /></clipPath><clipPath
       id="clipPath690"
       clipPathUnits="userSpaceOnUse"><path
         id="path692"
         d="m 4186.94,2257.71 c 0,-4.6 -3.92,-8.31 -8.81,-8.31 l -36.74,0 c -4.86,0 -8.82,3.71 -8.82,8.31 l 0,51.36 c 0,4.59 3.96,8.31 8.82,8.31 l 36.74,0 c 4.89,0 8.81,-3.72 8.81,-8.31 l 0,-51.36"
         inkscape:connector-curvature="0" /></clipPath><clipPath
       id="clipPath710"
       clipPathUnits="userSpaceOnUse"><path
         id="path712"
         d="m 4176.48,2309.88 0,-4.72 -23.07,-48.27 -7.41,0 22.98,46.88 0,0.16 -25.93,0 0,5.95 33.43,0"
         inkscape:connector-curvature="0" /></clipPath><clipPath
       id="clipPath1008"
       clipPathUnits="userSpaceOnUse"><path
         id="path1010"
         d="m 4064.43,2749.13 c 12.54,-37.4 -7.58,-77.91 -45.03,-90.46 -37.42,-12.56 -77.92,7.59 -90.47,45.03 -12.56,37.43 7.61,77.92 45.05,90.48 37.4,12.56 77.9,-7.62 90.45,-45.05"
         inkscape:connector-curvature="0" /></clipPath><clipPath
       id="clipPath1106"
       clipPathUnits="userSpaceOnUse"><path
         id="path1108"
         d="m 2483.04,4860.16 c 0,-548.02 -453.8,-992.32 -1013.59,-992.32 -559.786,0 -1013.583,444.3 -1013.583,992.32 0,548.06 453.797,992.32 1013.583,992.32 559.79,0 1013.59,-444.26 1013.59,-992.32"
         inkscape:connector-curvature="0" /></clipPath><clipPath
       id="clipPath1258"
       clipPathUnits="userSpaceOnUse"><path
         id="path1260"
         d="m 2165.24,5122.89 c 5.14,2.17 7.32,8.89 4.81,14.95 l -0.29,0.7 c -2.5,6.04 -8.84,9.38 -14.05,7.43 l -729.87,-238.68 c -5.24,-1.95 -7.49,-8.51 -4.98,-14.57 l 36.66,-88.64 c 2.5,-6.04 8.77,-9.22 13.92,-7.04 l 693.8,325.85"
         inkscape:connector-curvature="0" /></clipPath><clipPath
       id="clipPath1268"
       clipPathUnits="userSpaceOnUse"><path
         id="path1270"
         d="m 1740.52,4049.91 -545.2,0 0,150.81 545.2,0 0,-150.81"
         inkscape:connector-curvature="0" /></clipPath><clipPath
       id="clipPath1368"
       clipPathUnits="userSpaceOnUse"><path
         id="path1370"
         d="m 1725.6,4873.17 c -46.61,3.25 -179.83,27.71 -216.44,37.47 -36.61,9.77 -121.53,22.82 -139.85,24.44 -18.3,1.64 -54.95,42.4 -54.95,42.4 0,0 71.6,26.07 76.61,26.07 4.97,0 126.51,3.27 126.51,3.27 0,0 74.93,-19.56 79.93,-22.82 4.99,-3.26 189.8,102.68 189.8,102.68 0,0 84.89,14.68 99.89,27.71 14.99,13.04 149.81,32.61 158.16,34.24 8.32,1.62 134.85,16.28 139.85,17.91 4.99,1.63 51.61,-3.25 51.61,-9.76 0,-6.53 -36.63,-88.03 -44.94,-91.27 -8.33,-3.28 -176.48,-102.71 -184.82,-105.96 -8.31,-3.25 -166.49,-83.13 -166.49,-83.13 l -114.87,-3.25 z"
         inkscape:connector-curvature="0" /></clipPath><clipPath
       id="clipPath1374"
       clipPathUnits="userSpaceOnUse"><path
         id="path1376"
         d="m 2165.24,5122.89 c 5.14,2.17 7.32,8.89 4.81,14.95 l -0.29,0.7 c -2.5,6.04 -8.84,9.38 -14.05,7.43 l -729.87,-238.68 c -5.24,-1.95 -7.49,-8.51 -4.98,-14.57 l 36.66,-88.64 c 2.5,-6.04 8.77,-9.22 13.92,-7.04 l 693.8,325.85"
         inkscape:connector-curvature="0" /></clipPath><clipPath
       id="clipPath1384"
       clipPathUnits="userSpaceOnUse"><path
         id="path1386"
         d="m 1596.88,4860.16 c 0,-68.89 -57.06,-124.75 -127.42,-124.75 -70.37,0 -127.43,55.86 -127.43,124.75 0,68.91 57.06,124.76 127.43,124.76 70.36,0 127.42,-55.85 127.42,-124.76"
         inkscape:connector-curvature="0" /></clipPath><clipPath
       id="clipPath1394"
       clipPathUnits="userSpaceOnUse"><path
         id="path1396"
         d="m 1725.6,4873.17 c -46.61,3.25 -179.83,27.71 -216.44,37.47 -36.61,9.77 -121.53,22.82 -139.85,24.44 -18.3,1.64 -54.95,42.4 -54.95,42.4 0,0 71.6,26.07 76.61,26.07 4.97,0 126.51,3.27 126.51,3.27 0,0 74.93,-19.56 79.93,-22.82 4.99,-3.26 189.8,102.68 189.8,102.68 0,0 84.89,14.68 99.89,27.71 14.99,13.04 149.81,32.61 158.16,34.24 8.32,1.62 134.85,16.28 139.85,17.91 4.99,1.63 51.61,-3.25 51.61,-9.76 0,-6.53 -36.63,-88.03 -44.94,-91.27 -8.33,-3.28 -176.48,-102.71 -184.82,-105.96 -8.31,-3.25 -166.49,-83.13 -166.49,-83.13 l -114.87,-3.25 z"
         inkscape:connector-curvature="0" /></clipPath><clipPath
       id="clipPath1400"
       clipPathUnits="userSpaceOnUse"><path
         id="path1402"
         d="m 1596.88,4860.16 c 0,-68.89 -57.06,-124.75 -127.42,-124.75 -70.37,0 -127.43,55.86 -127.43,124.75 0,68.91 57.06,124.76 127.43,124.76 70.36,0 127.42,-55.85 127.42,-124.76"
         inkscape:connector-curvature="0" /></clipPath><clipPath
       id="clipPath1410"
       clipPathUnits="userSpaceOnUse"><path
         id="path1412"
         d="m 2161.68,5376.11 c -0.18,-218.07 -305.17,-394.59 -681.21,-394.3 -376.07,0.33 -680.708,177.36 -680.505,395.44 0.176,218.1 305.145,394.62 681.145,394.29 376.06,-0.31 680.74,-177.34 680.57,-395.43 z"
         inkscape:connector-curvature="0" /></clipPath><clipPath
       id="clipPath1494"
       clipPathUnits="userSpaceOnUse"><path
         id="path1496"
         d="m 6659.86,1066.32 c 38.05,-31.43 43.42,-87.726 11.98,-125.793 -31.45,-38.054 -87.77,-43.398 -125.79,-11.953 -38.07,31.426 -43.41,87.726 -11.98,125.786 31.43,38.04 87.74,43.41 125.79,11.96"
         inkscape:connector-curvature="0" /></clipPath><clipPath
       id="clipPath1508"
       clipPathUnits="userSpaceOnUse"><path
         id="path1510"
         d="m 6585.68,993.801 316.88,937.789 -290.67,-946.246 -26.21,8.457"
         inkscape:connector-curvature="0" /></clipPath><clipPath
       id="clipPath1518"
       clipPathUnits="userSpaceOnUse"><path
         id="path1520"
         d="m 6631.42,1031.89 c 19,-15.7 21.71,-43.855 5.96,-62.886 -15.7,-19.031 -43.9,-21.731 -62.9,-5.984 -19.01,15.679 -21.71,43.87 -5.96,62.89 15.72,19.03 43.87,21.68 62.9,5.98"
         inkscape:connector-curvature="0" /></clipPath></defs><g
     id="g1490"
     transform="matrix(-0.11888206,0.03862713,0.03862713,0.11888206,759.42637,-360.50026)"><g
       clip-path="url(#clipPath1494)"
       id="g1492"><path
         id="path1498"
         d="m 6659.86,1066.32 c 38.05,-31.43 43.42,-87.726 11.98,-125.793 -31.45,-38.054 -87.77,-43.398 -125.79,-11.953 -38.07,31.426 -43.41,87.726 -11.98,125.786 31.43,38.04 87.74,43.41 125.79,11.96"
         inkscape:connector-curvature="0" /><path
         id="path1500"
         d="m 6659.86,1066.32 c 38.05,-31.43 43.42,-87.726 11.98,-125.793 -31.45,-38.054 -87.77,-43.398 -125.79,-11.953 -38.07,31.426 -43.41,87.726 -11.98,125.786 31.43,38.04 87.74,43.41 125.79,11.96"
         inkscape:connector-curvature="0" /></g></g><path
     id="path1502"
     style="fill:#5ecbea;fill-opacity:1;fill-rule:nonzero;stroke:none"
     d="m 9.3424555,1.9119 c 2.5975875,-0.84399 5.4301955,-0.75407 7.9744885,0.25225 2.930788,1.15629 5.233658,3.3858 6.486958,6.27622 1.252967,2.88949 1.304931,6.09533 0.147786,9.02637 -1.297788,3.28297 -3.96927,5.79259 -7.328881,6.88418 -2.597575,0.84401 -5.430364,0.7537 -7.9755565,-0.2515 C 5.7170405,22.94067 3.4127735,20.71114 2.1602555,17.8231 0.90701252,14.93276 0.85491552,11.72646 2.0135135,8.79586 3.3101005,5.51329 5.9828555,3.0035 9.3424555,1.91192 l 0,0 z m 6.8940815,21.25019 c 3.002958,-0.97572 5.392555,-3.22026 6.551324,-6.15445 1.035807,-2.62085 0.98918,-5.48671 -0.131531,-8.07021 -1.119321,-2.58329 -3.178455,-4.57629 -5.79865,-5.61008 -2.276175,-0.9014 -4.807177,-0.981 -7.1289585,-0.22663 -3.004152,0.97611 -5.391768,3.21868 -6.55269,6.15425 -1.03571,2.62119 -0.988829,5.48777 0.131591,8.07044 1.119239,2.58306 3.179418,4.57518 5.798702,5.61019 2.2759945,0.90079 4.8084555,0.98086 7.1302075,0.22648 l 0,0"
     inkscape:connector-curvature="0" /><g
     id="g1504"
     transform="matrix(-0.11888206,0.03862713,0.03862713,0.11888206,759.42637,-360.50026)"
     style="fill:#ffffff"><g
       clip-path="url(#clipPath1508)"
       id="g1506"
       style="fill:#ffffff"><path
         id="path1512"
         d="m 6585.68,993.801 316.88,937.789 -290.67,-946.246 -26.21,8.457"
         inkscape:connector-curvature="0"
         style="fill:#ffffff" /></g></g><g
     id="g1514"
     transform="matrix(-0.11888206,0.03862713,0.03862713,0.11888206,759.42637,-360.50026)"
     style="fill:#ffffff"><g
       clip-path="url(#clipPath1518)"
       id="g1516"
       style="fill:#ffffff"><path
         id="path1522"
         d="m 6631.42,1031.89 c 19,-15.7 21.71,-43.855 5.96,-62.886 -15.7,-19.031 -43.9,-21.731 -62.9,-5.984 -19.01,15.679 -21.71,43.87 -5.96,62.89 15.72,19.03 43.87,21.68 62.9,5.98"
         inkscape:connector-curvature="0"
         style="fill:#ffffff" /></g></g></svg>