<?xml version="1.0" encoding="UTF-8" standalone="no"?>
<svg
   xmlns:dc="http://purl.org/dc/elements/1.1/"
   xmlns:cc="http://creativecommons.org/ns#"
   xmlns:rdf="http://www.w3.org/1999/02/22-rdf-syntax-ns#"
   xmlns:svg="http://www.w3.org/2000/svg"
   xmlns="http://www.w3.org/2000/svg"
   xmlns:sodipodi="http://sodipodi.sourceforge.net/DTD/sodipodi-0.dtd"
   xmlns:inkscape="http://www.inkscape.org/namespaces/inkscape"
   viewBox="0 0 10 57.112492"
   xml:space="preserve"
   version="1.1"
   id="svg2"
   inkscape:version="0.91 r13725"
   sodipodi:docname="gauge-pointer-16.svg"><sodipodi:namedview
     pagecolor="#ffffff"
     bordercolor="#666666"
     borderopacity="1"
     objecttolerance="10"
     gridtolerance="10"
     guidetolerance="10"
     inkscape:pageopacity="0"
     inkscape:pageshadow="2"
     inkscape:window-width="1695"
     inkscape:window-height="895"
     id="namedview163"
     showgrid="false"
     inkscape:zoom="2.4432477"
     inkscape:cx="-58.122612"
     inkscape:cy="-9.7589295"
     inkscape:window-x="0"
     inkscape:window-y="0"
     inkscape:window-maximized="0"
     inkscape:current-layer="svg2" /><metadata
     id="metadata8"><rdf:RDF><cc:Work
         rdf:about=""><dc:format>image/svg+xml</dc:format><dc:type
           rdf:resource="http://purl.org/dc/dcmitype/StillImage" /><dc:title /></cc:Work></rdf:RDF></metadata><defs
     id="defs6"><clipPath
       id="clipPath202"
       clipPathUnits="userSpaceOnUse"><path
         style="clip-rule:evenodd"
         id="path204"
         d="m 1308.12,2022.36 c 517.54,0 937.24,-419.7 937.24,-937.24 0,-235.14 -86.66,-450.05 -229.75,-614.612 l -1414.977,0 c -143.09,164.562 -229.75,379.472 -229.75,614.612 0,517.54 419.699,937.24 937.237,937.24"
         inkscape:connector-curvature="0" /></clipPath><clipPath
       id="clipPath212"
       clipPathUnits="userSpaceOnUse"><path
         style="clip-rule:evenodd"
         id="path214"
         d="m 1311.63,2021.78 c 374.81,0 698.23,-220.15 848.16,-538.14 -14.48,-287.63 -388.72,-518.093 -848.16,-518.093 -459.446,0 -833.681,230.463 -848.15,518.103 149.926,317.98 473.344,538.13 848.15,538.13"
         inkscape:connector-curvature="0" /></clipPath><clipPath
       id="clipPath260"
       clipPathUnits="userSpaceOnUse"><path
         id="path262"
         d="m 998.676,1311.52 -10.117,0 0,64.52 c -2.442,-2.33 -5.625,-4.65 -9.586,-6.98 -3.973,-2.31 -7.524,-4.07 -10.668,-5.21 l 0,9.76 c 5.66,2.67 10.617,5.9 14.859,9.68 4.219,3.8 7.234,7.47 9,11.04 l 6.512,0 0,-82.81 0,0 z m 143.154,9.75 0,-9.75 -54.51,0 c -0.07,2.44 0.31,4.79 1.18,7.03 1.38,3.73 3.61,7.38 6.66,10.99 3.07,3.59 7.48,7.76 13.24,12.48 8.98,7.34 15.04,13.17 18.19,17.46 3.14,4.29 4.72,8.35 4.72,12.17 0,4.01 -1.44,7.4 -4.3,10.17 -2.88,2.74 -6.62,4.12 -11.23,4.12 -4.88,0 -8.78,-1.46 -11.69,-4.4 -2.94,-2.91 -4.42,-6.96 -4.46,-12.13 l -10.41,1.06 c 0.72,7.77 3.4,13.68 8.05,17.75 4.64,4.08 10.91,6.11 18.74,6.11 7.91,0 14.17,-2.21 18.78,-6.58 4.62,-4.4 6.92,-9.84 6.92,-16.32 0,-3.3 -0.67,-6.55 -2.04,-9.73 -1.33,-3.19 -3.58,-6.55 -6.71,-10.07 -3.13,-3.52 -8.33,-8.37 -15.61,-14.51 -6.06,-5.11 -9.96,-8.57 -11.69,-10.39 -1.73,-1.8 -3.14,-3.62 -4.28,-5.46 l 40.45,0 0,0 z m 74.9,12.03 10.12,1.35 c 1.17,-5.74 3.15,-9.87 5.93,-12.41 2.81,-2.53 6.2,-3.8 10.22,-3.8 4.75,0 8.79,1.65 12.07,4.95 3.27,3.31 4.91,7.39 4.91,12.26 0,4.65 -1.51,8.49 -4.55,11.51 -3.05,3.02 -6.91,4.53 -11.59,4.53 -1.91,0 -4.3,-0.38 -7.14,-1.13 l 1.13,8.89 c 0.67,-0.07 1.21,-0.11 1.63,-0.11 4.31,0 8.18,1.12 11.64,3.37 3.45,2.24 5.18,5.72 5.18,10.4 0,3.71 -1.27,6.8 -3.78,9.23 -2.52,2.43 -5.76,3.66 -9.73,3.66 -3.94,0 -7.22,-1.25 -9.83,-3.7 -2.63,-2.48 -4.32,-6.21 -5.07,-11.16 l -10.12,1.8 c 1.23,6.8 4.05,12.06 8.43,15.78 4.39,3.72 9.84,5.61 16.37,5.61 4.5,0 8.64,-0.98 12.43,-2.89 3.77,-1.95 6.68,-4.58 8.7,-7.91 1.99,-3.35 3.01,-6.88 3.01,-10.65 0,-3.54 -0.96,-6.79 -2.89,-9.73 -1.92,-2.92 -4.74,-5.24 -8.48,-6.97 4.88,-1.11 8.66,-3.45 11.37,-7.01 2.69,-3.53 4.03,-7.96 4.03,-13.28 0,-7.2 -2.61,-13.3 -7.87,-18.31 -5.24,-5.01 -11.89,-7.51 -19.92,-7.51 -7.23,0 -13.24,2.15 -18.02,6.47 -4.78,4.3 -7.51,9.89 -8.18,16.76 l 0,0 z m 160.46,-21.78 0,19.74 -35.77,0 0,9.3 37.63,53.42 8.27,0 0,-53.42 11.14,0 0,-9.3 -11.14,0 0,-19.74 -10.13,0 0,0 z m 0,29.04 0,37.17 -25.81,-37.17 25.81,0 0,0 z m 95.61,-7.43 10.64,0.91 c 0.79,-5.19 2.61,-9.07 5.47,-11.68 2.88,-2.61 6.33,-3.92 10.39,-3.92 4.88,0 9,1.85 12.36,5.51 3.38,3.69 5.07,8.56 5.07,14.62 0,5.79 -1.61,10.34 -4.86,13.68 -3.24,3.34 -7.49,5.01 -12.74,5.01 -3.27,0 -6.2,-0.74 -8.84,-2.23 -2.63,-1.48 -4.68,-3.4 -6.18,-5.75 l -9.5,1.22 7.98,42.35 41.01,0 0,-9.67 -32.91,0 -4.45,-22.15 c 4.96,3.44 10.15,5.17 15.59,5.17 7.2,0 13.27,-2.49 18.22,-7.48 4.95,-5 7.43,-11.4 7.43,-19.24 0,-7.47 -2.19,-13.91 -6.53,-19.35 -5.3,-6.66 -12.52,-10 -21.65,-10 -7.51,0 -13.63,2.09 -18.37,6.3 -4.75,4.2 -7.45,9.77 -8.13,16.7 l 0,0 z m 180.59,40.66 -10.06,-0.79 c -0.89,3.97 -2.17,6.88 -3.82,8.66 -2.75,2.9 -6.12,4.34 -10.13,4.34 -3.23,0 -6.05,-0.9 -8.49,-2.71 -3.18,-2.32 -5.7,-5.72 -7.54,-10.18 -1.83,-4.45 -2.78,-10.81 -2.86,-19.06 2.44,3.7 5.41,6.47 8.94,8.27 3.52,1.79 7.22,2.7 11.08,2.7 6.76,0 12.5,-2.48 17.24,-7.45 4.74,-4.98 7.12,-11.39 7.12,-19.26 0,-5.18 -1.13,-9.98 -3.36,-14.43 -2.22,-4.43 -5.3,-7.85 -9.19,-10.22 -3.9,-2.36 -8.32,-3.53 -13.27,-3.53 -8.45,0 -15.32,3.08 -20.64,9.32 -5.33,6.19 -7.98,16.42 -7.98,30.67 0,15.93 2.93,27.51 8.83,34.74 5.12,6.3 12.03,9.47 20.76,9.47 6.46,0 11.78,-1.83 15.93,-5.47 4.14,-3.63 6.62,-8.66 7.44,-15.07 l 0,0 z m -41.33,-35.54 c 0,-3.49 0.75,-6.83 2.23,-10.02 1.48,-3.18 3.55,-5.6 6.19,-7.27 2.67,-1.67 5.48,-2.52 8.4,-2.52 4.28,0 7.95,1.73 11.01,5.19 3.08,3.45 4.62,8.13 4.62,14.05 0,5.7 -1.52,10.19 -4.55,13.47 -3.04,3.3 -6.87,4.92 -11.47,4.92 -4.58,0 -8.47,-1.62 -11.65,-4.92 -3.19,-3.28 -4.78,-7.58 -4.78,-12.9"
         inkscape:connector-curvature="0" /></clipPath><clipPath
       id="clipPath298"
       clipPathUnits="userSpaceOnUse"><path
         style="clip-rule:evenodd"
         id="path300"
         d="m 6291.68,1580.65 c 308.12,0 557.98,-249.86 557.98,-557.97 0,-308.117 -249.86,-557.985 -557.98,-557.985 -308.1,0 -557.97,249.868 -557.97,557.985 0,308.11 249.87,557.97 557.97,557.97 l 0,0 z m 0,-65.1 c -272.15,0 -492.87,-220.71 -492.87,-492.87 0,-272.172 220.72,-492.875 492.87,-492.875 272.17,0 492.87,220.703 492.87,492.875 0,272.16 -220.7,492.87 -492.87,492.87"
         inkscape:connector-curvature="0" /></clipPath></defs><path
     id="path322"
     style="fill:#fbc808;fill-opacity:1;fill-rule:evenodd;stroke:none"
     d="m 1.6631099,1.147984 6.7767396,-8.8e-4 -1.98609,55.038538 -2.8036798,0 L 1.6631099,1.147984"
     inkscape:connector-curvature="0" /></svg>