<?xml version="1.0" encoding="UTF-8" standalone="no"?>
<!-- Created with Inkscape (http://www.inkscape.org/) -->

<svg
   xmlns:dc="http://purl.org/dc/elements/1.1/"
   xmlns:cc="http://creativecommons.org/ns#"
   xmlns:rdf="http://www.w3.org/1999/02/22-rdf-syntax-ns#"
   xmlns:svg="http://www.w3.org/2000/svg"
   xmlns="http://www.w3.org/2000/svg"
   xmlns:sodipodi="http://sodipodi.sourceforge.net/DTD/sodipodi-0.dtd"
   xmlns:inkscape="http://www.inkscape.org/namespaces/inkscape"
   viewBox="0 0 11.835896 158.00061"
   id="svg14077"
   version="1.1"
   inkscape:version="0.91 r13725"
   sodipodi:docname="gauge-retro-pointer.svg">
  <defs
     id="defs14079" />
  <sodipodi:namedview
     id="base"
     pagecolor="#ffffff"
     bordercolor="#666666"
     borderopacity="1.0"
     inkscape:pageopacity="0.0"
     inkscape:pageshadow="2"
     inkscape:zoom="3.959798"
     inkscape:cx="-10.49549"
     inkscape:cy="84.325484"
     inkscape:document-units="px"
     inkscape:current-layer="layer1"
     showgrid="false"
     fit-margin-top="0"
     fit-margin-left="0"
     fit-margin-right="0"
     fit-margin-bottom="0"
     inkscape:window-width="1855"
     inkscape:window-height="1056"
     inkscape:window-x="65"
     inkscape:window-y="24"
     inkscape:window-maximized="1" />
  <metadata
     id="metadata14082">
    <rdf:RDF>
      <cc:Work
         rdf:about="">
        <dc:format>image/svg+xml</dc:format>
        <dc:type
           rdf:resource="http://purl.org/dc/dcmitype/StillImage" />
        <dc:title></dc:title>
      </cc:Work>
    </rdf:RDF>
  </metadata>
  <g
     inkscape:label="Layer 1"
     inkscape:groupmode="layer"
     id="layer1"
     transform="translate(-405.24598,-405.58589)">
    <g
       id="g14670"
       transform="matrix(-0.48480961,0.8746197,-0.8746197,-0.48480961,1032.8965,360.46702)">
      <path
         inkscape:connector-curvature="0"
         d="m 477.36924,445.35974 0.504,0.90267 c 0.55333,0.99466 0.18133,2.24933 -0.8,2.81466 l -131.292,75.6644 c -0.98533,0.5652 -2.26266,0.1912 -2.816,-0.79947 l -2.612,-4.68226 c -0.55066,-0.99213 -0.20133,-2.276 0.80134,-2.81667 l 133.39999,-71.87933 c 1.00267,-0.544 2.26134,-0.19867 2.81467,0.796"
         style="fill:#8e8e8f;fill-opacity:1;fill-rule:evenodd;stroke:none"
         id="path136" />
      <path
         inkscape:connector-curvature="0"
         d="m 345.03927,525.41271 c -0.99733,0 -1.91733,-0.538 -2.40266,-1.4052 l -2.612,-4.68333 c -0.35467,-0.638 -0.43867,-1.40786 -0.232,-2.112 0.20533,-0.70106 0.66666,-1.27506 1.29866,-1.61613 l 133.40131,-71.88041 c 1.28134,-0.69067 3.01334,-0.19867 3.71334,1.06 l 0.50266,0.90133 c 0.724,1.30134 0.25334,2.968 -1.04933,3.71867 l -131.29064,75.66387 c -0.404,0.23187 -0.86267,0.3532 -1.32934,0.3532 z m 130.77598,-80.69974 c -0.23733,0 -0.476,0.0613 -0.688,0.176 l -133.40264,71.88148 c -0.31734,0.17093 -0.54934,0.46 -0.65334,0.8152 -0.10666,0.36453 -0.0627,0.76293 0.11867,1.09 l 2.612,4.6824 c 0.36133,0.64786 1.25867,0.9124 1.90267,0.5452 l 131.28931,-75.66361 c 0.67466,-0.388 0.92266,-1.24667 0.55066,-1.91333 l -0.50266,-0.9 c -0.24534,-0.44134 -0.71467,-0.71334 -1.22667,-0.71334 l 0,0"
         style="fill:#828dfa;fill-opacity:1;fill-rule:nonzero;stroke:#f3f3f3;stroke-opacity:1"
         id="path138" />
    </g>
  </g>
</svg>
