<?xml version="1.0" encoding="UTF-8" standalone="no"?>
<!-- Created with Inkscape (http://www.inkscape.org/) -->

<svg
   xmlns:dc="http://purl.org/dc/elements/1.1/"
   xmlns:cc="http://creativecommons.org/ns#"
   xmlns:rdf="http://www.w3.org/1999/02/22-rdf-syntax-ns#"
   xmlns:svg="http://www.w3.org/2000/svg"
   xmlns="http://www.w3.org/2000/svg"
   xmlns:sodipodi="http://sodipodi.sourceforge.net/DTD/sodipodi-0.dtd"
   xmlns:inkscape="http://www.inkscape.org/namespaces/inkscape"
   viewBox="0 0 6.0225 21.76"
   id="svg8922"
   version="1.1"
   inkscape:version="0.91 r13725"
   sodipodi:docname="gauge-pointer-7.svg">
  <defs
     id="defs8924">
    <clipPath
       id="clipPath652"
       clipPathUnits="userSpaceOnUse">
      <path
         inkscape:connector-curvature="0"
         id="path654"
         d="m 4962.35,3297.88 c -12.91,0 -24.37,9.21 -26.76,22.34 -2.7,14.82 7.11,28.99 21.9,31.7 1.65,0.3 3.29,0.45 4.91,0.45 12.9,0 24.36,-9.22 26.76,-22.37 2.7,-14.79 -7.11,-28.97 -21.89,-31.67 -1.65,-0.3 -3.3,-0.45 -4.92,-0.45" />
    </clipPath>
    <clipPath
       id="clipPath640"
       clipPathUnits="userSpaceOnUse">
      <path
         inkscape:connector-curvature="0"
         id="path642"
         d="m 4962.33,3287 c -3.13,0 -6.21,0.38 -9.16,1.12 -14.09,3.51 -25.54,14.95 -28.31,30.16 -3.78,20.72 9.96,40.57 30.69,44.35 2.31,0.42 4.61,0.63 6.88,0.63 8.52,0 16.59,-2.87 23.09,-7.84 7.28,-5.56 12.59,-13.75 14.36,-23.47 3.77,-20.7 -9.95,-40.56 -30.66,-44.33 -2.32,-0.42 -4.62,-0.62 -6.89,-0.62 m 0.07,65.37 c -1.62,0 -3.26,-0.15 -4.91,-0.45 -14.79,-2.71 -24.6,-16.88 -21.9,-31.7 2.39,-13.13 13.85,-22.34 26.76,-22.34 1.62,0 3.27,0.15 4.92,0.45 14.78,2.7 24.59,16.88 21.89,31.67 -2.4,13.15 -13.86,22.37 -26.76,22.37" />
    </clipPath>
    <clipPath
       id="clipPath628"
       clipPathUnits="userSpaceOnUse">
      <path
         inkscape:connector-curvature="0"
         id="path630"
         d="m 4999.94,3279.01 c -15.32,0.34 -30.55,0.84 -45.86,1.52 l -0.91,7.59 c 2.95,-0.74 6.03,-1.12 9.16,-1.12 2.27,0 4.57,0.2 6.89,0.62 20.71,3.77 34.43,23.63 30.66,44.33 -1.77,9.72 -7.08,17.91 -14.36,23.47 6.44,0.57 12.79,1.62 19.02,3.49 0.26,-16.64 -0.34,-33.32 -1.84,-49.88 l -2.76,-30.02" />
    </clipPath>
    <clipPath
       id="clipPath546"
       clipPathUnits="userSpaceOnUse">
      <path
         inkscape:connector-curvature="0"
         id="path548"
         d="m 4979.41,3109.18 c -2.54,0 -5.1,1.94 -5.56,5.84 l -19.77,165.51 c 15.31,-0.68 30.54,-1.18 45.86,-1.52 l -15.04,-163.89 c -0.36,-3.96 -2.92,-5.94 -5.49,-5.94" />
    </clipPath>
    <radialGradient
       id="radialGradient550"
       spreadMethod="pad"
       gradientTransform="matrix(-57.8156,-171.983,-171.983,57.8156,4972.5,3357.5)"
       gradientUnits="userSpaceOnUse"
       r="1"
       cy="0"
       cx="0"
       fy="0"
       fx="0">
      <stop
         id="stop552"
         offset="0"
         style="stop-opacity:1;stop-color:#000000" />
      <stop
         id="stop554"
         offset="0.55896837"
         style="stop-opacity:1;stop-color:#0aa94d" />
      <stop
         id="stop556"
         offset="1"
         style="stop-opacity:1;stop-color:#0aa94d" />
    </radialGradient>
  </defs>
  <sodipodi:namedview
     id="base"
     pagecolor="#ffffff"
     bordercolor="#666666"
     borderopacity="1.0"
     inkscape:pageopacity="0.0"
     inkscape:pageshadow="2"
     inkscape:zoom="11.2"
     inkscape:cx="7.8686017"
     inkscape:cy="10.089943"
     inkscape:document-units="px"
     inkscape:current-layer="layer1"
     showgrid="false"
     fit-margin-top="0"
     fit-margin-left="0"
     fit-margin-right="0"
     fit-margin-bottom="0"
     inkscape:window-width="1680"
     inkscape:window-height="958"
     inkscape:window-x="0"
     inkscape:window-y="0"
     inkscape:window-maximized="1"
     units="px" />
  <metadata
     id="metadata8927">
    <rdf:RDF>
      <cc:Work
         rdf:about="">
        <dc:format>image/svg+xml</dc:format>
        <dc:type
           rdf:resource="http://purl.org/dc/dcmitype/StillImage" />
        <dc:title></dc:title>
      </cc:Work>
    </rdf:RDF>
  </metadata>
  <g
     inkscape:label="Layer 1"
     inkscape:groupmode="layer"
     id="layer1"
     transform="translate(-126.38265,-610.32489)">
    <g
       id="g542"
       transform="matrix(0.125,0,0,-0.125,-492.71808,1020.5538)"
       style="stroke:#23ff42;stroke-opacity:0.47826089">
      <g
         clip-path="url(#clipPath546)"
         id="g544"
         style="stroke:#23ff42;stroke-opacity:0.47826089">
        <path
           id="path558"
           style="fill:url(#radialGradient550);fill-opacity:1;fill-rule:nonzero;stroke:#23ff42;stroke-opacity:0.47826089"
           d="m 4979.41,3109.18 c -2.54,0 -5.1,1.94 -5.56,5.84 l -19.77,165.51 c 15.31,-0.68 30.54,-1.18 45.86,-1.52 l -15.04,-163.89 c -0.36,-3.96 -2.92,-5.94 -5.49,-5.94"
           inkscape:connector-curvature="0" />
      </g>
    </g>
  </g>
</svg>
