<?xml version="1.0" encoding="UTF-8" standalone="no"?>
<!-- Created with Inkscape (http://www.inkscape.org/) -->

<svg
   xmlns:dc="http://purl.org/dc/elements/1.1/"
   xmlns:cc="http://creativecommons.org/ns#"
   xmlns:rdf="http://www.w3.org/1999/02/22-rdf-syntax-ns#"
   xmlns:svg="http://www.w3.org/2000/svg"
   xmlns="http://www.w3.org/2000/svg"
   xmlns:sodipodi="http://sodipodi.sourceforge.net/DTD/sodipodi-0.dtd"
   xmlns:inkscape="http://www.inkscape.org/namespaces/inkscape"
   width="72.672989mm"
   height="39.48616mm"
   viewBox="0 0 257.50271 139.91159"
   id="svg7118"
   version="1.1"
   inkscape:version="0.91 r13725"
   sodipodi:docname="fuel-panel.svg">
  <defs
     id="defs7120">
    <clipPath
       clipPathUnits="userSpaceOnUse"
       id="clipPath7700">
      <rect
         style="fill:#808080;fill-opacity:1"
         id="rect7702"
         width="254.36864"
         height="149.33084"
         x="735.26459"
         y="357.06955" />
    </clipPath>
  </defs>
  <sodipodi:namedview
     id="base"
     pagecolor="#ffffff"
     bordercolor="#666666"
     borderopacity="1.0"
     inkscape:pageopacity="0.0"
     inkscape:pageshadow="2"
     inkscape:zoom="0.98994949"
     inkscape:cx="-124.51087"
     inkscape:cy="14.485741"
     inkscape:document-units="px"
     inkscape:current-layer="layer1"
     showgrid="false"
     fit-margin-top="0"
     fit-margin-left="0"
     fit-margin-right="0"
     fit-margin-bottom="0"
     inkscape:window-width="1855"
     inkscape:window-height="1056"
     inkscape:window-x="65"
     inkscape:window-y="24"
     inkscape:window-maximized="1" />
  <metadata
     id="metadata7123">
    <rdf:RDF>
      <cc:Work
         rdf:about="">
        <dc:format>image/svg+xml</dc:format>
        <dc:type
           rdf:resource="http://purl.org/dc/dcmitype/StillImage" />
        <dc:title></dc:title>
      </cc:Work>
    </rdf:RDF>
  </metadata>
  <g
     inkscape:label="Layer 1"
     inkscape:groupmode="layer"
     id="layer1"
     transform="translate(-233.60071,-424.2534)">
    <path
       id="path14"
       style="fill:#100f0d;fill-opacity:1;fill-rule:evenodd;stroke:none"
       d="m 233.60071,564.16499 257.50271,0 0,-139.91159 -257.50271,0 z"
       inkscape:connector-curvature="0" />
    <g
       id="g4735"
       transform="translate(-1.0101528,3.0304577)">
      <path
         inkscape:connector-curvature="0"
         d="m 381.23718,437.74564 2.588,0.456 -2.50933,14.23066 c -0.86133,-0.16266 -1.72,-0.312 -2.588,-0.45466 l 2.50933,-14.232 z m 40.272,13.388 -4.812,-2.77734 -11.13733,19.28134 4.81467,2.78533 11.13466,-19.28933 z m -75.82799,-13.388 -2.58534,0.456 2.51067,14.228 c 0.86,-0.16 1.72133,-0.30934 2.58933,-0.45334 l -2.51466,-14.23066 z m -18.54534,4.73466 -2.47066,0.89734 4.94133,13.56933 c 0.816,-0.31067 1.63867,-0.60667 2.468,-0.89733 l -4.93867,-13.56934 z m 107.93467,20.35734 -2.02934,-1.70134 -9.308,11.1 c 0.68134,0.55734 1.35867,1.12534 2.028,1.70134 l 9.30934,-11.1 z m 13.37333,13.70266 -1.704,-2.032 -11.08933,9.31467 c 0.572,0.664 1.14,1.34 1.69733,2.028 l 11.096,-9.31067 z m -89.22266,-43.15866 8.476,0 0,25.18133 -8.476,0 z m 99.75999,52.70133 4.236,7.34267 -21.80933,12.588 -4.24,-7.34 21.81333,-12.59067 z m -191.03866,0 -4.23867,7.34267 21.80934,12.588 4.24,-7.34 -21.81067,-12.59067 z m 42.28133,-37.724 -4.812,2.78 11.132,19.284 4.812,-2.78533 -11.132,-19.27867 z m 89.564,-5.87867 2.46533,0.89734 -4.93866,13.57466 c -0.81867,-0.31333 -1.64134,-0.612 -2.468,-0.90266 l 4.94133,-13.56934 z m -107.94,20.35734 2.02934,-1.70134 9.31466,11.1 c -0.68266,0.55734 -1.36,1.12534 -2.03066,1.70134 l -9.31334,-11.1 z m -13.37066,13.70266 1.7,-2.032 11.10133,9.31467 c -0.57733,0.66933 -1.14533,1.34933 -1.70267,2.028 l -11.09866,-9.31067"
         style="fill:#ffffff;fill-opacity:1;fill-rule:evenodd;stroke:none"
         id="path188" />
      <path
         inkscape:connector-curvature="0"
         d="m 351.47852,501.42697 21.70266,-30.504 3.092,0 -21.69599,30.504 -3.09867,0 z m 2.032,-15.56133 2.85733,0 0,-14.80667 -2.13066,0 c -0.61734,0.8 -1.424,1.552 -2.42134,2.24533 -1.00266,0.7 -1.90266,1.176 -2.724,1.43734 l 0,2.432 c 1.60667,-0.42667 3.07867,-1.168 4.41867,-2.236 z m 14.148,15.056 12.276,0 0,-2.38934 -7.60134,0 c 0.45734,-0.46 1.23734,-1.09333 2.34,-1.892 2.08934,-1.51866 3.43467,-2.65066 4.02534,-3.39066 0.772,-0.97867 1.164,-2.032 1.164,-3.13467 0,-1.11467 -0.46534,-2.05733 -1.39467,-2.84 -0.92933,-0.77467 -2.38133,-1.15467 -4.36667,-1.15467 -1.74533,0 -3.09333,0.34 -4.03466,1.02667 -0.948,0.696 -1.61334,1.77867 -1.992,3.24267 l 2.97333,0.29333 c 0.27733,-0.86133 0.628,-1.448 1.05867,-1.75733 0.42266,-0.308 1.07466,-0.46534 1.93466,-0.46534 0.90934,0 1.58934,0.20134 2.04534,0.60267 0.452,0.4 0.676,0.92 0.676,1.54667 0,0.57066 -0.23867,1.11733 -0.72667,1.66133 -0.35067,0.39867 -1.48,1.29067 -3.37333,2.652 -1.88934,1.372 -3.244,2.628 -4.05467,3.76667 -0.552,0.748 -0.86933,1.48666 -0.94933,2.232"
         style="fill:#ffffff;fill-opacity:1;fill-rule:nonzero;stroke:none"
         id="path190" />
      <path
         inkscape:connector-curvature="0"
         d="m 256.65852,544.50697 0,-29.71867 21.48667,0 0,3.50934 -17.55067,0 0,9.09866 16.44,0 0,3.48667 -16.44,0 0,10.11466 18.24,0 0,3.50934 -22.176,0"
         style="fill:#ffffff;fill-opacity:1;fill-rule:nonzero;stroke:none"
         id="path192" />
      <path
         inkscape:connector-curvature="0"
         d="m 448.57985,544.50697 0,-29.71867 20.052,0 0,3.50934 -16.11333,0 0,9.19866 13.93866,0 0,3.50934 -13.93866,0 0,13.50133 -3.93867,0"
         style="fill:#ffffff;fill-opacity:1;fill-rule:nonzero;stroke:none"
         id="path194" />
      <path
         inkscape:connector-curvature="0"
         d="m 392.40118,542.5123 2.74534,0 0,-26.652 -0.005,0 0.005,0 c 0.004,-0.88 0.36,-1.67733 0.93466,-2.25333 0.56934,-0.568 1.35867,-0.92133 2.22667,-0.924 l 0.009,-0.003 11.66667,0 0,0.003 c 0.87867,0.003 1.672,0.364 2.24533,0.93467 0.57067,0.57333 0.924,1.35866 0.92667,2.228 l 0.008,0.012 0,0.003 -0.008,0 0,9.48134 c 0.31867,0 0.63333,0.0107 0.94267,0.036 2.09066,0.14666 4.04266,0.76933 4.76133,2.63866 0.70667,1.86934 0.80133,3.80933 0.892,5.74933 0.068,1.36 -0.268,5.13734 1.54267,5.65334 1.27733,0.224 1.68533,-1.23067 1.83466,-2.108 0.544,-3.14 -0.296,-7.81467 -0.67333,-9.54533 -0.95733,-4.38667 0.30267,-9.50534 -6.112,-10.87334 l 0.23333,-1.16533 c 6.82134,1.57867 7.264,4.51333 7.804,8.472 0.128,0.94133 0.268,1.948 0.504,3.04 0.41067,1.88 1.04,7.06266 0.43734,10.54933 -0.128,0.73467 -0.312,1.416 -0.56934,1.99733 -0.75866,1.74934 -2.28133,2.552 -4.13733,2.02267 -3.31867,-0.94533 -3.20933,-5.14 -3.34267,-7.92267 -0.0813,-1.736 -0.16666,-3.47199 -0.73866,-4.97866 -0.26667,-0.70533 -1.37867,-0.968 -2.6,-1.05067 -0.25734,-0.0173 -0.51734,-0.028 -0.77867,-0.0307 l 0,14.68666 2.744,0 0,3.488 -23.49867,0 z m 6.21734,0 11.06666,0 0,-14.068 -11.06666,0 z m 0,-17.548 11.06666,0 0,-8.8 -11.06666,0 0,8.8"
         style="fill:#ffffff;fill-opacity:1;fill-rule:evenodd;stroke:none"
         id="path198" class="color-change-aware" />
    </g>
  </g>
</svg>
