<?xml version="1.0" encoding="UTF-8" standalone="no"?>
<!-- Created with Inkscape (http://www.inkscape.org/) -->

<svg
   xmlns:dc="http://purl.org/dc/elements/1.1/"
   xmlns:cc="http://creativecommons.org/ns#"
   xmlns:rdf="http://www.w3.org/1999/02/22-rdf-syntax-ns#"
   xmlns:svg="http://www.w3.org/2000/svg"
   xmlns="http://www.w3.org/2000/svg"
   xmlns:xlink="http://www.w3.org/1999/xlink"
   xmlns:sodipodi="http://sodipodi.sourceforge.net/DTD/sodipodi-0.dtd"
   xmlns:inkscape="http://www.inkscape.org/namespaces/inkscape"
   width="16.4338mm"
   height="16.436975mm"
   viewBox="0 0 58.229999 58.241251"
   id="svg19423"
   version="1.1"
   inkscape:version="0.91 r13725"
   sodipodi:docname="gauge-clock-panel-2.svg">
  <defs
     id="defs19425">
    <linearGradient
       inkscape:collect="always"
       id="linearGradient25376">
      <stop
         style="stop-color:#e1e3f5;stop-opacity:1;"
         offset="0"
         id="stop25378" />
      <stop
         style="stop-color:#e1e3f5;stop-opacity:0;"
         offset="1"
         id="stop25380" />
    </linearGradient>
    <linearGradient
       inkscape:collect="always"
       xlink:href="#linearGradient25376"
       id="linearGradient25382"
       x1="397.62128"
       y1="593.31097"
       x2="432.21902"
       y2="625.00452"
       gradientUnits="userSpaceOnUse"
       gradientTransform="matrix(1.0387627,0,0,1.0406625,287.99761,-813.50941)" />
    <radialGradient
       fx="0"
       fy="0"
       cx="0"
       cy="0"
       r="1"
       gradientUnits="userSpaceOnUse"
       gradientTransform="matrix(19.314,0,0,19.314,411.41068,595.4777)"
       spreadMethod="pad"
       id="radialGradient3310-4">
      <stop
         style="stop-opacity:1;stop-color:#ffffff"
         offset="0"
         id="stop3312-5" />
      <stop
         style="stop-opacity:1;stop-color:#ffffff"
         offset="0.230769"
         id="stop3314-0" />
      <stop
         style="stop-opacity:1;stop-color:#dbe0e3"
         offset="1"
         id="stop3316-3" />
    </radialGradient>
    <clipPath
       clipPathUnits="userSpaceOnUse"
       id="clipPath3238-6">
      <path
         d="m 344.16,4374.36 c -119.879,0 -216.992,-97.11 -216.992,-216.99 l 0,0 c 0,-1.44 0.094,-2.88 0.094,-4.32 2.34,117.81 98.551,212.58 216.898,212.58 118.352,0 214.469,-94.77 216.813,-212.58 0.086,1.44 0.179,2.88 0.179,4.32 l 0,0 c 0,119.88 -97.203,216.99 -216.992,216.99 l 0,0 z"
         id="path3240-1"
         inkscape:connector-curvature="0" />
    </clipPath>
    <radialGradient
       fx="0"
       fy="0"
       cx="0"
       cy="0"
       r="1"
       gradientUnits="userSpaceOnUse"
       gradientTransform="matrix(431.052,0,0,431.052,344.185,3940.85)"
       spreadMethod="pad"
       id="radialGradient3242-0">
      <stop
         style="stop-opacity:1;stop-color:#d6d6d6"
         offset="0"
         id="stop3244-6" />
      <stop
         style="stop-opacity:1;stop-color:#d6d6d6"
         offset="0.230769"
         id="stop3246-3" />
      <stop
         style="stop-opacity:1;stop-color:#98a4ab"
         offset="1"
         id="stop3248-2" />
    </radialGradient>
    <clipPath
       clipPathUnits="userSpaceOnUse"
       id="clipPath3202-0">
      <path
         d="m 344.16,4379.31 c -101.48,0 -187.047,-68.09 -213.496,-161.09 -5.5,-19.33 -8.441,-39.75 -8.441,-60.85 0,-122.49 99.359,-221.85 221.937,-221.85 122.488,0 221.852,99.36 221.852,221.85 0,29.44 -5.739,57.54 -16.145,83.25 -32.926,81.32 -112.637,138.69 -205.707,138.69 l 0,0 z m -216.992,-221.94 0,0 c 0,119.88 97.113,216.99 216.992,216.99 119.789,0 216.992,-97.11 216.992,-216.99 l 0,0 0,0 c 0,-119.79 -97.203,-216.9 -216.992,-216.9 -119.879,0 -216.992,97.11 -216.992,216.9 l 0,0 0,0 z"
         id="path3204-6"
         inkscape:connector-curvature="0" />
    </clipPath>
    <radialGradient
       fx="0"
       fy="0"
       cx="0"
       cy="0"
       r="1"
       gradientUnits="userSpaceOnUse"
       gradientTransform="matrix(378.214,0,0,378.214,339.8,3946.27)"
       spreadMethod="pad"
       id="radialGradient3206-1">
      <stop
         style="stop-opacity:1;stop-color:#ffffff"
         offset="0"
         id="stop3208-5" />
      <stop
         style="stop-opacity:1;stop-color:#ffffff"
         offset="0.115385"
         id="stop3210-5" />
      <stop
         style="stop-opacity:1;stop-color:#595c62"
         offset="1"
         id="stop3212-4" />
    </radialGradient>
    <clipPath
       clipPathUnits="userSpaceOnUse"
       id="clipPath3186-7">
      <path
         d="m 344.16,4386.69 c -101.66,0 -187.883,-66.18 -217.937,-157.8 1.382,-3.58 2.871,-7.15 4.441,-10.67 26.449,93 112.016,161.09 213.496,161.09 93.07,0 172.781,-57.37 205.707,-138.69 1.196,3.68 2.289,7.37 3.285,11.09 -35.949,79.58 -115.988,134.98 -208.992,134.98 l 0,0 z"
         id="path3188-6"
         inkscape:connector-curvature="0" />
    </clipPath>
    <radialGradient
       fx="0"
       fy="0"
       cx="0"
       cy="0"
       r="1"
       gradientUnits="userSpaceOnUse"
       gradientTransform="matrix(349.211,0,0,349.211,345.186,4387.64)"
       spreadMethod="pad"
       id="radialGradient3190-5">
      <stop
         style="stop-opacity:1;stop-color:#e3e2e1"
         offset="0"
         id="stop3192-6" />
      <stop
         style="stop-opacity:1;stop-color:#9a9c9f"
         offset="1"
         id="stop3194-9" />
    </radialGradient>
    <clipPath
       clipPathUnits="userSpaceOnUse"
       id="clipPath3170-3">
      <path
         d="m 344.211,4390.38 c -27.84,0 -55.625,-4.97 -81.938,-14.8 -0.117,-0.04 -0.238,-0.09 -0.359,-0.13 -0.527,-0.2 -1.062,-0.41 -1.594,-0.61 -0.531,-0.21 -1.058,-0.41 -1.59,-0.62 0,0 -0.003,0 -0.015,-0.01 -62.754,-24.75 -112.168,-75.99 -134.496,-139.94 0.644,-1.8 1.312,-3.59 2.004,-5.38 30.054,91.62 116.277,157.8 217.937,157.8 93.004,0 173.043,-55.4 208.992,-134.98 0.5,1.85 0.981,3.7 1.426,5.56 -3.183,6.75 -6.711,13.37 -10.574,19.84 -0.027,0.05 -0.055,0.09 -0.082,0.14 -0.344,0.57 -0.692,1.14 -1.035,1.71 -0.309,0.5 -0.606,0.99 -0.922,1.49 -0.051,0.09 -0.106,0.17 -0.156,0.25 -27.207,43.55 -68.395,77.44 -117.266,95.43 -0.152,0.05 -0.305,0.11 -0.461,0.16 -0.562,0.21 -1.133,0.41 -1.699,0.61 -0.352,0.13 -0.723,0.26 -1.078,0.39 -0.2,0.07 -0.426,0.15 -0.629,0.22 -24.77,8.6 -50.633,12.87 -76.465,12.87 l 0,0 z"
         id="path3172-7"
         inkscape:connector-curvature="0" />
    </clipPath>
    <radialGradient
       fx="0"
       fy="0"
       cx="0"
       cy="0"
       r="1"
       gradientUnits="userSpaceOnUse"
       gradientTransform="matrix(354.85,0,0,354.85,342.021,4387.96)"
       spreadMethod="pad"
       id="radialGradient3174-4">
      <stop
         style="stop-opacity:1;stop-color:#d1d1d1"
         offset="0"
         id="stop3176-5" />
      <stop
         style="stop-opacity:1;stop-color:#86898e"
         offset="1"
         id="stop3178-2" />
    </radialGradient>
    <clipPath
       clipPathUnits="userSpaceOnUse"
       id="clipPath3152-5">
      <path
         d="m 553.152,4251.71 c -0.996,-3.72 -2.089,-7.41 -3.285,-11.09 10.406,-25.71 16.145,-53.81 16.145,-83.25 0,-122.49 -99.364,-221.85 -221.852,-221.85 -122.578,0 -221.937,99.36 -221.937,221.85 0,21.1 2.941,41.52 8.441,60.85 -1.57,3.52 -3.059,7.09 -4.441,10.67 -7.383,-22.5 -11.383,-46.55 -11.383,-71.52 0,-126.54 102.687,-229.23 229.32,-229.23 126.633,0 229.231,102.69 229.231,229.23 0,33.63 -7.235,65.56 -20.239,94.34 l 0,0 z"
         id="path3154-4"
         inkscape:connector-curvature="0" />
    </clipPath>
    <radialGradient
       fx="0"
       fy="0"
       cx="0"
       cy="0"
       r="1"
       gradientUnits="userSpaceOnUse"
       gradientTransform="matrix(349.211,0,0,349.211,345.186,4387.64)"
       spreadMethod="pad"
       id="radialGradient3156-7">
      <stop
         style="stop-opacity:1;stop-color:#d1d1d1"
         offset="0"
         id="stop3158-4" />
      <stop
         style="stop-opacity:1;stop-color:#61656c"
         offset="1"
         id="stop3160-4" />
    </radialGradient>
    <clipPath
       clipPathUnits="userSpaceOnUse"
       id="clipPath3136-3">
      <path
         d="m 344.16,4390.38 c -28.824,0 -56.41,-5.24 -81.887,-14.8 26.313,9.83 54.098,14.8 81.938,14.8 25.832,0 51.695,-4.27 76.465,-12.87 -23.973,8.34 -49.707,12.87 -76.516,12.87 l 0,0 z m 77.145,-13.09 c 0.355,-0.13 0.726,-0.26 1.078,-0.39 -0.363,0.14 -0.711,0.26 -1.078,0.39 l 0,0 z m 2.777,-1 c 0.156,-0.05 0.309,-0.11 0.461,-0.16 -0.152,0.05 -0.305,0.11 -0.461,0.16 l 0,0 z m -162.168,-0.84 c -0.531,-0.2 -1.059,-0.41 -1.594,-0.61 0.532,0.2 1.067,0.41 1.594,0.61 l 0,0 z m -3.184,-1.23 c 0,0 -0.003,0 -0.015,-0.01 0.012,0.01 0.012,0.01 0.012,0.01 l 0.003,0 z m 283.079,-93.52 c 0.05,-0.08 0.105,-0.16 0.156,-0.25 -0.051,0.08 -0.11,0.18 -0.156,0.25 l 0,0 z m 1.078,-1.74 c 0.343,-0.57 0.691,-1.14 1.035,-1.71 -0.336,0.56 -0.692,1.14 -1.035,1.71 l 0,0 z m 1.117,-1.85 c 3.863,-6.47 7.391,-13.09 10.574,-19.84 -0.445,-1.86 -0.926,-3.71 -1.426,-5.56 13.004,-28.78 20.239,-60.71 20.239,-94.34 0,-126.54 -102.598,-229.23 -229.231,-229.23 -126.633,0 -229.32,102.69 -229.32,229.23 0,24.97 4,49.02 11.383,71.52 -0.692,1.79 -1.36,3.58 -2.004,5.38 -8.406,-24.08 -12.981,-49.95 -12.981,-76.9 0,-128.61 104.223,-232.92 232.922,-232.92 128.61,0 232.918,104.31 232.918,232.92 0,43.78 -12.078,84.75 -33.074,119.74 l 0,0 z"
         id="path3138-0"
         inkscape:connector-curvature="0" />
    </clipPath>
    <radialGradient
       fx="0"
       fy="0"
       cx="0"
       cy="0"
       r="1"
       gradientUnits="userSpaceOnUse"
       gradientTransform="matrix(354.586,0,0,354.586,342.197,4387.96)"
       spreadMethod="pad"
       id="radialGradient3140-7">
      <stop
         style="stop-opacity:1;stop-color:#b5b5b6"
         offset="0"
         id="stop3142-8" />
      <stop
         style="stop-opacity:1;stop-color:#414246"
         offset="1"
         id="stop3144-6" />
    </radialGradient>
  </defs>
  <sodipodi:namedview
     id="base"
     pagecolor="#ffffff"
     bordercolor="#666666"
     borderopacity="1.0"
     inkscape:pageopacity="0.0"
     inkscape:pageshadow="2"
     inkscape:zoom="5.6"
     inkscape:cx="-13.294265"
     inkscape:cy="-0.96164009"
     inkscape:document-units="px"
     inkscape:current-layer="layer1"
     showgrid="false"
     fit-margin-top="0"
     fit-margin-left="0"
     fit-margin-right="0"
     fit-margin-bottom="0"
     inkscape:window-width="1855"
     inkscape:window-height="1056"
     inkscape:window-x="65"
     inkscape:window-y="24"
     inkscape:window-maximized="1" />
  <metadata
     id="metadata19428">
    <rdf:RDF>
      <cc:Work
         rdf:about="">
        <dc:format>image/svg+xml</dc:format>
        <dc:type
           rdf:resource="http://purl.org/dc/dcmitype/StillImage" />
        <dc:title></dc:title>
      </cc:Work>
    </rdf:RDF>
  </metadata>
  <g
     inkscape:label="Layer 1"
     inkscape:groupmode="layer"
     id="layer1"
     transform="translate(-382.28993,-581.8252)">
    <ellipse
       style="fill:url(#linearGradient25382);fill-opacity:1;stroke:none;stroke-opacity:0.47826089"
       id="path25374"
       cx="715.72211"
       cy="-176.888"
       rx="27.282028"
       ry="27.266224"
       transform="matrix(0.34274106,0.93942992,-0.9399543,0.34130033,0,0)" />
    <g
       id="g3132"
       transform="matrix(0.125,0,0,-0.125,368.38518,1130.6227)">
      <g
         clip-path="url(#clipPath3136-3)"
         id="g3134">
        <path
           inkscape:connector-curvature="0"
           id="path3146"
           style="fill:url(#radialGradient3140-7);fill-opacity:1;fill-rule:nonzero;stroke:none"
           d="m 344.16,4390.38 c -28.824,0 -56.41,-5.24 -81.887,-14.8 26.313,9.83 54.098,14.8 81.938,14.8 25.832,0 51.695,-4.27 76.465,-12.87 -23.973,8.34 -49.707,12.87 -76.516,12.87 l 0,0 z m 77.145,-13.09 c 0.355,-0.13 0.726,-0.26 1.078,-0.39 -0.363,0.14 -0.711,0.26 -1.078,0.39 l 0,0 z m 2.777,-1 c 0.156,-0.05 0.309,-0.11 0.461,-0.16 -0.152,0.05 -0.305,0.11 -0.461,0.16 l 0,0 z m -162.168,-0.84 c -0.531,-0.2 -1.059,-0.41 -1.594,-0.61 0.532,0.2 1.067,0.41 1.594,0.61 l 0,0 z m -3.184,-1.23 c 0,0 -0.003,0 -0.015,-0.01 0.012,0.01 0.012,0.01 0.012,0.01 l 0.003,0 z m 283.079,-93.52 c 0.05,-0.08 0.105,-0.16 0.156,-0.25 -0.051,0.08 -0.11,0.18 -0.156,0.25 l 0,0 z m 1.078,-1.74 c 0.343,-0.57 0.691,-1.14 1.035,-1.71 -0.336,0.56 -0.692,1.14 -1.035,1.71 l 0,0 z m 1.117,-1.85 c 3.863,-6.47 7.391,-13.09 10.574,-19.84 -0.445,-1.86 -0.926,-3.71 -1.426,-5.56 13.004,-28.78 20.239,-60.71 20.239,-94.34 0,-126.54 -102.598,-229.23 -229.231,-229.23 -126.633,0 -229.32,102.69 -229.32,229.23 0,24.97 4,49.02 11.383,71.52 -0.692,1.79 -1.36,3.58 -2.004,5.38 -8.406,-24.08 -12.981,-49.95 -12.981,-76.9 0,-128.61 104.223,-232.92 232.922,-232.92 128.61,0 232.918,104.31 232.918,232.92 0,43.78 -12.078,84.75 -33.074,119.74 l 0,0" />
      </g>
    </g>
    <g
       id="g3148"
       transform="matrix(0.125,0,0,-0.125,368.38518,1130.6227)">
      <g
         clip-path="url(#clipPath3152-5)"
         id="g3150">
        <path
           inkscape:connector-curvature="0"
           id="path3162"
           style="fill:url(#radialGradient3156-7);fill-opacity:1;fill-rule:nonzero;stroke:none"
           d="m 553.152,4251.71 c -0.996,-3.72 -2.089,-7.41 -3.285,-11.09 10.406,-25.71 16.145,-53.81 16.145,-83.25 0,-122.49 -99.364,-221.85 -221.852,-221.85 -122.578,0 -221.937,99.36 -221.937,221.85 0,21.1 2.941,41.52 8.441,60.85 -1.57,3.52 -3.059,7.09 -4.441,10.67 -7.383,-22.5 -11.383,-46.55 -11.383,-71.52 0,-126.54 102.687,-229.23 229.32,-229.23 126.633,0 229.231,102.69 229.231,229.23 0,33.63 -7.235,65.56 -20.239,94.34 l 0,0" />
      </g>
    </g>
    <path
       inkscape:connector-curvature="0"
       id="path3164"
       style="fill:#ffffff;fill-opacity:1;fill-rule:nonzero;stroke:none"
       d="m 420.96968,583.434 c 0.0254,0.009 0.0536,0.0188 0.0786,0.0275 -0.0259,-0.009 -0.0527,-0.0188 -0.0786,-0.0275 l 0,0 z m 0.21338,0.0762 c 0.0707,0.025 0.14212,0.05 0.21237,0.0763 -0.0707,-0.0263 -0.14112,-0.0513 -0.21237,-0.0763 l 0,0 z m 0.27,0.0962 c 6.10887,2.24875 11.25737,6.485 14.65825,11.92875 -1.41075,-2.265 -3.15975,-4.3725 -5.24375,-6.25125 -2.83688,-2.55 -6.0395,-4.4375 -9.4145,-5.6775 l 0,0 z m -20.28375,0.0688 c -0.0151,0.006 -0.0292,0.0112 -0.0449,0.0162 0.0151,-0.005 0.0302,-0.0112 0.0449,-0.0162 l 0,0 z m -0.24413,0.0925 c -0.0664,0.0262 -0.13275,0.0512 -0.19875,0.0775 0.0665,-0.0263 0.13238,-0.0513 0.19875,-0.0775 l 0,0 z m -0.20062,0.0787 c -4.07963,1.6025 -7.857,4.15125 -10.98688,7.63125 -2.65525,2.97 -4.58975,6.3225 -5.82762,9.855 5e-4,0.002 0.002,0.004 0.002,0.006 2.791,-7.99375 8.96775,-14.39875 16.812,-17.4925 l 0,0 z m 35.40625,11.72 c 0.0395,0.0625 0.0766,0.12375 0.11525,0.18625 -0.0381,-0.0613 -0.0768,-0.12375 -0.11525,-0.18625 l 0,0 z m 0.24462,0.4 c 0.003,0.006 0.007,0.0112 0.0103,0.0175 -0.003,-0.006 -0.007,-0.0113 -0.0103,-0.0175 l 0,0" />
    <g
       id="g3166"
       transform="matrix(0.125,0,0,-0.125,368.38518,1130.6227)">
      <g
         clip-path="url(#clipPath3170-3)"
         id="g3168">
        <path
           inkscape:connector-curvature="0"
           id="path3180"
           style="fill:url(#radialGradient3174-4);fill-opacity:1;fill-rule:nonzero;stroke:none"
           d="m 344.211,4390.38 c -27.84,0 -55.625,-4.97 -81.938,-14.8 -0.117,-0.04 -0.238,-0.09 -0.359,-0.13 -0.527,-0.2 -1.062,-0.41 -1.594,-0.61 -0.531,-0.21 -1.058,-0.41 -1.59,-0.62 0,0 -0.003,0 -0.015,-0.01 -62.754,-24.75 -112.168,-75.99 -134.496,-139.94 0.644,-1.8 1.312,-3.59 2.004,-5.38 30.054,91.62 116.277,157.8 217.937,157.8 93.004,0 173.043,-55.4 208.992,-134.98 0.5,1.85 0.981,3.7 1.426,5.56 -3.183,6.75 -6.711,13.37 -10.574,19.84 -0.027,0.05 -0.055,0.09 -0.082,0.14 -0.344,0.57 -0.692,1.14 -1.035,1.71 -0.309,0.5 -0.606,0.99 -0.922,1.49 -0.051,0.09 -0.106,0.17 -0.156,0.25 -27.207,43.55 -68.395,77.44 -117.266,95.43 -0.152,0.05 -0.305,0.11 -0.461,0.16 -0.562,0.21 -1.133,0.41 -1.699,0.61 -0.352,0.13 -0.723,0.26 -1.078,0.39 -0.2,0.07 -0.426,0.15 -0.629,0.22 -24.77,8.6 -50.633,12.87 -76.465,12.87 l 0,0" />
      </g>
    </g>
    <g
       id="g3182"
       transform="matrix(0.125,0,0,-0.125,368.38518,1130.6227)">
      <g
         clip-path="url(#clipPath3186-7)"
         id="g3184">
        <path
           inkscape:connector-curvature="0"
           id="path3196"
           style="fill:url(#radialGradient3190-5);fill-opacity:1;fill-rule:nonzero;stroke:none"
           d="m 344.16,4386.69 c -101.66,0 -187.883,-66.18 -217.937,-157.8 1.382,-3.58 2.871,-7.15 4.441,-10.67 26.449,93 112.016,161.09 213.496,161.09 93.07,0 172.781,-57.37 205.707,-138.69 1.196,3.68 2.289,7.37 3.285,11.09 -35.949,79.58 -115.988,134.98 -208.992,134.98 l 0,0" />
      </g>
    </g>
    <g
       id="g3198"
       transform="matrix(0.125,0,0,-0.125,368.38518,1130.6227)">
      <g
         clip-path="url(#clipPath3202-0)"
         id="g3200">
        <path
           inkscape:connector-curvature="0"
           id="path3214"
           style="fill:url(#radialGradient3206-1);fill-opacity:1;fill-rule:nonzero;stroke:none"
           d="m 344.16,4379.31 c -101.48,0 -187.047,-68.09 -213.496,-161.09 -5.5,-19.33 -8.441,-39.75 -8.441,-60.85 0,-122.49 99.359,-221.85 221.937,-221.85 122.488,0 221.852,99.36 221.852,221.85 0,29.44 -5.739,57.54 -16.145,83.25 -32.926,81.32 -112.637,138.69 -205.707,138.69 l 0,0 z m -216.992,-221.94 0,0 c 0,119.88 97.113,216.99 216.992,216.99 119.789,0 216.992,-97.11 216.992,-216.99 l 0,0 c 0,-119.79 -97.203,-216.9 -216.992,-216.9 -119.879,0 -216.992,97.11 -216.992,216.9 l 0,0" />
      </g>
    </g>
    <g
       id="g3234"
       transform="matrix(0.125,0,0,-0.125,368.38518,1130.6227)">
      <g
         clip-path="url(#clipPath3238-6)"
         id="g3236">
        <path
           inkscape:connector-curvature="0"
           id="path3250"
           style="fill:url(#radialGradient3242-0);fill-opacity:1;fill-rule:nonzero;stroke:none"
           d="m 344.16,4374.36 c -119.879,0 -216.992,-97.11 -216.992,-216.99 l 0,0 c 0,-1.44 0.094,-2.88 0.094,-4.32 2.34,117.81 98.551,212.58 216.898,212.58 118.352,0 214.469,-94.77 216.813,-212.58 0.086,1.44 0.179,2.88 0.179,4.32 l 0,0 c 0,119.88 -97.203,216.99 -216.992,216.99 l 0,0" />
      </g>
    </g>
    <path
       inkscape:connector-curvature="0"
       id="path3252"
       style="fill:#0e0f0e;fill-opacity:1;fill-rule:nonzero;stroke:none"
       d="m 411.58543,593.199 0,-7.45875 -0.36037,0 0,7.45875 0.36037,0 0,0" />
    <path
       inkscape:connector-curvature="0"
       id="path3254"
       style="fill:#0e0f0e;fill-opacity:1;fill-rule:nonzero;stroke:none"
       d="m 411.22018,636.049 0.36524,0 0,-7.45556 -0.36524,0 0,7.45556 z" />
    <path
       inkscape:connector-curvature="0"
       id="path3256"
       style="fill:#0e0f0e;fill-opacity:1;fill-rule:nonzero;stroke:none"
       d="m 400.88668,592.3215 -1.90137,-3.29625 -0.315,0.18 1.90087,3.29625 0.3155,-0.18 0,0" />
    <path
       inkscape:connector-curvature="0"
       id="path3258"
       style="fill:#0e0f0e;fill-opacity:1;fill-rule:nonzero;stroke:none"
       d="m 424.13806,632.58775 -1.90325,-3.29625 -0.31638,0.18125 1.90375,3.2975 0.31588,-0.1825" />
    <path
       inkscape:connector-curvature="0"
       id="path3260"
       style="fill:#0e0f0e;fill-opacity:1;fill-rule:nonzero;stroke:none"
       d="m 393.01168,600.0615 -3.29637,-1.90125 -0.1915,0.315 3.29637,1.90125 0.1915,-0.315 0,0" />
    <path
       inkscape:connector-curvature="0"
       id="path3262"
       style="fill:#0e0f0e;fill-opacity:1;fill-rule:nonzero;stroke:none"
       d="m 433.27831,623.314 -3.29738,-1.90375 -0.18212,0.31625 3.29775,1.90375 0.18175,-0.31625" />
    <path
       inkscape:connector-curvature="0"
       id="path3264"
       style="fill:#0e0f0e;fill-opacity:1;fill-rule:nonzero;stroke:none"
       d="m 393.70456,610.71275 -7.45613,0 0,0.365 7.45613,0 0,-0.365" />
    <path
       inkscape:connector-curvature="0"
       id="path3266"
       style="fill:#0e0f0e;fill-opacity:1;fill-rule:nonzero;stroke:none"
       d="m 436.55706,610.71275 -7.45563,0 0,0.365 7.45563,0 0,-0.365" />
    <path
       inkscape:connector-curvature="0"
       id="path3268"
       style="fill:#0e0f0e;fill-opacity:1;fill-rule:nonzero;stroke:none"
       d="m 392.82518,621.41025 -3.29737,1.90375 0.18212,0.31625 3.29688,-1.90375 -0.18163,-0.31625" />
    <path
       inkscape:connector-curvature="0"
       id="path3272"
       style="fill:#0e0f0e;fill-opacity:1;fill-rule:nonzero;stroke:none"
       d="m 400.57118,629.2915 -1.90325,3.29625 0.31588,0.1825 1.90387,-3.2975 -0.3165,-0.18125" />
    <path
       inkscape:connector-curvature="0"
       id="path3274"
       style="fill:#0e0f0e;fill-opacity:1;fill-rule:nonzero;stroke:none"
       d="m 423.82518,589.02525 -1.90087,3.29625 0.31437,0.18 1.90138,-3.29625 -0.31488,-0.18 0,0" />
    <path
       inkscape:connector-curvature="0"
       id="path3318"
       style="fill:url(#radialGradient3310-4);fill-opacity:1;fill-rule:nonzero;stroke:none"
       d="m 411.40518,585.14395 c -12.45363,0 -22.84863,8.82 -25.27875,20.565 5.063,-3.09375 14.44475,-5.175 25.20012,-5.175 5.40675,0 10.46775,0.525 14.80713,1.44 l 5.4205,-3.1275 0.0869,0.1525 1.45413,-0.83875 0.18012,0.315 -1.45462,0.83875 0.0933,0.1625 -4.73087,2.73 c 0.0385,0.009 0.0771,0.0175 0.11575,0.0275 l 4.61512,-2.6675 0.37112,0.64125 -3.95112,2.28 c 3.415,0.87625 6.27637,2.01 8.36125,3.3225 -2.374,-11.79 -12.80262,-20.66625 -25.29,-20.66625 l 0,0 z m -0.18013,8.055 0,-7.45875 0.36038,0 0,7.45875 -0.36038,0 0,0 z m 11.01363,-0.6975 -0.31438,-0.18 1.90088,-3.29625 0.31488,0.18 -1.90138,3.29625 0,0 z m -21.6675,0 -1.90088,-3.29625 0.315,-0.18 1.90138,3.29625 -0.3155,0.18 0,0 z m -7.751,7.875 -3.29638,-1.90125 0.1915,-0.315 3.29638,1.90125 -0.1915,0.315 0,0" />
    <path
       inkscape:connector-curvature="0"
       id="path3320"
       style="fill:#74777e;fill-opacity:1;fill-rule:nonzero;stroke:none"
       d="m 411.58543,585.74025 -0.36037,0 0,7.45875 0.36037,0 0,-7.45875" />
    <path
       inkscape:connector-curvature="0"
       id="path3322"
       style="fill:#74777e;fill-opacity:1;fill-rule:nonzero;stroke:none"
       d="m 398.98531,589.02525 -0.315,0.18 1.90087,3.29625 0.3155,-0.18 -1.90137,-3.29625 0,0" />
    <path
       inkscape:connector-curvature="0"
       id="path3324"
       style="fill:#74777e;fill-opacity:1;fill-rule:nonzero;stroke:none"
       d="m 389.71531,598.16025 -0.1915,0.315 3.29637,1.90125 0.1915,-0.315 -3.29637,-1.90125 0,0" />
    <g
       id="g25798">
      <path
         d="m 433.09518,598.16025 -3.29637,1.90125 0.18012,0.315 3.29638,-1.90125 -0.18013,-0.315 0,0"
         style="fill:#0e0f0e;fill-opacity:1;fill-rule:nonzero;stroke:none"
         id="path3270"
         inkscape:connector-curvature="0" />
      <path
         d="m 433.09518,598.16025 -1.45412,0.83875 0.17962,0.315 1.45463,-0.83875 -0.18013,-0.315 0,0"
         style="fill:#74777e;fill-opacity:1;fill-rule:nonzero;stroke:none"
         id="path3326"
         inkscape:connector-curvature="0" />
    </g>
    <path
       inkscape:connector-curvature="0"
       id="path3328"
       style="fill:#74777e;fill-opacity:1;fill-rule:nonzero;stroke:none"
       d="m 423.82518,589.02525 -1.90087,3.29625 0.31437,0.18 1.90138,-3.29625 -0.31488,-0.18 0,0" />
  </g>
</svg>
