<?xml version="1.0" encoding="UTF-8" standalone="no"?>
<!-- Created with Inkscape (http://www.inkscape.org/) -->

<svg
   xmlns:dc="http://purl.org/dc/elements/1.1/"
   xmlns:cc="http://creativecommons.org/ns#"
   xmlns:rdf="http://www.w3.org/1999/02/22-rdf-syntax-ns#"
   xmlns:svg="http://www.w3.org/2000/svg"
   xmlns="http://www.w3.org/2000/svg"
   xmlns:sodipodi="http://sodipodi.sourceforge.net/DTD/sodipodi-0.dtd"
   xmlns:inkscape="http://www.inkscape.org/namespaces/inkscape"
   width="114.035mm"
   height="74.128494mm"
   viewBox="0 0 404.06104 262.66002"
   id="svg13372"
   version="1.1"
   inkscape:version="0.91 r13725"
   sodipodi:docname="gauge-retro-panel.svg">
  <defs
     id="defs13374">
    <clipPath
       clipPathUnits="userSpaceOnUse"
       id="clipPath14868">
      <rect
         style="fill:#eeeef9;fill-opacity:1;stroke:#834e4e;stroke-width:0.133;stroke-miterlimit:4;stroke-dasharray:none;stroke-opacity:1"
         id="rect14870"
         width="449.51788"
         height="290.41885"
         x="115.15739"
         y="428.08792" />
    </clipPath>
    <clipPath
       clipPathUnits="userSpaceOnUse"
       id="clipPath14874">
      <rect
         style="fill:#eeeef9;fill-opacity:1;stroke:#834e4e;stroke-width:0.133;stroke-miterlimit:4;stroke-dasharray:none;stroke-opacity:1"
         id="rect14876"
         width="467.70062"
         height="271.73105"
         x="97.984795"
         y="426.06763" />
    </clipPath>
    <clipPath
       clipPathUnits="userSpaceOnUse"
       id="clipPath15038">
      <rect
         style="fill:#b5b5e3;fill-opacity:1;stroke:#834e4e;stroke-width:0.133;stroke-miterlimit:4;stroke-dasharray:none;stroke-opacity:1"
         id="rect15040"
         width="468.20572"
         height="269.20566"
         x="121.49116"
         y="392.22757" />
    </clipPath>
  </defs>
  <sodipodi:namedview
     id="base"
     pagecolor="#ffffff"
     bordercolor="#666666"
     borderopacity="1.0"
     inkscape:pageopacity="0.0"
     inkscape:pageshadow="2"
     inkscape:zoom="1.979899"
     inkscape:cx="217.56158"
     inkscape:cy="62.236449"
     inkscape:document-units="px"
     inkscape:current-layer="layer1"
     showgrid="false"
     fit-margin-top="0"
     fit-margin-left="0"
     fit-margin-right="0"
     fit-margin-bottom="0"
     inkscape:window-width="1855"
     inkscape:window-height="1056"
     inkscape:window-x="65"
     inkscape:window-y="24"
     inkscape:window-maximized="1" />
  <metadata
     id="metadata13377">
    <rdf:RDF>
      <cc:Work
         rdf:about="">
        <dc:format>image/svg+xml</dc:format>
        <dc:type
           rdf:resource="http://purl.org/dc/dcmitype/StillImage" />
        <dc:title></dc:title>
      </cc:Work>
    </rdf:RDF>
  </metadata>
  <g
     inkscape:label="Layer 1"
     inkscape:groupmode="layer"
     id="layer1"
     transform="translate(-143.71451,-399.27825)">
    <g
       id="g15007"
       clip-path="url(#clipPath15038)">
      <ellipse
         ry="188.64598"
         rx="191.42392"
         cy="587.92419"
         cx="344.2298"
         id="path4180"
         style="fill:#b5b5e3;fill-opacity:1" />
      <path
         inkscape:connector-curvature="0"
         d="m 344.51399,410.32901 c 104.51332,0 189.26429,79.158 189.26429,176.77045 0,97.61617 -84.75097,176.77419 -189.26429,176.77419 -104.50932,0 -189.26028,-79.15802 -189.26028,-176.77419 0,-97.61245 84.75096,-176.77045 189.26028,-176.77045 z m 0,9.89546 c -98.65765,0 -178.66166,74.72804 -178.66166,166.87499 0,92.15069 80.00401,166.87312 178.66166,166.87312 98.65966,0 178.66967,-74.72243 178.66967,-166.87312 0,-92.14695 -80.01001,-166.87499 -178.66967,-166.87499"
         style="fill:#e3e2e9;fill-opacity:1;fill-rule:evenodd;stroke:none"
         id="path178" />
      <path
         inkscape:connector-curvature="0"
         d="m 345.21884,413.10964 c 102.41821,0 185.47184,77.57448 185.47184,173.23198 0,95.6557 -83.05363,173.23018 -185.47184,173.23018 -102.41624,0 -185.46987,-77.57448 -185.46987,-173.23018 0,-95.6575 83.05363,-173.23198 185.46987,-173.23198 z m 0,9.69909 c -96.68178,0 -175.08743,73.23325 -175.08743,163.53289 0,90.30331 78.40565,163.5329 175.08743,163.5329 96.68376,0 175.08744,-73.22959 175.08744,-163.5329 0,-90.29964 -78.40368,-163.53289 -175.08744,-163.53289"
         style="fill:#8f9396;fill-opacity:1;fill-rule:evenodd;stroke:none"
         id="path180" />
      <path
         inkscape:connector-curvature="0"
         d="m 186.21346,592.92515 15.38133,0 0,3.69266 -15.38133,0 z m 298.08799,0 15.37867,0 0,3.69266 -15.38,0 0.001,-3.69266 z m -292.26932,-40.50427 14.85733,3.98333 -0.956,3.5652 -14.85733,-3.9808 0.956,-3.56773 z m 287.93066,77.15106 14.856,3.98187 -0.956,3.564 -14.85734,-3.98067 0.95734,-3.5652 z m -271.828,-114.76613 13.32134,7.69067 -1.84667,3.196 -13.32,-7.692 1.84533,-3.19467 z m 25.29067,-32.16666 10.876,10.876 -2.61067,2.60933 -10.876,-10.876 2.61067,-2.60933 z m 32.75467,-24.52667 7.68933,13.32 -3.196,1.84667 -7.69067,-13.32267 3.19734,-1.844 z m 37.98399,-15.212 3.98,14.856 -3.564,0.956 -3.98133,-14.86 3.56533,-0.952 z m 40.63067,-4.864 0,15.38267 -3.69333,0 0,-15.38533 3.69333,0.003 z m 40.50133,5.81867 -3.98,14.85733 -3.56533,-0.956 3.98,-14.85733 3.56533,0.956 z m 37.616,16.104 -7.69066,13.32 -3.19467,-1.84667 7.69067,-13.324 3.19466,1.85067 z m 32.168,25.28933 -10.876,10.876 -2.60933,-2.60933 10.876,-10.87867 2.60933,2.612 z m 24.524,32.752 -13.32,7.692 -1.84533,-3.19733 13.32266,-7.692 1.84267,3.19733 z m 15.21467,37.98707 -14.85734,3.9792 -0.956,-3.56667 14.86,-3.9792 0.95334,3.56667 z m -287.93066,77.14959 -14.85734,3.98334 -0.95333,-3.5688 14.856,-3.97974 0.95467,3.5652"
         style="fill:#000000;fill-opacity:1;fill-rule:evenodd;stroke:none"
         id="path88" />
      <path
         inkscape:connector-curvature="0"
         d="m 196.32013,612.21421 6.24266,-0.82293 0.48267,3.6604 -6.248,0.82293 c -0.17467,-1.2152 -0.33333,-2.43387 -0.47733,-3.6604 z m 286.52932,-37.7224 6.248,-0.82293 c 0.17334,1.21613 0.33067,2.43333 0.476,3.65827 l -6.24133,0.82293 -0.48267,-3.65827 z m -286.05199,-0.82453 6.248,0.82453 -0.48267,3.65827 -6.24266,-0.82293 c 0.144,-1.22494 0.30266,-2.44214 0.47733,-3.65987 z m 286.53466,37.724 6.24133,0.82186 c -0.14533,1.224 -0.30266,2.44374 -0.476,3.66147 l -6.248,-0.82293 0.48267,-3.6604 z m -276.11199,-74.836 5.84133,2.41773 -1.41333,3.40787 -5.84134,-2.41773 c 0.45734,-1.1432 0.92934,-2.28027 1.41334,-3.40787 z m 19.71733,-33.12947 4.99067,3.832 -2.24667,2.92667 -4.99467,-3.832 c 0.73734,-0.98533 1.488,-1.96133 2.25067,-2.92667 z m 27.592,-26.916 3.832,4.99467 -2.928,2.24667 -3.82933,-4.99067 c 0.96533,-0.76267 1.94,-1.512 2.92533,-2.25067 z m 33.61067,-18.87999 2.41866,5.84266 -3.40933,1.41067 -2.41733,-5.84 c 1.128,-0.484 2.26266,-0.956 3.408,-1.41333 z m 37.36666,-9.48667 0.82133,6.24267 -3.66133,0.484 -0.82267,-6.248 c 1.21734,-0.17467 2.43734,-0.33467 3.66267,-0.47867 z m 38.54267,0.47867 -0.82267,6.248 -3.65867,-0.484 0.82,-6.24134 c 1.22534,0.14534 2.44667,0.30267 3.66134,0.47734 z m 37.11466,10.424 -2.41866,5.83733 -3.40934,-1.41067 2.41867,-5.84 c 1.14267,0.45467 2.28133,0.92667 3.40933,1.41334 z m 33.12533,19.71466 -3.828,4.99067 -2.92933,-2.248 3.832,-4.992 c 0.98533,0.73733 1.95867,1.48933 2.92533,2.24933 z m 26.91867,27.59467 -4.99467,3.82933 -2.24533,-2.93067 4.98667,-3.828 c 0.76266,0.96667 1.51333,1.94134 2.25333,2.92934 z m 18.87867,33.608 -5.84,2.41773 -1.41334,-3.4104 5.83867,-2.4188 c 0.48267,1.1312 0.95867,2.26827 1.41467,3.41147"
         style="fill:#000000;fill-opacity:1;fill-rule:evenodd;stroke:none"
         id="path90" />
      <path
         inkscape:connector-curvature="0"
         d="m 342.94679,496.94581 c 54.01867,0 97.82533,43.8064 97.82533,97.82467 0,13.002 -2.54533,25.4072 -7.15467,36.7572 l -2.47466,-0.76147 c 0.676,-1.6552 1.30666,-3.32813 1.88933,-5.0276 l -5.152,-1.69373 0.81733,-2.48694 5.15867,1.69267 c 1.30533,-4.16147 2.32133,-8.44893 3.04667,-12.83587 l -5.352,-0.8204 0.39466,-2.58493 5.35067,0.81667 c 0.52933,-3.84894 0.82533,-7.76814 0.87867,-11.74573 l -5.40134,0 0,-2.62134 5.40134,9.4e-4 c -0.06,-4.43587 -0.41867,-8.79947 -1.06534,-13.06867 l -5.344,0.8916 -0.432,-2.5844 5.34934,-0.89213 c -0.79334,-4.40214 -1.88934,-8.69894 -3.26667,-12.86827 l -5.12933,1.77093 -0.85334,-2.4776 5.132,-1.76826 c -1.50266,-4.16667 -3.29066,-8.198 -5.33466,-12.0704 l -4.75867,2.59066 -1.25066,-2.30306 4.75599,-2.586 c -2.16666,-3.84627 -4.59466,-7.5296 -7.25733,-11.0208 l -4.25333,3.33173 -1.61467,-2.06253 4.252,-3.3276 c -2.76533,-3.42854 -5.76266,-6.66 -8.97066,-9.67467 l -3.64134,3.988 -1.93466,-1.768 3.644,-3.984 c -3.28534,-2.92133 -6.77334,-5.61867 -10.44,-8.068 l -2.94,4.54267 -2.19867,-1.42267 2.94,-4.54267 c -3.712,-2.33733 -7.596,-4.424 -11.63067,-6.23466 l -2.152,4.98133 -2.40266,-1.03867 2.152,-4.98133 c -4.03467,-1.68133 -8.21334,-3.09467 -12.50667,-4.21333 l -1.3,5.27066 -2.54267,-0.628 1.30267,-5.272 c -4.244,-0.98133 -8.59733,-1.67333 -13.036,-2.06266 l -0.408,5.392 -2.61067,-0.19734 0.408,-5.38933 c -1.948,-0.12 -3.908,-0.18667 -5.88933,-0.18667 -2.45733,0 -4.892,0.0907 -7.304,0.276 l 0.488,5.392 -2.60667,0.23467 -0.488,-5.392 c -4.432,0.45867 -8.77066,1.22267 -13,2.26933 l 1.376,5.248 -2.532,0.664 -1.376,-5.24933 c -4.276,1.18267 -8.43066,2.65733 -12.444,4.40133 l 2.22534,4.94667 -2.38667,1.072 -2.224,-4.944 c -4.00667,1.87067 -7.85867,4.01333 -11.53866,6.404 l 3.00533,4.49867 -2.17734,1.456 -3.00266,-4.49734 c -3.63067,2.504 -7.07867,5.24934 -10.32133,8.21734 l 3.70133,3.93466 -1.908,1.79467 -3.69867,-3.932 c -3.16266,3.05867 -6.11466,6.3328 -8.83066,9.80093 l 4.30533,3.2724 -1.584,2.0844 -4.304,-3.27026 c -2.60933,3.53066 -4.98667,7.2432 -7.096,11.12346 l 4.80133,2.5208 -1.21733,2.31867 -4.80133,-2.5192 c -1.98534,3.90107 -3.70934,7.96093 -5.148,12.15 l 5.156,1.69373 -0.81734,2.48694 -5.15866,-1.6952 c -1.304,4.1624 -2.324,8.45146 -3.04934,12.83946 l 5.352,0.81667 -0.39333,2.5876 -5.35067,-0.81413 c -0.52666,3.8448 -0.82533,7.7656 -0.87866,11.74226 l 5.40266,9.4e-4 -0.003,2.6204 -5.4,0 c 0.0613,4.43586 0.416,8.80053 1.06533,13.06773 l 5.34533,-0.8896 0.432,2.58226 -5.34933,0.89267 c 0.79333,4.4016 1.89067,8.69693 3.26667,12.8672 l 5.128,-1.76827 0.85333,2.4756 -5.12933,1.7708 c 0.48933,1.35414 1.01066,2.69374 1.56,4.0208 l -2.46534,0.79427 c -4.70266,-11.44947 -7.304,-23.98173 -7.304,-37.12333 0,-54.01827 43.808,-97.82467 97.824,-97.82467"
         style="fill:#c51e1e;fill-opacity:1;fill-rule:evenodd;stroke:none"
         id="path92" />
      <path
         inkscape:connector-curvature="0"
         d="m 223.78146,632.70274 0,-8.57706 c 0,-0.55894 -0.0347,-0.9584 -0.10267,-1.19387 -0.204,-0.6776 -0.628,-1.01707 -1.272,-1.01707 -0.612,0 -1.01733,0.228 -1.22266,0.68587 -0.13467,0.3036 -0.20267,0.81307 -0.20267,1.52507 l 0,8.57706 c 0,0.76147 0.06,1.29787 0.17867,1.6036 0.20266,0.524 0.61866,0.788 1.24666,0.788 0.60934,0 1.016,-0.31506 1.22134,-0.94106 0.10133,-0.32187 0.15333,-0.80734 0.15333,-1.45054 z m -7.04933,0.30307 0,-8.88013 c 0,-1.848 0.47866,-3.21 1.43733,-4.08334 0.95867,-0.8724 2.37067,-1.31093 4.23733,-1.31093 2.188,0 3.69734,0.54427 4.528,1.62853 0.73067,0.95054 1.09467,2.57187 1.09467,4.862 l 0,6.86987 c 0,2.1708 -0.39867,3.72387 -1.196,4.6552 -0.86533,1.01813 -2.35733,1.52707 -4.47867,1.52707 -1.832,0 -3.22666,-0.42347 -4.18533,-1.27347 -0.95867,-0.84733 -1.43733,-2.17867 -1.43733,-3.9948"
         style="fill:#000000;fill-opacity:1;fill-rule:nonzero;stroke:none"
         id="path94" />
      <path
         inkscape:connector-curvature="0"
         d="m 217.80813,560.74901 -4.04667,0 0,-0.9932 c 0,-1.8984 0.50133,-3.35773 1.50267,-4.3776 1,-1.0172 2.45066,-1.5244 4.35066,-1.5244 1.764,0 3.12534,0.43587 4.084,1.31094 0.95734,0.8724 1.43734,2.18066 1.43734,3.9296 0,1.138 -0.18667,2.112 -0.56,2.92813 -0.37334,0.81307 -0.984,1.66147 -1.83067,2.5432 l -1.656,1.60427 c -0.576,0.55826 -1.05067,1.05826 -1.424,1.49893 -0.628,0.7468 -0.992,1.35773 -1.09467,1.83333 l 6.56534,0 0,3.43334 -11.37467,0 0,-0.63547 c 0,-1.44013 0.408,-2.90733 1.21733,-4.40107 0.60667,-1.12133 1.53067,-2.35666 2.76534,-3.71506 l 1.92666,-2.03387 c 0.44,-0.4932 0.74934,-0.98533 0.936,-1.4776 0.18667,-0.49373 0.28,-1.07707 0.28,-1.7568 0,-0.55827 -0.11866,-1.0072 -0.35733,-1.34733 -0.28667,-0.40627 -0.70267,-0.586 -1.24533,-0.53547 -0.59334,0 -1.00934,0.34013 -1.24667,1.0172 -0.15333,0.44267 -0.22933,1.03547 -0.22933,1.78227 z m 15.85333,7.07294 0,-8.57387 c 0,-0.55893 -0.036,-0.9584 -0.10267,-1.198 -0.204,-0.67707 -0.628,-1.0172 -1.272,-1.0172 -0.612,0 -1.01866,0.2308 -1.22133,0.68907 -0.13733,0.30466 -0.204,0.81413 -0.204,1.52613 l 0,8.57387 c 0,0.7636 0.06,1.29853 0.17733,1.60413 0.204,0.52667 0.62,0.78813 1.248,0.78813 0.61067,0 1.01734,-0.31413 1.22,-0.94173 0.10267,-0.32293 0.15467,-0.80413 0.15467,-1.45053 z m -7.04933,0.30466 0,-8.87853 c 0,-1.84907 0.47733,-3.21093 1.43733,-4.08333 0.95867,-0.87507 2.37067,-1.31094 4.23733,-1.31094 2.188,0 3.69867,0.54267 4.52934,1.62854 0.72933,0.95053 1.09333,2.56773 1.09333,4.85946 l 0,6.86814 c 0,2.17506 -0.39867,3.7272 -1.196,4.65946 -0.86533,1.01667 -2.35733,1.5244 -4.47867,1.5244 -1.83066,0 -3.22666,-0.42333 -4.18533,-1.2708 -0.96,-0.84733 -1.43733,-2.17973 -1.43733,-3.9964"
         style="fill:#000000;fill-opacity:1;fill-rule:nonzero;stroke:none"
         id="path96" />
      <path
         inkscape:connector-curvature="0"
         d="m 248.14013,512.86581 3.15333,0 0,-6.184 -3.15333,6.184 z m -3.208,3.18134 0,-3.56 5.95466,-11.47867 4.45334,0 0,11.85733 1.68,0 0,3.18134 -1.68,0 0,3.64 -4.04667,0 0,-3.64 -6.36133,0 z m 20.25466,-1.476 0,-8.57467 c 0,-0.55867 -0.0333,-0.95733 -0.10133,-1.19467 -0.20267,-0.67866 -0.62933,-1.01733 -1.272,-1.01733 -0.61067,0 -1.01867,0.22667 -1.22133,0.68533 -0.136,0.30534 -0.204,0.816 -0.204,1.52667 l 0,8.57467 c 0,0.76266 0.06,1.29866 0.17733,1.60666 0.20533,0.52267 0.62,0.78667 1.248,0.78667 0.60933,0 1.01733,-0.31467 1.22133,-0.94 0.10134,-0.324 0.152,-0.80933 0.152,-1.45333 z m -7.048,0.308 0,-8.88267 c 0,-1.848 0.47867,-3.208 1.43734,-4.08267 0.95866,-0.872 2.37066,-1.31066 4.23733,-1.31066 2.188,0 3.69733,0.54266 4.528,1.628 0.73067,0.94933 1.096,2.57066 1.096,4.86 l 0,6.872 c 0,2.16933 -0.39867,3.72133 -1.196,4.65466 -0.86667,1.01734 -2.35867,1.52667 -4.48,1.52667 -1.832,0 -3.22667,-0.424 -4.18533,-1.27333 -0.95867,-0.84534 -1.43734,-2.17734 -1.43734,-3.992"
         style="fill:#000000;fill-opacity:1;fill-rule:nonzero;stroke:none"
         id="path98" />
      <path
         inkscape:connector-curvature="0"
         d="m 306.90679,484.07515 c 0.54267,0 0.932,-0.272 1.16933,-0.816 0.188,-0.42267 0.28,-0.98267 0.28,-1.67734 l 0,-1.91066 c 0,-0.60934 -0.092,-1.068 -0.28,-1.372 -0.23733,-0.408 -0.644,-0.612 -1.22133,-0.612 -0.508,0 -0.86533,0.17733 -1.068,0.53466 -0.204,0.356 -0.30533,0.82134 -0.30533,1.39867 l 0,2.8 c 0,0.49333 0.11333,0.892 0.344,1.196 0.228,0.304 0.588,0.45867 1.08133,0.45867 z m 5.41867,-11.42667 -4.04534,0 c 0,-0.55733 -0.0853,-0.97467 -0.25466,-1.244 -0.22,-0.34 -0.60267,-0.512 -1.144,-0.512 -0.56134,0 -0.95067,0.28133 -1.172,0.84 -0.152,0.40667 -0.228,0.968 -0.228,1.68133 l 0,2.03334 c 0.508,-0.38934 0.95333,-0.644 1.336,-0.76267 0.38133,-0.11867 0.90133,-0.17733 1.56533,-0.17733 1.57733,0 2.712,0.59333 3.40933,1.78 0.54134,0.93466 0.81334,2.24933 0.81334,3.94666 0,2.34 -0.38134,4.044 -1.144,5.11334 -0.91734,1.272 -2.48534,1.90933 -4.708,1.90933 -2.00134,0 -3.452,-0.64133 -4.352,-1.91867 -0.78,-1.10666 -1.16934,-2.71866 -1.16934,-4.83066 l 0,-5.06 c 0,-2.44267 0.28,-4.21867 0.83867,-5.33467 0.81467,-1.59733 2.29867,-2.4 4.45333,-2.4 1.93334,0 3.35067,0.34133 4.24934,1.01867 1.03466,0.78 1.552,2.084 1.552,3.91733 z m 8.70266,9.03333 0,-8.57466 c 0,-0.55867 -0.0333,-0.95734 -0.10266,-1.196 -0.20267,-0.67734 -0.628,-1.01867 -1.272,-1.01867 -0.60934,0 -1.01734,0.23067 -1.22134,0.68933 -0.13466,0.304 -0.204,0.81334 -0.204,1.52534 l 0,8.57466 c 0,0.764 0.0613,1.3 0.17867,1.604 0.204,0.52667 0.62,0.78934 1.24667,0.78934 0.612,0 1.01866,-0.316 1.22133,-0.94267 0.10267,-0.32267 0.15333,-0.80533 0.15333,-1.45067 z m -7.048,0.30534 0,-8.88 c 0,-1.84934 0.47867,-3.20934 1.43734,-4.084 0.95733,-0.87467 2.36933,-1.31067 4.236,-1.31067 2.188,0 3.69866,0.544 4.52933,1.62933 0.72933,0.95067 1.09467,2.56934 1.09467,4.86134 l 0,6.868 c 0,2.17333 -0.39734,3.724 -1.19734,4.65733 -0.864,1.01867 -2.356,1.528 -4.47733,1.528 -1.83067,0 -3.228,-0.424 -4.18533,-1.27467 -0.95867,-0.848 -1.43734,-2.17866 -1.43734,-3.99466"
         style="fill:#000000;fill-opacity:1;fill-rule:nonzero;stroke:none"
         id="path100" />
      <path
         inkscape:connector-curvature="0"
         d="m 364.68812,484.14848 c 0.684,0 1.14534,-0.336 1.37867,-1.016 0.13067,-0.40533 0.19867,-1.05067 0.19867,-1.93333 0,-0.88267 -0.068,-1.50134 -0.19867,-1.856 -0.23333,-0.64534 -0.70933,-0.968 -1.42933,-0.968 -0.61467,0 -1.036,0.256 -1.25067,0.764 -0.15067,0.33866 -0.22533,0.87333 -0.22533,1.60266 l 0,0.53334 c 0,0.816 0.068,1.424 0.2,1.83333 0.23333,0.69467 0.67733,1.04 1.32666,1.04 z m -1.424,-11.01467 c 0,0.61067 0.084,1.092 0.25334,1.45067 0.23866,0.49067 0.62666,0.736 1.17066,0.736 0.59334,0 1.01734,-0.24533 1.27334,-0.736 0.20266,-0.39067 0.304,-0.908 0.304,-1.552 0,-0.596 -0.092,-1.08667 -0.27867,-1.47733 -0.256,-0.50934 -0.65333,-0.76267 -1.196,-0.76267 -0.612,0 -1.03467,0.24533 -1.27333,0.73467 -0.16934,0.35866 -0.25334,0.89333 -0.25334,1.60666 z m -1.808,3.636 c -0.79733,-0.45466 -1.368,-1.012 -1.71733,-1.664 -0.34667,-0.65333 -0.52267,-1.44666 -0.52267,-2.38 0,-1.64533 0.49467,-2.892 1.47867,-3.74133 0.98133,-0.848 2.32133,-1.272 4.01867,-1.272 1.72933,0 3.088,0.42133 4.072,1.26 0.98533,0.83867 1.47466,2.092 1.47466,3.75333 0,0.88134 -0.16666,1.64534 -0.508,2.29067 -0.39066,0.712 -0.992,1.28133 -1.80666,1.704 0.94933,0.57867 1.59066,1.2 1.92266,1.87067 0.328,0.66933 0.49467,1.59866 0.49467,2.78533 0,2.05333 -0.492,3.544 -1.476,4.47867 -0.984,0.93333 -2.49333,1.40133 -4.52933,1.40133 -1.62667,0 -2.90934,-0.51733 -3.84267,-1.55333 -0.932,-1.036 -1.39867,-2.47734 -1.39867,-4.32667 0,-1.11867 0.12667,-1.96533 0.38134,-2.544 0.32266,-0.712 0.976,-1.4 1.95866,-2.06267 z m 17.40534,4.912 0,-8.57466 c 0,-0.55867 -0.0333,-0.95734 -0.10134,-1.196 -0.20533,-0.67734 -0.628,-1.01867 -1.272,-1.01867 -0.61066,0 -1.01733,0.23067 -1.22266,0.68933 -0.13467,0.304 -0.204,0.81334 -0.204,1.52534 l 0,8.57466 c 0,0.764 0.06,1.3 0.17733,1.604 0.204,0.52667 0.62267,0.78934 1.24933,0.78934 0.60934,0 1.01734,-0.316 1.22,-0.94267 0.10267,-0.32267 0.15334,-0.80533 0.15334,-1.45067 z m -7.048,0.30534 0,-8.88 c 0,-1.84934 0.48,-3.20934 1.43866,-4.084 0.95867,-0.87467 2.36934,-1.31067 4.236,-1.31067 2.188,0 3.69734,0.544 4.528,1.62933 0.73067,0.95067 1.09467,2.56934 1.09467,4.86134 l 0,6.868 c 0,2.17333 -0.4,3.724 -1.196,4.65733 -0.864,1.01867 -2.35867,1.528 -4.48,1.528 -1.83067,0 -3.224,-0.424 -4.18267,-1.27467 -0.95866,-0.848 -1.43866,-2.17866 -1.43866,-3.99466"
         style="fill:#000000;fill-opacity:1;fill-rule:nonzero;stroke:none"
         id="path102" />
      <path
         inkscape:connector-curvature="0"
         d="m 412.17346,517.32315 0,-11.58667 -3.504,0 0,-2.63467 c 1.09866,0 2.03866,-0.176 2.816,-0.52533 0.97866,-0.44267 1.55866,-1.12933 1.74,-2.06267 l 2.588,0 0,16.80934 -3.64,0 z m 14.08266,-4.60534 0,-7.716 c 0,-0.504 -0.0307,-0.86266 -0.092,-1.076 -0.18267,-0.61066 -0.56533,-0.916 -1.144,-0.916 -0.54933,0 -0.916,0.20534 -1.1,0.61867 -0.12266,0.27467 -0.18266,0.732 -0.18266,1.37333 l 0,7.716 c 0,0.68934 0.052,1.16934 0.16133,1.444 0.18133,0.47334 0.55467,0.71067 1.12133,0.71067 0.548,0 0.91333,-0.28533 1.09733,-0.84533 0.0933,-0.292 0.13867,-0.72667 0.13867,-1.30934 z m -6.344,0.276 0,-7.992 c 0,-1.66266 0.43067,-2.88933 1.296,-3.67333 0.86134,-0.78667 2.13067,-1.18 3.812,-1.18 1.968,0 3.32933,0.488 4.07733,1.464 0.65467,0.856 0.98267,2.31333 0.98267,4.376 l 0,6.18133 c 0,1.95334 -0.35733,3.352 -1.076,4.19067 -0.77867,0.91467 -2.12133,1.376 -4.03066,1.376 -1.648,0 -2.904,-0.384 -3.76534,-1.14667 -0.86533,-0.764 -1.296,-1.96133 -1.296,-3.596 z m 17.79467,-0.276 0,-7.716 c 0,-0.504 -0.0307,-0.86266 -0.092,-1.076 -0.18267,-0.61066 -0.56534,-0.916 -1.144,-0.916 -0.54934,0 -0.91867,0.20534 -1.09867,0.61867 -0.124,0.27467 -0.184,0.732 -0.184,1.37333 l 0,7.716 c 0,0.68934 0.052,1.16934 0.15867,1.444 0.184,0.47334 0.55733,0.71067 1.124,0.71067 0.548,0 0.916,-0.28533 1.09733,-0.84533 0.0907,-0.292 0.13867,-0.72667 0.13867,-1.30934 z m -6.344,0.276 0,-7.992 c 0,-1.66266 0.43333,-2.88933 1.29333,-3.67333 0.864,-0.78667 2.13333,-1.18 3.81467,-1.18 1.968,0 3.328,0.488 4.076,1.464 0.65733,0.856 0.984,2.31333 0.984,4.376 l 0,6.18133 c 0,1.95334 -0.36,3.352 -1.076,4.19067 -0.78,0.91467 -2.12267,1.376 -4.032,1.376 -1.648,0 -2.90267,-0.384 -3.76667,-1.14667 -0.86,-0.764 -1.29333,-1.96133 -1.29333,-3.596"
         style="fill:#000000;fill-opacity:1;fill-rule:nonzero;stroke:none"
         id="path104" />
      <path
         inkscape:connector-curvature="0"
         d="m 443.87479,569.98661 0,-11.5876 -3.504,0 0,-2.63386 c 1.09733,0 2.03733,-0.176 2.816,-0.52494 0.97733,-0.44373 1.55733,-1.1312 1.74,-2.06253 l 2.588,0 0,16.80893 -3.64,0 z m 11.26533,-10.96933 -3.64267,0 0,-0.8916 c 0,-1.71093 0.452,-3.02507 1.35334,-3.94013 0.9,-0.91667 2.204,-1.37507 3.91466,-1.37507 1.588,0 2.81467,0.39587 3.67467,1.18133 0.86533,0.78587 1.296,1.96454 1.296,3.53587 0,1.02613 -0.16933,1.90267 -0.50533,2.6344 -0.33467,0.7328 -0.884,1.49733 -1.64667,2.28907 l -1.49067,1.44373 c -0.51866,0.5052 -0.94533,0.9536 -1.28,1.3532 -0.56666,0.6708 -0.89466,1.21867 -0.98533,1.6468 l 5.908,0 0,3.09173 -10.23867,0 0,-0.57186 c 0,-1.29854 0.368,-2.61827 1.09734,-3.962 0.54666,-1.0084 1.37733,-2.12134 2.488,-3.3428 l 1.73333,-1.83334 c 0.39733,-0.44106 0.676,-0.88533 0.84267,-1.32706 0.16666,-0.44214 0.252,-0.96974 0.252,-1.58014 0,-0.5052 -0.10667,-0.90946 -0.32134,-1.21253 -0.25866,-0.3672 -0.63333,-0.52707 -1.12,-0.4844 -0.536,0 -0.90933,0.30893 -1.12266,0.91667 -0.13867,0.39746 -0.20667,0.93226 -0.20667,1.6032 z m 14.268,6.36613 0,-7.71613 c 0,-0.5052 -0.0333,-0.862 -0.092,-1.07813 -0.184,-0.60774 -0.56533,-0.91667 -1.14667,-0.91667 -0.54933,0 -0.916,0.20933 -1.09733,0.61987 -0.124,0.276 -0.18533,0.73173 -0.18533,1.37493 l 0,7.71613 c 0,0.68747 0.0547,1.16934 0.16266,1.44374 0.18134,0.47293 0.556,0.71093 1.12,0.71093 0.54934,0 0.91734,-0.28387 1.09867,-0.85 0.0933,-0.28907 0.14,-0.72293 0.14,-1.30467 z m -6.34533,0.27507 0,-7.9912 c 0,-1.66507 0.432,-2.8896 1.296,-3.67547 0.86133,-0.78546 2.13066,-1.18133 3.81066,-1.18133 1.97067,0 3.328,0.4912 4.076,1.46613 0.65867,0.85427 0.98534,2.31254 0.98534,4.37347 l 0,6.18227 c 0,1.95733 -0.35867,3.3532 -1.07734,4.19333 -0.776,0.91667 -2.11866,1.3744 -4.02933,1.3744 -1.648,0 -2.904,-0.3812 -3.76533,-1.14587 -0.864,-0.7624 -1.296,-1.96186 -1.296,-3.59573"
         style="fill:#000000;fill-opacity:1;fill-rule:nonzero;stroke:none"
         id="path106" />
      <path
         inkscape:connector-curvature="0"
         d="m 445.08945,630.41208 0,-11.58854 -3.504,0 0,-2.6328 c 1.09867,0 2.03867,-0.1756 2.816,-0.52706 0.97867,-0.4432 1.55734,-1.1292 1.74134,-2.06147 l 2.58666,0 0,16.80987 -3.64,0 z m 10.18934,-6.1396 2.84,0 0,-5.56614 -2.84,5.56614 z m -2.884,2.86253 0,-3.2032 5.35866,-10.3296 4.008,0 0,10.67027 1.51067,0 0,2.86253 -1.51067,0 0,3.27707 -3.64266,0 0,-3.27707 -5.724,0 z m 18.228,-1.3256 0,-7.71867 c 0,-0.50413 -0.0307,-0.86093 -0.092,-1.0756 -0.18267,-0.61093 -0.564,-0.91666 -1.144,-0.91666 -0.54934,0 -0.916,0.20533 -1.1,0.61666 -0.12134,0.27507 -0.18267,0.73334 -0.18267,1.3756 l 0,7.71867 c 0,0.6844 0.0547,1.1652 0.16133,1.4396 0.18267,0.47707 0.556,0.71253 1.12134,0.71253 0.55066,0 0.916,-0.28226 1.1,-0.84733 0.0907,-0.29067 0.136,-0.72707 0.136,-1.3048 z m -6.34534,0.27293 0,-7.9916 c 0,-1.66466 0.43334,-2.8912 1.296,-3.67506 0.86134,-0.78587 2.13467,-1.17907 3.81334,-1.17907 1.96933,0 3.32933,0.488 4.076,1.46453 0.656,0.8552 0.98266,2.314 0.98266,4.37494 l 0,6.1824 c 0,1.95306 -0.356,3.35053 -1.07333,4.19 -0.78,0.91666 -2.12267,1.37506 -4.032,1.37506 -1.64933,0 -2.90533,-0.3812 -3.76667,-1.14426 -0.86266,-0.7636 -1.296,-1.96414 -1.296,-3.59694"
         style="fill:#000000;fill-opacity:1;fill-rule:nonzero;stroke:none"
         id="path108" />
      <path
         inkscape:connector-curvature="0"
         d="m 259.48946,594.05275 -2.02133,0 0,-0.4948 c 0,-0.95054 0.24933,-1.67974 0.75066,-2.18854 0.49867,-0.50946 1.22534,-0.7636 2.176,-0.7636 0.88134,0 1.56134,0.21774 2.04134,0.6536 0.47866,0.43814 0.71733,1.0928 0.71733,1.96774 0,0.56773 -0.092,1.05466 -0.27867,1.4636 -0.18666,0.40466 -0.492,0.82973 -0.916,1.2708 l -0.828,0.8036 c -0.288,0.2772 -0.52533,0.52813 -0.712,0.74853 -0.31333,0.37347 -0.496,0.67866 -0.54666,0.91666 l 3.28133,0 0,1.71774 -5.68533,0 0,-0.31934 c 0,-0.71973 0.20266,-1.45413 0.60666,-2.20053 0.30534,-0.55986 0.76667,-1.17973 1.384,-1.85773 l 0.96267,-1.01827 c 0.22,-0.24373 0.37467,-0.49013 0.468,-0.73706 0.0933,-0.24627 0.14,-0.53907 0.14,-0.87907 0,-0.27707 -0.06,-0.50427 -0.17733,-0.67187 -0.144,-0.2048 -0.352,-0.29426 -0.62534,-0.26826 -0.296,0 -0.50266,0.1692 -0.62266,0.5088 -0.076,0.2204 -0.11467,0.5172 -0.11467,0.8896 z m 7.928,3.538 0,-4.28907 c 0,-0.2792 -0.0187,-0.47813 -0.052,-0.59693 -0.10133,-0.3396 -0.31467,-0.5088 -0.636,-0.5088 -0.30533,0 -0.50933,0.11453 -0.61067,0.34533 -0.068,0.14947 -0.10133,0.40467 -0.10133,0.7604 l 0,4.28907 c 0,0.38119 0.0293,0.64946 0.088,0.80199 0.10267,0.26147 0.31067,0.3944 0.624,0.3944 0.30667,0 0.50933,-0.15893 0.61067,-0.4724 0.052,-0.16053 0.0773,-0.40426 0.0773,-0.72399 z m -3.52533,0.15106 0,-4.44013 c 0,-0.92347 0.24,-1.60413 0.71866,-2.04227 0.48,-0.43586 1.18667,-0.6536 2.11867,-0.6536 1.09333,0 1.84933,0.26987 2.26533,0.81414 0.364,0.47493 0.54667,1.2848 0.54667,2.4296 l 0,3.43333 c 0,1.08653 -0.2,1.8636 -0.59733,2.32973 -0.43334,0.5088 -1.18,0.76307 -2.24,0.76307 -0.916,0 -1.61334,-0.21094 -2.09334,-0.63547 -0.47866,-0.42347 -0.71866,-1.09013 -0.71866,-1.9984"
         style="fill:#000000;fill-opacity:1;fill-rule:nonzero;stroke:none"
         id="path110" />
      <path
         inkscape:connector-curvature="0"
         d="m 262.79479,571.40528 1.58,0 0,-3.09053 -1.58,3.09053 z m -1.60266,1.5928 0,-1.78293 2.97866,-5.73694 2.22534,0 0,5.92707 0.83866,0 0,1.5928 -0.83866,0 0,1.8176 -2.02134,0 0,-1.8176 -3.18266,0 z m 10.128,-0.7396 0,-4.28653 c 0,-0.2796 -0.0173,-0.48014 -0.052,-0.59894 -0.1,-0.33853 -0.312,-0.5088 -0.63467,-0.5088 -0.30533,0 -0.508,0.11294 -0.61067,0.3448 -0.0667,0.1536 -0.10133,0.40614 -0.10133,0.76294 l 0,4.28653 c 0,0.3812 0.0293,0.65093 0.088,0.80093 0.10133,0.26254 0.31067,0.39534 0.624,0.39534 0.30533,0 0.508,-0.15627 0.60933,-0.46974 0.052,-0.16306 0.0773,-0.4036 0.0773,-0.72653 z m -3.524,0.152 0,-4.43853 c 0,-0.92547 0.24,-1.60574 0.71733,-2.0416 0.48133,-0.43654 1.18533,-0.65627 2.12,-0.65627 1.09333,0 1.848,0.2724 2.264,0.81347 0.36533,0.4772 0.548,1.28546 0.548,2.42973 l 0,3.43653 c 0,1.08587 -0.2,1.86187 -0.59867,2.32707 -0.432,0.51147 -1.17866,0.76667 -2.23866,0.76667 -0.91734,0 -1.61334,-0.2152 -2.09467,-0.63907 -0.47733,-0.42347 -0.71733,-1.09173 -0.71733,-1.998"
         style="fill:#000000;fill-opacity:1;fill-rule:nonzero;stroke:none"
         id="path112" />
      <path
         inkscape:connector-curvature="0"
         d="m 277.82279,549.11261 c 0.27067,0 0.46667,-0.13653 0.584,-0.4088 0.0947,-0.21 0.14,-0.49066 0.14,-0.8412 l 0,-0.9532 c 0,-0.30466 -0.0453,-0.5328 -0.14,-0.6864 -0.11733,-0.20253 -0.32133,-0.30413 -0.60933,-0.30413 -0.25467,0 -0.43333,0.0905 -0.53333,0.26827 -0.10267,0.17706 -0.15467,0.40986 -0.15467,0.69893 l 0,1.3984 c 0,0.2464 0.0573,0.44533 0.172,0.59893 0.11467,0.15267 0.29467,0.2292 0.54133,0.2292 z m 2.70934,-5.7136 -2.024,0 c 0,-0.27853 -0.0413,-0.48693 -0.12534,-0.6224 -0.11066,-0.1692 -0.30133,-0.2552 -0.57333,-0.2552 -0.28,0 -0.47467,0.14067 -0.584,0.42187 -0.0773,0.20053 -0.116,0.48187 -0.116,0.836 l 0,1.0192 c 0.25467,-0.19373 0.47733,-0.3224 0.668,-0.3812 0.192,-0.0573 0.452,-0.0885 0.784,-0.0885 0.788,0 1.35467,0.29586 1.704,0.8896 0.27067,0.4688 0.408,1.12346 0.408,1.9724 0,1.17026 -0.192,2.02346 -0.57467,2.55733 -0.45733,0.63533 -1.24133,0.95307 -2.35333,0.95307 -1,0 -1.72533,-0.31934 -2.17467,-0.9584 -0.39066,-0.552 -0.58533,-1.35934 -0.58533,-2.414 l 0,-2.53027 c 0,-1.21973 0.14,-2.10933 0.42,-2.66667 0.40667,-0.8004 1.14933,-1.2 2.22533,-1.2 0.968,0 1.676,0.16774 2.12534,0.50894 0.51733,0.39066 0.776,1.04426 0.776,1.95826 z m 4.35066,4.51667 0,-4.28587 c 0,-0.28133 -0.0173,-0.4808 -0.0493,-0.59893 -0.10133,-0.34013 -0.31467,-0.50947 -0.63733,-0.50947 -0.304,0 -0.508,0.11467 -0.61067,0.3448 -0.0667,0.15107 -0.10133,0.4052 -0.10133,0.7636 l 0,4.28587 c 0,0.38187 0.0293,0.65 0.0893,0.80267 0.10133,0.26146 0.30933,0.39426 0.62267,0.39426 0.30666,0 0.50933,-0.15786 0.612,-0.47133 0.0507,-0.16147 0.0747,-0.40267 0.0747,-0.7256 z m -3.52266,0.15107 0,-4.43694 c 0,-0.926 0.23866,-1.60573 0.71733,-2.0432 0.48,-0.43493 1.18667,-0.6548 2.11867,-0.6548 1.09466,0 1.85066,0.27094 2.26533,0.8136 0.364,0.47507 0.54667,1.28547 0.54667,2.42974 l 0,3.43386 c 0,1.08534 -0.2,1.86294 -0.59734,2.32907 -0.43333,0.50947 -1.17866,0.76307 -2.24,0.76307 -0.916,0 -1.61333,-0.20934 -2.09333,-0.63547 -0.47867,-0.42293 -0.71733,-1.0896 -0.71733,-1.99893"
         style="fill:#000000;fill-opacity:1;fill-rule:nonzero;stroke:none"
         id="path114" />
      <path
         inkscape:connector-curvature="0"
         d="m 295.72146,531.52768 c 0.344,0 0.57333,-0.16773 0.69066,-0.5072 0.0653,-0.20533 0.0987,-0.528 0.0987,-0.96933 0,-0.44 -0.0333,-0.74934 -0.0987,-0.92667 -0.11733,-0.32267 -0.35466,-0.48533 -0.71466,-0.48533 -0.308,0 -0.51734,0.12666 -0.62534,0.38266 -0.0747,0.168 -0.11333,0.436 -0.11333,0.80134 l 0,0.26666 c 0,0.408 0.0347,0.71334 0.1,0.916 0.116,0.3464 0.34,0.52187 0.66267,0.52187 z m -0.71067,-5.5072 c 0,0.304 0.0413,0.54533 0.12533,0.724 0.12,0.24533 0.316,0.36933 0.58534,0.36933 0.29866,0 0.51066,-0.124 0.63733,-0.36933 0.10267,-0.19467 0.152,-0.45333 0.152,-0.776 0,-0.29867 -0.0467,-0.544 -0.13867,-0.74 -0.128,-0.25333 -0.328,-0.38133 -0.59866,-0.38133 -0.304,0 -0.51734,0.12266 -0.63734,0.37066 -0.084,0.17867 -0.12533,0.44534 -0.12533,0.80267 z m -0.904,1.81733 c -0.39867,-0.22933 -0.684,-0.50533 -0.85867,-0.832 -0.17466,-0.32666 -0.26133,-0.72266 -0.26133,-1.19066 0,-0.82267 0.24533,-1.44534 0.73867,-1.868 0.49066,-0.42534 1.16133,-0.63867 2.00933,-0.63867 0.86667,0 1.544,0.21067 2.036,0.62933 0.492,0.42134 0.73733,1.04667 0.73733,1.87734 0,0.44133 -0.084,0.82133 -0.25333,1.14533 -0.196,0.35733 -0.496,0.64 -0.904,0.852 0.47467,0.28933 0.796,0.60133 0.96133,0.93467 0.16534,0.33466 0.248,0.8 0.248,1.39466 0,1.02667 -0.24533,1.77187 -0.73866,2.23907 -0.49067,0.46613 -1.24667,0.70053 -2.264,0.70053 -0.81467,0 -1.45467,-0.26053 -1.92134,-0.7776 -0.46666,-0.51773 -0.7,-1.238 -0.7,-2.162 0,-0.56 0.064,-0.984 0.19067,-1.272 0.16267,-0.35733 0.488,-0.70266 0.98,-1.032 z m 8.70267,2.456 0,-4.28933 c 0,-0.27733 -0.0173,-0.47733 -0.0507,-0.596 -0.10267,-0.33867 -0.31467,-0.508 -0.636,-0.508 -0.30667,0 -0.50933,0.11467 -0.61067,0.34267 -0.068,0.15333 -0.10133,0.40666 -0.10133,0.76133 l 0,4.28933 c 0,0.38134 0.0293,0.64934 0.088,0.80267 0.10133,0.26347 0.30933,0.39373 0.624,0.39373 0.30533,0 0.508,-0.15786 0.61067,-0.46973 0.0507,-0.16133 0.076,-0.40533 0.076,-0.72667 z m -3.524,0.152 0,-4.44133 c 0,-0.92267 0.23866,-1.604 0.71866,-2.04 0.47867,-0.43733 1.18534,-0.656 2.11867,-0.656 1.09333,0 1.84933,0.27333 2.264,0.816 0.36533,0.47467 0.54667,1.284 0.54667,2.42933 l 0,3.43334 c 0,1.08666 -0.19867,1.8624 -0.596,2.3312 -0.43334,0.50773 -1.18,0.76306 -2.24134,0.76306 -0.916,0 -1.61333,-0.2136 -2.092,-0.63706 -0.48,-0.42547 -0.71866,-1.09214 -0.71866,-1.99854"
         style="fill:#000000;fill-opacity:1;fill-rule:nonzero;stroke:none"
         id="path116" />
      <path
         inkscape:connector-curvature="0"
         d="m 314.54146,522.00315 0,-6.43734 -1.94667,0 0,-1.464 c 0.61067,0 1.13333,-0.096 1.564,-0.29066 0.544,-0.248 0.86667,-0.62934 0.96667,-1.148 l 1.43866,0 0,9.34 -2.02266,0 z m 7.824,-2.55734 0,-4.28933 c 0,-0.27733 -0.016,-0.47733 -0.0507,-0.596 -0.10133,-0.34 -0.31333,-0.50933 -0.63467,-0.50933 -0.30666,0 -0.50933,0.11333 -0.612,0.34533 -0.0667,0.14933 -0.10133,0.40667 -0.10133,0.76 l 0,4.28933 c 0,0.38134 0.0293,0.64934 0.088,0.80134 0.10267,0.26266 0.31067,0.396 0.62533,0.396 0.30534,0 0.508,-0.15867 0.60934,-0.47334 0.052,-0.16 0.076,-0.40266 0.076,-0.724 z m -3.524,0.15334 0,-4.44267 c 0,-0.92267 0.24,-1.60267 0.72,-2.04133 0.47866,-0.43334 1.184,-0.65334 2.11866,-0.65334 1.09334,0 1.848,0.26934 2.26267,0.81334 0.36667,0.47733 0.54933,1.28533 0.54933,2.42933 l 0,3.43467 c 0,1.08666 -0.2,1.86266 -0.59866,2.32933 -0.43334,0.50933 -1.17867,0.76267 -2.24,0.76267 -0.916,0 -1.61334,-0.21067 -2.092,-0.636 -0.48,-0.42267 -0.72,-1.09067 -0.72,-1.996 z m 9.88666,-0.15334 0,-4.28933 c 0,-0.27733 -0.0173,-0.47733 -0.052,-0.596 -0.10133,-0.34 -0.31333,-0.50933 -0.636,-0.50933 -0.30533,0 -0.508,0.11333 -0.60933,0.34533 -0.068,0.14933 -0.10133,0.40667 -0.10133,0.76 l 0,4.28933 c 0,0.38134 0.0293,0.64934 0.088,0.80134 0.10266,0.26266 0.30933,0.396 0.62266,0.396 0.30667,0 0.50934,-0.15867 0.612,-0.47334 0.0507,-0.16 0.076,-0.40266 0.076,-0.724 z m -3.524,0.15334 0,-4.44267 c 0,-0.92267 0.24,-1.60267 0.71867,-2.04133 0.47867,-0.43334 1.18533,-0.65334 2.11733,-0.65334 1.09467,0 1.84934,0.26934 2.26534,0.81334 0.364,0.47733 0.54666,1.28533 0.54666,2.42933 l 0,3.43467 c 0,1.08666 -0.19866,1.86266 -0.596,2.32933 -0.43466,0.50933 -1.18133,0.76267 -2.24133,0.76267 -0.91467,0 -1.61333,-0.21067 -2.092,-0.636 -0.47867,-0.42267 -0.71867,-1.09067 -0.71867,-1.996"
         style="fill:#000000;fill-opacity:1;fill-rule:nonzero;stroke:none"
         id="path118" />
      <path
         inkscape:connector-curvature="0"
         d="m 340.56412,519.12981 0,-6.436 -1.94533,0 0,-1.464 c 0.61067,0 1.13333,-0.0973 1.564,-0.292 0.54267,-0.24533 0.864,-0.62666 0.96667,-1.14533 l 1.43866,0 0,9.33733 -2.024,0 z m 6.26134,-6.09333 -2.024,0 0,-0.49467 c 0,-0.95066 0.252,-1.68133 0.75066,-2.19066 0.5,-0.508 1.22534,-0.76134 2.176,-0.76134 0.88267,0 1.56134,0.21867 2.04267,0.65467 0.48,0.436 0.716,1.092 0.716,1.96533 0,0.56667 -0.0907,1.056 -0.27867,1.46134 -0.18666,0.40933 -0.49066,0.832 -0.91466,1.27466 l -0.82667,0.80267 c -0.288,0.27867 -0.52667,0.52933 -0.71333,0.748 -0.31467,0.37333 -0.49734,0.68 -0.54667,0.91733 l 3.28,0 0,1.716 -5.68533,0 0,-0.31866 c 0,-0.72 0.204,-1.452 0.60933,-2.2 0.30267,-0.56 0.76533,-1.17867 1.38133,-1.85734 l 0.964,-1.01866 c 0.22,-0.24667 0.37467,-0.48934 0.468,-0.736 0.092,-0.24534 0.14,-0.54 0.14,-0.88 0,-0.27734 -0.0587,-0.504 -0.17733,-0.672 -0.14533,-0.204 -0.352,-0.29334 -0.62533,-0.268 -0.296,0 -0.50267,0.17066 -0.62267,0.50933 -0.076,0.22 -0.11333,0.516 -0.11333,0.88933 z m 7.92666,3.53733 0,-4.28666 c 0,-0.28134 -0.0187,-0.47867 -0.0507,-0.59867 -0.10267,-0.33867 -0.316,-0.50933 -0.63867,-0.50933 -0.304,0 -0.508,0.11466 -0.608,0.34533 -0.0693,0.152 -0.10133,0.404 -0.10133,0.76267 l 0,4.28666 c 0,0.38134 0.0293,0.64934 0.0867,0.79867 0.104,0.264 0.31067,0.396 0.62267,0.396 0.308,0 0.51067,-0.156 0.612,-0.468 0.0507,-0.164 0.0773,-0.404 0.0773,-0.72667 z m -3.52533,0.15334 0,-4.44 c 0,-0.92667 0.24,-1.60667 0.71867,-2.04267 0.48,-0.436 1.18666,-0.65467 2.11733,-0.65467 1.096,0 1.852,0.27067 2.268,0.81334 0.36267,0.47466 0.544,1.28533 0.544,2.42933 l 0,3.436 c 0,1.08667 -0.19867,1.86267 -0.596,2.32667 -0.43333,0.51066 -1.18,0.76533 -2.24,0.76533 -0.916,0 -1.61333,-0.212 -2.09333,-0.636 -0.47867,-0.424 -0.71867,-1.09067 -0.71867,-1.99733"
         style="fill:#000000;fill-opacity:1;fill-rule:nonzero;stroke:none"
         id="path120" />
      <path
         inkscape:connector-curvature="0"
         d="m 362.88679,524.35381 0,-6.43466 -1.94533,0 0,-1.46534 c 0.60933,0 1.132,-0.0973 1.56533,-0.29333 0.54267,-0.24667 0.86667,-0.628 0.96667,-1.144 l 1.43866,0 0,9.33733 -2.02533,0 z m 5.66267,-3.40933 1.57866,0 0,-3.092 -1.57866,3.092 z m -1.604,1.58933 0,-1.78 2.97733,-5.73733 2.22933,0 0,5.928 0.83734,0 0,1.58933 -0.83734,0 0,1.82 -2.024,0 0,-1.82 -3.18266,0 z m 10.13066,-0.736 0,-4.28666 c 0,-0.28134 -0.0173,-0.48 -0.052,-0.59867 -0.10266,-0.34 -0.31333,-0.50933 -0.63866,-0.50933 -0.304,0 -0.508,0.11466 -0.608,0.34533 -0.0693,0.152 -0.10267,0.40533 -0.10267,0.76267 l 0,4.28666 c 0,0.38134 0.032,0.64934 0.0893,0.79867 0.10134,0.264 0.31067,0.396 0.62134,0.396 0.308,0 0.512,-0.156 0.612,-0.472 0.052,-0.16 0.0787,-0.40133 0.0787,-0.72267 z m -3.52533,0.15067 0,-4.43733 c 0,-0.92667 0.23867,-1.60667 0.71733,-2.04267 0.48134,-0.436 1.18667,-0.656 2.11734,-0.656 1.09733,0 1.852,0.27333 2.268,0.81467 0.36533,0.47466 0.54533,1.28533 0.54533,2.42933 l 0,3.43467 c 0,1.08666 -0.19867,1.86133 -0.59867,2.32666 -0.43066,0.51067 -1.17733,0.764 -2.23733,0.764 -0.91733,0 -1.61333,-0.21066 -2.09467,-0.63466 -0.47866,-0.42267 -0.71733,-1.08934 -0.71733,-1.99867"
         style="fill:#000000;fill-opacity:1;fill-rule:nonzero;stroke:none"
         id="path122" />
      <path
         inkscape:connector-curvature="0"
         d="m 383.99479,538.18181 0,-6.43906 -1.94533,0 0,-1.46227 c 0.60933,0 1.132,-0.0973 1.564,-0.29333 0.54266,-0.24667 0.86666,-0.628 0.96666,-1.144 l 1.43867,0 0,9.33866 -2.024,0 z m 7.12533,-1.36186 c 0.27334,0 0.468,-0.136 0.58667,-0.40947 0.092,-0.20773 0.13867,-0.4896 0.13867,-0.83533 l 0,-0.95734 c 0,-0.30466 -0.0467,-0.53386 -0.13867,-0.686 -0.11867,-0.2036 -0.324,-0.30613 -0.612,-0.30613 -0.25467,0 -0.43067,0.0911 -0.53333,0.26813 -0.10267,0.17707 -0.15334,0.41147 -0.15334,0.70054 l 0,1.3984 c 0,0.24586 0.0573,0.44533 0.172,0.59906 0.116,0.15094 0.29467,0.22814 0.54,0.22814 z m 2.71067,-5.7128 -2.024,0 c 0,-0.28 -0.0427,-0.48667 -0.12667,-0.62267 -0.10933,-0.16933 -0.3,-0.25467 -0.57333,-0.25467 -0.27867,0 -0.47333,0.14 -0.584,0.41867 -0.0773,0.204 -0.11467,0.48533 -0.11467,0.84013 l 0,1.0188 c 0.256,-0.19426 0.47734,-0.32346 0.668,-0.3828 0.19067,-0.0589 0.452,-0.0875 0.78134,-0.0875 0.78933,0 1.35866,0.2952 1.70533,0.88893 0.272,0.46773 0.408,1.1224 0.408,1.97293 0,1.17094 -0.192,2.02347 -0.57333,2.55574 -0.45867,0.63706 -1.24267,0.95466 -2.35334,0.95466 -1.00266,0 -1.72533,-0.32026 -2.17333,-0.95826 -0.39333,-0.55307 -0.58667,-1.35934 -0.58667,-2.41507 l 0,-2.52867 c 0,-1.22133 0.13867,-2.11093 0.41867,-2.66826 0.408,-0.8 1.15067,-1.2 2.228,-1.2 0.96533,0 1.67333,0.16933 2.124,0.50933 0.51733,0.39067 0.776,1.044 0.776,1.95867 z m 4.35067,4.51746 0,-4.28706 c 0,-0.28107 -0.0173,-0.47974 -0.0507,-0.5984 -0.1,-0.34 -0.31467,-0.50934 -0.636,-0.50934 -0.304,0 -0.508,0.11467 -0.61067,0.344 -0.068,0.152 -0.10133,0.40534 -0.10133,0.76374 l 0,4.28706 c 0,0.3812 0.0307,0.64947 0.0907,0.80054 0.1,0.262 0.30666,0.3948 0.62133,0.3948 0.30533,0 0.50933,-0.15787 0.61067,-0.47147 0.0507,-0.1604 0.076,-0.40253 0.076,-0.72387 z m -3.52267,0.15107 0,-4.43813 c 0,-0.9264 0.23867,-1.60507 0.716,-2.04374 0.48267,-0.43466 1.188,-0.65466 2.12,-0.65466 1.09467,0 1.84933,0.27333 2.264,0.81333 0.36533,0.476 0.54933,1.28667 0.54933,2.43093 l 0,3.43334 c 0,1.08653 -0.2,1.862 -0.59733,2.33133 -0.43467,0.5072 -1.18,0.76133 -2.24133,0.76133 -0.91467,0 -1.612,-0.20986 -2.09467,-0.63693 -0.47733,-0.42293 -0.716,-1.08853 -0.716,-1.9968"
         style="fill:#000000;fill-opacity:1;fill-rule:nonzero;stroke:none"
         id="path124" />
      <path
         inkscape:connector-curvature="0"
         d="m 400.68146,558.97981 0,-6.43653 -1.94667,0 0,-1.46187 c 0.612,0 1.13067,-0.0991 1.56533,-0.29426 0.544,-0.24587 0.864,-0.62774 0.96667,-1.1444 l 1.43867,0 0,9.33706 -2.024,0 z m 7.1,-1.32133 c 0.34,0 0.572,-0.16987 0.688,-0.5084 0.068,-0.20413 0.0987,-0.52707 0.0987,-0.96827 0,-0.44 -0.0307,-0.75 -0.0987,-0.9276 -0.116,-0.3224 -0.35334,-0.48373 -0.71334,-0.48373 -0.30933,0 -0.51733,0.126 -0.624,0.3812 -0.076,0.17027 -0.11333,0.43587 -0.11333,0.80213 l 0,0.26454 c 0,0.40826 0.032,0.71453 0.0987,0.91666 0.116,0.35 0.34,0.52347 0.664,0.52347 z m -0.712,-5.50947 c 0,0.30574 0.0413,0.54694 0.12666,0.7256 0.12,0.24587 0.31334,0.3692 0.58534,0.3692 0.29733,0 0.508,-0.12333 0.636,-0.3692 0.10133,-0.19426 0.15066,-0.45373 0.15066,-0.77613 0,-0.29573 -0.044,-0.5432 -0.13733,-0.73947 -0.12667,-0.25426 -0.32667,-0.38186 -0.59867,-0.38186 -0.30533,0 -0.516,0.12666 -0.636,0.37133 -0.0853,0.17813 -0.12666,0.4448 -0.12666,0.80053 z m -0.904,1.81934 c -0.4,-0.22974 -0.68534,-0.5052 -0.85734,-0.83227 -0.17466,-0.32667 -0.26133,-0.724 -0.26133,-1.19173 0,-0.82134 0.24533,-1.44534 0.736,-1.86827 0.492,-0.4244 1.16267,-0.638 2.012,-0.638 0.864,0 1.54133,0.21093 2.03333,0.63187 0.492,0.41866 0.73867,1.0452 0.73867,1.8744 0,0.44173 -0.084,0.82293 -0.25333,1.1464 -0.196,0.3568 -0.49467,0.64066 -0.904,0.85253 0.47466,0.28907 0.79733,0.6 0.96133,0.93333 0.16667,0.33654 0.248,0.80107 0.248,1.3948 0,1.02707 -0.24667,1.77187 -0.736,2.238 -0.49467,0.4688 -1.24933,0.70054 -2.268,0.70054 -0.812,0 -1.45333,-0.2588 -1.92,-0.776 -0.46667,-0.51827 -0.7,-1.2396 -0.7,-2.16254 0,-0.55826 0.064,-0.98426 0.192,-1.2708 0.15867,-0.35786 0.48667,-0.70053 0.97867,-1.03226 z m 8.70266,2.4568 0,-4.29014 c 0,-0.2776 -0.016,-0.47653 -0.052,-0.59533 -0.1,-0.34013 -0.31333,-0.5088 -0.636,-0.5088 -0.30533,0 -0.508,0.114 -0.60933,0.34213 -0.0693,0.1536 -0.10267,0.40787 -0.10267,0.762 l 0,4.29014 c 0,0.3812 0.0307,0.6484 0.0893,0.80093 0.104,0.26253 0.308,0.3944 0.62266,0.3944 0.30667,0 0.51067,-0.15733 0.61067,-0.4704 0.052,-0.16147 0.0773,-0.40467 0.0773,-0.72493 z m -3.524,0.15093 0,-4.44107 c 0,-0.92346 0.24,-1.60413 0.71734,-2.04066 0.48,-0.43587 1.18666,-0.65627 2.11866,-0.65627 1.09467,0 1.85067,0.27347 2.26534,0.81613 0.36533,0.474 0.54666,1.28547 0.54666,2.42974 l 0,3.43386 c 0,1.086 -0.19866,1.862 -0.596,2.33067 -0.43333,0.50787 -1.18,0.76147 -2.24133,0.76147 -0.91467,0 -1.61333,-0.21187 -2.09333,-0.6348 -0.47734,-0.42347 -0.71734,-1.09014 -0.71734,-1.99907"
         style="fill:#000000;fill-opacity:1;fill-rule:nonzero;stroke:none"
         id="path126" />
      <path
         inkscape:connector-curvature="0"
         d="m 409.18146,579.20381 -2.02,0 0,-0.4948 c 0,-0.95053 0.24933,-1.67973 0.74933,-2.18853 0.50133,-0.5084 1.22533,-0.76467 2.17733,-0.76467 0.88134,0 1.56,0.22134 2.04,0.65627 0.47867,0.4364 0.71867,1.09213 0.71867,1.96453 0,0.56934 -0.092,1.05734 -0.27867,1.46254 -0.188,0.40893 -0.492,0.83173 -0.916,1.27506 l -0.82666,0.80054 c -0.288,0.2812 -0.52667,0.5312 -0.71467,0.75 -0.312,0.37333 -0.496,0.68066 -0.54667,0.91666 l 3.28267,0 0,1.71707 -5.68533,0 0,-0.31707 c 0,-0.72293 0.20133,-1.4548 0.60666,-2.20213 0.304,-0.55987 0.76667,-1.17867 1.384,-1.8584 l 0.96267,-1.01667 c 0.22,-0.24573 0.37467,-0.49053 0.468,-0.73693 0.092,-0.2464 0.14,-0.53907 0.14,-0.88013 0,-0.27774 -0.0613,-0.50427 -0.176,-0.672 -0.14667,-0.20467 -0.35333,-0.2916 -0.62533,-0.26814 -0.29734,0 -0.504,0.17027 -0.624,0.5088 -0.0773,0.22027 -0.116,0.5188 -0.116,0.8896 z m 7.928,3.538 0,-4.28706 c 0,-0.28067 -0.0173,-0.47867 -0.0507,-0.59894 -0.10267,-0.33853 -0.31333,-0.5088 -0.636,-0.5088 -0.30533,0 -0.50933,0.11294 -0.612,0.34534 -0.0667,0.15306 -0.1,0.40466 -0.1,0.7624 l 0,4.28706 c 0,0.3812 0.0307,0.64947 0.0893,0.80307 0.1,0.2604 0.30934,0.3932 0.62267,0.3932 0.30533,0 0.50933,-0.1572 0.60933,-0.46973 0.0533,-0.16307 0.0773,-0.4036 0.0773,-0.72654 z m -3.52267,0.15307 0,-4.44013 c 0,-0.92547 0.23867,-1.60627 0.71733,-2.04267 0.47867,-0.43493 1.18534,-0.65627 2.11867,-0.65627 1.09467,0 1.84933,0.27347 2.26533,0.81507 0.36267,0.4756 0.54534,1.28493 0.54534,2.42813 l 0,3.43814 c 0,1.08533 -0.19867,1.86133 -0.59734,2.32653 -0.432,0.5104 -1.17866,0.7656 -2.23866,0.7656 -0.916,0 -1.61467,-0.2136 -2.09334,-0.63653 -0.47866,-0.4244 -0.71733,-1.09267 -0.71733,-1.99787 z m 9.884,-0.15307 0,-4.28706 c 0,-0.28067 -0.0187,-0.47867 -0.0493,-0.59894 -0.10267,-0.33853 -0.31467,-0.5088 -0.63867,-0.5088 -0.30533,0 -0.508,0.11294 -0.60933,0.34534 -0.068,0.15306 -0.10267,0.40466 -0.10267,0.7624 l 0,4.28706 c 0,0.3812 0.0307,0.64947 0.0907,0.80307 0.10266,0.2604 0.30933,0.3932 0.62133,0.3932 0.30667,0 0.51067,-0.1572 0.61067,-0.46973 0.052,-0.16307 0.0773,-0.4036 0.0773,-0.72654 z m -3.524,0.15307 0,-4.44013 c 0,-0.92547 0.24,-1.60627 0.71733,-2.04267 0.48,-0.43493 1.18667,-0.65627 2.11867,-0.65627 1.09467,0 1.85067,0.27347 2.26666,0.81507 0.36534,0.4756 0.54534,1.28493 0.54534,2.42813 l 0,3.43814 c 0,1.08533 -0.19867,1.86133 -0.596,2.32653 -0.43333,0.5104 -1.18,0.7656 -2.24,0.7656 -0.916,0 -1.61467,-0.2136 -2.09467,-0.63653 -0.47733,-0.4244 -0.71733,-1.09267 -0.71733,-1.99787"
         style="fill:#000000;fill-opacity:1;fill-rule:nonzero;stroke:none"
         id="path128" />
      <path
         inkscape:connector-curvature="0"
         d="m 410.21346,605.93808 -2.024,0 0,-0.49894 c 0,-0.95053 0.24933,-1.67706 0.74933,-2.18693 0.50133,-0.5084 1.22667,-0.762 2.17733,-0.762 0.88134,0 1.56134,0.21773 2.04,0.65253 0.48,0.4396 0.71867,1.09227 0.71867,1.96627 0,0.56973 -0.092,1.05667 -0.28,1.46453 -0.18533,0.40467 -0.49067,0.83067 -0.91333,1.2708 l -0.828,0.80214 c -0.28934,0.2796 -0.52534,0.5296 -0.712,0.75253 -0.31334,0.37147 -0.49734,0.67707 -0.54667,0.91253 l 3.28,0 0,1.72027 -5.68533,0 0,-0.32027 c 0,-0.7188 0.204,-1.45413 0.608,-2.19946 0.30266,-0.55934 0.764,-1.18067 1.38133,-1.85787 l 0.96533,-1.01707 c 0.22,-0.24586 0.37467,-0.49333 0.46667,-0.73906 0.0933,-0.2464 0.14133,-0.53707 0.14133,-0.87667 0,-0.2812 -0.0613,-0.5052 -0.17866,-0.676 -0.14534,-0.20267 -0.352,-0.2916 -0.62534,-0.26507 -0.29466,0 -0.50266,0.16774 -0.62266,0.5072 -0.076,0.22187 -0.112,0.51827 -0.112,0.89227 z m 6.36,0 -2.02267,0 0,-0.49894 c 0,-0.95053 0.24933,-1.67706 0.75067,-2.18693 0.5,-0.5084 1.22533,-0.762 2.176,-0.762 0.88133,0 1.56133,0.21773 2.04266,0.65253 0.47734,0.4396 0.71734,1.09227 0.71734,1.96627 0,0.56973 -0.0933,1.05667 -0.27867,1.46453 -0.188,0.40467 -0.49333,0.83067 -0.91733,1.2708 l -0.828,0.80214 c -0.288,0.2796 -0.524,0.5296 -0.712,0.75253 -0.31334,0.37147 -0.496,0.67707 -0.54667,0.91253 l 3.28267,0 0,1.72027 -5.68667,0 0,-0.32027 c 0,-0.7188 0.204,-1.45413 0.608,-2.19946 0.30267,-0.55934 0.76667,-1.18067 1.38267,-1.85787 l 0.96266,-1.01707 c 0.22134,-0.24586 0.376,-0.49333 0.46934,-0.73906 0.092,-0.2464 0.13866,-0.53707 0.13866,-0.87667 0,-0.2812 -0.0587,-0.5052 -0.17733,-0.676 -0.144,-0.20267 -0.352,-0.2916 -0.624,-0.26507 -0.296,0 -0.504,0.16774 -0.62267,0.5072 -0.0773,0.22187 -0.11466,0.51827 -0.11466,0.89227 z m 7.92666,3.53653 0,-4.28907 c 0,-0.28026 -0.0173,-0.4792 -0.0507,-0.598 -0.10267,-0.33946 -0.31467,-0.5072 -0.63467,-0.5072 -0.308,0 -0.51067,0.11294 -0.612,0.34214 -0.068,0.1536 -0.104,0.40786 -0.104,0.76306 l 0,4.28907 c 0,0.3828 0.032,0.6468 0.0907,0.80107 0.10266,0.2624 0.30933,0.39426 0.62533,0.39426 0.304,0 0.50667,-0.15893 0.608,-0.47146 0.052,-0.1604 0.0773,-0.4036 0.0773,-0.72387 z m -3.524,0.152 0,-4.44107 c 0,-0.92346 0.24,-1.6032 0.71867,-2.0428 0.47867,-0.4348 1.18533,-0.65253 2.12,-0.65253 1.09067,0 1.84666,0.2692 2.264,0.8136 0.36266,0.4728 0.54533,1.28373 0.54533,2.4296 l 0,3.43547 c 0,1.0844 -0.19867,1.8604 -0.59733,2.32813 -0.432,0.5072 -1.18,0.7624 -2.24,0.7624 -0.91467,0 -1.61333,-0.21187 -2.092,-0.6348 -0.47867,-0.42347 -0.71867,-1.09013 -0.71867,-1.998"
         style="fill:#000000;fill-opacity:1;fill-rule:nonzero;stroke:none"
         id="path130" />
      <path
         inkscape:connector-curvature="0"
         d="m 269.31079,636.60581 -2.02133,0 0,-9.54107 2.02133,0 0,4.79627 1.41334,-2.37867 2.21333,0 -2.01067,2.8636 2.03734,4.25987 -2.12534,0 -1.184,-2.74587 -0.344,0.4584 z m 4.31467,-7.12347 1.88267,0 0,0.82814 c 0.17733,-0.31347 0.40666,-0.56667 0.68666,-0.75107 0.28,-0.188 0.564,-0.28013 0.852,-0.28013 0.33067,0 0.636,0.0849 0.916,0.25 0.28,0.164 0.476,0.39586 0.58667,0.6912 0.38933,-0.62614 0.88933,-0.9412 1.5,-0.9412 0.5,0 0.928,0.1328 1.27867,0.39586 0.352,0.2604 0.52933,0.62654 0.52933,1.09107 l 0,5.8396 -2.024,0 0,-5.08693 c 0,-0.18654 -0.0413,-0.3308 -0.12,-0.43134 -0.0827,-0.10413 -0.21867,-0.1536 -0.41467,-0.1536 -0.364,0 -0.54666,0.19427 -0.54666,0.58494 l 0,5.08693 -2.02267,0 0,-5.08693 c -0.0507,-0.24747 -0.112,-0.40627 -0.18533,-0.4776 -0.072,-0.0719 -0.17067,-0.10734 -0.29867,-0.10734 -0.39867,0 -0.59733,0.19427 -0.59733,0.58494 l 0,5.08693 -2.02267,0 z m 9.70533,8.3204 -1.36,0 2.86,-10.738 1.4,0 -2.9,10.738 z m 5.14134,-10.738 0,2.9776 c 0.22933,-0.27093 0.47333,-0.46626 0.73066,-0.58333 0.25867,-0.11987 0.53734,-0.17973 0.83467,-0.17973 0.48267,0 0.87333,0.15253 1.17067,0.45826 0.296,0.3048 0.44533,0.69174 0.44533,1.15627 l 0,5.712 -2.024,0 0,-5.06253 c 0,-0.21974 -0.0387,-0.3776 -0.11333,-0.46814 -0.0773,-0.0953 -0.22934,-0.1412 -0.45867,-0.1412 -0.204,0 -0.352,0.0735 -0.44533,0.22454 -0.0933,0.14533 -0.14,0.32133 -0.14,0.5244 l 0,4.92293 -2.02267,0 0,-9.54107 2.02267,0"
         style="fill:#000000;fill-opacity:1;fill-rule:nonzero;stroke:none"
         id="path132" />
      <path
         inkscape:connector-curvature="0"
         d="m 328.52546,561.37981 -3.39867,0 0,-15.2656 5.048,0 1.852,9.01667 1.95467,-9.01667 5.008,0 0,15.2656 -3.42134,0 0.368,-11.96933 -2.56533,11.96933 -2.66667,0 -2.464,-11.96933 0.28534,11.96933 z m 16.10133,-12.5188 0,3.82814 0.50933,0 c 0.32534,0 0.60667,-0.0255 0.84534,-0.074 0.23733,-0.0452 0.45733,-0.15094 0.66133,-0.3124 0.17733,-0.19174 0.29467,-0.41147 0.35467,-0.66307 0.0613,-0.2484 0.092,-0.54533 0.092,-0.8864 0,-0.41933 -0.032,-0.75107 -0.10134,-0.99587 -0.108,-0.3932 -0.296,-0.6516 -0.56933,-0.774 -0.15067,-0.0531 -0.31733,-0.0869 -0.49867,-0.1016 -0.184,-0.014 -0.41866,-0.0208 -0.70266,-0.0208 l -0.59067,0 z m 0,12.5188 -3.58267,0 0,-15.2656 4.25467,0 c 0.92267,0 1.696,0.0676 2.32,0.20254 0.936,0.20373 1.624,0.55626 2.056,1.05786 0.38133,0.4348 0.65067,0.95054 0.81733,1.54947 0.12,0.45933 0.18134,1.04893 0.18134,1.7692 0,0.97667 -0.12934,1.79853 -0.38667,2.462 -0.32533,0.84173 -0.868,1.43907 -1.628,1.79227 -0.39333,0.1896 -0.82533,0.31866 -1.29333,0.388 -0.468,0.0645 -1.00667,0.1 -1.61867,0.1 l -1.12,0 z m 11.07467,0 -3.584,0 0,-15.2656 3.584,0 0,5.86187 2.484,0 0,-5.86187 3.58133,0 0,15.2656 -3.58133,0 0,-6.35053 -2.484,0 0,6.35053"
         style="fill:#000000;fill-opacity:1;fill-rule:nonzero;stroke:none"
         id="path134" />
    </g>
  </g>
</svg>
