<?xml version="1.0" encoding="UTF-8" standalone="no"?>
<!-- Created with Inkscape (http://www.inkscape.org/) -->

<svg
   xmlns:dc="http://purl.org/dc/elements/1.1/"
   xmlns:cc="http://creativecommons.org/ns#"
   xmlns:rdf="http://www.w3.org/1999/02/22-rdf-syntax-ns#"
   xmlns:svg="http://www.w3.org/2000/svg"
   xmlns="http://www.w3.org/2000/svg"
   xmlns:sodipodi="http://sodipodi.sourceforge.net/DTD/sodipodi-0.dtd"
   xmlns:inkscape="http://www.inkscape.org/namespaces/inkscape"
   width="109.96535mm"
   height="108.55672mm"
   viewBox="0 0 389.64102 384.64978"
   id="svg7146"
   version="1.1"
   inkscape:version="0.91 r13725"
   sodipodi:docname="gauge-speedometer-panel-1.svg">
  <defs
     id="defs7148" />
  <sodipodi:namedview
     id="base"
     pagecolor="#ffffff"
     bordercolor="#666666"
     borderopacity="1.0"
     inkscape:pageopacity="0.0"
     inkscape:pageshadow="2"
     inkscape:zoom="1.979899"
     inkscape:cx="401.89958"
     inkscape:cy="147.95598"
     inkscape:document-units="px"
     inkscape:current-layer="layer1"
     showgrid="false"
     fit-margin-top="0"
     fit-margin-left="0"
     fit-margin-right="0"
     fit-margin-bottom="0"
     inkscape:window-width="1920"
     inkscape:window-height="980"
     inkscape:window-x="0"
     inkscape:window-y="0"
     inkscape:window-maximized="1" />
  <metadata
     id="metadata7151">
    <rdf:RDF>
      <cc:Work
         rdf:about="">
        <dc:format>image/svg+xml</dc:format>
        <dc:type
           rdf:resource="http://purl.org/dc/dcmitype/StillImage" />
        <dc:title />
      </cc:Work>
    </rdf:RDF>
  </metadata>
  <g
     inkscape:label="Layer 1"
     inkscape:groupmode="layer"
     id="layer1"
     transform="translate(-152.17332,-380.32153)">
    <ellipse
       style="fill:#000000;fill-opacity:1"
       id="path7694"
       cx="346.99384"
       cy="572.64642"
       rx="194.82051"
       ry="192.32489" />
    <path
       id="path16"
       style="fill:#ffffff;fill-opacity:1;fill-rule:evenodd;stroke:none"
       d="m 161.9323,570.89695 23.21466,0 0,4.64267 -23.21466,0 z m 2.89333,-30.24266 22.89733,3.82267 -0.76666,4.58133 -22.89334,-3.82533 0.76267,-4.57867 z m 7.83333,-29.35467 21.95734,7.54534 -1.508,4.38933 -21.956,-7.544 1.50666,-4.39067 z m 12.56534,-27.66132 20.41333,11.05599 -2.212,4.084 -20.412,-11.05866 2.21067,-4.08133 z m 16.948,-25.21467 18.31466,14.26934 -2.85466,3.66266 -18.30934,-14.27066 2.84934,-3.66134 z m 20.872,-22.07733 15.71333,17.08933 -3.41867,3.14267 -15.70933,-17.09067 3.41467,-3.14133 z m 24.22533,-18.33733 12.68133,19.44533 -3.88933,2.536 -12.68,-19.44533 3.888,-2.536 z m 26.91466,-14.096 9.304,21.268 -4.256,1.86 -9.30266,-21.26934 4.25466,-1.85866 z m 28.86667,-9.47067 5.676,22.51067 -4.504,1.132 -5.672,-22.508 4.5,-1.13467 z m 30.03467,-4.58667 1.88666,23.13867 -4.62533,0.376 -1.89067,-23.13733 4.62934,-0.37734 z m 30.37599,0.424 -1.948,23.13334 -4.62533,-0.39067 1.95067,-23.13067 4.62266,0.388 z m 29.896,5.42267 -5.73466,22.49733 -4.5,-1.14933 5.73466,-22.492 4.5,1.144 z m 28.592,10.27467 -9.36266,21.244 -4.248,-1.87467 9.36133,-21.24 4.24933,1.87067 z m 26.50934,14.844 -12.73334,19.412 -3.88133,-2.54934 12.732,-19.408 3.88267,2.54534 z m 23.70133,19.00666 -15.75733,17.04934 -3.41067,-3.15334 15.756,-17.04533 3.412,3.14933 z m 36.48399,48.32934 -20.43999,11.00532 -2.19867,-4.09067 20.43596,-11.00132 2.2027,4.08667 z m -16.2387,-25.67867 -18.34796,14.22133 -2.84266,-3.672 18.34533,-14.21733 2.84529,3.668 z m -272.18662,210.92665 -18.34933,14.22133 -2.844,-3.66933 18.34667,-14.22 2.84666,3.668 z m 300.21202,-157.24533 -21.9747,7.48534 -1.4947,-4.396 21.972,-7.48267 1.4974,4.39333 z m 7.0133,29.56267 -22.9093,3.76267 -0.7507,-4.584 22.9053,-3.76134 0.7547,4.58267 z m -339.79598,55.812 -22.90667,3.76266 -0.75333,-4.58133 22.90533,-3.764 0.75467,4.58267 z m 6.824,25.652 -21.972,7.484 -1.49867,-4.39334 21.97067,-7.48666 1.5,4.396 z m 10.956,24.17733 -20.44,11.00267 -2.20267,-4.08667 20.44133,-11.004 2.20134,4.088 z m 268.36666,18.71733 18.31202,14.27067 -2.85202,3.66 -18.31334,-14.26667 2.85334,-3.664 z m 14.208,-22.42266 20.41202,11.05866 -2.2107,4.08134 -20.41199,-11.056 2.21067,-4.084 z m 10.31862,-24.45734 21.9534,7.54534 -1.5067,4.39066 -21.9547,-7.54266 1.508,-4.39334 z m 6.148,-25.82266 22.9,3.82533 -0.764,4.58 -22.9013,-3.824 0.7653,-4.58133 z m 1.8107,-26.48134 23.216,0 0,4.64267 -23.216,0 0,-4.64267"
       inkscape:connector-curvature="0" />
    <path
       id="path20"
       style="fill:#ffffff;fill-opacity:1;fill-rule:nonzero;stroke:none"
       d="m 196.2203,544.61562 -1.94534,0 c 0.35334,-1.572 1.03067,-2.78133 2.032,-3.63333 1.00934,-0.84533 2.19334,-1.26933 3.55867,-1.26933 0.996,0 1.92133,0.22533 2.78533,0.68133 0.86,0.452 1.524,1.06667 1.99734,1.83333 0.46933,0.77067 0.704,1.57734 0.704,2.41467 0,1.644 -0.81467,2.94533 -2.448,3.90667 0.91866,0.372 1.67066,0.91733 2.25866,1.63466 0.828,1.016 1.24534,2.14934 1.24534,3.40134 0,1.08266 -0.28934,2.11466 -0.86,3.09733 -0.56934,0.97866 -1.348,1.74133 -2.33334,2.27733 -0.98933,0.53467 -2.08933,0.80133 -3.31066,0.80133 -1.64134,0 -3.01467,-0.47466 -4.11467,-1.41733 -1.09867,-0.94933 -1.816,-2.33867 -2.152,-4.17333 l 1.868,0 c 0.33067,1.236 0.79733,2.13066 1.41467,2.68533 0.78933,0.7 1.78933,1.04933 3.00933,1.04933 1.384,0 2.49867,-0.412 3.336,-1.24533 0.84,-0.82667 1.25867,-1.80267 1.25867,-2.91866 0,-0.744 -0.208,-1.44 -0.628,-2.092 -0.42134,-0.64534 -0.98534,-1.136 -1.688,-1.46534 -0.70267,-0.328 -1.79867,-0.532 -3.27867,-0.60666 l 0,-1.75334 c 0.87867,0 1.66933,-0.156 2.388,-0.46266 0.71733,-0.304 1.24,-0.7 1.564,-1.172 0.328,-0.47467 0.488,-0.99734 0.488,-1.56 0,-0.82934 -0.33333,-1.54534 -0.992,-2.152 -0.66,-0.608 -1.49867,-0.90934 -2.512,-0.90934 -0.82,0 -1.532,0.23067 -2.12533,0.696 -0.59867,0.46134 -1.10534,1.24534 -1.52,2.352 z m 12.052,5.12934 c 0,-2.52 0.272,-4.46534 0.81333,-5.84267 0.54267,-1.37333 1.30267,-2.41733 2.29333,-3.12667 0.98,-0.70933 2.084,-1.06266 3.30667,-1.06266 1.23467,0 2.356,0.35733 3.35733,1.072 1.008,0.71333 1.79867,1.784 2.384,3.21066 0.584,1.42667 0.876,3.344 0.876,5.74934 0,2.39733 -0.28666,4.30133 -0.86266,5.72266 -0.57467,1.41867 -1.36934,2.49067 -2.38534,3.212 -1.008,0.72133 -2.13466,1.08133 -3.36933,1.08133 -1.22267,0 -2.32,-0.35066 -3.29467,-1.04933 -0.98,-0.7 -1.74533,-1.74533 -2.29466,-3.132 -0.55067,-1.39067 -0.824,-3.33466 -0.824,-5.83466 z m 1.80533,0.036 c 0,2.15733 0.19333,3.78266 0.58,4.88666 0.38533,1.10667 0.95067,1.94 1.70133,2.51067 0.75467,0.572 1.55334,0.85866 2.38934,0.85866 0.852,0 1.64,-0.27866 2.37733,-0.83733 0.73067,-0.556 1.29067,-1.39467 1.67067,-2.51067 0.47866,-1.35999 0.71733,-2.99599 0.71733,-4.90799 0,-1.91867 -0.212,-3.49067 -0.63867,-4.71334 -0.424,-1.22666 -1.00933,-2.12133 -1.75733,-2.68933 -0.748,-0.56667 -1.536,-0.84933 -2.36933,-0.84933 -0.84667,0 -1.644,0.28266 -2.38934,0.84933 -0.74133,0.568 -1.308,1.4 -1.69866,2.508 -0.38534,1.10267 -0.58267,2.732 -0.58267,4.89467"
       inkscape:connector-curvature="0" />
    <path
       id="path22"
       style="fill:#ffffff;fill-opacity:1;fill-rule:nonzero;stroke:none"
       d="m 193.64963,594.26362 -1.83067,0 c 0.0533,-1.88667 0.68267,-3.43067 1.892,-4.64533 1.20534,-1.20934 2.69334,-1.81734 4.46934,-1.81734 1.75466,0 3.176,0.56667 4.26,1.70267 1.08666,1.13333 1.63066,2.46533 1.63066,4.008 0,1.08133 -0.26266,2.096 -0.77866,3.04267 -0.52,0.948 -1.52934,2.23333 -3.02534,3.85066 l -4.75066,5.12267 8.81333,0 0,1.844 -12.96133,0 7.29066,-7.87467 c 1.48,-1.58666 2.44134,-2.76 2.88934,-3.528 0.44666,-0.76533 0.668,-1.572 0.668,-2.41733 0,-1.072 -0.40134,-1.99867 -1.2,-2.77333 -0.80267,-0.76934 -1.78134,-1.16 -2.94134,-1.16 -1.22,0 -2.23333,0.40666 -3.04533,1.22266 -0.804,0.80934 -1.26667,1.952 -1.38,3.42267 z m 12.49467,3.57067 c 0,-2.52134 0.26933,-4.464 0.81466,-5.84267 0.54,-1.37333 1.30134,-2.41733 2.29067,-3.12667 0.98267,-0.70933 2.08667,-1.064 3.30933,-1.064 1.23334,0 2.356,0.36 3.35867,1.072 1.00267,0.71334 1.79867,1.78667 2.38,3.212 0.588,1.42667 0.87733,3.344 0.87733,5.74934 0,2.396 -0.28666,4.30266 -0.864,5.724 -0.57466,1.41733 -1.36666,2.488 -2.38266,3.212 -1.01067,0.72 -2.136,1.08 -3.36934,1.08 -1.22266,0 -2.32133,-0.34934 -3.29733,-1.04934 -0.97733,-0.7 -1.74533,-1.74533 -2.29333,-3.132 -0.54934,-1.39066 -0.824,-3.336 -0.824,-5.83466 z m 1.808,0.036 c 0,2.15733 0.18933,3.784 0.57333,4.88666 0.388,1.10534 0.95333,1.94 1.70667,2.51067 0.75333,0.572 1.548,0.85867 2.38666,0.85867 0.852,0 1.64134,-0.27734 2.37734,-0.836 0.73333,-0.55867 1.29066,-1.396 1.672,-2.512 0.47866,-1.36 0.72,-2.99334 0.72,-4.908 0,-1.91867 -0.21334,-3.49067 -0.64,-4.71334 -0.42534,-1.22666 -1.00934,-2.12266 -1.75734,-2.68933 -0.75066,-0.56667 -1.53866,-0.84933 -2.372,-0.84933 -0.84533,0 -1.64266,0.28266 -2.38666,0.84933 -0.744,0.56667 -1.31067,1.4 -1.7,2.508 -0.38534,1.10267 -0.58,2.73333 -0.58,4.89467"
       inkscape:connector-curvature="0" />
    <path
       id="path24"
       style="fill:#ffffff;fill-opacity:1;fill-rule:nonzero;stroke:none"
       d="m 211.15896,632.33695 3.75067,0 0,19.09067 -1.89333,0 0,-17.224 -2.99334,0 1.136,-1.86667 z m 9.01867,9.55334 c 0,-2.52 0.272,-4.464 0.81733,-5.84134 0.54,-1.37466 1.30267,-2.42 2.28934,-3.128 0.98266,-0.70933 2.08666,-1.06133 3.30933,-1.06133 1.23466,0 2.356,0.35733 3.35733,1.06933 1.008,0.71467 1.79733,1.78534 2.38533,3.212 0.58267,1.42667 0.87467,3.344 0.87467,5.74934 0,2.39733 -0.28933,4.30266 -0.864,5.724 -0.576,1.41733 -1.36933,2.48933 -2.38267,3.21066 -1.012,0.72267 -2.136,1.08134 -3.37066,1.08134 -1.22267,0 -2.32133,-0.35067 -3.29867,-1.04934 -0.976,-0.69866 -1.74133,-1.74533 -2.29333,-3.13333 -0.55067,-1.38933 -0.824,-3.33333 -0.824,-5.83333 z m 1.80667,0.036 c 0,2.15733 0.19333,3.78266 0.57866,4.88533 0.384,1.108 0.95067,1.94133 1.704,2.512 0.75467,0.57067 1.552,0.85867 2.38667,0.85867 0.852,0 1.64133,-0.27867 2.376,-0.83734 0.736,-0.55733 1.29333,-1.39466 1.67466,-2.51066 0.476,-1.36 0.716,-2.99467 0.716,-4.908 0,-1.91734 -0.21066,-3.49067 -0.636,-4.71334 -0.42666,-1.228 -1.00933,-2.12266 -1.76,-2.688 -0.74666,-0.568 -1.53466,-0.852 -2.37066,-0.852 -0.844,0 -1.64267,0.284 -2.38667,0.852 -0.744,0.56534 -1.31066,1.39867 -1.70133,2.50667 -0.38533,1.10267 -0.58133,2.73333 -0.58133,4.89467"
       inkscape:connector-curvature="0" />
    <path
       id="path26"
       style="fill:#ffffff;fill-opacity:1;fill-rule:nonzero;stroke:none"
       d="m 226.77229,666.87695 c 0,-2.8 0.3,-4.95866 0.90534,-6.49066 0.60266,-1.52667 1.448,-2.688 2.54666,-3.47467 1.092,-0.788 2.31867,-1.18133 3.67467,-1.18133 1.37467,0 2.61867,0.39733 3.73067,1.19066 1.12,0.792 1.99866,1.98267 2.64933,3.568 0.64933,1.584 0.97333,3.71467 0.97333,6.388 0,2.66267 -0.31733,4.78 -0.95733,6.36 -0.64133,1.57467 -1.52267,2.76667 -2.65067,3.56667 -1.12133,0.80267 -2.37066,1.2 -3.74533,1.2 -1.356,0 -2.57733,-0.38667 -3.66133,-1.164 -1.08667,-0.77867 -1.94134,-1.94 -2.54934,-3.48133 -0.60933,-1.54267 -0.916,-3.704 -0.916,-6.48134 z m 2.008,0.04 c 0,2.396 0.21467,4.20134 0.64,5.428 0.42934,1.23067 1.05734,2.156 1.896,2.79067 0.83867,0.636 1.72134,0.95467 2.65467,0.95467 0.94267,0 1.81867,-0.308 2.63733,-0.92934 0.81467,-0.62 1.43467,-1.55066 1.85867,-2.79066 0.532,-1.512 0.79733,-3.328 0.79733,-5.45334 0,-2.132 -0.236,-3.88 -0.708,-5.23733 -0.47333,-1.36267 -1.12266,-2.35733 -1.95333,-2.98667 -0.832,-0.63066 -1.70667,-0.94533 -2.632,-0.94533 -0.94133,0 -1.82933,0.31467 -2.65467,0.94533 -0.828,0.62934 -1.45733,1.55467 -1.892,2.78534 -0.428,1.22533 -0.644,3.036 -0.644,5.43866"
       inkscape:connector-curvature="0" />
    <path
       id="path28"
       style="fill:#ffffff;fill-opacity:1;fill-rule:nonzero;stroke:none"
       d="m 215.02563,495.30496 0.38933,0 0,13.30133 2.30934,0 0,1.82933 -2.30934,0 0,4.44 -1.90933,0 0,-4.44 -9.124,0 10.644,-15.13066 z m -1.52,13.30133 0,-7.95467 -5.62133,7.95467 5.62133,0 z m 5.772,-3.26933 c 0,-2.52 0.27067,-4.46534 0.81333,-5.84134 0.54,-1.37466 1.30267,-2.41866 2.29334,-3.12933 0.98,-0.70667 2.084,-1.06133 3.30666,-1.06133 1.23467,0 2.356,0.35866 3.35733,1.072 1.00534,0.71333 1.80134,1.784 2.38267,3.21066 0.588,1.42667 0.87867,3.344 0.87867,5.74934 0,2.396 -0.28934,4.3 -0.864,5.724 -0.57467,1.41733 -1.37067,2.48933 -2.38534,3.21066 -1.008,0.72267 -2.13466,1.08134 -3.36933,1.08134 -1.22266,0 -2.32,-0.34934 -3.296,-1.04934 -0.97866,-0.7 -1.74533,-1.74533 -2.29333,-3.13333 -0.54933,-1.39067 -0.824,-3.33467 -0.824,-5.83333 z m 1.80667,0.036 c 0,2.15733 0.19066,3.78266 0.57466,4.88533 0.38934,1.108 0.952,1.94133 1.70534,2.51333 0.75333,0.57067 1.54933,0.85734 2.38799,0.85734 0.85334,0 1.64267,-0.27867 2.37734,-0.836 0.73333,-0.55734 1.29066,-1.396 1.672,-2.512 0.47866,-1.36 0.71733,-2.996 0.71733,-4.908 0,-1.91867 -0.212,-3.49067 -0.63867,-4.712 -0.424,-1.228 -1.00933,-2.124 -1.75733,-2.68934 -0.74933,-0.568 -1.536,-0.852 -2.37067,-0.852 -0.84666,0 -1.63999,0.284 -2.38799,0.852 -0.74134,0.56534 -1.30934,1.39867 -1.69867,2.50667 -0.38533,1.104 -0.58133,2.73333 -0.58133,4.89467"
       inkscape:connector-curvature="0" />
    <path
       id="path30"
       style="fill:#ffffff;fill-opacity:1;fill-rule:nonzero;stroke:none"
       d="m 247.86563,459.8423 0,1.82133 -6.8,0 -0.948,5.2 c 0.832,-0.23866 1.58133,-0.364 2.244,-0.364 1.74266,0 3.172,0.58534 4.3,1.74534 1.13333,1.16533 1.69866,2.65733 1.69866,4.47333 0,1.25467 -0.29466,2.40667 -0.87066,3.452 -0.58267,1.04533 -1.36667,1.84667 -2.35467,2.40667 -0.99333,0.556 -2.13467,0.836 -3.43067,0.836 -1.552,0 -2.86,-0.47467 -3.92133,-1.41734 -1.06533,-0.94933 -1.70267,-2.176 -1.90933,-3.68266 l 1.96266,0 c 0.14534,0.736 0.39334,1.33333 0.74267,1.78933 0.352,0.46133 0.82,0.83067 1.4,1.11333 0.58667,0.27867 1.19867,0.42 1.84,0.42 1.252,0 2.32933,-0.47333 3.228,-1.42666 0.90267,-0.952 1.34933,-2.14267 1.34933,-3.56934 0,-1.28933 -0.40666,-2.336 -1.216,-3.14 -0.81733,-0.80666 -1.89733,-1.20533 -3.26,-1.20533 -1.12266,0 -2.48533,0.34 -4.084,1.02267 l 1.764,-9.47467 8.26534,0 z m 2.5,9.55467 c 0,-2.52134 0.272,-4.464 0.81466,-5.84267 0.54134,-1.37333 1.304,-2.42 2.29067,-3.128 0.98267,-0.70933 2.088,-1.06267 3.30933,-1.06267 1.236,0 2.35734,0.35867 3.35734,1.07334 1.00533,0.712 1.8,1.784 2.38266,3.20933 0.58534,1.428 0.876,3.34533 0.876,5.75067 0,2.396 -0.28533,4.30133 -0.86133,5.724 -0.57333,1.416 -1.36933,2.488 -2.38533,3.21066 -1.00934,0.72134 -2.13334,1.08134 -3.36934,1.08134 -1.22133,0 -2.31866,-0.35067 -3.29466,-1.04934 -0.98,-0.70133 -1.74534,-1.74533 -2.296,-3.132 -0.548,-1.392 -0.824,-3.336 -0.824,-5.83466 z m 1.80933,0.036 c 0,2.15733 0.188,3.78266 0.57467,4.88666 0.38533,1.10534 0.952,1.93867 1.704,2.51067 0.756,0.572 1.552,0.85867 2.39066,0.85867 0.848,0 1.636,-0.27867 2.37334,-0.836 0.73466,-0.55867 1.29333,-1.396 1.67466,-2.512 0.47734,-1.36134 0.71467,-2.99467 0.71467,-4.908 0,-1.91867 -0.21067,-3.49067 -0.636,-4.71467 -0.42667,-1.22667 -1.00933,-2.12133 -1.75867,-2.688 -0.748,-0.568 -1.53733,-0.84933 -2.368,-0.84933 -0.848,0 -1.64666,0.28133 -2.39066,0.84933 -0.744,0.56667 -1.31067,1.39867 -1.7,2.50667 -0.38534,1.10266 -0.57867,2.73333 -0.57867,4.896"
       inkscape:connector-curvature="0" />
    <path
       id="path32"
       style="fill:#ffffff;fill-opacity:1;fill-rule:nonzero;stroke:none"
       d="m 282.97496,430.90097 1.572,1.02266 -5.152,7.81334 c 0.692,-0.23334 1.34,-0.34934 1.944,-0.34934 1.516,0 2.80133,0.54934 3.85467,1.64267 1.05466,1.09467 1.58533,2.44267 1.58533,4.04133 0,1.09867 -0.256,2.08934 -0.76267,2.98 -0.512,0.88667 -1.236,1.59067 -2.17733,2.11467 -0.94,0.52267 -1.94667,0.78267 -3.03067,0.78267 -1.04533,0 -2.01866,-0.252 -2.91333,-0.75734 -0.89333,-0.50533 -1.6,-1.21866 -2.10933,-2.136 -0.51067,-0.916 -0.76667,-1.9 -0.76667,-2.94533 0,-0.78 0.15867,-1.59867 0.47467,-2.45867 0.31866,-0.85866 0.88266,-1.89466 1.696,-3.10933 l 5.78533,-8.64133 z m -2.084,10.16 c -1.11067,0 -2.056,0.39066 -2.84133,1.17466 -0.78134,0.784 -1.17467,1.732 -1.17467,2.848 0,1.108 0.39333,2.056 1.17467,2.83467 0.78533,0.784 1.73066,1.17467 2.84133,1.17467 1.10533,0 2.048,-0.39067 2.83467,-1.17467 0.776,-0.77867 1.17333,-1.72667 1.17333,-2.83467 0,-1.116 -0.39733,-2.064 -1.17333,-2.848 -0.78667,-0.784 -1.72934,-1.17466 -2.83467,-1.17466 z m 7.908,-0.12667 c 0,-2.52133 0.27067,-4.46667 0.81467,-5.844 0.54133,-1.37333 1.30266,-2.41733 2.29066,-3.12667 0.98534,-0.70933 2.08534,-1.06266 3.30934,-1.06266 1.236,0 2.356,0.35733 3.356,1.07066 1.00666,0.71334 1.8,1.78534 2.384,3.212 0.584,1.42667 0.87866,3.344 0.87866,5.75067 0,2.39467 -0.28933,4.3 -0.864,5.72133 -0.576,1.41867 -1.368,2.48934 -2.38533,3.212 -1.008,0.72267 -2.13333,1.08134 -3.36933,1.08134 -1.224,0 -2.32134,-0.34934 -3.296,-1.04934 -0.97867,-0.7 -1.74534,-1.74533 -2.29467,-3.13333 -0.54933,-1.39067 -0.824,-3.33467 -0.824,-5.832 z m 1.808,0.0347 c 0,2.15733 0.18933,3.78267 0.576,4.88667 0.38667,1.10666 0.95333,1.93866 1.70667,2.51066 0.75066,0.572 1.548,0.85867 2.38533,0.85867 0.85067,0 1.64,-0.27867 2.376,-0.836 0.73467,-0.55867 1.29067,-1.396 1.672,-2.512 0.48133,-1.36 0.71867,-2.99467 0.71867,-4.908 0,-1.91867 -0.212,-3.49067 -0.63867,-4.712 -0.42267,-1.22933 -1.00933,-2.124 -1.75867,-2.68933 -0.748,-0.568 -1.536,-0.85067 -2.36933,-0.85067 -0.844,0 -1.64267,0.28267 -2.38533,0.85067 -0.744,0.56533 -1.31334,1.4 -1.70134,2.50666 -0.388,1.104 -0.58133,2.732 -0.58133,4.89467"
       inkscape:connector-curvature="0" />
    <path
       id="path34"
       style="fill:#ffffff;fill-opacity:1;fill-rule:nonzero;stroke:none"
       d="m 321.38563,420.03697 12.10666,0 -10.21733,19.56933 -1.56667,-0.8 8.82534,-16.96133 -9.148,0 z m 13.66133,9.55466 c 0,-2.52 0.26933,-4.464 0.816,-5.84266 0.53867,-1.37334 1.3,-2.41867 2.28933,-3.12667 0.98267,-0.70933 2.08667,-1.064 3.30934,-1.064 1.23466,0 2.35733,0.35733 3.35466,1.072 1.008,0.71467 1.80134,1.78533 2.38534,3.212 0.58266,1.42533 0.876,3.344 0.876,5.74933 0,2.396 -0.28534,4.30134 -0.86267,5.724 -0.57467,1.41734 -1.37067,2.488 -2.38533,3.21067 -1.008,0.72133 -2.13334,1.08 -3.368,1.08 -1.22267,0 -2.32267,-0.34933 -3.296,-1.04933 -0.98134,-0.69867 -1.74534,-1.744 -2.29467,-3.132 -0.54933,-1.39067 -0.824,-3.33467 -0.824,-5.83334 z m 1.80667,0.036 c 0,2.156 0.19066,3.78267 0.576,4.88667 0.38666,1.10667 0.95333,1.94 1.70533,2.51067 0.75467,0.572 1.54933,0.86 2.388,0.86 0.84933,0 1.63867,-0.27867 2.37333,-0.83867 0.73467,-0.55733 1.29467,-1.396 1.676,-2.51067 0.476,-1.36 0.71467,-2.99466 0.71467,-4.908 0,-1.91866 -0.212,-3.49066 -0.636,-4.71466 -0.42667,-1.22534 -1.00933,-2.12 -1.756,-2.688 -0.75067,-0.56667 -1.54,-0.85067 -2.372,-0.85067 -0.84533,0 -1.64267,0.284 -2.388,0.85067 -0.744,0.568 -1.31067,1.4 -1.70133,2.508 -0.38267,1.10133 -0.58,2.732 -0.58,4.89466"
       inkscape:connector-curvature="0" />
    <path
       id="path36"
       style="fill:#ffffff;fill-opacity:1;fill-rule:nonzero;stroke:none"
       d="m 377.69096,432.01697 c 1.28933,0.63866 2.21066,1.368 2.768,2.19333 0.55733,0.82 0.83733,1.75333 0.83733,2.80267 0,1.472 -0.47867,2.76933 -1.44133,3.89466 -1.17734,1.37334 -2.86,2.06 -5.04934,2.06 -2.108,0 -3.712,-0.604 -4.80133,-1.808 -1.088,-1.20933 -1.63333,-2.53733 -1.63333,-3.992 0,-1.06133 0.288,-2.02266 0.85866,-2.87333 0.56667,-0.85067 1.51734,-1.61333 2.85334,-2.27733 -0.93467,-0.48667 -1.636,-1.08534 -2.10534,-1.80267 -0.464,-0.72267 -0.7,-1.48933 -0.7,-2.31333 0,-0.82667 0.24934,-1.64267 0.748,-2.43067 0.49867,-0.792 1.18534,-1.41733 2.06534,-1.86933 0.876,-0.456 1.824,-0.68267 2.848,-0.68267 0.99333,0 1.91333,0.23067 2.76533,0.688 0.84533,0.46 1.508,1.08 1.98667,1.868 0.484,0.788 0.724,1.61333 0.724,2.48 0,0.864 -0.22667,1.636 -0.68267,2.308 -0.452,0.67733 -1.13333,1.25867 -2.04133,1.75467 z m -2.844,-7.24134 c -1.04667,0 -1.91467,0.30934 -2.6,0.92534 -0.692,0.62 -1.03067,1.36 -1.03067,2.21466 0,0.84667 0.364,1.61734 1.10533,2.304 0.73867,0.68667 1.604,1.032 2.59067,1.032 0.63067,0 1.228,-0.15466 1.788,-0.46933 0.56533,-0.312 1.004,-0.736 1.31733,-1.276 0.32134,-0.54133 0.47467,-1.08533 0.47467,-1.63067 0,-0.77066 -0.312,-1.47866 -0.93467,-2.12666 -0.61866,-0.65067 -1.524,-0.97334 -2.71066,-0.97334 z m 0.092,8.204 c -1.31334,0 -2.42,0.424 -3.30934,1.27467 -0.89333,0.85067 -1.33733,1.848 -1.33733,2.976 0,0.70533 0.19067,1.36533 0.572,1.98933 0.38133,0.62134 0.91067,1.10267 1.59733,1.44 0.67734,0.33734 1.47334,0.50534 2.372,0.50534 1.39467,0 2.50267,-0.41334 3.32267,-1.232 0.824,-0.824 1.232,-1.77867 1.232,-2.88267 0,-1.06267 -0.436,-2.008 -1.304,-2.836 -0.86933,-0.82267 -1.91733,-1.23467 -3.14533,-1.23467 z m 8.10666,-0.028 c 0,-2.51866 0.26934,-4.464 0.81334,-5.84266 0.54266,-1.37334 1.304,-2.41734 2.29066,-3.12667 0.984,-0.70933 2.088,-1.064 3.312,-1.064 1.23334,0 2.35467,0.36 3.356,1.07333 1.00534,0.712 1.8,1.78534 2.38267,3.21067 0.584,1.42667 0.876,3.344 0.876,5.74933 0,2.396 -0.28667,4.3 -0.864,5.724 -0.576,1.41734 -1.368,2.48934 -2.38267,3.21067 -1.00933,0.72267 -2.13466,1.08133 -3.368,1.08133 -1.224,0 -2.32133,-0.34933 -3.29866,-1.04933 -0.98,-0.7 -1.744,-1.74533 -2.29334,-3.13067 -0.54933,-1.392 -0.824,-3.33866 -0.824,-5.836 z m 1.808,0.036 c 0,2.15734 0.18934,3.78267 0.57467,4.88534 0.38667,1.108 0.95333,1.94 1.70533,2.51333 0.75467,0.57067 1.54934,0.85733 2.388,0.85733 0.84934,0 1.63867,-0.27866 2.37467,-0.836 0.73467,-0.55733 1.292,-1.396 1.67467,-2.51066 0.48,-1.36267 0.716,-2.996 0.716,-4.90934 0,-1.91733 -0.21067,-3.49066 -0.63734,-4.71333 -0.424,-1.228 -1.01066,-2.12267 -1.756,-2.68933 -0.75066,-0.568 -1.54,-0.85067 -2.372,-0.85067 -0.84666,0 -1.64266,0.28267 -2.388,0.85067 -0.74266,0.56666 -1.31066,1.4 -1.70133,2.50666 -0.38267,1.10534 -0.57867,2.73467 -0.57867,4.896"
       inkscape:connector-curvature="0" />
    <path
       id="path38"
       style="fill:#ffffff;fill-opacity:1;fill-rule:nonzero;stroke:none"
       d="m 414.45096,464.60897 -1.56667,-1.01067 5.15067,-7.81333 c -0.69067,0.22666 -1.344,0.33733 -1.944,0.33733 -1.516,0 -2.79867,-0.544 -3.856,-1.63867 -1.05734,-1.09333 -1.584,-2.44133 -1.584,-4.04533 0,-1.09867 0.256,-2.08933 0.76533,-2.972 0.512,-0.88133 1.23733,-1.58533 2.17467,-2.11333 0.93466,-0.52667 1.944,-0.792 3.02,-0.792 1.052,0 2.02533,0.256 2.92133,0.76533 0.89467,0.51067 1.6,1.22267 2.10933,2.14 0.51334,0.916 0.764,1.896 0.764,2.932 0,0.788 -0.15466,1.612 -0.472,2.472 -0.316,0.864 -0.876,1.9 -1.69466,3.10933 l -5.788,8.62934 z m 2.07866,-10.16 c 1.11734,0 2.06534,-0.39067 2.84934,-1.17467 0.78133,-0.77867 1.172,-1.728 1.172,-2.836 0,-1.10667 -0.39067,-2.052 -1.172,-2.83333 -0.784,-0.78534 -1.732,-1.176 -2.84934,-1.176 -1.108,0 -2.05066,0.39066 -2.836,1.176 -0.78266,0.78133 -1.17333,1.72666 -1.17333,2.83333 0,1.108 0.39067,2.05733 1.17333,2.836 0.78534,0.784 1.728,1.17467 2.836,1.17467 z m 8.39467,0.144 c 0,-2.52 0.268,-4.464 0.816,-5.84267 0.53867,-1.37333 1.3,-2.41733 2.28667,-3.12667 0.98666,-0.71066 2.08666,-1.06266 3.312,-1.06266 1.232,0 2.35333,0.35866 3.356,1.072 1.00666,0.712 1.79733,1.78533 2.38266,3.21066 0.58534,1.42667 0.87867,3.344 0.87867,5.74934 0,2.396 -0.28933,4.30133 -0.864,5.724 -0.57867,1.41733 -1.368,2.48933 -2.384,3.21066 -1.01067,0.72267 -2.13733,1.08134 -3.36933,1.08134 -1.22534,0 -2.32267,-0.34934 -3.29867,-1.04934 -0.97733,-0.7 -1.744,-1.744 -2.29333,-3.132 -0.54934,-1.39066 -0.82267,-3.336 -0.82267,-5.83466 z m 1.80533,0.036 c 0,2.15866 0.19067,3.78266 0.57467,4.88666 0.38533,1.10667 0.956,1.93867 1.70933,2.51067 0.75067,0.57333 1.54934,0.86 2.38534,0.86 0.85066,0 1.63866,-0.27867 2.37333,-0.836 0.736,-0.55867 1.29333,-1.39733 1.67467,-2.51333 0.47866,-1.35867 0.72,-2.99334 0.72,-4.908 0,-1.91867 -0.21467,-3.49067 -0.64,-4.71334 -0.42267,-1.22666 -1.01067,-2.12133 -1.75734,-2.68933 -0.74933,-0.56667 -1.53733,-0.84933 -2.37066,-0.84933 -0.84667,0 -1.64134,0.28266 -2.38534,0.84933 -0.74533,0.568 -1.316,1.4 -1.70266,2.508 -0.38667,1.104 -0.58134,2.73333 -0.58134,4.89467"
       inkscape:connector-curvature="0" />
    <path
       id="path40"
       style="fill:#ffffff;fill-opacity:1;fill-rule:nonzero;stroke:none"
       d="m 442.98696,478.2423 3.25333,0 0,16.55199 -1.644,0 0,-14.93066 -2.59467,0 0.98534,-1.62133 z m 5.608,8.284 c 0,-2.184 0.23466,-3.87067 0.70533,-5.06533 0.47067,-1.18934 1.12933,-2.096 1.98667,-2.712 0.85466,-0.61334 1.808,-0.92134 2.86933,-0.92134 1.072,0 2.044,0.312 2.90933,0.92934 0.87467,0.61866 1.56,1.54933 2.06934,2.78533 0.50266,1.236 0.76,2.89867 0.76,4.984 0,2.07867 -0.25067,3.72932 -0.75067,4.96266 -0.49867,1.22933 -1.18533,2.15866 -2.064,2.784 -0.87733,0.62666 -1.852,0.93733 -2.924,0.93733 -1.06133,0 -2.01333,-0.30267 -2.85733,-0.912 -0.848,-0.60533 -1.51334,-1.512 -1.99067,-2.71333 -0.47333,-1.20534 -0.71333,-2.89066 -0.71333,-5.05866 z m 1.56666,0.032 c 0,1.86933 0.16534,3.27867 0.5,4.23599 0.33334,0.96 0.82667,1.68133 1.48,2.176 0.65067,0.496 1.34267,0.74533 2.07067,0.74533 0.73467,0 1.41733,-0.24 2.056,-0.72533 0.636,-0.484 1.12133,-1.20933 1.45067,-2.17733 0.416,-1.17866 0.62533,-2.59599 0.62533,-4.25466 0,-1.664 -0.184,-3.02667 -0.55733,-4.088 -0.364,-1.06267 -0.87467,-1.83867 -1.52,-2.33067 -0.65067,-0.49066 -1.33334,-0.73733 -2.05467,-0.73733 -0.736,0 -1.428,0.24667 -2.07067,0.73733 -0.64533,0.492 -1.13866,1.21467 -1.476,2.17334 -0.33333,0.95733 -0.504,2.37066 -0.504,4.24533 z m 11.20267,-0.032 c 0,-2.184 0.23333,-3.87067 0.70667,-5.06533 0.46933,-1.18934 1.12933,-2.096 1.98533,-2.712 0.85333,-0.61334 1.80933,-0.92134 2.86933,-0.92134 1.07067,0 2.04267,0.312 2.912,0.92934 0.87067,0.61866 1.55734,1.54933 2.064,2.78533 0.50667,1.236 0.76134,2.89867 0.76134,4.984 0,2.07867 -0.24934,3.72932 -0.748,4.96266 -0.50134,1.22933 -1.18667,2.15866 -2.068,2.784 -0.876,0.62666 -1.85067,0.93733 -2.92134,0.93733 -1.06,0 -2.01333,-0.30267 -2.85733,-0.912 -0.84667,-0.60533 -1.51333,-1.512 -1.98933,-2.71333 -0.476,-1.20534 -0.71467,-2.89066 -0.71467,-5.05866 z m 1.56667,0.032 c 0,1.86933 0.16666,3.27867 0.5,4.23599 0.33466,0.96 0.824,1.68133 1.47866,2.176 0.652,0.496 1.34534,0.74533 2.06934,0.74533 0.73866,0 1.42266,-0.24 2.05866,-0.72533 0.63734,-0.484 1.12267,-1.20933 1.45067,-2.17733 0.416,-1.17866 0.624,-2.59599 0.624,-4.25466 0,-1.664 -0.18533,-3.02667 -0.55333,-4.088 -0.36934,-1.06267 -0.876,-1.83867 -1.52534,-2.33067 -0.64666,-0.49066 -1.332,-0.73733 -2.05466,-0.73733 -0.73334,0 -1.42267,0.24667 -2.06934,0.73733 -0.64666,0.492 -1.13866,1.21467 -1.47333,2.17334 -0.33733,0.95733 -0.50533,2.37066 -0.50533,4.24533"
       inkscape:connector-curvature="0" />
    <path
       id="path42"
       style="fill:#ffffff;fill-opacity:1;fill-rule:nonzero;stroke:none"
       d="m 467.06829,519.46762 3.256,0 0,16.552 -1.644,0 0,-14.932 -2.59733,0 0.98533,-1.62 z m 7.692,0 3.25333,0 0,16.552 -1.644,0 0,-14.932 -2.596,0 0.98667,-1.62 z m 5.60533,8.28267 c 0,-2.184 0.236,-3.87067 0.70667,-5.064 0.47067,-1.19067 1.132,-2.09867 1.988,-2.71333 0.85333,-0.61334 1.80667,-0.92134 2.868,-0.92134 1.072,0 2.04267,0.312 2.91067,0.92934 0.86933,0.61866 1.56,1.54933 2.06666,2.784 0.50666,1.236 0.75996,2.90133 0.75996,4.98533 0,2.07867 -0.2493,3.72933 -0.75062,4.96267 -0.496,1.22933 -1.18267,2.15733 -2.064,2.784 -0.876,0.62666 -1.85067,0.93733 -2.92267,0.93733 -1.06133,0 -2.012,-0.304 -2.85867,-0.91067 -0.848,-0.60533 -1.51066,-1.51333 -1.988,-2.716 -0.476,-1.204 -0.716,-2.89066 -0.716,-5.05733 z m 1.568,0.0293 c 0,1.872 0.16667,3.28134 0.5,4.23734 0.33467,0.96133 0.82534,1.68266 1.48,2.17733 0.652,0.496 1.34134,0.74533 2.06934,0.74533 0.73733,0 1.41866,-0.24133 2.056,-0.72533 0.63866,-0.484 1.12133,-1.21067 1.45333,-2.17733 0.41333,-1.17867 0.624,-2.59734 0.624,-4.25734 0,-1.66133 -0.18533,-3.02266 -0.556,-4.084 -0.36667,-1.064 -0.87467,-1.84 -1.52267,-2.33066 -0.65066,-0.49334 -1.33333,-0.73734 -2.05466,-0.73734 -0.736,0 -1.424,0.244 -2.06934,0.73734 -0.64666,0.49066 -1.13866,1.21333 -1.47733,2.17333 -0.33467,0.956 -0.50267,2.36933 -0.50267,4.24133"
       inkscape:connector-curvature="0" />
    <path
       id="path44"
       style="fill:#ffffff;fill-opacity:1;fill-rule:nonzero;stroke:none"
       d="m 470.17762,566.61562 3.24934,0 0,16.552 -1.64267,0 0,-14.93333 -2.59733,0 0.99066,-1.61867 z m 7.54,5.188 -1.58666,0 c 0.044,-1.636 0.59333,-2.97733 1.64266,-4.02933 1.044,-1.048 2.33334,-1.57467 3.87334,-1.57467 1.52266,0 2.75466,0.49333 3.692,1.47467 0.94133,0.984 1.41466,2.14 1.41466,3.476 0,0.93733 -0.22533,1.816 -0.676,2.63866 -0.448,0.82134 -1.324,1.936 -2.62133,3.336 l -4.11733,4.44534 7.636,0 0,1.59733 -11.236,0 6.32266,-6.83067 c 1.28,-1.37333 2.11334,-2.39066 2.504,-3.05466 0.38667,-0.66534 0.57867,-1.364 0.57867,-2.09734 0,-0.92933 -0.344,-1.73333 -1.03867,-2.40533 -0.69466,-0.66667 -1.544,-1.00533 -2.552,-1.00533 -1.05466,0 -1.93466,0.35333 -2.63866,1.06 -0.696,0.70266 -1.09734,1.69333 -1.19734,2.96933 z m 10.83334,3.096 c 0,-2.18667 0.23333,-3.872 0.70933,-5.06667 0.46667,-1.19066 1.12933,-2.09733 1.98267,-2.712 0.85462,-0.61333 1.81202,-0.92133 2.86932,-0.92133 1.0707,0 2.0453,0.312 2.912,0.92933 0.872,0.61867 1.5587,1.548 2.0667,2.784 0.5026,1.23734 0.7586,2.9 0.7586,4.98667 0,2.07733 -0.2493,3.728 -0.7466,4.96 -0.5014,1.228 -1.1894,2.16 -2.0667,2.78533 -0.8773,0.62534 -1.8533,0.93734 -2.924,0.93734 -1.0573,0 -2.0133,-0.304 -2.85732,-0.912 -0.84934,-0.60667 -1.51334,-1.51334 -1.98667,-2.71334 -0.476,-1.208 -0.71733,-2.89066 -0.71733,-5.05733 z m 1.56666,0.0293 c 0,1.87067 0.16534,3.28 0.5,4.236 0.33334,0.96134 0.82666,1.68267 1.47996,2.17734 0.6507,0.496 1.344,0.74533 2.0707,0.74533 0.736,0 1.42,-0.24133 2.0573,-0.72667 0.6347,-0.484 1.1214,-1.208 1.4494,-2.176 0.416,-1.18 0.624,-2.59733 0.624,-4.256 0,-1.66266 -0.1827,-3.02533 -0.552,-4.08533 -0.368,-1.064 -0.876,-1.84 -1.524,-2.332 -0.6494,-0.49067 -1.3334,-0.73733 -2.0547,-0.73733 -0.736,0 -1.428,0.24666 -2.0707,0.73733 -0.6466,0.492 -1.13862,1.21333 -1.47729,2.17333 -0.33333,0.956 -0.50267,2.36934 -0.50267,4.244"
       inkscape:connector-curvature="0" />
    <path
       id="path46"
       style="fill:#ffffff;fill-opacity:1;fill-rule:nonzero;stroke:none"
       d="m 463.09896,610.78895 3.25333,0 0,16.552 -1.64267,0 0,-14.932 -2.596,0 0.98534,-1.62 z m 7.92933,3.83467 -1.68667,0 c 0.30667,-1.36267 0.89467,-2.40933 1.764,-3.14667 0.87067,-0.73466 1.9,-1.104 3.08267,-1.104 0.86533,0 1.66667,0.196 2.41467,0.592 0.74666,0.392 1.32133,0.92667 1.732,1.59067 0.408,0.668 0.612,1.36667 0.612,2.09333 0,1.42267 -0.70934,2.552 -2.124,3.388 0.79466,0.32134 1.44933,0.79467 1.95733,1.416 0.72,0.87867 1.07867,1.86267 1.07867,2.94934 0,0.936 -0.248,1.83066 -0.74534,2.684 -0.49333,0.85066 -1.164,1.50933 -2.02266,1.97466 -0.85467,0.464 -1.81067,0.696 -2.86934,0.696 -1.424,0 -2.61333,-0.412 -3.56533,-1.22933 -0.95333,-0.82267 -1.576,-2.028 -1.86667,-3.61867 l 1.62,0 c 0.284,1.072 0.69067,1.848 1.22534,2.328 0.684,0.60534 1.54933,0.90934 2.61066,0.90934 1.2,0 2.16267,-0.356 2.89334,-1.07867 0.72533,-0.71867 1.09066,-1.564 1.09066,-2.53067 0,-0.64533 -0.18266,-1.24933 -0.54666,-1.81333 -0.36667,-0.56 -0.85334,-0.98667 -1.464,-1.27067 -0.608,-0.28533 -1.55734,-0.46133 -2.84267,-0.52533 l 0,-1.52267 c 0.76267,0 1.45067,-0.13333 2.07067,-0.39866 0.62266,-0.26534 1.07733,-0.60667 1.35466,-1.01734 0.28667,-0.41066 0.42534,-0.864 0.42534,-1.35333 0,-0.71733 -0.28934,-1.34 -0.86134,-1.86533 -0.57066,-0.52667 -1.29733,-0.78667 -2.17733,-0.78667 -0.71067,0 -1.32933,0.19867 -1.844,0.60133 -0.51733,0.4 -0.956,1.08 -1.316,2.03867 z m 10.448,4.44933 c 0,-2.18533 0.23467,-3.872 0.708,-5.06666 0.47067,-1.19067 1.12933,-2.09734 1.984,-2.71067 0.85333,-0.61333 1.808,-0.92267 2.86933,-0.92267 1.07067,0 2.04267,0.312 2.912,0.93067 0.87067,0.61733 1.55866,1.548 2.06666,2.784 0.508,1.236 0.7587,2.9 0.7587,4.98533 0,2.07734 -0.248,3.728 -0.748,4.96134 -0.4974,1.228 -1.18802,2.15866 -2.06802,2.784 -0.87467,0.62666 -1.85067,0.93866 -2.92134,0.93866 -1.06133,0 -2.01066,-0.30533 -2.85466,-0.912 -0.84934,-0.60666 -1.51334,-1.51333 -1.99067,-2.71466 -0.47733,-1.20667 -0.716,-2.89067 -0.716,-5.05734 z m 1.56933,0.0293 c 0,1.87066 0.16534,3.28 0.496,4.236 0.336,0.96133 0.828,1.68266 1.48,2.17866 0.65334,0.49467 1.34534,0.74534 2.07067,0.74534 0.73733,0 1.42133,-0.24267 2.05867,-0.72534 0.63866,-0.48533 1.12133,-1.21066 1.45066,-2.17733 0.416,-1.18133 0.62267,-2.59733 0.62267,-4.25733 0,-1.66134 -0.184,-3.024 -0.552,-4.08534 -0.36933,-1.06266 -0.87733,-1.84133 -1.524,-2.33066 -0.64933,-0.492 -1.33467,-0.73734 -2.056,-0.73734 -0.73333,0 -1.424,0.24534 -2.07067,0.73734 -0.644,0.48933 -1.136,1.21333 -1.47333,2.17333 -0.33467,0.956 -0.50267,2.368 -0.50267,4.24267"
       inkscape:connector-curvature="0" />
    <path
       id="path48"
       style="fill:#ffffff;fill-opacity:1;fill-rule:nonzero;stroke:none"
       d="m 437.85762,654.07295 3.25067,0 0,16.552 -1.64267,0 0,-14.932 -2.59466,0 0.98666,-1.62 z m 13.964,-0.416 0.33734,0 0,11.53334 2.00266,0 0,1.58533 -2.00266,0 0,3.84933 -1.65334,0 0,-3.84933 -7.91333,0 9.22933,-13.11867 z m -1.316,11.53334 0,-6.89867 -4.87466,6.89867 4.87466,0 z m 5.00267,-2.83467 c 0,-2.18533 0.232,-3.872 0.708,-5.06533 0.46667,-1.19067 1.128,-2.096 1.98533,-2.712 0.852,-0.61334 1.80934,-0.92134 2.86934,-0.92134 1.07066,0 2.04266,0.31067 2.90933,0.92934 0.872,0.61866 1.55867,1.548 2.06667,2.784 0.50666,1.23733 0.76266,2.90133 0.76266,4.98533 0,2.07867 -0.25066,3.72933 -0.75066,4.96267 -0.49867,1.228 -1.188,2.15866 -2.06667,2.784 -0.87867,0.62533 -1.85067,0.93733 -2.92133,0.93733 -1.06,0 -2.01467,-0.304 -2.85867,-0.91067 -0.848,-0.608 -1.51467,-1.51333 -1.988,-2.716 -0.47733,-1.204 -0.716,-2.89066 -0.716,-5.05733 z m 1.56533,0.0307 c 0,1.87066 0.16667,3.28 0.5,4.236 0.33334,0.96 0.828,1.68266 1.48,2.17733 0.65334,0.49467 1.34267,0.74533 2.06934,0.74533 0.73866,0 1.42266,-0.24266 2.06,-0.72666 0.63733,-0.484 1.12,-1.20934 1.452,-2.176 0.41333,-1.18 0.62,-2.59734 0.62,-4.256 0,-1.66267 -0.184,-3.02534 -0.552,-4.08667 -0.368,-1.06267 -0.876,-1.84 -1.52534,-2.32933 -0.648,-0.492 -1.33333,-0.73734 -2.05466,-0.73734 -0.73334,0 -1.424,0.24534 -2.06934,0.73734 -0.644,0.48933 -1.13733,1.212 -1.47466,2.17333 -0.33334,0.956 -0.50534,2.36933 -0.50534,4.24267"
       inkscape:connector-curvature="0" />
    <path
       id="path50"
       style="fill:#bcbebf;fill-opacity:1;fill-rule:evenodd;stroke:none"
       d="m 234.45096,621.19429 12.36133,-5.49467 1.09734,2.47333 -12.36,5.49334 -1.09867,-2.472 z m 213.072,17.72133 -11.44667,-7.20667 1.44,-2.29066 11.44667,7.20933 -1.44,2.288 z m 11.85333,-23.736 -7.91067,-2.82133 0.90667,-2.54534 7.92,2.82134 -0.916,2.54533 z m 6.07333,-23.40667 -13.38666,-1.92 0.384,-2.68 13.39066,1.92534 -0.388,2.67466 z m 1.168,-26.44 -8.37333,0.64 -0.208,-2.69333 8.38267,-0.64267 0.19866,2.696 z m -3.46533,-21.93599 -13.07067,3.47466 -0.69733,-2.61466 13.07467,-3.472 0.69333,2.612 z m -236.26266,53.49999 8.21733,-1.732 0.56133,2.644 -8.228,1.736 -0.55066,-2.648 z m -2.33467,-25.03466 13.528,0 0,2.70666 -13.528,-10e-4 z m 3.024,-25.556 8.21067,1.776 -0.57067,2.64133 -8.216,-1.77466 0.576,-2.64267 z m 7.46267,-22.412 12.41466,5.36933 -1.072,2.484 -12.41733,-5.37066 1.07467,-2.48267 z m 12.952,-22.30133 6.82666,4.88933 -1.57466,2.19733 -6.83467,-4.892 1.58267,-2.19466 z m 15.71066,-17.56799 9.26667,9.85332 -1.972,1.85467 -9.26667,-9.85599 1.972,-1.852 z m 21.44267,-15.74267 4.276,7.228 -2.32267,1.37867 -4.28266,-7.23334 2.32933,-1.37333 z m 21.62667,-9.8 4.488,12.75733 -2.55334,0.9 -4.48933,-12.76133 2.55467,-0.896 z m 25.61466,-5.688 1.01467,8.336 -2.68133,0.328 -1.01867,-8.34533 2.68533,-0.31867 z m 24.212,-0.252 -1.06533,13.48533 -2.69733,-0.212 1.06533,-13.48666 2.69733,0.21333 z m 24.744,4.87067 -2.38267,8.05466 -2.59333,-0.76266 2.38133,-8.06267 2.59467,0.77067 z m 22.64133,9.57066 -6.372,11.932 -2.388,-1.27333 6.37334,-11.93333 2.38666,1.27466 z m 20.08,13.81734 -5.36,6.46533 -2.08266,-1.72267 5.364,-6.472 2.07866,1.72934 z m 17,17.65599 -10.54933,8.464 -1.69467,-2.11067 10.55067,-8.46267 1.69333,2.10934 z m 13.156,20.852 -7.48266,3.828 -1.228,-2.41334 7.48533,-3.82666 1.22533,2.412"
       inkscape:connector-curvature="0" />
    <path
       id="path52"
       style="fill:#bcbebf;fill-opacity:1;fill-rule:nonzero;stroke:none"
       d="m 256.42963,618.92095 4.75466,0 0,0.97734 -5.79466,0 0,-0.832 c 0,-0.67467 0.11466,-1.22534 0.33733,-1.65067 0.096,-0.192 0.70267,-0.86133 1.82533,-2.004 0.45867,-0.47067 0.90667,-0.94133 1.35067,-1.41067 0.44133,-0.468 0.74933,-0.89866 0.92,-1.28266 0.21333,-0.47867 0.32267,-1.02934 0.32267,-1.65067 0,-0.55467 -0.11867,-1.04 -0.35334,-1.45867 -0.288,-0.512 -0.684,-0.76933 -1.18533,-0.76933 -0.072,0 -0.18667,0 -0.336,0 -0.66,0 -1.14,0.284 -1.43867,0.84933 -0.236,0.448 -0.35333,1.06 -0.35333,1.84134 l -0.992,0 c 0,-1.02534 0.21867,-1.848 0.65467,-2.46534 0.51333,-0.71466 1.24933,-1.07066 2.20933,-1.07066 0.844,0 1.52533,0.28666 2.048,0.864 0.52267,0.57466 0.78533,1.348 0.78533,2.31866 0,0.79067 -0.23066,1.568 -0.688,2.33734 -0.34133,0.57466 -0.88,1.23066 -1.616,1.968 -0.59733,0.576 -1.196,1.152 -1.792,1.728 -0.16,0.16 -0.29333,0.352 -0.40266,0.57466 -0.16934,0.35334 -0.256,0.732 -0.256,1.136 z m 6.116,-4.94266 c 0,-2.33734 0.29866,-3.96934 0.89333,-4.89734 0.47067,-0.72666 1.17333,-1.08666 2.11467,-1.08666 0.83066,0 1.48666,0.31733 1.96666,0.96 0.372,0.5 0.636,1.224 0.78534,2.17466 0.10666,0.672 0.15866,1.44534 0.15866,2.32 l 0,0.8 c 0,1.196 -0.052,2.128 -0.15866,2.80134 -0.14934,0.96133 -0.42934,1.68933 -0.83467,2.19066 -0.468,0.58934 -1.13867,0.88134 -2.01467,0.88134 -0.82266,0 -1.456,-0.28267 -1.90133,-0.848 -0.40933,-0.50267 -0.676,-1.184 -0.81067,-2.04934 -0.136,-0.864 -0.19866,-1.94666 -0.19866,-3.24666 z m 1.03866,0.27066 c 0,1.85734 0.14,3.15467 0.416,3.89734 0.27734,0.74133 0.75734,1.11066 1.44134,1.11066 0.55466,0 0.968,-0.21333 1.24666,-0.63866 0.492,-0.76934 0.73734,-2.25067 0.73734,-4.44934 0,-1.856 -0.0973,-3.12533 -0.28934,-3.808 -0.27866,-1.00133 -0.85333,-1.50266 -1.72933,-1.50266 -0.672,0 -1.144,0.388 -1.41467,1.16666 -0.272,0.77867 -0.408,2.18667 -0.408,4.224"
       inkscape:connector-curvature="0" />
    <path
       id="path54"
       style="fill:#bcbebf;fill-opacity:1;fill-rule:nonzero;stroke:none"
       d="m 243.06296,575.54629 4.112,-7.74534 0.97733,0 0,7.84267 1.056,0 0,0.86267 -1.056,0 0,3.2 -1.03866,0 0,-3.2 -4.05067,0 z m 0.95333,0.0973 3.09734,0 0,-5.97067 -3.09734,5.97067 z m 6.29734,-1.85867 c 0,-2.336 0.3,-3.968 0.89333,-4.89466 0.47067,-0.72667 1.176,-1.08934 2.11333,-1.08934 0.832,0 1.49067,0.32 1.96934,0.96 0.372,0.50267 0.63466,1.22667 0.78266,2.17734 0.108,0.672 0.16,1.44533 0.16,2.31866 l 0,0.80134 c 0,1.19466 -0.052,2.12666 -0.16,2.80133 -0.148,0.96 -0.42666,1.688 -0.832,2.192 -0.468,0.58533 -1.14,0.87867 -2.01466,0.87867 -0.82267,0 -1.456,-0.28267 -1.90534,-0.848 -0.40533,-0.50134 -0.676,-1.184 -0.80666,-2.048 -0.13467,-0.864 -0.2,-1.94667 -0.2,-3.24934 z m 1.03733,0.27334 c 0,1.856 0.14,3.15466 0.41867,3.896 0.27733,0.74266 0.75733,1.112 1.44,1.112 0.556,0 0.968,-0.21334 1.24933,-0.63867 0.488,-0.76933 0.736,-2.252 0.736,-4.44933 0,-1.856 -0.0987,-3.12667 -0.29067,-3.808 -0.276,-1.00267 -0.85466,-1.50534 -1.72666,-1.50534 -0.672,0 -1.14267,0.38934 -1.416,1.168 -0.27467,0.78 -0.41067,2.18667 -0.41067,4.22534"
       inkscape:connector-curvature="0" />
    <path
       id="path56"
       style="fill:#bcbebf;fill-opacity:1;fill-rule:nonzero;stroke:none"
       d="m 252.60429,535.17562 c -0.70266,0 -1.21733,0.3 -1.53866,0.89734 -0.25334,0.46933 -0.38267,1.08266 -0.38267,1.84 0,0.82133 0.12267,1.52133 0.368,2.096 0.34267,0.78933 0.86533,1.18533 1.56667,1.18533 0.68533,0 1.19866,-0.36267 1.53866,-1.08933 0.25467,-0.55334 0.38267,-1.216 0.38267,-1.98267 0,-0.80133 -0.12267,-1.452 -0.368,-1.95333 -0.32133,-0.66 -0.84267,-0.99334 -1.56667,-0.99334 z m 0.0653,6.88267 c -0.86667,0 -1.54134,-0.31467 -2.03467,-0.94533 -0.39467,-0.5 -0.672,-1.216 -0.832,-2.14267 -0.10933,-0.61867 -0.16133,-1.39333 -0.16133,-2.32 0,-1.88933 0.12533,-3.28 0.36933,-4.17733 0.46933,-1.696 1.408,-2.544 2.816,-2.544 0.74667,0 1.35067,0.236 1.81733,0.71066 0.464,0.476 0.69734,1.112 0.69734,1.91334 l -0.96267,0 c 0,-0.55467 -0.13333,-0.98667 -0.39867,-1.296 -0.26666,-0.30934 -0.684,-0.464 -1.248,-0.464 -0.43733,0 -0.816,0.20666 -1.13733,0.62266 -0.25333,0.332 -0.44,0.73334 -0.552,1.20134 -0.112,0.468 -0.19867,0.93866 -0.264,1.408 -0.0627,0.46933 -0.096,0.944 -0.096,1.424 0.29867,-0.37334 0.62133,-0.656 0.968,-0.848 0.34533,-0.192 0.74,-0.288 1.176,-0.288 0.96,0 1.68667,0.42666 2.17733,1.28 0.384,0.67333 0.576,1.492 0.576,2.464 0,1.04533 -0.184,1.90933 -0.544,2.59333 -0.50133,0.93867 -1.292,1.408 -2.36666,1.408 z m 4.08,-6.144 c 0,-2.33733 0.29733,-3.96933 0.89466,-4.89867 0.46934,-0.72533 1.17467,-1.08666 2.112,-1.08666 0.83067,0 1.488,0.32 1.968,0.96 0.37467,0.50133 0.63467,1.22666 0.78134,2.17466 0.108,0.67334 0.16266,1.44667 0.16266,2.32134 l 0,0.8 c 0,1.19466 -0.0547,2.128 -0.16266,2.8 -0.14667,0.96133 -0.42267,1.69066 -0.83067,2.19333 -0.46667,0.588 -1.14,0.88 -2.01467,0.88 -0.82266,0 -1.45733,-0.284 -1.90266,-0.84933 -0.408,-0.5 -0.676,-1.18267 -0.81067,-2.04667 -0.13067,-0.86533 -0.19733,-1.948 -0.19733,-3.248 z m 1.03733,0.27067 c 0,1.85733 0.13733,3.15466 0.416,3.89733 0.27867,0.74133 0.75867,1.112 1.44133,1.112 0.55467,0 0.96934,-0.21467 1.24934,-0.64 0.48933,-0.76933 0.73466,-2.25067 0.73466,-4.44933 0,-1.856 -0.0947,-3.12667 -0.28933,-3.808 -0.276,-1.00267 -0.85333,-1.504 -1.72533,-1.504 -0.67334,0 -1.14534,0.38933 -1.41867,1.168 -0.272,0.77866 -0.408,2.18533 -0.408,4.224"
       inkscape:connector-curvature="0" />
    <path
       id="path58"
       style="fill:#bcbebf;fill-opacity:1;fill-rule:nonzero;stroke:none"
       d="m 276.14563,502.38762 c -0.57734,0 -1.028,0.20267 -1.36134,0.608 -0.364,0.448 -0.544,1.08267 -0.544,1.904 0,0.73467 0.13334,1.33867 0.40134,1.80934 0.33066,0.57466 0.81066,0.86266 1.43866,0.86266 0.74667,0 1.292,-0.272 1.63467,-0.81466 0.276,-0.44934 0.41333,-1.068 0.41333,-1.85734 0,-0.756 -0.13733,-1.344 -0.41333,-1.76 -0.33067,-0.5 -0.856,-0.752 -1.56933,-0.752 z m 0.0147,-5.21733 c -0.72266,0 -1.19733,0.36533 -1.416,1.09733 -0.21733,0.72934 -0.28266,1.144 -0.18266,1.23867 0.0213,0.59867 0.148,1.06667 0.38533,1.40933 0.27733,0.40534 0.69733,0.608 1.26133,0.608 0.544,0 0.95467,-0.236 1.23334,-0.704 0.22133,-0.38533 0.336,-0.86933 0.336,-1.456 0,-0.64 -0.10534,-1.14266 -0.31867,-1.50533 -0.268,-0.45867 -0.7,-0.688 -1.29867,-0.688 z m -1.264,4.70533 c -0.48,-0.20266 -0.828,-0.55466 -1.04133,-1.056 -0.17067,-0.40533 -0.252,-0.912 -0.252,-1.52 0,-0.86533 0.20667,-1.564 0.62133,-2.09733 0.45867,-0.596 1.112,-0.89467 1.95067,-0.89467 0.888,0 1.55467,0.29867 2.00267,0.89467 0.39333,0.53333 0.592,1.264 0.592,2.192 0,0.56667 -0.092,1.04667 -0.27334,1.44 -0.212,0.47067 -0.54666,0.80667 -1.00666,1.00933 0.60933,0.32 1.05066,0.76667 1.328,1.344 0.23333,0.50134 0.352,1.088 0.352,1.76134 0,1.23733 -0.27734,2.14266 -0.832,2.71866 -0.49067,0.512 -1.29067,0.768 -2.4,0.768 -0.79067,0 -1.44267,-0.31466 -1.96267,-0.94266 -0.516,-0.632 -0.77333,-1.464 -0.77333,-2.496 0,-0.716 0.104,-1.30267 0.31733,-1.76134 0.268,-0.56533 0.72667,-1.01866 1.37733,-1.36 z m 5.42534,0.416 c 0,-2.33733 0.29733,-3.96933 0.896,-4.89733 0.46933,-0.72533 1.17466,-1.08667 2.112,-1.08667 0.83333,0 1.488,0.31867 1.96666,0.95867 0.376,0.50133 0.63867,1.22667 0.78667,2.17733 0.10533,0.672 0.16,1.44534 0.16,2.31867 l 0,0.80133 c 0,1.19467 -0.0547,2.128 -0.16,2.8 -0.148,0.96 -0.428,1.692 -0.832,2.192 -0.47067,0.588 -1.14267,0.88 -2.01867,0.88 -0.82,0 -1.45466,-0.28266 -1.90266,-0.848 -0.404,-0.50266 -0.67467,-1.184 -0.808,-2.04933 -0.132,-0.86267 -0.2,-1.94533 -0.2,-3.24667 z m 1.04,0.272 c 0,1.85734 0.14,3.15467 0.416,3.896 0.27866,0.74134 0.75733,1.112 1.44,1.112 0.55466,0 0.97066,-0.21333 1.248,-0.63866 0.49333,-0.76934 0.736,-2.252 0.736,-4.44934 0,-1.856 -0.0947,-3.12533 -0.28667,-3.80933 -0.27733,-1.00133 -0.852,-1.504 -1.72933,-1.504 -0.672,0 -1.144,0.39067 -1.41334,1.16933 -0.276,0.77867 -0.41066,2.18534 -0.41066,4.224"
       inkscape:connector-curvature="0" />
    <path
       id="path60"
       style="fill:#bcbebf;fill-opacity:1;fill-rule:nonzero;stroke:none"
       d="m 302.40163,477.99563 0,-0.752 c 0.888,0 1.52533,-0.13866 1.92,-0.41466 0.45866,-0.332 0.732,-0.924 0.81733,-1.776 l 0.848,0 0,11.904 -1.04,0 0,-9.15334 c -0.20267,0.044 -0.4,0.0747 -0.59333,0.096 -0.19067,0.0213 -0.39467,0.0333 -0.608,0.0333 -0.14934,0 -0.404,0.0107 -0.768,0.032 -0.36134,0.02 -0.55334,0.0307 -0.576,0.0307 z m 6.73866,3.04134 c 0,-2.33734 0.3,-3.96934 0.89334,-4.89734 0.47466,-0.72666 1.176,-1.08666 2.11333,-1.08666 0.832,0 1.488,0.31866 1.96933,0.95866 0.372,0.50134 0.63467,1.228 0.78534,2.176 0.104,0.67334 0.15733,1.44667 0.15733,2.32 l 0,0.80134 c 0,1.19466 -0.0533,2.12666 -0.15733,2.8 -0.15067,0.96 -0.428,1.69066 -0.83334,2.192 -0.46933,0.58666 -1.14266,0.88 -2.016,0.88 -0.82266,0 -1.456,-0.284 -1.904,-0.848 -0.40666,-0.50267 -0.676,-1.184 -0.80933,-2.048 -0.132,-0.864 -0.19867,-1.948 -0.19867,-3.248 z m 1.03734,0.272 c 0,1.856 0.14133,3.15333 0.41866,3.896 0.276,0.74133 0.756,1.11066 1.43867,1.11066 0.55467,0 0.97067,-0.21333 1.24933,-0.63733 0.49067,-0.76933 0.73467,-2.25333 0.73467,-4.45067 0,-1.85466 -0.0933,-3.12533 -0.28667,-3.80666 -0.276,-1.00267 -0.856,-1.50534 -1.728,-1.50534 -0.67466,0 -1.14533,0.388 -1.41866,1.16934 -0.272,0.77733 -0.408,2.18533 -0.408,4.224 z m 6.06533,-0.272 c 0,-2.33734 0.3,-3.96934 0.89733,-4.89734 0.47067,-0.72666 1.17334,-1.08666 2.112,-1.08666 0.83334,0 1.488,0.31866 1.968,0.95866 0.37467,0.50134 0.63334,1.228 0.78534,2.176 0.10533,0.67334 0.15733,1.44667 0.15733,2.32 l 0,0.80134 c 0,1.19466 -0.052,2.12666 -0.15733,2.8 -0.152,0.96 -0.42934,1.69066 -0.83067,2.192 -0.47067,0.58666 -1.14267,0.88 -2.01867,0.88 -0.82266,0 -1.45466,-0.284 -1.90533,-0.848 -0.404,-0.50267 -0.67333,-1.184 -0.80533,-2.048 -0.136,-0.864 -0.20267,-1.948 -0.20267,-3.248 z m 1.04133,0.272 c 0,1.856 0.13734,3.15333 0.41734,3.896 0.27733,0.74133 0.75733,1.11066 1.44,1.11066 0.552,0 0.96933,-0.21333 1.24666,-0.63733 0.49334,-0.76933 0.73734,-2.25333 0.73734,-4.45067 0,-1.85466 -0.0973,-3.12533 -0.28667,-3.80666 -0.28,-1.00267 -0.856,-1.50534 -1.73067,-1.50534 -0.672,0 -1.144,0.388 -1.41733,1.16934 -0.27067,0.77733 -0.40667,2.18533 -0.40667,4.224"
       inkscape:connector-curvature="0" />
    <path
       id="path62"
       style="fill:#bcbebf;fill-opacity:1;fill-rule:nonzero;stroke:none"
       d="m 342.16563,471.81297 0,-0.752 c 0.884,0 1.524,-0.14 1.92,-0.416 0.46,-0.332 0.73066,-0.92267 0.816,-1.77734 l 0.848,0 0,11.90534 -1.03867,0 0,-9.152 c -0.20533,0.0427 -0.40267,0.0747 -0.59333,0.0947 -0.19334,0.0227 -0.39334,0.0333 -0.60667,0.0333 -0.152,0 -0.40667,0.009 -0.77067,0.032 -0.36,0.02 -0.55466,0.032 -0.57466,0.032 z m 7.73066,7.984 4.752,0 0,0.976 -5.79466,0 0,-0.83067 c 0,-0.676 0.11066,-1.22533 0.336,-1.652 0.096,-0.192 0.70666,-0.86133 1.82666,-2.00267 0.45867,-0.472 0.90667,-0.94266 1.35067,-1.41066 0.44267,-0.468 0.74933,-0.89867 0.91867,-1.28267 0.21466,-0.48 0.32266,-1.02933 0.32266,-1.65067 0,-0.55466 -0.11733,-1.04 -0.356,-1.46 -0.28666,-0.51066 -0.68,-0.76666 -1.18,-0.76666 -0.076,0 -0.18666,0 -0.33733,0 -0.66267,0 -1.14267,0.28266 -1.44,0.84666 -0.23333,0.44934 -0.35333,1.06267 -0.35333,1.84134 l -0.98934,0 c 0,-1.024 0.21867,-1.84667 0.65467,-2.46534 0.51067,-0.71466 1.24933,-1.072 2.20933,-1.072 0.84267,0 1.52534,0.288 2.04667,0.86534 0.524,0.576 0.78533,1.34933 0.78533,2.32133 0,0.788 -0.232,1.56667 -0.68933,2.33467 -0.34133,0.576 -0.88,1.232 -1.61467,1.968 -0.59866,0.576 -1.19466,1.152 -1.792,1.728 -0.16133,0.16133 -0.29466,0.352 -0.40133,0.57733 -0.17067,0.35067 -0.25467,0.72933 -0.25467,1.13467 z m 6.112,-4.944 c 0,-2.336 0.29867,-3.968 0.896,-4.896 0.46667,-0.72667 1.17333,-1.08934 2.112,-1.08934 0.83067,0 1.48933,0.32134 1.968,0.96134 0.37467,0.50133 0.63333,1.22666 0.784,2.17466 0.10667,0.67334 0.16,1.44667 0.16,2.32 l 0,0.80134 c 0,1.19466 -0.0533,2.12933 -0.16,2.8 -0.15067,0.96133 -0.42667,1.69066 -0.83333,2.19333 -0.468,0.58667 -1.14,0.88 -2.01467,0.88 -0.82267,0 -1.45733,-0.284 -1.904,-0.84933 -0.404,-0.5 -0.67733,-1.184 -0.80933,-2.048 -0.13333,-0.864 -0.19867,-1.94667 -0.19867,-3.248 z m 1.03867,0.272 c 0,1.85733 0.13867,3.15466 0.416,3.89733 0.28,0.74133 0.76,1.11067 1.44133,1.11067 0.55467,0 0.96933,-0.212 1.248,-0.63867 0.48933,-0.76933 0.73733,-2.25067 0.73733,-4.44933 0,-1.856 -0.0947,-3.12667 -0.28933,-3.80934 -0.27867,-1.00133 -0.85333,-1.50266 -1.72933,-1.50266 -0.67067,0 -1.14267,0.388 -1.41467,1.168 -0.27333,0.77733 -0.40933,2.18533 -0.40933,4.224"
       inkscape:connector-curvature="0" />
    <path
       id="path64"
       style="fill:#bcbebf;fill-opacity:1;fill-rule:nonzero;stroke:none"
       d="m 380.96162,484.31297 0,-0.752 c 0.88534,0 1.52667,-0.13734 1.92134,-0.416 0.45866,-0.32934 0.73066,-0.92267 0.81466,-1.77467 l 0.848,0 0,11.90399 -1.04,0 0,-9.15332 c -0.20266,0.044 -0.39866,0.076 -0.592,0.096 -0.19066,0.0213 -0.392,0.032 -0.60933,0.032 -0.148,0 -0.40533,0.0107 -0.76667,0.0333 -0.36,0.02 -0.55466,0.0307 -0.576,0.0307 z m 6.59334,4.8 4.112,-7.74267 0.976,0 0,7.84 1.056,0 0,0.86399 -1.056,0 0,3.2 -1.04,0 0,-3.2 -4.048,0 z m 0.95066,0.0973 3.09734,0 0,-5.96933 -3.09734,5.96933 z m 6.29867,-1.856 c 0,-2.336 0.3,-3.96933 0.896,-4.89733 0.46933,-0.72534 1.17333,-1.08667 2.112,-1.08667 0.832,0 1.488,0.31867 1.968,0.95867 0.37333,0.50266 0.63467,1.228 0.78533,2.176 0.10667,0.67333 0.16,1.44666 0.16,2.32 l 0,0.8 c 0,1.196 -0.0533,2.12933 -0.16,2.80132 -0.15066,0.96 -0.42933,1.69067 -0.83333,2.192 -0.47067,0.58667 -1.14133,0.88 -2.016,0.88 -0.82133,0 -1.45467,-0.28267 -1.904,-0.848 -0.40533,-0.50133 -0.67467,-1.18267 -0.808,-2.048 -0.13467,-0.86399 -0.2,-1.94799 -0.2,-3.24799 z m 1.04,0.27067 c 0,1.85733 0.13867,3.15465 0.41733,3.89865 0.27467,0.74 0.75467,1.10934 1.43867,1.10934 0.556,0 0.97067,-0.212 1.24667,-0.63867 0.492,-0.768 0.73866,-2.25199 0.73866,-4.44799 0,-1.856 -0.096,-3.12667 -0.28933,-3.80933 -0.27867,-1.00267 -0.852,-1.504 -1.728,-1.504 -0.672,0 -1.14267,0.38933 -1.41467,1.16933 -0.27333,0.77733 -0.40933,2.18533 -0.40933,4.22267"
       inkscape:connector-curvature="0" />
    <path
       id="path66"
       style="fill:#bcbebf;fill-opacity:1;fill-rule:nonzero;stroke:none"
       d="m 408.13096,508.91296 0,-0.752 c 0.88533,0 1.52666,-0.14 1.92133,-0.416 0.45867,-0.33067 0.73067,-0.924 0.816,-1.77734 l 0.848,0 0,11.90534 -1.03867,0 0,-9.152 c -0.204,0.0427 -0.40266,0.0733 -0.59466,0.0947 -0.192,0.0227 -0.39334,0.0333 -0.60667,0.0333 -0.15067,0 -0.40533,0.0107 -0.76933,0.032 -0.36,0.02 -0.55467,0.032 -0.576,0.032 z m 9.69866,2.304 c -0.704,0 -1.216,0.29733 -1.53733,0.896 -0.256,0.468 -0.38267,1.08266 -0.38267,1.84133 0,0.82 0.12267,1.51867 0.368,2.09467 0.34,0.78933 0.86134,1.184 1.56667,1.184 0.68133,0 1.196,-0.36134 1.53733,-1.088 0.25467,-0.55467 0.38267,-1.21734 0.38267,-1.984 0,-0.8 -0.12133,-1.452 -0.368,-1.952 -0.32,-0.66134 -0.84133,-0.992 -1.56667,-0.992 z m 0.0627,6.88 c -0.86267,0 -1.54,-0.31467 -2.03067,-0.944 -0.396,-0.5 -0.67333,-1.216 -0.832,-2.144 -0.10933,-0.61867 -0.16133,-1.392 -0.16133,-2.31867 0,-1.88933 0.12267,-3.28133 0.368,-4.17867 0.47067,-1.696 1.40933,-2.544 2.81733,-2.544 0.74534,0 1.35067,0.23734 1.816,0.712 0.464,0.476 0.696,1.112 0.696,1.912 l -0.96,0 c 0,-0.55333 -0.13333,-0.98666 -0.39866,-1.296 -0.26934,-0.308 -0.684,-0.46266 -1.248,-0.46266 -0.43867,0 -0.82,0.20666 -1.13867,0.624 -0.25733,0.33066 -0.43867,0.72933 -0.55067,1.2 -0.112,0.468 -0.20133,0.93866 -0.264,1.408 -0.064,0.468 -0.096,0.944 -0.096,1.424 0.29867,-0.37334 0.62,-0.656 0.96667,-0.84934 0.34667,-0.18933 0.74133,-0.28666 1.17733,-0.28666 0.95734,0 1.68534,0.42666 2.176,1.28 0.384,0.672 0.57734,1.492 0.57734,2.464 0,1.04533 -0.184,1.90933 -0.54534,2.59333 -0.50266,0.93733 -1.29333,1.40667 -2.36933,1.40667 z m 4.08133,-6.14267 c 0,-2.33867 0.3,-3.96933 0.89734,-4.89867 0.46666,-0.72533 1.17333,-1.088 2.112,-1.088 0.83066,0 1.488,0.32 1.968,0.96 0.37466,0.50267 0.63333,1.22667 0.78133,2.17867 0.10933,0.67067 0.16267,1.444 0.16267,2.31733 l 0,0.80134 c 0,1.19333 -0.0533,2.128 -0.16267,2.8 -0.148,0.96133 -0.42267,1.692 -0.83067,2.192 -0.47066,0.58666 -1.14133,0.88 -2.01466,0.88 -0.824,0 -1.45734,-0.28267 -1.90667,-0.848 -0.404,-0.50134 -0.67333,-1.18267 -0.808,-2.048 -0.132,-0.864 -0.19867,-1.94667 -0.19867,-3.24667 z m 1.04,0.27067 c 0,1.85733 0.13734,3.15466 0.416,3.896 0.27867,0.74266 0.75734,1.112 1.44134,1.112 0.55466,0 0.968,-0.21334 1.24666,-0.64 0.49067,-0.768 0.73734,-2.24934 0.73734,-4.44934 0,-1.85466 -0.0947,-3.124 -0.28934,-3.80666 -0.276,-1.00267 -0.85333,-1.504 -1.72666,-1.504 -0.672,0 -1.144,0.38933 -1.41734,1.168 -0.272,0.77866 -0.408,2.18533 -0.408,4.224"
       inkscape:connector-curvature="0" />
    <path
       id="path68"
       style="fill:#bcbebf;fill-opacity:1;fill-rule:nonzero;stroke:none"
       d="m 425.77496,544.21429 0,-0.752 c 0.884,0 1.524,-0.13867 1.92,-0.416 0.45866,-0.33067 0.73066,-0.92267 0.816,-1.77467 l 0.848,0 0,11.90267 -1.03867,0 0,-9.152 c -0.204,0.0427 -0.40267,0.0747 -0.59467,0.096 -0.192,0.0213 -0.39333,0.032 -0.60666,0.032 -0.15067,0 -0.40534,0.009 -0.768,0.032 -0.364,0.0213 -0.556,0.032 -0.576,0.032 z m 9.66533,3.136 c -0.576,0 -1.02933,0.204 -1.36133,0.608 -0.36,0.448 -0.54267,1.084 -0.54267,1.90533 0,0.736 0.13333,1.34 0.39867,1.80667 0.33066,0.57733 0.81066,0.86533 1.43866,0.86533 0.74934,0 1.29334,-0.27333 1.63467,-0.81733 0.27733,-0.44667 0.416,-1.06533 0.416,-1.85467 0,-0.75733 -0.13867,-1.34533 -0.416,-1.76133 -0.33333,-0.50133 -0.852,-0.752 -1.568,-0.752 z m 0.016,-5.216 c -0.72667,0 -1.19867,0.36533 -1.416,1.096 -0.21867,0.73067 -0.28133,1.14533 -0.18533,1.24 0.0227,0.59733 0.15066,1.06667 0.38533,1.40933 0.276,0.40267 0.69867,0.608 1.26267,0.608 0.54533,0 0.956,-0.236 1.232,-0.70533 0.22666,-0.38533 0.33466,-0.86933 0.33466,-1.456 0,-0.63867 -0.10533,-1.14133 -0.31866,-1.504 -0.26667,-0.45867 -0.696,-0.688 -1.29467,-0.688 z m -1.26533,4.704 c -0.47867,-0.20267 -0.82534,-0.556 -1.03867,-1.056 -0.17067,-0.40533 -0.256,-0.912 -0.256,-1.52 0,-0.864 0.20667,-1.56267 0.624,-2.096 0.45733,-0.59733 1.108,-0.89467 1.952,-0.89467 0.884,0 1.55067,0.29734 1.99867,0.89467 0.39733,0.53333 0.592,1.264 0.592,2.192 0,0.56533 -0.0907,1.04533 -0.268,1.44 -0.216,0.47067 -0.55467,0.80667 -1.01067,1.008 0.608,0.32 1.05333,0.768 1.328,1.344 0.23467,0.50267 0.352,1.08933 0.352,1.76 0,1.23867 -0.27733,2.14533 -0.832,2.72 -0.492,0.51333 -1.29067,0.76933 -2.4,0.76933 -0.79067,0 -1.44267,-0.31466 -1.96,-0.94533 -0.52133,-0.62933 -0.77867,-1.46133 -0.77867,-2.496 0,-0.71467 0.10934,-1.30133 0.32267,-1.76 0.268,-0.56533 0.72533,-1.01733 1.37467,-1.36 z m 5.42666,0.416 c 0,-2.336 0.296,-3.968 0.896,-4.896 0.468,-0.72533 1.17067,-1.08667 2.112,-1.08667 0.83067,0 1.488,0.31867 1.968,0.95867 0.37334,0.50267 0.63467,1.22667 0.78267,2.176 0.108,0.672 0.16133,1.44533 0.16133,2.32133 l 0,0.79867 c 0,1.19467 -0.0533,2.128 -0.16133,2.8 -0.148,0.96133 -0.42667,1.69067 -0.832,2.19333 -0.46933,0.58667 -1.14,0.88 -2.01467,0.88 -0.82266,0 -1.45733,-0.28266 -1.90666,-0.848 -0.40267,-0.50133 -0.672,-1.184 -0.80534,-2.048 -0.13333,-0.864 -0.2,-1.948 -0.2,-3.24933 z m 1.04,0.272 c 0,1.85733 0.13734,3.156 0.41467,3.89733 0.27733,0.74134 0.75733,1.112 1.44133,1.112 0.55467,0 0.96934,-0.21466 1.248,-0.64133 0.49067,-0.76667 0.73734,-2.24933 0.73734,-4.448 0,-1.856 -0.0973,-3.12533 -0.28934,-3.80933 -0.27733,-1.00134 -0.85466,-1.50267 -1.72933,-1.50267 -0.672,0 -1.144,0.38933 -1.41467,1.168 -0.27333,0.77867 -0.408,2.18667 -0.408,4.224"
       inkscape:connector-curvature="0" />
    <path
       id="path70"
       style="fill:#bcbebf;fill-opacity:1;fill-rule:nonzero;stroke:none"
       d="m 426.39896,591.36495 4.75066,0 0,0.97734 -5.792,0 0,-0.83334 c 0,-0.67466 0.112,-1.224 0.33467,-1.65066 0.0973,-0.192 0.70667,-0.86134 1.82533,-2.00134 0.45867,-0.472 0.908,-0.94266 1.35334,-1.412 0.44266,-0.46933 0.752,-0.89866 0.91866,-1.28266 0.21334,-0.48 0.32134,-1.02934 0.32134,-1.65067 0,-0.55467 -0.11734,-1.04133 -0.352,-1.45867 -0.288,-0.512 -0.684,-0.768 -1.18267,-0.768 -0.076,0 -0.188,0 -0.33733,0 -0.66267,0 -1.14134,0.28134 -1.44134,0.848 -0.232,0.448 -0.352,1.06134 -0.352,1.84 l -0.992,0 c 0,-1.024 0.22134,-1.84666 0.65734,-2.464 0.51466,-0.71466 1.24933,-1.072 2.20933,-1.072 0.84133,0 1.524,0.28667 2.048,0.864 0.52267,0.57467 0.78133,1.34934 0.78133,2.32 0,0.78934 -0.22933,1.568 -0.68666,2.336 -0.34267,0.576 -0.88134,1.232 -1.616,1.96934 -0.59734,0.57466 -1.19467,1.152 -1.792,1.728 -0.16,0.15866 -0.29334,0.352 -0.40134,0.576 -0.16933,0.352 -0.25466,0.72933 -0.25466,1.13466 z m 6.112,-4.944 c 0,-2.33733 0.29866,-3.968 0.89733,-4.896 0.46933,-0.72533 1.17333,-1.088 2.11067,-1.088 0.83333,0 1.48933,0.32 1.968,0.96 0.37466,0.5 0.63333,1.22667 0.78666,2.176 0.10534,0.672 0.15867,1.44534 0.15867,2.32 l 0,0.8 c 0,1.19467 -0.0533,2.128 -0.15867,2.8 -0.15333,0.96134 -0.42933,1.69067 -0.83466,2.192 -0.46934,0.588 -1.14134,0.88134 -2.016,0.88134 -0.82267,0 -1.45467,-0.284 -1.90267,-0.84934 -0.404,-0.50133 -0.676,-1.18266 -0.81067,-2.048 -0.132,-0.864 -0.19866,-1.94666 -0.19866,-3.248 z m 1.04133,0.272 c 0,1.85734 0.13867,3.15467 0.416,3.89734 0.27467,0.74 0.75733,1.10933 1.43867,1.10933 0.55466,0 0.972,-0.21067 1.248,-0.63867 0.49066,-0.768 0.73733,-2.25066 0.73733,-4.448 0,-1.856 -0.0947,-3.12533 -0.28933,-3.80933 -0.276,-1.00267 -0.85067,-1.50267 -1.72934,-1.50267 -0.67066,0 -1.14133,0.388 -1.412,1.168 -0.276,0.77734 -0.40933,2.18667 -0.40933,4.224 z m 6.06533,-0.272 c 0,-2.33733 0.296,-3.968 0.896,-4.896 0.468,-0.72533 1.17067,-1.088 2.112,-1.088 0.83067,0 1.488,0.32 1.968,0.96 0.37334,0.5 0.63467,1.22667 0.78267,2.176 0.108,0.672 0.16133,1.44534 0.16133,2.32 l 0,0.8 c 0,1.19467 -0.0533,2.128 -0.16133,2.8 -0.148,0.96134 -0.42667,1.69067 -0.832,2.192 -0.46933,0.588 -1.14,0.88134 -2.01467,0.88134 -0.82266,0 -1.45733,-0.284 -1.90666,-0.84934 -0.40267,-0.50133 -0.672,-1.18266 -0.80534,-2.048 -0.13333,-0.864 -0.2,-1.94666 -0.2,-3.248 z m 1.04,0.272 c 0,1.85734 0.13734,3.15467 0.41467,3.89734 0.27733,0.74 0.75733,1.10933 1.44133,1.10933 0.55467,0 0.96934,-0.21067 1.248,-0.63867 0.49067,-0.768 0.73734,-2.25066 0.73734,-4.448 0,-1.856 -0.0973,-3.12533 -0.28934,-3.80933 -0.27733,-1.00267 -0.85466,-1.50267 -1.72933,-1.50267 -0.672,0 -1.144,0.388 -1.41467,1.168 -0.27333,0.77734 -0.408,2.18667 -0.408,4.224"
       inkscape:connector-curvature="0" />
    <path
       id="path72"
       style="fill:#bcbebf;fill-opacity:1;fill-rule:nonzero;stroke:none"
       d="m 414.80429,625.49162 4.75333,0 0,0.976 -5.79333,0 0,-0.83067 c 0,-0.676 0.11333,-1.22533 0.33733,-1.652 0.096,-0.19333 0.70267,-0.86133 1.824,-2.00266 0.45734,-0.472 0.90934,-0.94134 1.34934,-1.41067 0.44533,-0.47067 0.75066,-0.89867 0.92266,-1.284 0.21334,-0.47867 0.31867,-1.02933 0.31867,-1.65067 0,-0.55466 -0.11467,-1.03866 -0.35067,-1.45866 -0.288,-0.51067 -0.68133,-0.768 -1.184,-0.768 -0.076,0 -0.18933,0 -0.336,0 -0.66266,0 -1.14266,0.28266 -1.44266,0.848 -0.232,0.44666 -0.35067,1.06266 -0.35067,1.84133 l -0.99067,0 c 0,-1.02533 0.21734,-1.84533 0.65467,-2.46533 0.51333,-0.71334 1.248,-1.07067 2.20933,-1.07067 0.84,0 1.52534,0.28667 2.048,0.86267 0.52134,0.57733 0.784,1.35066 0.784,2.32 0,0.79066 -0.23066,1.568 -0.68666,2.336 -0.34534,0.57733 -0.884,1.23333 -1.61867,1.96933 -0.59733,0.576 -1.19467,1.152 -1.79333,1.728 -0.15734,0.16133 -0.292,0.35067 -0.39734,0.57733 -0.17066,0.35067 -0.25733,0.72934 -0.25733,1.13467 z m 7.10533,0 4.75334,0 0,0.976 -5.792,0 0,-0.83067 c 0,-0.676 0.11066,-1.22533 0.33466,-1.652 0.0947,-0.19333 0.704,-0.86133 1.824,-2.00266 0.45867,-0.472 0.908,-0.94134 1.352,-1.41067 0.44267,-0.47067 0.75067,-0.89867 0.92134,-1.284 0.21066,-0.47867 0.32,-1.02933 0.32,-1.65067 0,-0.55466 -0.11734,-1.03866 -0.352,-1.45866 -0.288,-0.51067 -0.68267,-0.768 -1.184,-0.768 -0.076,0 -0.188,0 -0.336,0 -0.66267,0 -1.14267,0.28266 -1.44134,0.848 -0.23333,0.44666 -0.35333,1.06266 -0.35333,1.84133 l -0.992,0 c 0,-1.02533 0.22,-1.84533 0.65867,-2.46533 0.50933,-0.71334 1.248,-1.07067 2.20666,-1.07067 0.84267,0 1.52534,0.28667 2.05067,0.86267 0.52133,0.57733 0.78267,1.35066 0.78267,2.32 0,0.79066 -0.232,1.568 -0.68934,2.336 -0.34133,0.57733 -0.88,1.23333 -1.616,1.96933 -0.59733,0.576 -1.19466,1.152 -1.792,1.728 -0.16,0.16133 -0.292,0.35067 -0.4,0.57733 -0.17066,0.35067 -0.256,0.72934 -0.256,1.13467 z m 6.112,-4.944 c 0,-2.33733 0.3,-3.968 0.89734,-4.89733 0.47066,-0.72534 1.17466,-1.08667 2.112,-1.08667 0.83333,0 1.488,0.31867 1.968,0.95867 0.37466,0.50133 0.63333,1.22666 0.78533,2.17733 0.10667,0.672 0.15733,1.444 0.15733,2.32 l 0,0.79867 c 0,1.196 -0.0507,2.12933 -0.15733,2.8 -0.152,0.96133 -0.42667,1.69333 -0.83467,2.19333 -0.468,0.588 -1.14133,0.88133 -2.01466,0.88133 -0.82134,0 -1.456,-0.284 -1.904,-0.84933 -0.40534,-0.50133 -0.67467,-1.184 -0.808,-2.048 -0.13467,-0.864 -0.20134,-1.94667 -0.20134,-3.248 z m 1.044,0.27067 c 0,1.85733 0.13734,3.15466 0.41334,3.89733 0.27866,0.74267 0.75733,1.112 1.44,1.112 0.55466,0 0.97333,-0.21467 1.248,-0.64 0.49066,-0.76933 0.736,-2.25067 0.736,-4.44933 0,-1.85467 -0.0947,-3.12534 -0.28934,-3.80667 -0.276,-1.004 -0.85066,-1.50533 -1.724,-1.50533 -0.67466,0 -1.14666,0.38933 -1.41866,1.168 -0.27067,0.77866 -0.40534,2.18666 -0.40534,4.224"
       inkscape:connector-curvature="0" />
    <path
       id="path76"
       style="fill:#d3d5d5;fill-opacity:1;fill-rule:evenodd;stroke:none"
       d="m 318.01629,620.26762 55.396,0 c 12.03867,0 21.884,9.85467 21.884,21.88267 l 0,25.07733 c 0,3.28667 -2.704,5.992 -5.99067,5.992 l -87.17999,0 c -3.29067,0 -5.99467,-2.69733 -5.99467,-5.992 l 0,-25.07733 c 0,-12.036 9.848,-21.88267 21.88533,-21.88267"
       inkscape:connector-curvature="0" />
    <path
       id="path82" class="color-change-aware"
       style="fill:#bcbebf;fill-opacity:1;fill-rule:nonzero;stroke:none"
       d="m 331.70963,515.12496 0,-10.72 2.13733,0 2.536,7.58933 c 0.23467,0.70667 0.404,1.236 0.512,1.588 0.12133,-0.38933 0.312,-0.96267 0.56933,-1.71867 l 2.568,-7.45866 1.90934,0 0,10.72 -1.37067,0 0,-8.972 -3.11467,8.972 -1.27866,0 -3.09867,-9.124 0,9.124 -1.36933,0 z m 12.52,0 0,-10.72 4.04133,0 c 0.712,0 1.25467,0.036 1.628,0.104 0.528,0.0867 0.97067,0.25466 1.328,0.50133 0.352,0.244 0.64133,0.59067 0.85733,1.032 0.216,0.44533 0.324,0.93067 0.324,1.46267 0,0.912 -0.29066,1.684 -0.868,2.316 -0.58133,0.62933 -1.62933,0.94666 -3.144,0.94666 l -2.75066,0 0,4.35734 -1.416,0 z m 1.416,-5.624 2.77333,0 c 0.91467,0 1.56667,-0.168 1.95067,-0.51067 0.38533,-0.34133 0.576,-0.82133 0.576,-1.44 0,-0.44933 -0.11067,-0.83333 -0.34,-1.15333 -0.22534,-0.31734 -0.52267,-0.528 -0.89334,-0.63067 -0.24133,-0.0627 -0.68,-0.096 -1.324,-0.096 l -2.74266,0 z m 8.61333,5.624 0,-10.72 1.42133,0 0,4.40266 5.568,0 0,-4.40266 1.42133,0 0,10.72 -1.42133,0 0,-5.052 -5.568,0 0,5.052 -1.42133,0"
       inkscape:connector-curvature="0" />
    <path
       id="path84" class="color-change-aware"
       style="fill:#bcbebf;fill-opacity:1;fill-rule:nonzero;stroke:none"
       d="m 332.50029,531.03696 0,-10.72 1.31734,0 0,6.112 3.116,-3.156 1.70133,0 -2.968,2.87733 3.26933,4.88667 -1.62533,0 -2.56533,-3.97334 -0.928,0.89467 0,3.07867 -1.31734,0 z m 7.48267,0 0,-7.764 1.17467,0 0,1.08666 c 0.24533,-0.38 0.57066,-0.68533 0.972,-0.916 0.404,-0.23066 0.86666,-0.35066 1.384,-0.35066 0.57333,0 1.04533,0.12133 1.412,0.36133 0.36933,0.23867 0.632,0.57067 0.78,1 0.61466,-0.90533 1.41333,-1.36133 2.39733,-1.36133 0.772,0 1.36267,0.216 1.77467,0.64266 0.41733,0.428 0.62533,1.08267 0.62533,1.96934 l 0,5.332 -1.31067,0 0,-4.892 c 0,-0.52667 -0.0387,-0.90667 -0.124,-1.13867 -0.0907,-0.22933 -0.244,-0.41733 -0.46666,-0.56 -0.22267,-0.14 -0.488,-0.21067 -0.79067,-0.21067 -0.54667,0 -0.99733,0.18134 -1.36,0.54667 -0.36,0.36133 -0.54267,0.94267 -0.54267,1.74133 l 0,4.51334 -1.31466,0 0,-5.04534 c 0,-0.58533 -0.10667,-1.02533 -0.32134,-1.316 -0.21333,-0.29333 -0.56266,-0.44 -1.05333,-0.44 -0.36933,0 -0.71067,0.0973 -1.02533,0.29334 -0.312,0.196 -0.544,0.48 -0.68534,0.85466 -0.14,0.37467 -0.20933,0.91734 -0.20933,1.624 l 0,4.02934 -1.316,0 z m 11.484,0.18133 3.104,-11.084 1.05733,0 -3.10133,11.084 -1.06,0 z m 5.14933,-0.18133 0,-10.72 1.312,0 0,3.84666 c 0.61733,-0.712 1.392,-1.07066 2.328,-1.07066 0.57333,0 1.07333,0.116 1.49733,0.34266 0.42667,0.22667 0.728,0.54 0.90934,0.94134 0.184,0.39866 0.276,0.97866 0.276,1.736 l 0,4.924 -1.316,0 0,-4.924 c 0,-0.65467 -0.144,-1.13467 -0.42667,-1.43334 -0.28667,-0.3 -0.69067,-0.452 -1.21333,-0.452 -0.388,0 -0.75334,0.10267 -1.09867,0.30534 -0.344,0.20133 -0.58933,0.476 -0.73467,0.82266 -0.14666,0.344 -0.22133,0.824 -0.22133,1.43334 l 0,4.248 -1.312,0"
       inkscape:connector-curvature="0" />
    <path
       transform="translate(9.2976339e-7,2.0722814e-6)"
       id="path18"
       style="fill:#bcbebf;fill-opacity:1;fill-rule:evenodd;stroke:none"
       d="m 174.1203,581.30095 -11.17334,0.62534 0.16934,3.01066 11.176,-0.62533 c -0.0627,-1.00133 -0.12267,-2.004 -0.172,-3.01067 z m 0.70266,9.56934 -11.10666,1.24533 0.34133,2.996 11.11067,-1.24533 c -0.12,-0.99867 -0.24134,-1.99467 -0.34534,-2.996 z m -0.55333,-28.39067 -11.17733,-0.60133 -0.16134,3.00666 11.17734,0.60267 c 0.048,-1.004 0.1,-2.00933 0.16133,-3.008 z m 4.06933,-28.10533 -10.88266,-2.42533 -0.652,2.94 10.89333,2.428 c 0.20933,-0.98267 0.416,-1.96667 0.64133,-2.94267 z m 8.68934,-27.04133 -10.34,-4.188 -1.128,2.79333 10.32933,4.18267 c 0.37067,-0.93334 0.75333,-1.86134 1.13867,-2.788 z m 13.044,-25.22799 -9.532,-5.84534 -1.57467,2.568 9.52267,5.84267 c 0.52266,-0.86 1.05066,-1.71467 1.584,-2.56533 z m 17.01733,-22.732 -8.45733,-7.35067 -1.97467,2.27333 8.45067,7.34934 c 0.65466,-0.76267 1.316,-1.51867 1.98133,-2.272 z m 20.50933,-19.63867 -7.12667,-8.64133 -2.32533,1.91866 7.12667,8.64534 c 0.768,-0.648 1.544,-1.288 2.32533,-1.92267 z m 23.452,-16.00933 -5.58933,-9.67334 -2.612,1.50934 5.59466,9.67866 c 0.864,-0.512 1.73067,-1.016 2.60667,-1.51466 z m 25.77067,-11.92934 -3.91067,-10.436 -2.82133,1.05734 3.916,10.44533 c 0.936,-0.36133 1.87333,-0.72267 2.816,-1.06667 z m 27.404,-7.47333 -2.14534,-10.96133 -2.95733,0.57866 2.14133,10.94934 c 0.984,-0.2 1.97067,-0.38267 2.96134,-0.56667 z m 28.25466,-2.852 -0.31066,-11.19333 -3.012,0.084 0.308,11.196 c 1.00266,-0.036 2.00666,-0.0653 3.01466,-0.0867 z m 28.33733,1.79333 1.53467,-11.068 -2.98267,-0.41333 -1.53466,11.064 c 0.99466,0.12933 1.98933,0.272 2.98266,0.41733 z m 27.66267,6.43867 3.33067,-10.64533 -2.876,-0.90134 -3.33334,10.64667 c 0.96134,0.29067 1.92134,0.59467 2.87867,0.9 z m 26.20667,10.93467 5.048,-9.96134 -2.688,-1.36 -5.04534,9.964 c 0.9,0.44667 1.796,0.896 2.68534,1.35734 z m 24.04533,15.11466 6.636,-9.01466 -2.43333,-1.78534 -6.63734,9.01734 c 0.816,0.58933 1.632,1.18 2.43467,1.78266 z m 39.08533,40.936 9.19596,-6.36666 -1.7173,-2.48 -9.19866,6.368 c 0.58,0.82133 1.156,1.64666 1.72,2.47866 z m -17.85333,-22.08 8.032,-7.80666 -2.10133,-2.16 -8.03734,7.808 c 0.708,0.71466 1.41334,1.43066 2.10667,2.15866 z m 31.83469,46.79866 10.1,-4.756 -1.2854,-2.72533 -10.0946,4.74933 c 0.4373,0.90533 0.86,1.81867 1.28,2.732 z m 9.6973,26.69067 10.7427,-3.02667 -0.8147,-2.89733 -10.74,3.02266 c 0.28,0.964 0.548,1.93067 0.812,2.90134 z m -341.48798,96.16533 10.73466,-3.02134 c -0.28133,-0.96266 -0.54933,-1.932 -0.81066,-2.90133 l -10.74134,3.02533 0.81734,2.89734 z m 10.80933,28.24933 10.08933,-4.748 c -0.44,-0.904 -0.85733,-1.81867 -1.27866,-2.73067 l -10.09467,4.75334 1.284,2.72533 z m 321.64535,15.09733 -9.5254,-5.84533 c -0.5213,0.86133 -1.052,1.71467 -1.5853,2.56533 l 9.5347,5.85067 1.576,-2.57067 z m 13.4053,-27.112 -10.332,-4.184 c -0.368,0.93467 -0.752,1.86267 -1.1373,2.78934 l 10.3413,4.188 1.128,-2.79334 z m 8.76,-28.94933 -10.896,-2.428 c -0.2093,0.98133 -0.4173,1.96533 -0.644,2.94267 l 10.8853,2.42533 0.6547,-2.94 z m 3.8707,-29.996 -11.1787,-0.60267 c -0.043,1.00534 -0.1,2.008 -0.1627,3.008 l 11.1787,0.60267 0.1627,-3.008 z m -1.124,-30.228 -11.1147,1.248 c 0.12,0.996 0.2413,1.99333 0.3427,2.996 l 11.1066,-1.24533 -0.3346,-2.99867 z m -352.24935,1.60134 -11.11733,-1.224 -0.32667,2.99333 11.11067,1.224 c 0.0987,-1.00267 0.21866,-1.99734 0.33333,-2.99333 z m 5.64667,-27.832 -10.736,-3.02934 -0.816,2.89734 10.74133,3.032 c 0.26533,-0.968 0.532,-1.936 0.81067,-2.9 z m 10.18,-26.516 -10.08934,-4.756 -1.28266,2.724 10.09466,4.76 c 0.41867,-0.91334 0.84134,-1.82534 1.27734,-2.728 z m 14.43466,-24.45866 c -0.57866,0.82133 -1.152,1.64533 -1.71733,2.48 l -9.18933,-6.37333 1.716,-2.47734 9.19066,6.37067 z m 18.25467,-21.748 c -0.70667,0.712 -1.40933,1.42933 -2.104,2.156 l -8.02667,-7.808 2.10134,-2.15867 8.02933,7.81067 z m 21.572,-18.46933 c -0.81467,0.58933 -1.62934,1.17866 -2.43467,1.78266 l -6.624,-9.01466 2.432,-1.788 6.62667,9.02 z m 24.312,-14.67467 -5.04134,-9.964 -2.68933,1.36133 5.03467,9.96134 c 0.89466,-0.46134 1.796,-0.912 2.696,-1.35867 z m 26.40533,-10.456 -3.328,-10.648 -2.87733,0.89733 3.328,10.64934 c 0.95466,-0.30667 1.912,-0.608 2.87733,-0.89867 z m 27.77067,-5.93867 -1.52667,-11.068 -2.98667,0.41467 1.53067,11.07067 c 0.99333,-0.14667 1.98533,-0.292 2.98267,-0.41734 z m 28.37066,-1.27066 0.31467,-11.196 -3.01333,-0.0853 -0.31867,11.19333 c 1.008,0.024 2.01333,0.0507 3.01733,0.088 z m 28.19733,3.34933 2.14534,-10.94533 -2.95334,-0.58 -2.15066,10.96 c 0.98933,0.18133 1.97866,0.36266 2.95866,0.56533 z m 27.25467,7.99333 3.92267,-10.444 -2.824,-1.06 -3.91734,10.43334 c 0.944,0.34533 1.88,0.708 2.81867,1.07066 z m 25.54933,12.392 5.604,-9.67733 -2.60666,-1.50667 -5.59867,9.67067 c 0.87467,0.49733 1.74,1.00267 2.60133,1.51333 z m 23.16134,16.43467 c -0.76934,-0.648 -1.54267,-1.28933 -2.324,-1.924 l 7.132,-8.64 2.328,1.91867 -7.136,8.64533 z m 36.75602,43.036 c -0.5187,-0.86267 -1.0494,-1.71467 -1.5827,-2.568 l 9.5387,-5.84267 1.576,2.572 -9.532,5.83867 z m -16.60269,-23.03333 c -0.65333,-0.76534 -1.316,-1.52267 -1.98133,-2.276 l 8.464,-7.34934 1.97866,2.27467 -8.46133,7.35067 z m 29.19069,48.49199 10.336,-4.17734 -1.132,-2.796 -10.344,4.18267 c 0.3866,0.92667 0.7706,1.856 1.14,2.79067 z m 8.176,27.19733 10.8973,-2.42267 -0.6533,-2.93866 -10.8854,2.41866 c 0.2254,0.97734 0.4307,1.96 0.6414,2.94267 z m -346.32268,76.95333 10.884,-2.41867 c -0.22534,-0.97466 -0.432,-1.95866 -0.64134,-2.94266 l -10.896,2.42266 0.65334,2.93867 z m 9.216,28.808 10.34133,-4.18 c -0.38667,-0.92667 -0.772,-1.85467 -1.14267,-2.78933 l -10.328,4.176 1.12934,2.79333 z m 13.83733,26.89867 9.53333,-5.84 c -0.536,-0.85334 -1.06666,-1.708 -1.58666,-2.57067 l -9.52534,5.83733 1.57867,2.57334 z m 306.46535,6.13066 -1.7187,2.47734 -9.19466,-6.37467 c 0.58,-0.82 1.15334,-1.64667 1.72,-2.47867 l 9.19336,6.376 z m 14.8986,-26.32266 -10.0946,-4.76134 c -0.4227,0.91334 -0.8454,1.82534 -1.28,2.72934 l 10.0906,4.75733 1.284,-2.72533 z m 10.3587,-28.41467 -10.7387,-3.03333 c -0.264,0.96933 -0.5333,1.93733 -0.8146,2.9 l 10.736,3.03066 0.8173,-2.89733 z m 5.5413,-29.73467 -11.112,-1.22266 c -0.099,1.00133 -0.22,1.99866 -0.3373,2.99466 l 11.1187,1.22267 0.3306,-2.99467 z m 0.5627,-30.24133 -11.1773,0.624 c 0.064,1.00267 0.1253,2.00533 0.1733,3.01067 l 11.1733,-0.624 -0.1693,-3.01067"
       inkscape:connector-curvature="0" />
    <ellipse
       style="fill:#000000"
       id="path3369"
       cx="71.463005"
       cy="701.78052"
       rx="34.597725"
       ry="17.172592"
       transform="matrix(0.97711773,-0.21269919,0.21269919,0.97711773,0,0)" />
    <ellipse
       style="fill:#000000"
       id="path3371"
       cx="243.59213"
       cy="678.09821"
       rx="1.0101526"
       ry="1.5152289" />
  </g>
</svg>
