<?xml version="1.0" encoding="UTF-8" standalone="no"?>
<svg
   xmlns:dc="http://purl.org/dc/elements/1.1/"
   xmlns:cc="http://creativecommons.org/ns#"
   xmlns:rdf="http://www.w3.org/1999/02/22-rdf-syntax-ns#"
   xmlns:svg="http://www.w3.org/2000/svg"
   xmlns="http://www.w3.org/2000/svg"
   xmlns:sodipodi="http://sodipodi.sourceforge.net/DTD/sodipodi-0.dtd"
   xmlns:inkscape="http://www.inkscape.org/namespaces/inkscape"
   viewBox="0 0 375 375"
   height="375"
   width="375"
   xml:space="preserve"
   version="1.1"
   id="svg2"
   inkscape:version="0.91 r13725"
   sodipodi:docname="new-panel.svg"><sodipodi:namedview
     pagecolor="#ffffff"
     bordercolor="#666666"
     borderopacity="1"
     objecttolerance="10"
     gridtolerance="10"
     guidetolerance="10"
     inkscape:pageopacity="0"
     inkscape:pageshadow="2"
     inkscape:window-width="1916"
     inkscape:window-height="982"
     id="namedview930"
     showgrid="false"
     inkscape:zoom="1.2586667"
     inkscape:cx="375"
     inkscape:cy="247.88136"
     inkscape:window-x="0"
     inkscape:window-y="0"
     inkscape:window-maximized="0"
     inkscape:current-layer="svg2" /><metadata
     id="metadata8"><rdf:RDF><cc:Work
         rdf:about=""><dc:format>image/svg+xml</dc:format><dc:type
           rdf:resource="http://purl.org/dc/dcmitype/StillImage" /><dc:title></dc:title></cc:Work></rdf:RDF></metadata><defs
     id="defs6"><clipPath
       id="clipPath20"
       clipPathUnits="userSpaceOnUse"><path
         id="path22"
         d="m 4881.96,626.211 c 0,-18.371 -12.61,-33.215 -28.16,-33.215 l -663.64,0 c -15.55,0 -28.2,14.844 -28.2,33.215 l 0,88.633 c 0,18.371 12.65,33.23 28.2,33.23 l 663.64,0 c 15.55,0 28.16,-14.859 28.16,-33.23 l 0,-88.633"
         inkscape:connector-curvature="0" /></clipPath><clipPath
       id="clipPath32"
       clipPathUnits="userSpaceOnUse"><path
         id="path34"
         d="m 4289.35,628.672 c 0,-7.481 -6.42,-13.527 -14.39,-13.527 l -59.85,0 c -7.95,0 -14.36,6.046 -14.36,13.527 l 0,83.719 c 0,7.472 6.41,13.527 14.36,13.527 l 59.85,0 c 7.97,0 14.39,-6.055 14.39,-13.527 l 0,-83.719"
         inkscape:connector-curvature="0" /></clipPath><clipPath
       id="clipPath54"
       clipPathUnits="userSpaceOnUse"><path
         id="path56"
         d="m 4400.1,628.672 c 0,-7.481 -6.39,-13.527 -14.36,-13.527 l -59.86,0 c -7.93,0 -14.39,6.046 -14.39,13.527 l 0,83.719 c 0,7.472 6.46,13.527 14.39,13.527 l 59.86,0 c 7.97,0 14.36,-6.055 14.36,-13.527 l 0,-83.719"
         inkscape:connector-curvature="0" /></clipPath><clipPath
       id="clipPath76"
       clipPathUnits="userSpaceOnUse"><path
         id="path78"
         d="m 4510.9,628.672 c 0,-7.481 -6.48,-13.527 -14.38,-13.527 l -59.86,0 c -7.93,0 -14.37,6.046 -14.37,13.527 l 0,83.719 c 0,7.472 6.44,13.527 14.37,13.527 l 59.86,0 c 7.9,0 14.38,-6.055 14.38,-13.527 l 0,-83.719"
         inkscape:connector-curvature="0" /></clipPath><clipPath
       id="clipPath98"
       clipPathUnits="userSpaceOnUse"><path
         id="path100"
         d="m 4732.4,628.672 c 0,-7.481 -6.39,-13.527 -14.34,-13.527 l -59.88,0 c -7.93,0 -14.37,6.046 -14.37,13.527 l 0,83.719 c 0,7.472 6.44,13.527 14.37,13.527 l 59.88,0 c 7.95,0 14.34,-6.055 14.34,-13.527 l 0,-83.719"
         inkscape:connector-curvature="0" /></clipPath><clipPath
       id="clipPath120"
       clipPathUnits="userSpaceOnUse"><path
         id="path122"
         d="m 4621.66,628.672 c 0,-7.481 -6.44,-13.527 -14.34,-13.527 l -59.88,0 c -7.97,0 -14.37,6.046 -14.37,13.527 l 0,83.719 c 0,7.472 6.4,13.527 14.37,13.527 l 59.88,0 c 7.9,0 14.34,-6.055 14.34,-13.527 l 0,-83.719"
         inkscape:connector-curvature="0" /></clipPath><clipPath
       id="clipPath142"
       clipPathUnits="userSpaceOnUse"><path
         id="path144"
         d="m 4843.2,628.672 c 0,-7.481 -6.4,-13.527 -14.37,-13.527 l -59.87,0 c -7.91,0 -14.37,6.046 -14.37,13.527 l 0,83.719 c 0,7.472 6.46,13.527 14.37,13.527 l 59.87,0 c 7.97,0 14.37,-6.055 14.37,-13.527 l 0,-83.719"
         inkscape:connector-curvature="0" /></clipPath><clipPath
       id="clipPath446"
       clipPathUnits="userSpaceOnUse"><path
         id="path448"
         d="m 4617.63,1404 c 17.88,-53.3 -10.81,-111.01 -64.15,-128.89 -53.32,-17.91 -111.04,10.83 -128.93,64.16 -17.87,53.32 10.86,111.02 64.2,128.93 53.29,17.88 111,-10.85 128.88,-64.2"
         inkscape:connector-curvature="0" /></clipPath><clipPath
       id="clipPath460"
       clipPathUnits="userSpaceOnUse"><path
         id="path462"
         d="m 1665.81,1458.19 c 54.21,-44.78 61.87,-125.02 17.07,-179.24 -44.83,-54.24 -125.06,-61.86 -179.25,-17.04 -54.24,44.76 -61.86,125.02 -17.06,179.24 44.77,54.21 125.02,61.86 179.24,17.04"
         inkscape:connector-curvature="0" /></clipPath><clipPath
       id="clipPath958"
       clipPathUnits="userSpaceOnUse"><path
         id="path960"
         d="m 4382.79,2924.8 c -781.95,0 -1415.83,633.93 -1415.83,1415.86 0,781.96 633.88,1415.85 1415.83,1415.85 781.97,0 1415.85,-633.89 1415.85,-1415.85 0,-781.93 -633.88,-1415.86 -1415.85,-1415.86 m 0,2885.86 c -811.85,0 -1470,-658.12 -1470,-1470 0,-811.86 658.15,-1469.99 1470,-1469.99 811.87,0 1470,658.13 1470,1469.99 0,811.88 -658.13,1470 -1470,1470"
         inkscape:connector-curvature="0" /></clipPath><clipPath
       id="clipPath970"
       clipPathUnits="userSpaceOnUse"><path
         id="path972"
         d="m 4382.79,3009.92 c -734.95,0 -1330.74,595.8 -1330.74,1330.74 0,734.95 595.79,1330.75 1330.74,1330.75 734.95,0 1330.77,-595.8 1330.77,-1330.75 0,-734.94 -595.82,-1330.74 -1330.77,-1330.74 m 0,2746.59 c -781.95,0 -1415.83,-633.89 -1415.83,-1415.85 0,-781.93 633.88,-1415.86 1415.83,-1415.86 781.97,0 1415.85,633.93 1415.85,1415.86 0,781.96 -633.88,1415.85 -1415.85,1415.85"
         inkscape:connector-curvature="0" /></clipPath><clipPath
       id="clipPath988"
       clipPathUnits="userSpaceOnUse"><path
         id="path990"
         d="m 4576.21,4340.66 c 0,-106.82 -86.6,-193.43 -193.42,-193.43 -106.81,0 -193.41,86.61 -193.41,193.43 0,106.82 86.6,193.41 193.41,193.41 106.82,0 193.42,-86.59 193.42,-193.41"
         inkscape:connector-curvature="0" /></clipPath><clipPath
       id="clipPath1256"
       clipPathUnits="userSpaceOnUse"><path
         id="path1258"
         d="m 4885.7,3362.64 c 0,-25.66 -17.66,-46.41 -39.37,-46.41 l -927.09,0 c -21.72,0 -39.35,20.75 -39.35,46.41 l 0,123.81 c 0,25.66 17.63,46.41 39.35,46.41 l 927.09,0 c 21.71,0 39.37,-20.75 39.37,-46.41 l 0,-123.81"
         inkscape:connector-curvature="0" /></clipPath><clipPath
       id="clipPath1268"
       clipPathUnits="userSpaceOnUse"><path
         id="path1270"
         d="m 4057.83,3366.09 c 0,-10.45 -8.98,-18.9 -20.09,-18.9 l -83.61,0 c -11.11,0 -20.08,8.45 -20.08,18.9 l 0,116.9 c 0,10.46 8.97,18.92 20.08,18.92 l 83.61,0 c 11.11,0 20.09,-8.46 20.09,-18.92 l 0,-116.9"
         inkscape:connector-curvature="0" /></clipPath><clipPath
       id="clipPath1288"
       clipPathUnits="userSpaceOnUse"><path
         id="path1290"
         d="m 4036.87,3425.84 c 0,-41.01 -15.23,-63.64 -41.96,-63.64 -23.55,0 -39.53,22.05 -39.87,61.99 0,40.44 17.42,62.69 41.91,62.69 25.44,0 39.92,-22.64 39.92,-61.04 z m -65.51,-1.84 c 0,-31.37 9.63,-49.2 24.5,-49.2 16.68,0 24.65,19.5 24.65,50.27 0,29.72 -7.6,49.22 -24.47,49.22 -14.29,0 -24.68,-17.46 -24.68,-50.29"
         inkscape:connector-curvature="0" /></clipPath><clipPath
       id="clipPath1304"
       clipPathUnits="userSpaceOnUse"><path
         id="path1306"
         d="m 4212.57,3366.09 c 0,-10.45 -8.98,-18.9 -20.09,-18.9 l -83.61,0 c -11.1,0 -20.08,8.45 -20.08,18.9 l 0,116.9 c 0,10.46 8.98,18.92 20.08,18.92 l 83.61,0 c 11.11,0 20.09,-8.46 20.09,-18.92 l 0,-116.9"
         inkscape:connector-curvature="0" /></clipPath><clipPath
       id="clipPath1324"
       clipPathUnits="userSpaceOnUse"><path
         id="path1326"
         d="m 4191.61,3425.84 c 0,-41.01 -15.24,-63.64 -41.96,-63.64 -23.56,0 -39.54,22.05 -39.88,61.99 0,40.44 17.43,62.69 41.93,62.69 25.43,0 39.91,-22.64 39.91,-61.04 z m -65.52,-1.84 c 0,-31.37 9.65,-49.2 24.5,-49.2 16.71,0 24.69,19.5 24.69,50.27 0,29.72 -7.61,49.22 -24.53,49.22 -14.28,0 -24.66,-17.46 -24.66,-50.29"
         inkscape:connector-curvature="0" /></clipPath><clipPath
       id="clipPath1340"
       clipPathUnits="userSpaceOnUse"><path
         id="path1342"
         d="m 4367.32,3366.09 c 0,-10.45 -9,-18.9 -20.09,-18.9 l -83.62,0 c -11.11,0 -20.09,8.45 -20.09,18.9 l 0,116.9 c 0,10.46 8.98,18.92 20.09,18.92 l 83.62,0 c 11.09,0 20.09,-8.46 20.09,-18.92 l 0,-116.9"
         inkscape:connector-curvature="0" /></clipPath><clipPath
       id="clipPath1360"
       clipPathUnits="userSpaceOnUse"><path
         id="path1362"
         d="m 4266.9,3363.19 0,10.03 12.81,12.44 c 30.82,29.3 44.74,44.9 44.9,63.08 0,12.24 -5.92,23.59 -23.92,23.59 -10.98,0 -20.04,-5.57 -25.62,-10.22 l -5.18,11.51 c 8.35,7.04 20.23,12.24 34.14,12.24 25.97,0 36.92,-17.79 36.92,-35.06 0,-22.26 -16.12,-40.28 -41.55,-64.76 l -9.69,-8.92 0,-0.36 54.24,0 0,-13.57 -77.05,0"
         inkscape:connector-curvature="0" /></clipPath><clipPath
       id="clipPath1376"
       clipPathUnits="userSpaceOnUse"><path
         id="path1378"
         d="m 4676.79,3366.09 c 0,-10.45 -8.99,-18.9 -20.09,-18.9 l -83.62,0 c -11.08,0 -20.1,8.45 -20.1,18.9 l 0,116.9 c 0,10.46 9.02,18.92 20.1,18.92 l 83.62,0 c 11.1,0 20.09,-8.46 20.09,-18.92 l 0,-116.9"
         inkscape:connector-curvature="0" /></clipPath><clipPath
       id="clipPath1396"
       clipPathUnits="userSpaceOnUse"><path
         id="path1398"
         d="m 4581.68,3382.95 c 4.61,-2.96 15.39,-7.57 26.7,-7.57 21,0 27.48,13.33 27.3,23.35 -0.19,16.9 -15.4,24.14 -31.19,24.14 l -9.08,0 0,12.25 9.08,0 c 11.87,0 26.92,6.13 26.92,20.39 0,9.67 -6.15,18.2 -21.16,18.2 -9.66,0 -18.92,-4.25 -24.14,-7.98 l -4.27,11.88 c 6.34,4.65 18.57,9.27 31.55,9.27 23.76,0 34.54,-14.08 34.54,-28.77 0,-12.42 -7.45,-22.99 -22.28,-28.38 l 0,-0.35 c 14.83,-2.99 26.94,-14.12 26.94,-31.02 0,-19.3 -15.05,-36.16 -44,-36.16 -13.55,0 -25.43,4.26 -31.37,8.15 l 4.46,12.6"
         inkscape:connector-curvature="0" /></clipPath><clipPath
       id="clipPath1412"
       clipPathUnits="userSpaceOnUse"><path
         id="path1414"
         d="m 4522.05,3366.09 c 0,-10.45 -9.01,-18.9 -20.08,-18.9 l -83.63,0 c -11.08,0 -20.08,8.45 -20.08,18.9 l 0,116.9 c 0,10.46 9,18.92 20.08,18.92 l 83.63,0 c 11.07,0 20.08,-8.46 20.08,-18.92 l 0,-116.9"
         inkscape:connector-curvature="0" /></clipPath><clipPath
       id="clipPath1432"
       clipPathUnits="userSpaceOnUse"><path
         id="path1434"
         d="m 4489.64,3473.41 c -3.34,0.21 -7.59,0 -12.25,-0.73 -25.61,-4.25 -39.15,-23.03 -41.94,-42.89 l 0.56,0 c 5.77,7.62 15.77,13.95 29.14,13.95 21.35,0 36.38,-15.42 36.38,-38.99 0,-22.07 -15.03,-42.49 -40.08,-42.49 -25.81,0 -42.68,20.04 -42.68,51.39 0,23.76 8.53,42.5 20.41,54.38 10,9.86 23.36,15.96 38.6,17.83 4.83,0.71 8.9,0.94 11.86,0.94 l 0,-13.39 z m -28,-98.52 c 13.91,0 23.36,11.7 23.36,28.94 0,17.26 -9.82,27.67 -24.84,27.67 -9.84,0 -18.95,-6.15 -23.4,-14.87 -1.12,-1.85 -1.84,-4.25 -1.84,-7.24 0.37,-19.84 9.46,-34.5 26.53,-34.5 l 0.19,0"
         inkscape:connector-curvature="0" /></clipPath><clipPath
       id="clipPath1448"
       clipPathUnits="userSpaceOnUse"><path
         id="path1450"
         d="m 4831.52,3366.09 c 0,-10.45 -8.98,-18.9 -20.08,-18.9 l -83.63,0 c -11.1,0 -20.08,8.45 -20.08,18.9 l 0,116.9 c 0,10.46 8.98,18.92 20.08,18.92 l 83.63,0 c 11.1,0 20.08,-8.46 20.08,-18.92 l 0,-116.9"
         inkscape:connector-curvature="0" /></clipPath><clipPath
       id="clipPath1468"
       clipPathUnits="userSpaceOnUse"><path
         id="path1470"
         d="m 4807.65,3484.86 0,-10.77 -52.49,-109.87 -16.89,0 52.33,106.72 0,0.36 -59.01,0 0,13.56 76.06,0"
         inkscape:connector-curvature="0" /></clipPath><clipPath
       id="clipPath1768"
       clipPathUnits="userSpaceOnUse"><path
         id="path1770"
         d="m 1545.94,4259.24 c 19.9,-59.33 -12.04,-123.54 -71.38,-143.45 -59.35,-19.91 -123.56,12.07 -143.43,71.41 -19.9,59.31 12.07,123.52 71.39,143.43 59.32,19.9 123.51,-12.07 143.42,-71.39"
         inkscape:connector-curvature="0" /></clipPath></defs><g
     id="g954"
     transform="matrix(0.125,0,0,-0.125,-359.54582,731.1751)"><g
       clip-path="url(#clipPath958)"
       id="g956"><path
         id="path962"
         d="m 4382.79,2924.8 c -781.95,0 -1415.83,633.93 -1415.83,1415.86 0,781.96 633.88,1415.85 1415.83,1415.85 781.97,0 1415.85,-633.89 1415.85,-1415.85 0,-781.93 -633.88,-1415.86 -1415.85,-1415.86 m 0,2885.86 c -811.85,0 -1470,-658.12 -1470,-1470 0,-811.86 658.15,-1469.99 1470,-1469.99 811.87,0 1470,658.13 1470,1469.99 0,811.88 -658.13,1470 -1470,1470"
         inkscape:connector-curvature="0" /><path
         id="path964"
         d="m 4382.79,2924.8 c -781.95,0 -1415.83,633.93 -1415.83,1415.86 0,781.96 633.88,1415.85 1415.83,1415.85 781.97,0 1415.85,-633.89 1415.85,-1415.85 0,-781.93 -633.88,-1415.86 -1415.85,-1415.86 m 0,2885.86 c -811.85,0 -1470,-658.12 -1470,-1470 0,-811.86 658.15,-1469.99 1470,-1469.99 811.87,0 1470,658.13 1470,1469.99 0,811.88 -658.13,1470 -1470,1470"
         inkscape:connector-curvature="0" /></g></g><g
     id="g966"
     transform="matrix(0.125,0,0,-0.125,-359.54582,731.1751)"><g
       clip-path="url(#clipPath970)"
       id="g968"><path
         id="path974"
         d="m 4382.79,3009.92 c -734.95,0 -1330.74,595.8 -1330.74,1330.74 0,734.95 595.79,1330.75 1330.74,1330.75 734.95,0 1330.77,-595.8 1330.77,-1330.75 0,-734.94 -595.82,-1330.74 -1330.77,-1330.74 m 0,2746.59 c -781.95,0 -1415.83,-633.89 -1415.83,-1415.85 0,-781.93 633.88,-1415.86 1415.83,-1415.86 781.97,0 1415.85,633.93 1415.85,1415.86 0,781.96 -633.88,1415.85 -1415.85,1415.85"
         inkscape:connector-curvature="0" /><path
         id="path976"
         d="m 4382.79,3009.92 c -734.95,0 -1330.74,595.8 -1330.74,1330.74 0,734.95 595.79,1330.75 1330.74,1330.75 734.95,0 1330.77,-595.8 1330.77,-1330.75 0,-734.94 -595.82,-1330.74 -1330.77,-1330.74 m 0,2746.59 c -781.95,0 -1415.83,-633.89 -1415.83,-1415.85 0,-781.93 633.88,-1415.86 1415.83,-1415.86 781.97,0 1415.85,633.93 1415.85,1415.86 0,781.96 -633.88,1415.85 -1415.85,1415.85"
         inkscape:connector-curvature="0" /><path
         id="path978"
         d="m 4382.79,3009.92 c -734.95,0 -1330.74,595.8 -1330.74,1330.74 0,734.95 595.79,1330.75 1330.74,1330.75 734.95,0 1330.77,-595.8 1330.77,-1330.75 0,-734.94 -595.82,-1330.74 -1330.77,-1330.74 m 0,2746.59 c -781.95,0 -1415.83,-633.89 -1415.83,-1415.85 0,-781.93 633.88,-1415.86 1415.83,-1415.86 781.97,0 1415.85,633.93 1415.85,1415.86 0,781.96 -633.88,1415.85 -1415.85,1415.85"
         inkscape:connector-curvature="0" /></g></g><path
     id="path980"
     style="fill:#1b1919;fill-opacity:1;fill-rule:nonzero;stroke:none"
     d="m 354.64918,188.59258 c 0,91.8675 -74.4775,166.3425 -166.34625,166.3425 -91.868751,0 -166.342501,-74.475 -166.342501,-166.3425 0,-91.86875 74.47375,-166.34375 166.342501,-166.34375 91.86875,0 166.34625,74.475 166.34625,166.34375"
     inkscape:connector-curvature="0" /><path
     id="path982"
     style="fill:#2e2d2d;fill-opacity:1;fill-rule:nonzero;stroke:none"
     d="m 347.87918,188.59258 c 0,88.1275 -71.445,159.57625 -159.57625,159.57625 -88.1275,0 -159.572501,-71.44875 -159.572501,-159.57625 0,-88.13125 71.445001,-159.57375 159.572501,-159.57375 88.13125,0 159.57625,71.4425 159.57625,159.57375"
     inkscape:connector-curvature="0" /><path
     id="path998"
     style="fill:#be1c2e;fill-opacity:1;fill-rule:nonzero;stroke:none"
     d="m 189.95918,52.55883 c 0,0.6675 -0.7375,1.20625 -1.65625,1.20625 -0.915,0 -1.6575,-0.53875 -1.6575,-1.20625 l 0,-17.49875 c 0,-0.6675 0.7425,-1.20625 1.6575,-1.20625 0.91875,0 1.65625,0.53875 1.65625,1.20625 l 0,17.49875"
     inkscape:connector-curvature="0" /><path
     id="path1000"
     style="fill:#be1c2e;fill-opacity:1;fill-rule:nonzero;stroke:none"
     d="m 134.49043,63.64633 c 0.2725,0.60625 -0.1875,1.405 -1.025,1.775 -0.835,0.3725 -1.735,0.1825 -2.0075,-0.42875 l -7.11875,-15.985 c -0.27,-0.61125 0.19,-1.40625 1.02375,-1.77625 0.83875,-0.37125 1.73875,-0.185 2.00875,0.4275 l 7.11875,15.9875"
     inkscape:connector-curvature="0" /><path
     id="path1002"
     style="fill:#be1c2e;fill-opacity:1;fill-rule:nonzero;stroke:none"
     d="m 88.324179,96.33258 c 0.4925,0.4475 0.39875,1.3625 -0.21875,2.04375 -0.6075,0.68 -1.50875,0.8725 -2.00125,0.425 l -13.00875,-11.71 c -0.4975,-0.44875 -0.4,-1.3625 0.215,-2.03875 0.6125,-0.68 1.51,-0.87625 2.00625,-0.4275 l 13.0075,11.7075"
     inkscape:connector-curvature="0" /><path
     id="path1004"
     style="fill:#be1c2e;fill-opacity:1;fill-rule:nonzero;stroke:none"
     d="m 59.444179,144.97633 c 0.63125,0.205 0.91625,1.0825 0.63125,1.95125 -0.28,0.86875 -1.0225,1.41 -1.66,1.205 l -16.64375,-5.4075 c -0.63625,-0.2075 -0.91625,-1.08125 -0.63375,-1.94875 0.2875,-0.87125 1.025,-1.4125 1.6625,-1.20625 l 16.64375,5.40625"
     inkscape:connector-curvature="0" /><path
     id="path1006"
     style="fill:#be1c2e;fill-opacity:1;fill-rule:nonzero;stroke:none"
     d="m 52.842929,201.16133 c 0.6625,-0.0713 1.27875,0.6125 1.37375,1.5225 0.095,0.91 -0.36375,1.7075 -1.02625,1.7775 l -17.4075,1.83 c -0.66125,0.0687 -1.27375,-0.6175 -1.37125,-1.5275 -0.0925,-0.90875 0.36375,-1.70625 1.03,-1.77375 l 17.40125,-1.82875"
     inkscape:connector-curvature="0" /><path
     id="path1008"
     style="fill:#be1c2e;fill-opacity:1;fill-rule:nonzero;stroke:none"
     d="m 69.667929,255.16883 c 0.58125,-0.3325 1.41375,0.0413 1.87375,0.8325 0.4575,0.795 0.365,1.70875 -0.215,2.04125 l -15.155,8.75125 c -0.5825,0.33625 -1.41875,-0.0387 -1.875,-0.8325 -0.45875,-0.7975 -0.365,-1.70875 0.21375,-2.03875 l 15.1575,-8.75375"
     inkscape:connector-curvature="0" /><path
     id="path1010"
     style="fill:#be1c2e;fill-opacity:1;fill-rule:nonzero;stroke:none"
     d="m 305.28418,258.04258 c -0.58125,-0.33 -0.67625,-1.2475 -0.21875,-2.04125 0.4625,-0.79 1.295,-1.165 1.87375,-0.8325 l 15.15625,8.75375 c 0.57875,0.33 0.67125,1.2475 0.21375,2.035 -0.45875,0.79375 -1.29375,1.17 -1.8775,0.83375 l -15.1475,-8.74875"
     inkscape:connector-curvature="0" /><path
     id="path1012"
     style="fill:#be1c2e;fill-opacity:1;fill-rule:nonzero;stroke:none"
     d="m 323.41793,204.45758 c -0.66625,-0.065 -1.125,-0.86375 -1.03,-1.77625 0.1,-0.91 0.7075,-1.59 1.3725,-1.52 l 17.405,1.82875 c 0.665,0.0675 1.12125,0.86625 1.03,1.77125 -0.105,0.9125 -0.715,1.59625 -1.38,1.52625 l -17.3975,-1.83"
     inkscape:connector-curvature="0" /><path
     id="path1014"
     style="fill:#be1c2e;fill-opacity:1;fill-rule:nonzero;stroke:none"
     d="m 318.19043,148.13258 c -0.63625,0.2075 -1.37875,-0.33875 -1.66375,-1.20625 -0.27875,-0.87125 0,-1.74 0.635,-1.95 l 16.64375,-5.40625 c 0.63625,-0.21 1.375,0.335 1.65875,1.2025 0.2775,0.87125 0.003,1.745 -0.6325,1.94875 l -16.64125,5.41125"
     inkscape:connector-curvature="0" /><path
     id="path1016"
     style="fill:#be1c2e;fill-opacity:1;fill-rule:nonzero;stroke:none"
     d="m 290.50168,98.80008 c -0.49125,0.45125 -1.395,0.2525 -2.00625,-0.42625 -0.61125,-0.6825 -0.70625,-1.59125 -0.21375,-2.04125 l 13.0075,-11.71125 c 0.495,-0.445 1.395,-0.24875 2.0075,0.43125 0.605,0.6825 0.7075,1.59 0.21,2.03875 l -13.005,11.70875"
     inkscape:connector-curvature="0" /><path
     id="path1018"
     style="fill:#be1c2e;fill-opacity:1;fill-rule:nonzero;stroke:none"
     d="m 245.14418,64.99258 c -0.26625,0.6175 -1.16875,0.80125 -2.005,0.42875 -0.83375,-0.3775 -1.2975,-1.1675 -1.02625,-1.775 l 7.12125,-15.99125 c 0.27,-0.61 1.17125,-0.795 2.00625,-0.425 0.835,0.37625 1.29625,1.16625 1.02125,1.7775 l -7.1175,15.985"
     inkscape:connector-curvature="0" /><path
     id="path1020"
     style="fill:#cdcac9;fill-opacity:1;fill-rule:nonzero;stroke:none"
     d="m 175.55168,44.07258 c 0.1425,1.33125 -0.8275,2.525 -2.15875,2.66375 -1.32875,0.1425 -2.52375,-0.825 -2.6625,-2.15625 -0.14,-1.33125 0.8225,-2.525 2.15625,-2.66625 1.33125,-0.14 2.52375,0.82875 2.665,2.15875"
     inkscape:connector-curvature="0" /><path
     id="path1022"
     style="fill:#cdcac9;fill-opacity:1;fill-rule:nonzero;stroke:none"
     d="m 145.78418,49.88258 c 0.4125,1.2725 -0.28375,2.63875 -1.55875,3.05375 -1.27625,0.41125 -2.64375,-0.28125 -3.05375,-1.5575 -0.415,-1.27 0.2825,-2.63875 1.5575,-3.05375 1.2725,-0.415 2.63875,0.2825 3.055,1.5575"
     inkscape:connector-curvature="0" /><path
     id="path1024"
     style="fill:#cdcac9;fill-opacity:1;fill-rule:nonzero;stroke:none"
     d="m 117.87168,61.75508 c 0.66875,1.1575 0.27375,2.64 -0.88875,3.31 -1.1625,0.67125 -2.63625,0.275 -3.3075,-0.88625 -0.675,-1.15875 -0.27375,-2.645 0.8825,-3.31375 1.1625,-0.66875 2.64625,-0.27375 3.31375,0.89"
     inkscape:connector-curvature="0" /><path
     id="path1026"
     style="fill:#cdcac9;fill-opacity:1;fill-rule:nonzero;stroke:none"
     d="m 93.041679,79.16883 c 0.89375,0.9925 0.81625,2.52875 -0.1825,3.425 -0.99625,0.89625 -2.5275,0.815 -3.42125,-0.18375 -0.8975,-0.99125 -0.81625,-2.525 0.1775,-3.4225 0.9925,-0.89375 2.53125,-0.815 3.42625,0.18125"
     inkscape:connector-curvature="0" /><path
     id="path1028"
     style="fill:#cdcac9;fill-opacity:1;fill-rule:nonzero;stroke:none"
     d="m 72.372929,101.36383 c 1.07875,0.78875 1.32375,2.3075 0.5325,3.3875 -0.78875,1.08625 -2.3025,1.32375 -3.38375,0.535 -1.08625,-0.78125 -1.3225,-2.29875 -0.53625,-3.38375 0.7875,-1.08375 2.30125,-1.32125 3.3875,-0.53875"
     inkscape:connector-curvature="0" /><path
     id="path1030"
     style="fill:#cdcac9;fill-opacity:1;fill-rule:nonzero;stroke:none"
     d="m 56.771679,127.37383 c 1.2225,0.54625 1.7725,1.98375 1.22375,3.205 -0.54625,1.22625 -1.97625,1.7725 -3.19875,1.225 -1.2225,-0.54125 -1.76875,-1.975 -1.2275,-3.19875 0.545,-1.22375 1.98125,-1.77625 3.2025,-1.23125"
     inkscape:connector-curvature="0" /><path
     id="path1032"
     style="fill:#cdcac9;fill-opacity:1;fill-rule:nonzero;stroke:none"
     d="m 46.914179,156.06133 c 1.31125,0.27875 2.14875,1.56625 1.86875,2.87875 -0.28,1.31125 -1.565,2.14375 -2.87625,1.86 -1.3075,-0.2775 -2.14375,-1.5575 -1.86375,-2.8725 0.27625,-1.31125 1.5625,-2.14375 2.87125,-1.86625"
     inkscape:connector-curvature="0" /><path
     id="path1034"
     style="fill:#cdcac9;fill-opacity:1;fill-rule:nonzero;stroke:none"
     d="m 43.241679,186.16508 c 1.3375,0.004 2.4225,1.09125 2.4225,2.43375 0,1.34125 -1.085,2.42125 -2.4225,2.42 -1.34,0.001 -2.42125,-1.08625 -2.42125,-2.42625 0,-1.34 1.08125,-2.4275 2.42125,-2.4275"
     inkscape:connector-curvature="0" /><path
     id="path1036"
     style="fill:#cdcac9;fill-opacity:1;fill-rule:nonzero;stroke:none"
     d="m 45.906679,216.38258 c 1.30875,-0.28 2.6,0.56125 2.87625,1.87 0.27625,1.31125 -0.5575,2.59375 -1.86875,2.86875 -1.30875,0.28 -2.59125,-0.55125 -2.87125,-1.86125 -0.2825,-1.31875 0.55625,-2.5975 1.86375,-2.8775"
     inkscape:connector-curvature="0" /><path
     id="path1038"
     style="fill:#cdcac9;fill-opacity:1;fill-rule:nonzero;stroke:none"
     d="m 54.792929,245.38133 c 1.2275,-0.54375 2.66375,0.005 3.2025,1.23375 0.54875,1.2225 -0.001,2.64875 -1.22875,3.1925 -1.21625,0.54875 -2.65125,-0.002 -3.1975,-1.22625 -0.55,-1.2275 0.005,-2.65875 1.22375,-3.2"
     inkscape:connector-curvature="0" /><path
     id="path1040"
     style="fill:#cdcac9;fill-opacity:1;fill-rule:nonzero;stroke:none"
     d="m 69.516679,271.89883 c 1.08875,-0.78625 2.6075,-0.5475 3.39125,0.54 0.78875,1.08875 0.54375,2.595 -0.53875,3.3775 -1.0825,0.7875 -2.59625,0.54875 -3.38375,-0.535 -0.79125,-1.085 -0.55,-2.6 0.53125,-3.3825"
     inkscape:connector-curvature="0" /><path
     id="path1042"
     style="fill:#cdcac9;fill-opacity:1;fill-rule:nonzero;stroke:none"
     d="m 304.23668,275.82383 c -1.08125,-0.79 -1.325,-2.31125 -0.53,-3.3875 0.7875,-1.09375 2.29625,-1.32625 3.3775,-0.5375 1.08375,0.7825 1.32375,2.29375 0.53875,3.3825 -0.79125,1.08875 -2.3025,1.325 -3.38625,0.5425"
     inkscape:connector-curvature="0" /><path
     id="path1044"
     style="fill:#cdcac9;fill-opacity:1;fill-rule:nonzero;stroke:none"
     d="m 319.84293,249.81133 c -1.22125,-0.5475 -1.77875,-1.98625 -1.2275,-3.19625 0.55,-1.24125 1.97125,-1.77875 3.19375,-1.23375 1.22125,0.54125 1.7725,1.97 1.2275,3.2 -0.54625,1.22625 -1.975,1.7775 -3.19375,1.23"
     inkscape:connector-curvature="0" /><path
     id="path1046"
     style="fill:#cdcac9;fill-opacity:1;fill-rule:nonzero;stroke:none"
     d="m 329.69543,221.12758 c -1.30875,-0.285 -2.15125,-1.575 -1.8625,-2.87875 0.275,-1.32 1.5575,-2.15 2.8675,-1.86125 1.3075,0.275 2.14375,1.5525 1.86625,2.8725 -0.27875,1.31375 -1.56625,2.1425 -2.87125,1.8675"
     inkscape:connector-curvature="0" /><path
     id="path1048"
     style="fill:#cdcac9;fill-opacity:1;fill-rule:nonzero;stroke:none"
     d="m 333.36668,191.02133 c -1.33625,-0.005 -2.4325,-1.09125 -2.42,-2.42875 0,-1.35125 1.08,-2.4275 2.4175,-2.4225 1.34125,-0.005 2.425,1.07625 2.425,2.4225 0.002,1.34375 -1.08375,2.4275 -2.4225,2.42875"
     inkscape:connector-curvature="0" /><path
     id="path1050"
     style="fill:#cdcac9;fill-opacity:1;fill-rule:nonzero;stroke:none"
     d="m 330.70418,160.80383 c -1.31125,0.275 -2.605,-0.5625 -2.87125,-1.8675 -0.285,-1.32125 0.55,-2.59625 1.8625,-2.87125 1.305,-0.28125 2.59125,0.55 2.87125,1.8625 0.27875,1.315 -0.555,2.59875 -1.8625,2.87625"
     inkscape:connector-curvature="0" /><path
     id="path1052"
     style="fill:#cdcac9;fill-opacity:1;fill-rule:nonzero;stroke:none"
     d="m 321.81418,131.80758 c -1.22375,0.53625 -2.66375,-0.005 -3.19875,-1.23375 -0.55125,-1.235 0,-2.65375 1.2275,-3.1925 1.215,-0.5525 2.6475,-0.008 3.19375,1.22375 0.5475,1.2275 -0.005,2.66125 -1.2225,3.2025"
     inkscape:connector-curvature="0" /><path
     id="path1054"
     style="fill:#cdcac9;fill-opacity:1;fill-rule:nonzero;stroke:none"
     d="m 307.08918,105.28633 c -1.08375,0.7825 -2.6075,0.55 -3.3825,-0.535 -0.80125,-1.09875 -0.55375,-2.59875 0.53375,-3.38125 1.08,-0.78625 2.58875,-0.55375 3.3825,0.5325 0.79375,1.09 0.5475,2.6025 -0.53375,3.38375"
     inkscape:connector-curvature="0" /><path
     id="path1056"
     style="fill:#cdcac9;fill-opacity:1;fill-rule:nonzero;stroke:none"
     d="m 287.17793,82.41008 c -0.90125,0.99125 -2.44125,1.08 -3.42875,0.17625 -1.0025,-0.905 -1.0775,-2.4225 -0.17875,-3.41375 0.89,-0.9975 2.42,-1.08125 3.42,-0.1825 1.0025,0.89875 1.07625,2.42875 0.1875,3.42"
     inkscape:connector-curvature="0" /><path
     id="path1058"
     style="fill:#cdcac9;fill-opacity:1;fill-rule:nonzero;stroke:none"
     d="m 262.94043,64.17383 c -0.67625,1.15625 -2.165,1.5625 -3.31375,0.885 -1.175,-0.67625 -1.5625,-2.14625 -0.88875,-3.3025 0.66625,-1.16125 2.14125,-1.5625 3.30875,-0.89125 1.16625,0.675 1.56125,2.155 0.89375,3.30875"
     inkscape:connector-curvature="0" /><path
     id="path1060"
     style="fill:#cdcac9;fill-opacity:1;fill-rule:nonzero;stroke:none"
     d="m 235.44168,51.37508 c -0.42,1.2725 -1.79,1.97625 -3.05625,1.55875 -1.28875,-0.42125 -1.97625,-1.77875 -1.555,-3.05 0.4075,-1.2725 1.765,-1.97125 3.04875,-1.5575 1.28,0.41375 1.975,1.77875 1.5625,3.04875"
     inkscape:connector-curvature="0" /><path
     id="path1062"
     style="fill:#cdcac9;fill-opacity:1;fill-rule:nonzero;stroke:none"
     d="m 205.88043,44.57258 c -0.14625,1.33375 -1.33625,2.3075 -2.665,2.15875 -1.34625,-0.14125 -2.30375,-1.32625 -2.15375,-2.65875 0.13375,-1.32625 1.31625,-2.29875 2.65875,-2.15875 1.3375,0.1425 2.30125,1.33 2.16,2.65875"
     inkscape:connector-curvature="0" /><path
     id="path1064"
     style="fill:#5f6062;fill-opacity:1;fill-rule:nonzero;stroke:none"
     d="m 162.92543,57.70758 c 0.17125,0.80375 -0.58625,1.64625 -1.6925,1.88 -1.1025,0.235 -2.14,-0.22625 -2.30875,-1.0275 l -4.485,-21.10125 c -0.17125,-0.81 0.58375,-1.645 1.68875,-1.88375 1.1075,-0.2325 2.14375,0.22625 2.3075,1.03125 l 4.49,21.10125"
     inkscape:connector-curvature="0" /><path
     id="path1066"
     style="fill:#5f6062;fill-opacity:1;fill-rule:nonzero;stroke:none"
     d="m 112.55918,79.19883 c 0.48,0.67 0.13125,1.74125 -0.78,2.4075 -0.915,0.66375 -2.045,0.66375 -2.5275,0 L 96.567929,64.15008 c -0.48375,-0.66625 -0.1325,-1.73625 0.7825,-2.4025 0.91375,-0.66625 2.0475,-0.6675 2.5275,0 l 12.681251,17.45125"
     inkscape:connector-curvature="0" /><path
     id="path1068"
     style="fill:#5f6062;fill-opacity:1;fill-rule:nonzero;stroke:none"
     d="m 75.290429,119.32008 c 0.71125,0.41625 0.8275,1.5375 0.26625,2.51875 -0.5625,0.97625 -1.59625,1.4375 -2.31,1.0275 l -18.68375,-10.78875 c -0.7175,-0.41125 -0.83,-1.53375 -0.27125,-2.5125 0.57,-0.98 1.60375,-1.4425 2.315,-1.0275 l 18.68375,10.7825"
     inkscape:connector-curvature="0" /><path
     id="path1070"
     style="fill:#5f6062;fill-opacity:1;fill-rule:nonzero;stroke:none"
     d="m 57.559179,171.13133 c 0.8175,0.095 1.38375,1.06625 1.2675,2.19125 -0.12,1.12375 -0.875,1.9675 -1.69,1.87625 l -21.45875,-2.25125 c -0.81625,-0.09 -1.38,-1.0625 -1.26625,-2.19 0.11875,-1.12375 0.875,-1.96625 1.6975,-1.87625 l 21.45,2.25"
     inkscape:connector-curvature="0" /><path
     id="path1072"
     style="fill:#5f6062;fill-opacity:1;fill-rule:nonzero;stroke:none"
     d="m 62.436679,225.67508 c 0.785,-0.2475 1.6975,0.41125 2.05,1.48625 0.3475,1.07375 0,2.15375 -0.78,2.40125 l -20.52125,6.67 c -0.78125,0.25125 -1.695,-0.40875 -2.05,-1.485 -0.345,-1.0725 0,-2.15625 0.78625,-2.40125 l 20.515,-6.67125"
     inkscape:connector-curvature="0" /><path
     id="path1074"
     style="fill:#5f6062;fill-opacity:1;fill-rule:nonzero;stroke:none"
     d="m 89.077929,273.52133 c 0.6175,-0.545 1.715,-0.31625 2.47625,0.5225 0.755,0.83625 0.8775,1.96625 0.26,2.5125 l -16.02875,14.44 c -0.61375,0.54625 -1.71375,0.315 -2.475,-0.525 -0.755,-0.84 -0.87625,-1.97 -0.26,-2.51125 l 16.0275,-14.43875"
     inkscape:connector-curvature="0" /><path
     id="path1076"
     style="fill:#5f6062;fill-opacity:1;fill-rule:nonzero;stroke:none"
     d="m 284.79168,276.56383 c -0.60625,-0.565 -0.4975,-1.67625 0.255,-2.52 0.75625,-0.83875 1.87,-1.08 2.47375,-0.52375 l 16.03875,14.43375 c 0.6,0.55 0.48875,1.66625 -0.2625,2.5175 -0.76,0.835 -1.8725,1.0775 -2.47625,0.51875 l -16.02875,-14.42625"
     inkscape:connector-curvature="0" /><path
     id="path1078"
     style="fill:#5f6062;fill-opacity:1;fill-rule:nonzero;stroke:none"
     d="m 312.90293,229.56633 c -0.78375,-0.2625 -1.135,-1.32375 -0.7875,-2.405 0.35125,-1.0725 1.26625,-1.74875 2.04375,-1.48125 l 20.51875,6.66125 c 0.78125,0.25625 1.135,1.32375 0.78875,2.405 -0.35125,1.075 -1.2675,1.74625 -2.05125,1.48125 l -20.5125,-6.66125"
     inkscape:connector-curvature="0" /><path
     id="path1080"
     style="fill:#5f6062;fill-opacity:1;fill-rule:nonzero;stroke:none"
     d="m 319.47668,175.19883 c -0.82625,0.0775 -1.57875,-0.74875 -1.69875,-1.87375 -0.1275,-1.12375 0.4425,-2.11375 1.2625,-2.18625 l 21.46,-2.265 c 0.80875,-0.0775 1.56375,0.74875 1.695,1.88125 0.10875,1.12375 -0.45625,2.1125 -1.2725,2.185 l -21.44625,2.25875"
     inkscape:connector-curvature="0" /><path
     id="path1082"
     style="fill:#5f6062;fill-opacity:1;fill-rule:nonzero;stroke:none"
     d="m 303.36418,122.86258 c -0.725,0.4025 -1.75,-0.045 -2.31875,-1.02125 -0.56625,-0.97875 -0.45375,-2.115 0.265,-2.51375 l 18.68375,-10.8 c 0.71,-0.3975 1.74,0.0475 2.315,1.0325 0.56,0.98125 0.445,2.11375 -0.2725,2.51625 l -18.6725,10.78625"
     inkscape:connector-curvature="0" /><path
     id="path1084"
     style="fill:#5f6062;fill-opacity:1;fill-rule:nonzero;stroke:none"
     d="m 267.35543,81.59883 c -0.4925,0.6675 -1.6125,0.67125 -2.52875,0.0113 -0.9175,-0.6625 -1.275,-1.74875 -0.77875,-2.4 l 12.6725,-17.46875 c 0.48625,-0.6525 1.61125,-0.66375 2.5325,0 0.9125,0.6725 1.2675,1.75125 0.77625,2.40875 l -12.67375,17.44875"
     inkscape:connector-curvature="0" /><path
     id="path1086"
     style="fill:#5f6062;fill-opacity:1;fill-rule:nonzero;stroke:none"
     d="m 217.67918,58.55008 c -0.1825,0.81125 -1.20125,1.2725 -2.305,1.04125 -1.11125,-0.23375 -1.87875,-1.0775 -1.6875,-1.87625 l 4.47,-21.11125 c 0.17875,-0.79 1.19875,-1.26125 2.31375,-1.03375 1.1075,0.24375 1.86875,1.09 1.6875,1.89125 l -4.47875,21.08875"
     inkscape:connector-curvature="0" /><path
     id="path1088"
     style="fill:#e7e7e5;fill-opacity:1;fill-rule:nonzero;stroke:none"
     d="m 104.71418,266.98008 c 0,5.13 -1.9,7.96125 -5.240001,7.96125 -2.9475,0 -4.94375,-2.7625 -4.98875,-7.75125 0,-5.055 2.1825,-7.84125 5.24375,-7.84125 3.178751,0 4.985001,2.82875 4.985001,7.63125 z m -8.187501,0.235 c 0,3.92125 1.20625,6.145 3.065,6.145 2.086251,0 3.083751,-2.43625 3.083751,-6.285 0,-3.715 -0.9525,-6.14625 -3.060001,-6.14625 -1.7875,0 -3.08875,2.1775 -3.08875,6.28625"
     inkscape:connector-curvature="0" /><path
     id="path1090"
     style="fill:#e7e7e5;fill-opacity:1;fill-rule:nonzero;stroke:none"
     d="m 68.939179,228.57258 0,-1.2525 1.60125,-1.55625 c 3.84875,-3.66375 5.59,-5.6125 5.6125,-7.8825 0,-1.53375 -0.7425,-2.9475 -2.99125,-2.9475 -1.36875,0 -2.50625,0.695 -3.2025,1.275 l -0.6475,-1.4375 c 1.0425,-0.8825 2.52625,-1.53375 4.2675,-1.53375 3.24625,0 4.6175,2.22875 4.6175,4.38625 0,2.785 -2.01875,5.035 -5.1975,8.09625 l -1.20625,1.11375 0,0.0437 6.77625,0 0,1.695 -9.63,0"
     inkscape:connector-curvature="0" /><path
     id="path1092"
     style="fill:#e7e7e5;fill-opacity:1;fill-rule:nonzero;stroke:none"
     d="m 90.866679,220.87258 c 0,5.1275 -1.90125,7.9575 -5.2425,7.9575 -2.945,0 -4.94,-2.7625 -4.9875,-7.75125 0,-5.05375 2.18125,-7.84125 5.24375,-7.84125 3.17625,0 4.98625,2.83375 4.98625,7.635 z m -8.1875,0.23 c 0,3.9225 1.2075,6.14875 3.06125,6.14875 2.08875,0 3.085,-2.435 3.085,-6.28625 0,-3.7125 -0.95,-6.1475 -3.06125,-6.1475 -1.7875,0 -3.085,2.17875 -3.085,6.285"
     inkscape:connector-curvature="0" /><path
     id="path1094"
     style="fill:#e7e7e5;fill-opacity:1;fill-rule:nonzero;stroke:none"
     d="m 68.007929,184.64758 0,-4.1075 -7.00625,0 0,-1.34375 6.7275,-9.62875 2.205,0 0,9.37375 2.11,0 0,1.59875 -2.11,0 0,4.1075 -1.92625,0 z m 0,-5.70625 0,-5.03375 c 0,-0.79 0.025,-1.58 0.0688,-2.36875 l -0.0688,0 c -0.46625,0.88375 -0.8325,1.5325 -1.2525,2.2275 l -3.6875,5.12625 0,0.0488 4.94,0"
     inkscape:connector-curvature="0" /><path
     id="path1096"
     style="fill:#e7e7e5;fill-opacity:1;fill-rule:nonzero;stroke:none"
     d="m 83.625429,176.94383 c 0,5.13 -1.9025,7.95875 -5.2425,7.95875 -2.9425,0 -4.94125,-2.76125 -4.98875,-7.74875 0,-5.0575 2.1825,-7.84125 5.24375,-7.84125 3.1775,0 4.9875,2.83 4.9875,7.63125 z m -8.185,0.23375 c 0,3.92125 1.205,6.1475 3.0575,6.1475 2.09125,0 3.08875,-2.4375 3.08875,-6.28625 0,-3.71375 -0.9525,-6.15 -3.065,-6.15 -1.7875,0 -3.08125,2.1825 -3.08125,6.28875"
     inkscape:connector-curvature="0" /><path
     id="path1098"
     style="fill:#e7e7e5;fill-opacity:1;fill-rule:nonzero;stroke:none"
     d="m 84.572929,124.83133 c -0.42,-0.0213 -0.95125,0 -1.53125,0.0888 -3.2025,0.53625 -4.895,2.87875 -5.24125,5.36375 l 0.0663,0 c 0.71875,-0.9525 1.9725,-1.74125 3.6425,-1.74125 2.66625,0 4.5475,1.92625 4.5475,4.87375 0,2.75875 -1.88125,5.31 -5.0125,5.31 -3.2225,0 -5.33125,-2.50375 -5.33125,-6.425 0,-2.97 1.06125,-5.31125 2.54875,-6.79875 1.2525,-1.22875 2.9225,-1.9925 4.8275,-2.22625 0.6,-0.0925 1.11,-0.115 1.48375,-0.115 l 0,1.67 z m -3.505,12.3175 c 1.73875,0 2.92375,-1.46 2.92375,-3.61875 0,-2.1575 -1.2275,-3.4575 -3.10875,-3.4575 -1.2275,0 -2.36375,0.76625 -2.92125,1.8575 -0.14,0.23 -0.235,0.53125 -0.235,0.9025 0.0463,2.4825 1.1825,4.31625 3.3175,4.31625 l 0.0238,0"
     inkscape:connector-curvature="0" /><path
     id="path1100"
     style="fill:#e7e7e5;fill-opacity:1;fill-rule:nonzero;stroke:none"
     d="m 97.892929,130.77008 c 0,5.12625 -1.90375,7.95625 -5.24125,7.95625 -2.94625,0 -4.9425,-2.7625 -4.99125,-7.7475 0,-5.05625 2.18375,-7.8425 5.245,-7.8425 3.17625,0 4.9875,2.83125 4.9875,7.63375 z m -8.1875,0.23125 c 0,3.92125 1.20625,6.1475 3.06,6.1475 2.08875,0 3.08875,-2.43625 3.08875,-6.2875 0,-3.71125 -0.9525,-6.14875 -3.065,-6.14875 -1.7875,0 -3.08375,2.18 -3.08375,6.28875"
     inkscape:connector-curvature="0" /><path
     id="path1102"
     style="fill:#e7e7e5;fill-opacity:1;fill-rule:nonzero;stroke:none"
     d="m 110.90293,94.91508 c -1.67,-0.78875 -2.38875,-2.08625 -2.38875,-3.3875 0,-2.38875 2.0175,-4.0125 4.66125,-4.0125 2.925,0 4.385,1.83375 4.385,3.71125 0,1.27875 -0.625,2.64625 -2.48,3.525 l 0,0.0712 c 1.87625,0.73875 3.035,2.0625 3.035,3.8975 0,2.61875 -2.24625,4.38375 -5.1225,4.38375 -3.15625,0 -5.0575,-1.8775 -5.0575,-4.085 0,-1.90125 1.13375,-3.24625 2.9925,-4.03375 l -0.025,-0.07 z m 5.15,4.015 c 0,-1.83375 -1.2775,-2.7175 -3.315,-3.29625 -1.76375,0.51 -2.71625,1.67 -2.71625,3.10625 -0.0675,1.53375 1.0925,2.87875 3.0175,2.87875 1.83,0 3.01375,-1.16125 3.01375,-2.68875 z m -5.60875,-7.5425 c 0,1.50625 1.13125,2.32 2.87125,2.78375 1.29875,-0.44 2.3,-1.36875 2.3,-2.7375 0,-1.20625 -0.71875,-2.4575 -2.55375,-2.4575 -1.695,0 -2.6175,1.11 -2.6175,2.41125"
     inkscape:connector-curvature="0" /><path
     id="path1104"
     style="fill:#e7e7e5;fill-opacity:1;fill-rule:nonzero;stroke:none"
     d="m 130.04918,95.14758 c 0,5.12625 -1.905,7.95625 -5.245,7.95625 -2.94375,0 -4.9425,-2.76375 -4.985,-7.74875 0,-5.0575 2.17875,-7.84 5.24,-7.84 3.17875,0 4.99,2.83 4.99,7.6325 z m -8.18875,0.23125 c 0,3.92125 1.20375,6.1475 3.06125,6.1475 2.09,0 3.08625,-2.435 3.08625,-6.28875 0,-3.71 -0.95,-6.1475 -3.0625,-6.1475 -1.78625,0 -3.085,2.18125 -3.085,6.28875"
     inkscape:connector-curvature="0" /><path
     id="path1106"
     style="fill:#e7e7e5;fill-opacity:1;fill-rule:nonzero;stroke:none"
     d="m 149.64543,68.76758 -0.0463,0 -2.6225,1.41875 -0.395,-1.56 3.29375,-1.76125 1.74125,0 0,15.0775 -1.97125,0 0,-13.175"
     inkscape:connector-curvature="0" /><path
     id="path1108"
     style="fill:#e7e7e5;fill-opacity:1;fill-rule:nonzero;stroke:none"
     d="m 167.14168,74.24258 c 0,5.125 -1.90375,7.955 -5.2425,7.955 -2.94875,0 -4.94,-2.75875 -4.9875,-7.74625 0,-5.055 2.18,-7.84125 5.24125,-7.84125 3.17375,0 4.98875,2.83 4.98875,7.6325 m -8.19125,0.2325 c 0,3.92 1.205,6.14625 3.06375,6.14625 2.085,0 3.085,-2.4375 3.085,-6.28625 0,-3.7125 -0.95125,-6.14875 -3.06125,-6.14875 -1.78625,0 -3.0875,2.1825 -3.0875,6.28875"
     inkscape:connector-curvature="0" /><path
     id="path1110"
     style="fill:#e7e7e5;fill-opacity:1;fill-rule:nonzero;stroke:none"
     d="m 179.04793,74.24258 c 0,5.125 -1.9025,7.955 -5.24625,7.955 -2.94125,0 -4.9375,-2.75875 -4.98625,-7.74625 0,-5.055 2.18375,-7.84125 5.24625,-7.84125 3.175,0 4.98625,2.83 4.98625,7.6325 m -8.1875,0.2325 c 0,3.92 1.20375,6.14625 3.06125,6.14625 2.08875,0 3.0825,-2.4375 3.0825,-6.28625 0,-3.7125 -0.9475,-6.14875 -3.06375,-6.14875 -1.78125,0 -3.08,2.1825 -3.08,6.28875"
     inkscape:connector-curvature="0" /><path
     id="path1112"
     style="fill:#e7e7e5;fill-opacity:1;fill-rule:nonzero;stroke:none"
     d="m 199.75168,68.76758 -0.0438,0 -2.62125,1.41875 -0.39625,-1.5575 3.295,-1.76125 1.73625,0 0,15.075 -1.97,0 0,-13.175"
     inkscape:connector-curvature="0" /><path
     id="path1114"
     style="fill:#e7e7e5;fill-opacity:1;fill-rule:nonzero;stroke:none"
     d="m 207.22918,81.94258 0,-1.25 1.60125,-1.55375 c 3.85,-3.6675 5.59,-5.61375 5.6125,-7.89 0,-1.52875 -0.74,-2.945 -2.99,-2.945 -1.37,0 -2.51,0.69875 -3.20125,1.275 l -0.65125,-1.43625 c 1.04625,-0.88375 2.5275,-1.5325 4.27125,-1.5325 3.24625,0 4.615,2.2275 4.615,4.38625 0,2.78375 -2.01875,5.03375 -5.195,8.09625 l -1.20875,1.115 0,0.0437 6.775,0 0,1.69125 -9.62875,0"
     inkscape:connector-curvature="0" /><path
     id="path1116"
     style="fill:#e7e7e5;fill-opacity:1;fill-rule:nonzero;stroke:none"
     d="m 229.15793,74.24383 c 0,5.13 -1.90125,7.95625 -5.24,7.95625 -2.95,0 -4.94375,-2.76125 -4.99125,-7.74875 0,-5.055 2.18375,-7.84125 5.24375,-7.84125 3.17625,0 4.9875,2.83 4.9875,7.63375 m -8.19,0.23125 c 0,3.92 1.2075,6.14625 3.0625,6.14625 2.08875,0 3.085,-2.43375 3.085,-6.28625 0,-3.71125 -0.95,-6.14625 -3.0625,-6.14625 -1.7825,0 -3.085,2.18 -3.085,6.28625"
     inkscape:connector-curvature="0" /><path
     id="path1118"
     style="fill:#e7e7e5;fill-opacity:1;fill-rule:nonzero;stroke:none"
     d="m 245.06418,89.67508 -0.0425,0 -2.62375,1.41 -0.395,-1.55125 3.295,-1.7625 1.73875,0 0,15.07625 -1.9725,0 0,-13.1725"
     inkscape:connector-curvature="0" /><path
     id="path1120"
     style="fill:#e7e7e5;fill-opacity:1;fill-rule:nonzero;stroke:none"
     d="m 258.85043,102.84758 0,-4.1075 -7.0025,0 0,-1.34125 6.72625,-9.6275 2.20625,0 0,9.37125 2.11,0 0,1.5975 -2.11,0 0,4.1075 -1.93,0 m 0,-5.705 0,-5.035 c 0,-0.79 0.0263,-1.575 0.0738,-2.36625 l -0.0738,0 c -0.46125,0.8825 -0.83375,1.53 -1.2525,2.22875 l -3.685,5.12625 0,0.0463 4.9375,0"
     inkscape:connector-curvature="0" /><path
     id="path1122"
     style="fill:#e7e7e5;fill-opacity:1;fill-rule:nonzero;stroke:none"
     d="m 274.47043,95.14758 c 0,5.12625 -1.90375,7.95625 -5.24375,7.95625 -2.94375,0 -4.93875,-2.76375 -4.98875,-7.74875 0,-5.0575 2.185,-7.84 5.24625,-7.84 3.1775,0 4.98625,2.83 4.98625,7.6325 m -8.1875,0.23125 c 0,3.92125 1.2075,6.1475 3.06125,6.1475 2.08625,0 3.085,-2.435 3.085,-6.28875 0,-3.71 -0.9525,-6.1475 -3.06375,-6.1475 -1.785,0 -3.0825,2.18125 -3.0825,6.28875"
     inkscape:connector-curvature="0" /><path
     id="path1124"
     style="fill:#e7e7e5;fill-opacity:1;fill-rule:nonzero;stroke:none"
     d="m 268.27668,125.29633 -0.0438,0 -2.625,1.41125 -0.39375,-1.55 3.295,-1.76625 1.74,0 0,15.07875 -1.9725,0 0,-13.17375"
     inkscape:connector-curvature="0" /><path
     id="path1126"
     style="fill:#e7e7e5;fill-opacity:1;fill-rule:nonzero;stroke:none"
     d="m 284.35793,124.83133 c -0.4175,-0.0213 -0.95125,0 -1.5325,0.0888 -3.1975,0.53625 -4.89125,2.87875 -5.24,5.36375 l 0.07,0 c 0.71875,-0.9525 1.9725,-1.74125 3.64125,-1.74125 2.66625,0 4.5425,1.92625 4.5425,4.87375 0,2.75875 -1.87625,5.31 -5.00875,5.31 -3.2225,0 -5.33375,-2.50375 -5.33375,-6.425 0,-2.97 1.06625,-5.31125 2.55375,-6.79875 1.2525,-1.22875 2.92125,-1.9925 4.82625,-2.22625 0.5975,-0.0925 1.11,-0.115 1.48125,-0.115 l 0,1.67 m -3.50125,12.3175 c 1.73875,0 2.9225,-1.46 2.9225,-3.61875 0,-2.1575 -1.23125,-3.4575 -3.11,-3.4575 -1.23,0 -2.36625,0.76625 -2.9225,1.8575 -0.13875,0.23 -0.23125,0.53125 -0.23125,0.9025 0.0488,2.4825 1.1825,4.31625 3.315,4.31625 l 0.0263,0"
     inkscape:connector-curvature="0" /><path
     id="path1128"
     style="fill:#e7e7e5;fill-opacity:1;fill-rule:nonzero;stroke:none"
     d="m 297.68043,130.77008 c 0,5.12625 -1.9025,7.95625 -5.24125,7.95625 -2.9475,0 -4.94375,-2.7625 -4.99,-7.7475 0,-5.05625 2.1825,-7.8425 5.24375,-7.8425 3.17875,0 4.9875,2.83125 4.9875,7.63375 m -8.18875,0.23125 c 0,3.92125 1.21,6.1475 3.06125,6.1475 2.0875,0 3.085,-2.43625 3.085,-6.2875 0,-3.71125 -0.95,-6.14875 -3.06125,-6.14875 -1.785,0 -3.085,2.18 -3.085,6.28875"
     inkscape:connector-curvature="0" /><path
     id="path1130"
     style="fill:#e7e7e5;fill-opacity:1;fill-rule:nonzero;stroke:none"
     d="m 284.87168,171.47008 -0.045,0 -2.62375,1.41625 -0.39375,-1.5575 3.2925,-1.76125 1.74125,0 0,15.08 -1.97125,0 0,-13.1775"
     inkscape:connector-curvature="0" /><path
     id="path1132"
     style="fill:#e7e7e5;fill-opacity:1;fill-rule:nonzero;stroke:none"
     d="m 295.13418,176.71383 c -1.6725,-0.79 -2.39375,-2.09 -2.39375,-3.38875 0,-2.3875 2.02,-4.0125 4.66375,-4.0125 2.92375,0 4.38625,1.8325 4.38625,3.7125 0,1.27375 -0.62375,2.6425 -2.48125,3.5275 l 0,0.0662 c 1.88,0.74375 3.0375,2.0675 3.0375,3.8975 0,2.62375 -2.25,4.38625 -5.12625,4.38625 -3.15625,0 -5.05625,-1.88 -5.05625,-4.08375 0,-1.90375 1.13625,-3.24875 2.99,-4.03875 l -0.02,-0.0662 m 5.1475,4.0125 c 0,-1.83375 -1.27625,-2.71375 -3.31625,-3.29625 -1.765,0.51 -2.7125,1.6725 -2.7125,3.11 -0.0713,1.53375 1.09,2.8775 3.01375,2.8775 1.8325,0 3.015,-1.16 3.015,-2.69125 m -5.61375,-7.53875 c 0,1.51 1.14,2.3175 2.87625,2.785 1.29875,-0.44 2.2975,-1.37125 2.2975,-2.73875 0,-1.205 -0.72,-2.45875 -2.55125,-2.45875 -1.69375,0 -2.6225,1.115 -2.6225,2.4125"
     inkscape:connector-curvature="0" /><path
     id="path1134"
     style="fill:#e7e7e5;fill-opacity:1;fill-rule:nonzero;stroke:none"
     d="m 314.27293,176.94383 c 0,5.13 -1.9,7.95875 -5.24,7.95875 -2.945,0 -4.94,-2.76125 -4.9875,-7.74875 0,-5.0575 2.18125,-7.84125 5.245,-7.84125 3.17625,0 4.9825,2.83 4.9825,7.63125 m -8.185,0.23375 c 0,3.92125 1.20375,6.1475 3.0625,6.1475 2.0875,0 3.08375,-2.4375 3.08375,-6.28625 0,-3.71375 -0.95,-6.15 -3.065,-6.15 -1.78375,0 -3.08125,2.1825 -3.08125,6.28875"
     inkscape:connector-curvature="0" /><path
     id="path1136"
     style="fill:#e7e7e5;fill-opacity:1;fill-rule:nonzero;stroke:none"
     d="m 277.04793,228.57258 0,-1.2525 1.59375,-1.55625 c 3.85375,-3.66375 5.59375,-5.6125 5.61625,-7.8825 0,-1.53375 -0.7425,-2.9475 -2.9925,-2.9475 -1.36875,0 -2.50875,0.695 -3.20125,1.275 l -0.64875,-1.4375 c 1.0425,-0.8825 2.5275,-1.53375 4.26875,-1.53375 3.245,0 4.61625,2.22875 4.61625,4.38625 0,2.785 -2.02125,5.035 -5.1975,8.09625 l -1.20625,1.11375 0,0.0437 6.7725,0 0,1.695 -9.62125,0"
     inkscape:connector-curvature="0" /><path
     id="path1138"
     style="fill:#e7e7e5;fill-opacity:1;fill-rule:nonzero;stroke:none"
     d="m 298.97043,220.87258 c 0,5.1275 -1.905,7.9575 -5.2425,7.9575 -2.94375,0 -4.94375,-2.7625 -4.9875,-7.75125 0,-5.05375 2.18,-7.84125 5.2475,-7.84125 3.17375,0 4.9825,2.83375 4.9825,7.635 m -8.18625,0.23 c 0,3.9225 1.20375,6.14875 3.05875,6.14875 2.0875,0 3.08625,-2.435 3.08625,-6.28625 0,-3.7125 -0.9525,-6.1475 -3.06125,-6.1475 -1.78625,0 -3.08375,2.17875 -3.08375,6.285"
     inkscape:connector-curvature="0" /><path
     id="path1140"
     style="fill:#e7e7e5;fill-opacity:1;fill-rule:nonzero;stroke:none"
     d="m 310.87793,220.87258 c 0,5.1275 -1.90125,7.9575 -5.24375,7.9575 -2.94375,0 -4.94,-2.7625 -4.98625,-7.75125 0,-5.05375 2.1825,-7.84125 5.24375,-7.84125 3.17625,0 4.98625,2.83375 4.98625,7.635 m -8.1875,0.23 c 0,3.9225 1.20125,6.14875 3.06125,6.14875 2.08875,0 3.08375,-2.435 3.08375,-6.28625 0,-3.7125 -0.95125,-6.1475 -3.06125,-6.1475 -1.78375,0 -3.08375,2.17875 -3.08375,6.285"
     inkscape:connector-curvature="0" /><path
     id="path1142"
     style="fill:#e7e7e5;fill-opacity:1;fill-rule:nonzero;stroke:none"
     d="m 248.37168,274.68258 0,-1.25 1.60125,-1.555 c 3.8525,-3.66625 5.59375,-5.615 5.61375,-7.885 0,-1.535 -0.7425,-2.9475 -2.99125,-2.9475 -1.36875,0 -2.51,0.695 -3.2025,1.2725 l -0.65125,-1.435 c 1.04625,-0.8825 2.5325,-1.53375 4.26875,-1.53375 3.25,0 4.6175,2.23 4.6175,4.38625 0,2.78375 -2.0175,5.035 -5.19625,8.09625 l -1.205,1.11375 0,0.0463 6.77125,0 0,1.69125 -9.62625,0"
     inkscape:connector-curvature="0" /><path
     id="path1144"
     style="fill:#e7e7e5;fill-opacity:1;fill-rule:nonzero;stroke:none"
     d="m 260.27918,274.68258 0,-1.25 1.6,-1.555 c 3.8525,-3.66625 5.59,-5.615 5.6125,-7.885 0,-1.535 -0.7425,-2.9475 -2.99125,-2.9475 -1.37125,0 -2.5075,0.695 -3.20375,1.2725 l -0.6475,-1.435 c 1.04375,-0.8825 2.53,-1.53375 4.27,-1.53375 3.2475,0 4.615,2.23 4.615,4.38625 0,2.78375 -2.01875,5.035 -5.1975,8.09625 l -1.2075,1.11375 0,0.0463 6.7725,0 0,1.69125 -9.6225,0"
     inkscape:connector-curvature="0" /><path
     id="path1146"
     style="fill:#e7e7e5;fill-opacity:1;fill-rule:nonzero;stroke:none"
     d="m 282.21043,266.98383 c 0,5.12625 -1.9075,7.9575 -5.2475,7.9575 -2.94375,0 -4.93875,-2.7625 -4.98625,-7.75125 0,-5.055 2.18125,-7.84125 5.2425,-7.84125 3.17875,0 4.99125,2.8325 4.99125,7.635 m -8.19125,0.23125 c 0,3.92125 1.205,6.145 3.06375,6.145 2.08375,0 3.0825,-2.43125 3.0825,-6.285 0,-3.7125 -0.94875,-6.14625 -3.06,-6.14625 -1.7875,0 -3.08625,2.1775 -3.08625,6.28625"
     inkscape:connector-curvature="0" /><path
     id="path1148"
     style="fill:#464748;fill-opacity:1;fill-rule:nonzero;stroke:none"
     d="m 347.87918,188.90258 0,0.004 0,-0.004 m 0,-0.16125 c 0,0.006 0,0.009 0,0.0138 0,-0.004 0,-0.01 0,-0.0138 M 188.30293,29.01633 c -8.51625,0 -16.87625,0.66875 -25.03,1.95375 8.155,-1.28375 16.515,-1.95125 25.03,-1.95125 88.13125,0 159.57625,71.4425 159.57625,159.57375 0,-0.006 0,-0.006 0,-0.006 0,-88.12625 -71.4475,-159.57 -159.57625,-159.57"
     inkscape:connector-curvature="0" /><path
     id="path1150"
     style="fill:#464748;fill-opacity:1;fill-rule:nonzero;stroke:none"
     d="m 162.03793,68.18633 c -1.78625,0 -3.0875,2.1825 -3.0875,6.28875 0,3.92 1.205,6.14625 3.06375,6.14625 2.085,0 3.085,-2.4375 3.085,-6.28625 0,-3.7125 -0.95125,-6.14875 -3.06125,-6.14875 m 11.9025,0 c -1.78125,0 -3.08,2.1825 -3.08,6.28875 0,3.92 1.20375,6.14625 3.06125,6.14625 2.08875,0 3.0825,-2.4375 3.0825,-6.28625 0,-3.7125 -0.9475,-6.14875 -3.06375,-6.14875 m 127.70625,223.105 c -0.315,0 -0.60625,-0.0962 -0.82625,-0.30125 l -16.02875,-14.42625 c -0.60625,-0.565 -0.4975,-1.67625 0.255,-2.52 0.48,-0.5325 1.10375,-0.82375 1.65,-0.82375 0.31375,0 0.6025,0.0962 0.82375,0.3 l 16.03875,14.43375 c 0.6,0.55 0.48875,1.66625 -0.2625,2.5175 -0.48125,0.53 -1.105,0.82 -1.65,0.82 m 4.01125,-15.0075 c -0.49375,0 -0.99,-0.15 -1.42125,-0.46 -1.08125,-0.79 -1.325,-2.31125 -0.53,-3.3875 0.47375,-0.6575 1.20875,-1.005 1.955,-1.005 0.4925,0 0.99125,0.1525 1.4225,0.4675 1.08375,0.7825 1.32375,2.29375 0.53875,3.3825 -0.4775,0.6575 -1.21625,1.0025 -1.965,1.0025 m 15.2475,-9.36875 c -0.1675,0 -0.32875,-0.04 -0.47375,-0.12375 l -15.1475,-8.74875 c -0.58125,-0.33 -0.67625,-1.2475 -0.21875,-2.04125 0.3475,-0.59375 0.90625,-0.95375 1.40625,-0.95375 0.165,0 0.32375,0.0387 0.4675,0.12125 l 15.15625,8.75375 c 0.57875,0.33 0.67125,1.2475 0.21375,2.035 -0.34375,0.59625 -0.90125,0.9575 -1.40375,0.9575 m -0.08,-16.8925 c -0.3275,0 -0.6625,-0.0675 -0.9825,-0.21125 -1.22125,-0.5475 -1.77875,-1.98625 -1.2275,-3.19625 0.405,-0.91375 1.28125,-1.44625 2.2025,-1.44625 0.33125,0 0.66875,0.0688 0.99125,0.2125 1.22125,0.54125 1.7725,1.97 1.2275,3.2 -0.4025,0.905 -1.285,1.44125 -2.21125,1.44125 m 12.9425,-13.7375 c -0.11875,0 -0.2375,-0.0188 -0.3525,-0.0575 l -20.5125,-6.66125 c -0.78375,-0.2625 -1.135,-1.32375 -0.7875,-2.405 0.29875,-0.91375 1.0075,-1.54 1.6925,-1.54 0.11875,0 0.2375,0.0188 0.35125,0.0588 l 20.51875,6.66125 c 0.78125,0.25625 1.135,1.32375 0.78875,2.405 -0.3,0.91625 -1.01,1.53875 -1.69875,1.53875 m -3.57,-15.105 c -0.165,0 -0.33375,-0.0175 -0.5025,-0.0525 -1.30875,-0.285 -2.15125,-1.575 -1.8625,-2.87875 0.2375,-1.1425 1.2325,-1.91875 2.345,-1.92 0.17125,0 0.34625,0.02 0.5225,0.0588 1.3075,0.275 2.14375,1.5525 1.86625,2.8725 -0.2425,1.14375 -1.25,1.92 -2.36875,1.92 m -52.13375,-4.97125 -0.64875,-1.4375 c 1.0425,-0.8825 2.5275,-1.53375 4.26875,-1.53375 3.245,0 4.61625,2.22875 4.61625,4.38625 0,2.785 -2.02125,5.035 -5.1975,8.09625 l -1.20625,1.11375 0,0.0437 6.7725,0 0,1.695 -9.62125,0 0,-1.2525 1.59375,-1.55625 c 3.85375,-3.66375 5.59375,-5.6125 5.61625,-7.8825 0,-1.53375 -0.7425,-2.9475 -2.9925,-2.9475 -1.36875,0 -2.50875,0.695 -3.20125,1.275 m 15.66375,12.62125 c -2.94375,0 -4.94375,-2.7625 -4.9875,-7.75125 0,-5.05375 2.18,-7.84125 5.2475,-7.84125 3.17375,0 4.9825,2.83375 4.9825,7.635 0,5.1275 -1.905,7.9575 -5.2425,7.9575 m 11.90625,0 c -2.94375,0 -4.94,-2.7625 -4.98625,-7.75125 0,-5.05375 2.1825,-7.84125 5.24375,-7.84125 3.17625,0 4.98625,2.83375 4.98625,7.635 0,5.1275 -1.90125,7.9575 -5.24375,7.9575 m 35.27625,-22.5375 c -0.0325,0 -0.0625,-0.001 -0.095,-0.005 l -17.3975,-1.83 c -0.66625,-0.065 -1.125,-0.86375 -1.03,-1.77625 0.095,-0.86625 0.65125,-1.525 1.27875,-1.525 0.03,0 0.0625,10e-4 0.0937,0.005 l 17.405,1.82875 c 0.665,0.0675 1.12125,0.86625 1.03,1.77125 -0.1,0.86875 -0.65875,1.53125 -1.285,1.53125 m -7.5462,-20.12255 c 0.003,0 0.008,0 0.01,0 1.3375,0 2.415,1.08125 2.415,2.4225 0.002,1.34375 -1.08375,2.4275 -2.4225,2.42875 -1.33625,-0.005 -2.4325,-1.09125 -2.42,-2.42875 0,-1.34625 1.075,-2.4225 2.40625,-2.4225 0.004,0 0.008,0 0.0113,0 m -51.16125,-13.28375 -0.39375,-1.5575 3.2925,-1.76125 1.74125,0 0,15.08 -1.97125,0 0,-13.1775 -0.045,0 -2.62375,1.41625 m 15.0175,12.01625 c -3.15625,0 -5.05625,-1.88 -5.05625,-4.08375 0,-1.90375 1.13625,-3.24875 2.99,-4.03875 l -0.02,-0.0662 c -1.6725,-0.79 -2.39375,-2.09 -2.39375,-3.38875 0,-2.3875 2.02,-4.0125 4.66375,-4.0125 2.92375,0 4.38625,1.8325 4.38625,3.7125 0,1.27375 -0.62375,2.6425 -2.48125,3.5275 l 0,0.0662 c 1.88,0.74375 3.0375,2.0675 3.0375,3.8975 0,2.62375 -2.25,4.38625 -5.12625,4.38625 m 11.8125,0 c -2.945,0 -4.94,-2.76125 -4.9875,-7.74875 0,-5.0575 2.18125,-7.84125 5.245,-7.84125 3.17625,0 4.9825,2.83 4.9825,7.63125 0,5.13 -1.9,7.95875 -5.24,7.95875 m 10.33625,-9.69875 c -0.78375,0 -1.47625,-0.8025 -1.59125,-1.87875 -0.1275,-1.12375 0.4425,-2.11375 1.2625,-2.18625 l 21.46,-2.265 c 0.035,-0.004 0.07,-0.005 0.105,-0.005 0.76875,0 1.465,0.8025 1.59,1.88625 0.10875,1.12375 -0.45625,2.1125 -1.2725,2.185 l -21.44625,2.25875 c -0.035,0.004 -0.0713,0.005 -0.1075,0.005 m 10.8325,-14.3475 c -1.12375,0 -2.1375,-0.7825 -2.36875,-1.92 -0.285,-1.32125 0.55,-2.59625 1.8625,-2.87125 0.17125,-0.0375 0.34375,-0.055 0.51125,-0.055 1.115,0 2.1175,0.77625 2.36,1.9175 0.27875,1.315 -0.555,2.59875 -1.8625,2.87625 -0.16875,0.0362 -0.3375,0.0525 -0.5025,0.0525 m -12.2925,-12.68 c -0.56,0 -1.14,-0.5075 -1.3825,-1.25 -0.27875,-0.87125 0,-1.74 0.635,-1.95 l 16.64375,-5.40625 c 0.0925,-0.0312 0.18625,-0.045 0.2825,-0.045 0.55875,0 1.13375,0.50625 1.37625,1.2475 0.2775,0.87125 0.003,1.745 -0.6325,1.94875 l -16.64125,5.41125 c -0.0913,0.0288 -0.185,0.0437 -0.28125,0.0437 m 2.9225,-16.1625 c -0.93125,0 -1.82125,-0.5325 -2.21625,-1.44 -0.55125,-1.235 0,-2.65375 1.2275,-3.1925 0.3225,-0.14625 0.66,-0.21625 0.99,-0.21625 0.9225,0 1.8025,0.535 2.20375,1.44 0.5475,1.2275 -0.005,2.66125 -1.2225,3.2025 -0.32,0.14 -0.65375,0.20625 -0.9825,0.20625 m -55.22375,-5.30625 -0.39375,-1.55 3.295,-1.76625 1.74,0 0,15.07875 -1.9725,0 0,-13.17375 -0.0438,0 -2.625,1.41125 m 15.2225,12.01875 c -3.2225,0 -5.33375,-2.50375 -5.33375,-6.425 0,-2.97 1.06625,-5.31125 2.55375,-6.79875 1.2525,-1.22875 2.92125,-1.9925 4.82625,-2.22625 0.5975,-0.0925 1.11,-0.115 1.48125,-0.115 l 0,1.67 c -0.0975,-0.005 -0.2025,-0.007 -0.315,-0.007 -0.35625,0 -0.77375,0.0288 -1.2175,0.0962 -3.1975,0.53625 -4.89125,2.87875 -5.24,5.36375 l 0.07,0 c 0.71875,-0.9525 1.9725,-1.74125 3.64125,-1.74125 2.66625,0 4.5425,1.92625 4.5425,4.87375 0,2.75875 -1.87625,5.31 -5.00875,5.31 m 11.60875,0 c -2.9475,0 -4.94375,-2.7625 -4.99,-7.7475 0,-5.05625 2.1825,-7.8425 5.24375,-7.8425 3.17875,0 4.9875,2.83125 4.9875,7.63375 0,5.12625 -1.9025,7.95625 -5.24125,7.95625 m 10.34,-15.71625 c -0.62125,0 -1.30625,-0.435 -1.73375,-1.16875 -0.56625,-0.97875 -0.45375,-2.115 0.265,-2.51375 l 18.68375,-10.8 c 0.17625,-0.0975 0.37,-0.145 0.5725,-0.145 0.6175,0 1.30875,0.435 1.7425,1.1775 0.56,0.98125 0.445,2.11375 -0.2725,2.51625 l -18.6725,10.78585 c -0.18,0.1 -0.37875,0.1475 -0.585,0.1475 m 2.8825,-17.26125 c -0.75,0 -1.48875,-0.345 -1.955,-0.9975 -0.80125,-1.09875 -0.55375,-2.59875 0.53375,-3.38125 0.43,-0.31375 0.93,-0.465 1.42375,-0.465 0.74625,0 1.48125,0.345 1.95875,0.9975 0.79375,1.09 0.5475,2.6025 -0.53375,3.38375 -0.43125,0.3125 -0.9325,0.4625 -1.4275,0.4625 m -63.26375,-14.66375 -0.395,-1.55125 3.295,-1.7625 1.73875,0 0,15.07625 -1.9725,0 0,-13.1725 -0.0425,0 -2.62375,1.41 m 9.45,7.655 0,-1.34125 6.72625,-9.6275 2.20625,0 0,9.37125 2.11,0 0,1.5975 -2.11,0 0,4.1075 -1.93,0 0,-4.1075 -7.0025,0 m 17.37875,4.36375 c -2.94375,0 -4.93875,-2.76375 -4.98875,-7.74875 0,-5.0575 2.185,-7.84 5.24625,-7.84 3.1775,0 4.98625,2.83 4.98625,7.6325 0,5.12625 -1.90375,7.95625 -5.24375,7.95625 m 20.6075,-4.06125 c -0.44375,0 -0.95,-0.2375 -1.33875,-0.66875 -0.61125,-0.6825 -0.70625,-1.59125 -0.21375,-2.04125 l 13.0075,-11.71125 c 0.18,-0.16125 0.4125,-0.23875 0.6675,-0.23875 0.44375,0 0.94875,0.23625 1.34,0.67 0.605,0.6825 0.7075,1.59 0.21,2.03875 l -13.005,11.70875 c -0.17875,0.165 -0.41375,0.2425 -0.6675,0.2425 m -4.46875,-15.83 c -0.5775,0 -1.15625,-0.20625 -1.61625,-0.62625 -1.0025,-0.905 -1.0775,-2.4225 -0.17875,-3.41375 0.475,-0.53375 1.13625,-0.805 1.79875,-0.805 0.57625,0 1.15625,0.205 1.62125,0.6225 1.0025,0.89875 1.07625,2.42875 0.1875,3.42 -0.4825,0.53 -1.1475,0.8025 -1.8125,0.8025 m -88.27875,-13.02625 -0.39625,-1.5575 3.295,-1.76125 1.73625,0 0,15.075 -1.97,0 0,-13.175 -0.0438,0 -2.62125,1.41875 m -50.11,0 -0.395,-1.56 3.29375,-1.76125 1.74125,0 0,15.0775 -1.97125,0 0,-13.175 -0.0463,0 -2.6225,1.41875 m 14.9225,12.01125 c -2.94875,0 -4.94,-2.75875 -4.9875,-7.74625 0,-5.055 2.18,-7.84125 5.24125,-7.84125 3.17375,0 4.98875,2.83 4.98875,7.6325 0,5.125 -1.90375,7.955 -5.2425,7.955 m 11.9025,0 c -2.94125,0 -4.9375,-2.75875 -4.98625,-7.74625 0,-5.055 2.18375,-7.84125 5.24625,-7.84125 3.175,0 4.98625,2.83 4.98625,7.6325 0,5.125 -1.9025,7.955 -5.24625,7.955 m 34.45,-12.61875 -0.65125,-1.43625 c 1.04625,-0.88375 2.5275,-1.5325 4.27125,-1.5325 3.24625,0 4.615,2.2275 4.615,4.38625 0,2.78375 -2.01875,5.03375 -5.195,8.09625 l -1.20875,1.115 0,0.0437 6.775,0 0,1.69125 -9.62875,0 0,-1.25 1.60125,-1.55375 c 3.85,-3.6675 5.59,-5.61375 5.6125,-7.89 0,-1.52875 -0.74,-2.945 -2.99,-2.945 -1.37,0 -2.51,0.69875 -3.20125,1.275 m 15.66625,12.62125 c -2.95,0 -4.94375,-2.76125 -4.99125,-7.74875 0,-5.055 2.18375,-7.84125 5.24375,-7.84125 3.17625,0 4.9875,2.83 4.9875,7.63375 0,5.13 -1.90125,7.95625 -5.24,7.95625 m 42.32375,-0.0975 c -0.45375,0 -0.96,-0.16375 -1.415,-0.4925 -0.9175,-0.6625 -1.275,-1.74875 -0.77875,-2.4 l 12.6725,-17.46875 c 0.245,-0.3275 0.65,-0.4925 1.10875,-0.4925 0.455,0 0.965,0.1625 1.42375,0.4925 0.9125,0.6725 1.2675,1.75125 0.77625,2.40875 l -12.67375,17.44875 c -0.2475,0.33625 -0.65375,0.50375 -1.11375,0.50375 m -5.41125,-16.715 c -0.41,0 -0.82625,-0.105 -1.20375,-0.32875 -1.175,-0.67625 -1.5625,-2.14625 -0.88875,-3.3025 0.4475,-0.78 1.25875,-1.21625 2.0975,-1.21625 0.41,0 0.8275,0.105 1.21125,0.325 1.16625,0.675 1.56125,2.155 0.89375,3.30875 -0.455,0.77625 -1.2725,1.21375 -2.11,1.21375 m -145.05875,0.004 c -0.835,0 -1.64625,-0.435 -2.09625,-1.2125 -0.675,-1.15875 -0.27375,-2.645 0.8825,-3.31375 0.3825,-0.22 0.8,-0.325 1.21375,-0.325 0.8375,0 1.6525,0.435 2.1,1.215 0.66875,1.1575 0.27375,2.64 -0.88875,3.31 -0.38375,0.22125 -0.80125,0.32625 -1.21125,0.32625 m 117.36135,-12.3362 c -0.24875,0 -0.5,-0.04 -0.7475,-0.12125 -1.28875,-0.42125 -1.97625,-1.77875 -1.555,-3.05 0.3275,-1.02375 1.27125,-1.6775 2.295,-1.6775 0.24875,0 0.5025,0.0387 0.75375,0.12 1.28,0.41375 1.975,1.77875 1.5625,3.04875 -0.33875,1.02375 -1.29125,1.68 -2.30875,1.68 m -89.65875,0 c -1.0225,0 -1.9725,-0.65 -2.3025,-1.67625 -0.415,-1.27 0.2825,-2.63875 1.5575,-3.05375 0.24875,-0.0813 0.50125,-0.12 0.75,-0.12 1.02125,0 1.97,0.65125 2.305,1.6775 0.4125,1.2725 -0.28375,2.63875 -1.55875,3.05375 -0.24875,0.08 -0.50125,0.11875 -0.75125,0.11875 m -10.87125,12.55625 c -0.52125,0 -0.96625,-0.21875 -1.145,-0.61875 l -7.11875,-15.985 c -0.27,-0.61125 0.19,-1.40625 1.02375,-1.77625 0.29125,-0.12875 0.59,-0.19 0.8675,-0.19 0.52125,0 0.965,0.2175 1.14125,0.6175 l 7.11875,15.9875 c 0.2725,0.60625 -0.1875,1.405 -1.025,1.775 -0.29,0.12875 -0.58625,0.19 -0.8625,0.19 m 111.40375,10e-4 c -0.27625,0 -0.57625,-0.0625 -0.8675,-0.19125 -0.83375,-0.3775 -1.2975,-1.1675 -1.02625,-1.775 l 7.12125,-15.9912 c 0.175,-0.3975 0.62125,-0.615 1.14125,-0.615 0.2775,0 0.575,0.0613 0.865,0.19 0.835,0.37625 1.29625,1.16625 1.02125,1.7775 l -7.1175,15.985 c -0.1725,0.4025 -0.6175,0.62 -1.1375,0.62 m -40.5225,-18.86625 c -0.0888,0 -0.17875,-0.005 -0.26875,-0.015 -1.34625,-0.14125 -2.30375,-1.32625 -2.15375,-2.65875 0.125,-1.24125 1.16875,-2.1725 2.40125,-2.1725 0.085,0 0.17,0.005 0.2575,0.0138 1.3375,0.1425 2.30125,1.33 2.16,2.65875 -0.13625,1.2425 -1.17875,2.17375 -2.39625,2.17375 m -30.35,0.005 c -1.2225,0 -2.27375,-0.9275 -2.40375,-2.17125 -0.14,-1.33125 0.8225,-2.525 2.15625,-2.66625 0.0862,-0.009 0.1725,-0.0138 0.25625,-0.0138 1.225,0 2.27625,0.92875 2.40875,2.1725 0.1425,1.33125 -0.8275,2.525 -2.15875,2.66375 -0.0863,0.01 -0.1725,0.015 -0.25875,0.015 m -12.47625,12.8975 c -0.8675,0 -1.595,-0.42875 -1.73375,-1.08875 l -4.485,-21.10125 c -0.17125,-0.81 0.58375,-1.645 1.68875,-1.88375 0.19625,-0.04 0.3875,-0.06 0.57375,-0.06 0.87125,0 1.59875,0.4275 1.73375,1.09125 l 4.49,21.10125 c 0.17125,0.80375 -0.58625,1.64625 -1.6925,1.88 -0.19625,0.0412 -0.38875,0.0612 -0.575,0.0612 m 55.2825,0.002 c -0.1825,0 -0.37375,-0.02 -0.56625,-0.06 -1.11125,-0.23375 -1.87875,-1.0775 -1.6875,-1.87625 l 4.47,-21.11125 c 0.14875,-0.655 0.87375,-1.09 1.75375,-1.09 0.1825,0 0.37,0.0188 0.56,0.0563 1.1075,0.24375 1.86875,1.09 1.6875,1.89125 l -4.47875,21.08875 c -0.15,0.67 -0.87,1.10125 -1.73875,1.10125 m -27.6375,-5.88625 c -0.915,0 -1.6575,-0.53875 -1.6575,-1.20625 l 0,-17.49875 c 0,-0.6675 0.7425,-1.20625 1.6575,-1.20625 0.91875,0 1.65625,0.53875 1.65625,1.20625 l 0,17.49875 c 0,0.6675 -0.7375,1.20625 -1.65625,1.20625 m 0,-24.74625 c -8.515,0 -16.875,0.6675 -25.03,1.95125 -26.46125,4.17375 -50.7575,14.8575 -71.211251,30.35 1.54,0.3725 3.06875,0.75625 4.5975,1.155 0.16875,-0.26625 0.4025,-0.51625 0.69125,-0.7275 0.4575,-0.33375 0.97,-0.5 1.4275,-0.5 0.4575,0 0.86,0.16625 1.1,0.5 l 1.443751,1.985 c 95.665,26.7275 167.4675,103.4525 178.9975,196.89125 1.22875,1.2725 1.89125,3.45625 1.89125,6.36 0,1.955 -0.2775,3.575 -0.80625,4.8325 0.35875,5.06 0.54,10.155 0.54,15.29625 0,10.99625 -0.85125,21.8075 -2.45625,32.4 41.24375,-28.7825 68.285,-76.52 68.39125,-130.60625 l 0,-0.004 c 0,-0.05 0,-0.0975 0,-0.1475 0,-0.005 0,-0.008 0,-0.0138 0,-0.0525 0,-0.10125 0,-0.155 0,-88.125 -71.445,-159.5675 -159.57625,-159.5675"
     inkscape:connector-curvature="0" /><path
     id="path1152"
     style="fill:#be3b48;fill-opacity:1;fill-rule:nonzero;stroke:none"
     d="m 188.30293,33.85383 c -0.915,0 -1.6575,0.53875 -1.6575,1.20625 l 0,17.49875 c 0,0.6675 0.7425,1.20625 1.6575,1.20625 0.91875,0 1.65625,-0.53875 1.65625,-1.20625 l 0,-17.49875 c 0,-0.6675 -0.7375,-1.20625 -1.65625,-1.20625"
     inkscape:connector-curvature="0" /><path
     id="path1154"
     style="fill:#be3b48;fill-opacity:1;fill-rule:nonzero;stroke:none"
     d="m 126.23043,47.04133 c -0.2775,0 -0.57625,0.0612 -0.8675,0.19 -0.83375,0.37 -1.29375,1.165 -1.02375,1.77625 l 7.11875,15.985 c 0.17875,0.4 0.62375,0.61875 1.145,0.61875 0.27625,0 0.5725,-0.0613 0.8625,-0.19 0.8375,-0.37 1.2975,-1.16875 1.025,-1.775 l -7.11875,-15.9875 c -0.17625,-0.4 -0.62,-0.6175 -1.14125,-0.6175"
     inkscape:connector-curvature="0" /><path
     id="path1156"
     style="fill:#be3b48;fill-opacity:1;fill-rule:nonzero;stroke:none"
     d="m 306.47168,255.04758 c -0.5,0 -1.05875,0.36 -1.40625,0.95375 -0.4575,0.79375 -0.3625,1.71125 0.21875,2.04125 l 15.1475,8.74875 c 0.145,0.0838 0.30625,0.12375 0.47375,0.12375 0.5025,0 1.06,-0.36125 1.40375,-0.9575 0.4575,-0.7875 0.365,-1.705 -0.21375,-2.035 l -15.15625,-8.75375 c -0.14375,-0.0825 -0.3025,-0.12125 -0.4675,-0.12125"
     inkscape:connector-curvature="0" /><path
     id="path1158"
     style="fill:#be3b48;fill-opacity:1;fill-rule:nonzero;stroke:none"
     d="m 323.66668,201.15633 c -0.6275,0 -1.18375,0.65875 -1.27875,1.525 -0.095,0.9125 0.36375,1.71125 1.03,1.77625 l 17.3975,1.83 c 0.0325,0.004 0.0625,0.005 0.095,0.005 0.62625,0 1.185,-0.6625 1.285,-1.53125 0.0912,-0.905 -0.365,-1.70375 -1.03,-1.77125 l -17.405,-1.82875 c -0.0312,-0.004 -0.0638,-0.005 -0.0937,-0.005"
     inkscape:connector-curvature="0" /><path
     id="path1160"
     style="fill:#be3b48;fill-opacity:1;fill-rule:nonzero;stroke:none"
     d="m 334.08793,139.52508 c -0.0962,0 -0.19,0.0138 -0.2825,0.045 l -16.64375,5.40625 c -0.635,0.21 -0.91375,1.07875 -0.635,1.95 0.2425,0.7425 0.8225,1.25 1.3825,1.25 0.0962,0 0.19,-0.015 0.28125,-0.0437 l 16.64125,-5.41125 c 0.635,-0.20375 0.91,-1.0775 0.6325,-1.94875 -0.2425,-0.74125 -0.8175,-1.2475 -1.37625,-1.2475"
     inkscape:connector-curvature="0" /><path
     id="path1162"
     style="fill:#be3b48;fill-opacity:1;fill-rule:nonzero;stroke:none"
     d="m 301.95668,84.38258 c -0.255,0 -0.4875,0.0775 -0.6675,0.23875 l -13.0075,11.71125 c -0.4925,0.45 -0.3975,1.35875 0.21375,2.04125 0.38875,0.43125 0.895,0.66875 1.33875,0.66875 0.25375,0 0.48875,-0.0775 0.6675,-0.2425 l 13.005,-11.70875 c 0.4975,-0.44875 0.395,-1.35625 -0.21,-2.03875 -0.39125,-0.43375 -0.89625,-0.67 -1.34,-0.67"
     inkscape:connector-curvature="0" /><path
     id="path1164"
     style="fill:#be3b48;fill-opacity:1;fill-rule:nonzero;stroke:none"
     d="m 250.37543,47.04008 c -0.52,0 -0.96625,0.2175 -1.14125,0.615 l -7.12125,15.99125 c -0.27125,0.6075 0.1925,1.3975 1.02625,1.775 0.29125,0.12875 0.59125,0.19125 0.8675,0.19125 0.52,0 0.965,-0.2175 1.1375,-0.62 l 7.1175,-15.985 c 0.275,-0.61125 -0.18625,-1.40125 -1.02125,-1.7775 -0.29,-0.12875 -0.5875,-0.19 -0.865,-0.19"
     inkscape:connector-curvature="0" /><path
     id="path1166"
     style="fill:#cdcac9;fill-opacity:1;fill-rule:nonzero;stroke:none"
     d="m 173.14293,41.90008 c -0.0838,0 -0.17,0.005 -0.25625,0.0138 -1.33375,0.14125 -2.29625,1.335 -2.15625,2.66625 0.13,1.24375 1.18125,2.17125 2.40375,2.17125 0.0863,0 0.1725,-0.005 0.25875,-0.015 1.33125,-0.13875 2.30125,-1.3325 2.15875,-2.66375 -0.1325,-1.24375 -1.18375,-2.1725 -2.40875,-2.1725"
     inkscape:connector-curvature="0" /><path
     id="path1168"
     style="fill:#cdcac9;fill-opacity:1;fill-rule:nonzero;stroke:none"
     d="m 143.47918,48.20508 c -0.24875,0 -0.50125,0.0387 -0.75,0.12 -1.275,0.415 -1.9725,1.78375 -1.5575,3.05375 0.33,1.02625 1.28,1.67625 2.3025,1.67625 0.25,0 0.5025,-0.0387 0.75125,-0.11875 1.275,-0.415 1.97125,-1.78125 1.55875,-3.05375 -0.335,-1.02625 -1.28375,-1.6775 -2.305,-1.6775"
     inkscape:connector-curvature="0" /><path
     id="path1170"
     style="fill:#cdcac9;fill-opacity:1;fill-rule:nonzero;stroke:none"
     d="m 115.77168,60.54008 c -0.41375,0 -0.83125,0.105 -1.21375,0.325 -1.15625,0.66875 -1.5575,2.155 -0.8825,3.31375 0.45,0.7775 1.26125,1.2125 2.09625,1.2125 0.41,0 0.8275,-0.105 1.21125,-0.32625 1.1625,-0.67 1.5575,-2.1525 0.88875,-3.31 -0.4475,-0.78 -1.2625,-1.215 -2.1,-1.215"
     inkscape:connector-curvature="0" /><path
     id="path1172"
     style="fill:#cdcac9;fill-opacity:1;fill-rule:nonzero;stroke:none"
     d="m 305.66168,271.43133 c -0.74625,0 -1.48125,0.3475 -1.955,1.005 -0.795,1.07625 -0.55125,2.5975 0.53,3.3875 0.43125,0.31 0.9275,0.46 1.42125,0.46 0.74875,0 1.4875,-0.345 1.965,-1.0025 0.785,-1.08875 0.545,-2.6 -0.53875,-3.3825 -0.43125,-0.315 -0.93,-0.4675 -1.4225,-0.4675"
     inkscape:connector-curvature="0" /><path
     id="path1174"
     style="fill:#cdcac9;fill-opacity:1;fill-rule:nonzero;stroke:none"
     d="m 320.81793,245.16883 c -0.92125,0 -1.7975,0.5325 -2.2025,1.44625 -0.55125,1.21 0.006,2.64875 1.2275,3.19625 0.32,0.14375 0.655,0.21125 0.9825,0.21125 0.92625,0 1.80875,-0.53625 2.21125,-1.44125 0.545,-1.23 -0.006,-2.65875 -1.2275,-3.2 -0.3225,-0.14375 -0.66,-0.2125 -0.99125,-0.2125"
     inkscape:connector-curvature="0" /><path
     id="path1176"
     style="fill:#cdcac9;fill-opacity:1;fill-rule:nonzero;stroke:none"
     d="m 330.17793,216.32883 c -1.1125,10e-4 -2.1075,0.7775 -2.345,1.92 -0.28875,1.30375 0.55375,2.59375 1.8625,2.87875 0.16875,0.035 0.3375,0.0525 0.5025,0.0525 1.11875,0 2.12625,-0.77625 2.36875,-1.92 0.2775,-1.32 -0.55875,-2.5975 -1.86625,-2.8725 -0.17625,-0.0387 -0.35125,-0.0588 -0.5225,-0.0588"
     inkscape:connector-curvature="0" /><path
     id="path1178"
     style="fill:#cdcac9;fill-opacity:1;fill-rule:nonzero;stroke:none"
     d="m 333.37418,186.17008 c -0.002,0 -0.007,0 -0.01,0 -0.004,0 -0.007,0 -0.0113,0 -1.33125,0 -2.40625,1.07625 -2.40625,2.4225 -0.0125,1.3375 1.08375,2.42375 2.42,2.42875 1.33875,-0.001 2.425,-1.085 2.4225,-2.42875 0,-1.34125 -1.0775,-2.4225 -2.415,-2.4225"
     inkscape:connector-curvature="0" /><path
     id="path1180"
     style="fill:#cdcac9;fill-opacity:1;fill-rule:nonzero;stroke:none"
     d="m 330.20668,156.01008 c -0.1675,0 -0.34,0.0175 -0.51125,0.055 -1.3125,0.275 -2.1475,1.55 -1.8625,2.87125 0.23125,1.1375 1.245,1.92 2.36875,1.92 0.165,0 0.33375,-0.0163 0.5025,-0.0525 1.3075,-0.2775 2.14125,-1.56125 1.8625,-2.87625 -0.2425,-1.14125 -1.245,-1.9175 -2.36,-1.9175"
     inkscape:connector-curvature="0" /><path
     id="path1182"
     style="fill:#cdcac9;fill-opacity:1;fill-rule:nonzero;stroke:none"
     d="m 320.83293,127.16508 c -0.33,0 -0.6675,0.07 -0.99,0.21625 -1.2275,0.53875 -1.77875,1.9575 -1.2275,3.1925 0.395,0.9075 1.285,1.44 2.21625,1.44 0.32875,0 0.6625,-0.0662 0.9825,-0.20625 1.2175,-0.54125 1.77,-1.975 1.2225,-3.2025 -0.40125,-0.905 -1.28125,-1.44 -2.20375,-1.44"
     inkscape:connector-curvature="0" /><path
     id="path1184"
     style="fill:#cdcac9;fill-opacity:1;fill-rule:nonzero;stroke:none"
     d="m 305.66418,100.90508 c -0.49375,0 -0.99375,0.15125 -1.42375,0.465 -1.0875,0.7825 -1.335,2.2825 -0.53375,3.38125 0.46625,0.6525 1.205,0.9975 1.955,0.9975 0.495,0 0.99625,-0.15 1.4275,-0.4625 1.08125,-0.78125 1.3275,-2.29375 0.53375,-3.38375 -0.4775,-0.6525 -1.2125,-0.9975 -1.95875,-0.9975"
     inkscape:connector-curvature="0" /><path
     id="path1186"
     style="fill:#cdcac9;fill-opacity:1;fill-rule:nonzero;stroke:none"
     d="m 285.36918,78.36758 c -0.6625,0 -1.32375,0.27125 -1.79875,0.805 -0.89875,0.99125 -0.82375,2.50875 0.17875,3.41375 0.46,0.42 1.03875,0.62625 1.61625,0.62625 0.665,0 1.33,-0.2725 1.8125,-0.8025 0.88875,-0.99125 0.815,-2.52125 -0.1875,-3.42 -0.465,-0.4175 -1.045,-0.6225 -1.62125,-0.6225"
     inkscape:connector-curvature="0" /><path
     id="path1188"
     style="fill:#cdcac9;fill-opacity:1;fill-rule:nonzero;stroke:none"
     d="m 260.83543,60.54008 c -0.83875,0 -1.65,0.43625 -2.0975,1.21625 -0.67375,1.15625 -0.28625,2.62625 0.88875,3.3025 0.3775,0.22375 0.79375,0.32875 1.20375,0.32875 0.8375,0 1.655,-0.4375 2.11,-1.21375 0.6675,-1.15375 0.2725,-2.63375 -0.89375,-3.30875 -0.38375,-0.22 -0.80125,-0.325 -1.21125,-0.325"
     inkscape:connector-curvature="0" /><path
     id="path1190"
     style="fill:#cdcac9;fill-opacity:1;fill-rule:nonzero;stroke:none"
     d="m 233.12543,48.20633 c -1.02375,0 -1.9675,0.65375 -2.295,1.6775 -0.42125,1.27125 0.26625,2.62875 1.555,3.05 0.2475,0.0813 0.49875,0.12125 0.7475,0.12125 1.0175,0 1.97,-0.65625 2.30875,-1.68 0.4125,-1.27 -0.2825,-2.635 -1.5625,-3.04875 -0.25125,-0.0813 -0.505,-0.12 -0.75375,-0.12"
     inkscape:connector-curvature="0" /><path
     id="path1192"
     style="fill:#cdcac9;fill-opacity:1;fill-rule:nonzero;stroke:none"
     d="m 203.46293,41.90008 c -1.2325,0 -2.27625,0.93125 -2.40125,2.1725 -0.15,1.3325 0.8075,2.5175 2.15375,2.65875 0.09,0.01 0.18,0.015 0.26875,0.015 1.2175,0 2.26,-0.93125 2.39625,-2.17375 0.14125,-1.32875 -0.8225,-2.51625 -2.16,-2.65875 -0.0875,-0.009 -0.1725,-0.0138 -0.2575,-0.0138"
     inkscape:connector-curvature="0" /><path
     id="path1194"
     style="fill:#5f6062;fill-opacity:1;fill-rule:nonzero;stroke:none"
     d="m 156.70168,35.51508 c -0.18625,0 -0.3775,0.02 -0.57375,0.06 -1.105,0.23875 -1.86,1.07375 -1.68875,1.88375 l 4.485,21.10125 c 0.13875,0.66 0.86625,1.08875 1.73375,1.08875 0.18625,0 0.37875,-0.02 0.575,-0.0612 1.10625,-0.23375 1.86375,-1.07625 1.6925,-1.88 l -4.49,-21.10125 c -0.135,-0.66375 -0.8625,-1.09125 -1.73375,-1.09125"
     inkscape:connector-curvature="0" /><path
     id="path1196"
     style="fill:#5f6062;fill-opacity:1;fill-rule:nonzero;stroke:none"
     d="m 98.777929,61.24758 c -0.4575,0 -0.97,0.16625 -1.4275,0.5 -0.28875,0.21125 -0.5225,0.46125 -0.69125,0.7275 1.55625,0.405 3.11875,0.82625 4.662501,1.2575 l -1.443751,-1.985 c -0.24,-0.33375 -0.6425,-0.5 -1.1,-0.5"
     inkscape:connector-curvature="0" /><path
     id="path1198"
     style="fill:#5f6062;fill-opacity:1;fill-rule:nonzero;stroke:none"
     d="m 286.69668,273.22008 c -0.54625,0 -1.17,0.29125 -1.65,0.82375 -0.7525,0.84375 -0.86125,1.955 -0.255,2.52 l 16.02875,14.42625 c 0.22,0.205 0.51125,0.30125 0.82625,0.30125 0.545,0 1.16875,-0.29 1.65,-0.82 0.75125,-0.85125 0.8625,-1.9675 0.2625,-2.5175 l -16.03875,-14.43375 c -0.22125,-0.20375 -0.51,-0.3 -0.82375,-0.3"
     inkscape:connector-curvature="0" /><path
     id="path1200"
     style="fill:#5f6062;fill-opacity:1;fill-rule:nonzero;stroke:none"
     d="m 313.80793,225.62133 c -0.685,0 -1.39375,0.62625 -1.6925,1.54 -0.3475,1.08125 0.004,2.1425 0.7875,2.405 l 20.5125,6.66125 c 0.115,0.0387 0.23375,0.0575 0.3525,0.0575 0.68875,0 1.39875,-0.6225 1.69875,-1.53875 0.34625,-1.08125 -0.008,-2.14875 -0.78875,-2.405 l -20.51875,-6.66125 c -0.11375,-0.04 -0.2325,-0.0588 -0.35125,-0.0588"
     inkscape:connector-curvature="0" /><path
     id="path1202"
     style="fill:#5f6062;fill-opacity:1;fill-rule:nonzero;stroke:none"
     d="m 340.60543,168.86883 c -0.035,0 -0.07,0.001 -0.105,0.005 l -21.46,2.265 c -0.82,0.0725 -1.39,1.0625 -1.2625,2.18625 0.115,1.07625 0.8075,1.87875 1.59125,1.87875 0.0362,0 0.0725,-0.001 0.1075,-0.005 l 21.44625,-2.25875 c 0.81625,-0.0725 1.38125,-1.06125 1.2725,-2.185 -0.125,-1.08375 -0.82125,-1.88625 -1.59,-1.88625"
     inkscape:connector-curvature="0" /><path
     id="path1204"
     style="fill:#5f6062;fill-opacity:1;fill-rule:nonzero;stroke:none"
     d="m 320.56668,108.38258 c -0.2025,0 -0.39625,0.0475 -0.5725,0.145 l -18.68375,10.8 c -0.71875,0.39875 -0.83125,1.535 -0.265,2.51375 0.4275,0.73375 1.1125,1.16875 1.73375,1.16875 0.20625,0 0.405,-0.0475 0.585,-0.1475 l 18.6725,-10.78625 c 0.7175,-0.4025 0.8325,-1.535 0.2725,-2.51625 -0.43375,-0.7425 -1.125,-1.1775 -1.7425,-1.1775"
     inkscape:connector-curvature="0" /><path
     id="path1206"
     style="fill:#5f6062;fill-opacity:1;fill-rule:nonzero;stroke:none"
     d="m 277.82918,61.24883 c -0.45875,0 -0.86375,0.165 -1.10875,0.4925 l -12.6725,17.46875 c -0.49625,0.65125 -0.13875,1.7375 0.77875,2.4 0.455,0.32875 0.96125,0.4925 1.415,0.4925 0.46,0 0.86625,-0.1675 1.11375,-0.50375 l 12.67375,-17.44875 c 0.49125,-0.6575 0.13625,-1.73625 -0.77625,-2.40875 -0.45875,-0.33 -0.96875,-0.4925 -1.42375,-0.4925"
     inkscape:connector-curvature="0" /><path
     id="path1208"
     style="fill:#5f6062;fill-opacity:1;fill-rule:nonzero;stroke:none"
     d="m 219.91043,35.51383 c -0.88,0 -1.605,0.435 -1.75375,1.09 l -4.47,21.11125 c -0.19125,0.79875 0.57625,1.6425 1.6875,1.87625 0.1925,0.04 0.38375,0.06 0.56625,0.06 0.86875,0 1.58875,-0.43125 1.73875,-1.10125 l 4.47875,-21.08875 c 0.18125,-0.80125 -0.58,-1.6475 -1.6875,-1.89125 -0.19,-0.0375 -0.3775,-0.0563 -0.56,-0.0563"
     inkscape:connector-curvature="0" /><path
     id="path1210"
     style="fill:#e7e7e5;fill-opacity:1;fill-rule:nonzero;stroke:none"
     d="m 151.61668,66.86508 -1.74125,0 -3.29375,1.76125 0.395,1.56 2.6225,-1.41875 0.0463,0 0,13.175 1.97125,0 0,-15.0775"
     inkscape:connector-curvature="0" /><path
     id="path1212"
     style="fill:#e7e7e5;fill-opacity:1;fill-rule:nonzero;stroke:none"
     d="m 162.01418,80.62133 c -1.85875,0 -3.06375,-2.22625 -3.06375,-6.14625 0,-4.10625 1.30125,-6.28875 3.0875,-6.28875 2.11,0 3.06125,2.43625 3.06125,6.14875 0,3.84875 -1,6.28625 -3.085,6.28625 m 0.13875,-14.01125 c -3.06125,0 -5.24125,2.78625 -5.24125,7.84125 0.0475,4.9875 2.03875,7.74625 4.9875,7.74625 3.33875,0 5.2425,-2.83 5.2425,-7.955 0,-4.8025 -1.815,-7.6325 -4.98875,-7.6325"
     inkscape:connector-curvature="0" /><path
     id="path1214"
     style="fill:#e7e7e5;fill-opacity:1;fill-rule:nonzero;stroke:none"
     d="m 173.92168,80.62133 c -1.8575,0 -3.06125,-2.22625 -3.06125,-6.14625 0,-4.10625 1.29875,-6.28875 3.08,-6.28875 2.11625,0 3.06375,2.43625 3.06375,6.14875 0,3.84875 -0.99375,6.28625 -3.0825,6.28625 m 0.14,-14.01125 c -3.0625,0 -5.24625,2.78625 -5.24625,7.84125 0.0487,4.9875 2.045,7.74625 4.98625,7.74625 3.34375,0 5.24625,-2.83 5.24625,-7.955 0,-4.8025 -1.81125,-7.6325 -4.98625,-7.6325"
     inkscape:connector-curvature="0" /><path
     id="path1216"
     style="fill:#e7e7e5;fill-opacity:1;fill-rule:nonzero;stroke:none"
     d="m 201.72168,66.86758 -1.73625,0 -3.295,1.76125 0.39625,1.5575 2.62125,-1.41875 0.0438,0 0,13.175 1.97,0 0,-15.075"
     inkscape:connector-curvature="0" /><path
     id="path1218"
     style="fill:#e7e7e5;fill-opacity:1;fill-rule:nonzero;stroke:none"
     d="m 211.87168,66.61008 c -1.74375,0 -3.225,0.64875 -4.27125,1.5325 l 0.65125,1.43625 c 0.69125,-0.57625 1.83125,-1.275 3.20125,-1.275 2.25,0 2.99,1.41625 2.99,2.945 -0.0225,2.27625 -1.7625,4.2225 -5.6125,7.89 l -1.60125,1.55375 0,1.25 9.62875,0 0,-1.69125 -6.775,0 0,-0.0437 1.20875,-1.115 c 3.17625,-3.0625 5.195,-5.3125 5.195,-8.09625 0,-2.15875 -1.36875,-4.38625 -4.615,-4.38625"
     inkscape:connector-curvature="0" /><path
     id="path1220"
     style="fill:#464748;fill-opacity:1;fill-rule:nonzero;stroke:none"
     d="m 296.96543,177.43008 c -1.765,0.51 -2.7125,1.6725 -2.7125,3.11 -0.0713,1.53375 1.09,2.8775 3.01375,2.8775 1.8325,0 3.015,-1.16 3.015,-2.69125 0,-1.83375 -1.27625,-2.71375 -3.31625,-3.29625 m 12.20375,-6.54125 c -1.78375,0 -3.08125,2.1825 -3.08125,6.28875 0,3.92125 1.20375,6.1475 3.0625,6.1475 2.0875,0 3.08375,-2.4375 3.08375,-6.28625 0,-3.71375 -0.95,-6.15 -3.065,-6.15 m -11.87875,-0.11375 c -1.69375,0 -2.6225,1.115 -2.6225,2.4125 0,1.51 1.14,2.3175 2.87625,2.785 1.29875,-0.44 2.2975,-1.37125 2.2975,-2.73875 0,-1.205 -0.72,-2.45875 -2.55125,-2.45875 m -16.62125,-40.7025 c -1.23,0 -2.36625,0.76625 -2.9225,1.8575 -0.13875,0.23 -0.23125,0.53125 -0.23125,0.9025 0.0488,2.4825 1.1825,4.31625 3.315,4.31625 l 0.0263,0 c 1.73875,0 2.9225,-1.46 2.9225,-3.61875 0,-2.1575 -1.23125,-3.4575 -3.11,-3.4575 m 11.9075,-5.36 c -1.785,0 -3.085,2.18 -3.085,6.28875 0,3.92125 1.21,6.1475 3.06125,6.1475 2.0875,0 3.085,-2.43625 3.085,-6.2875 0,-3.71125 -0.95,-6.14875 -3.06125,-6.14875 m -33.6525,-34.97125 -0.0738,0 c -0.46125,0.8825 -0.83375,1.53 -1.2525,2.22875 l -3.685,5.12625 0,0.0463 4.9375,0 0,-5.035 c 0,-0.79 0.0263,-1.575 0.0738,-2.36625 m 10.44125,-0.65125 c -1.785,0 -3.0825,2.18125 -3.0825,6.28875 0,3.92125 1.2075,6.1475 3.06125,6.1475 2.08625,0 3.085,-2.435 3.085,-6.28875 0,-3.71 -0.9525,-6.1475 -3.06375,-6.1475 m -45.3125,-20.90125 c -1.7825,0 -3.085,2.18 -3.085,6.28625 0,3.92 1.2075,6.14625 3.0625,6.14625 2.08875,0 3.085,-2.43375 3.085,-6.28625 0,-3.71125 -0.95,-6.14625 -3.0625,-6.14625"
     inkscape:connector-curvature="0" /><path
     id="path1222"
     style="fill:#e7e7e5;fill-opacity:1;fill-rule:nonzero;stroke:none"
     d="m 224.03043,80.62133 c -1.855,0 -3.0625,-2.22625 -3.0625,-6.14625 0,-4.10625 1.3025,-6.28625 3.085,-6.28625 2.1125,0 3.0625,2.435 3.0625,6.14625 0,3.8525 -0.99625,6.28625 -3.085,6.28625 m 0.14,-14.01125 c -3.06,0 -5.24375,2.78625 -5.24375,7.84125 0.0475,4.9875 2.04125,7.74875 4.99125,7.74875 3.33875,0 5.24,-2.82625 5.24,-7.95625 0,-4.80375 -1.81125,-7.63375 -4.9875,-7.63375"
     inkscape:connector-curvature="0" /><path
     id="path1224"
     style="fill:#e7e7e5;fill-opacity:1;fill-rule:nonzero;stroke:none"
     d="m 247.03668,87.77133 -1.73875,0 -3.295,1.7625 0.395,1.55125 2.62375,-1.41 0.0425,0 0,13.1725 1.9725,0 0,-15.07625"
     inkscape:connector-curvature="0" /><path
     id="path1226"
     style="fill:#e7e7e5;fill-opacity:1;fill-rule:nonzero;stroke:none"
     d="m 253.91293,97.14258 0,-0.0463 3.685,-5.12625 c 0.41875,-0.69875 0.79125,-1.34625 1.2525,-2.22875 l 0.0738,0 c -0.0475,0.79125 -0.0738,1.57625 -0.0738,2.36625 l 0,5.035 -4.9375,0 m 6.8675,-9.37125 -2.20625,0 -6.72625,9.6275 0,1.34125 7.0025,0 0,4.1075 1.93,0 0,-4.1075 2.11,0 0,-1.5975 -2.11,0 0,-9.37125"
     inkscape:connector-curvature="0" /><path
     id="path1228"
     style="fill:#e7e7e5;fill-opacity:1;fill-rule:nonzero;stroke:none"
     d="m 269.34418,101.52633 c -1.85375,0 -3.06125,-2.22625 -3.06125,-6.1475 0,-4.1075 1.2975,-6.28875 3.0825,-6.28875 2.11125,0 3.06375,2.4375 3.06375,6.1475 0,3.85375 -0.99875,6.28875 -3.085,6.28875 m 0.14,-14.01125 c -3.06125,0 -5.24625,2.7825 -5.24625,7.84 0.05,4.985 2.045,7.74875 4.98875,7.74875 3.34,0 5.24375,-2.83 5.24375,-7.95625 0,-4.8025 -1.80875,-7.6325 -4.98625,-7.6325"
     inkscape:connector-curvature="0" /><path
     id="path1230"
     style="fill:#e7e7e5;fill-opacity:1;fill-rule:nonzero;stroke:none"
     d="m 270.24918,123.39133 -1.74,0 -3.295,1.76625 0.39375,1.55 2.625,-1.41125 0.0438,0 0,13.17375 1.9725,0 0,-15.07875"
     inkscape:connector-curvature="0" /><path
     id="path1232"
     style="fill:#e7e7e5;fill-opacity:1;fill-rule:nonzero;stroke:none"
     d="m 280.83043,137.14883 c -2.1325,0 -3.26625,-1.83375 -3.315,-4.31625 0,-0.37125 0.0925,-0.6725 0.23125,-0.9025 0.55625,-1.09125 1.6925,-1.8575 2.9225,-1.8575 1.87875,0 3.11,1.3 3.11,3.4575 0,2.15875 -1.18375,3.61875 -2.9225,3.61875 l -0.0263,0 m 3.5275,-13.9875 c -0.37125,0 -0.88375,0.0225 -1.48125,0.115 -1.905,0.23375 -3.57375,0.9975 -4.82625,2.22625 -1.4875,1.4875 -2.55375,3.82875 -2.55375,6.79875 0,3.92125 2.11125,6.425 5.33375,6.425 3.1325,0 5.00875,-2.55125 5.00875,-5.31 0,-2.9475 -1.87625,-4.87375 -4.5425,-4.87375 -1.66875,0 -2.9225,0.78875 -3.64125,1.74125 l -0.07,0 c 0.34875,-2.485 2.0425,-4.8275 5.24,-5.36375 0.44375,-0.0675 0.86125,-0.0962 1.2175,-0.0962 0.1125,0 0.2175,0.002 0.315,0.007 l 0,-1.67"
     inkscape:connector-curvature="0" /><path
     id="path1234"
     style="fill:#e7e7e5;fill-opacity:1;fill-rule:nonzero;stroke:none"
     d="m 292.55293,137.14883 c -1.85125,0 -3.06125,-2.22625 -3.06125,-6.1475 0,-4.10875 1.3,-6.28875 3.085,-6.28875 2.11125,0 3.06125,2.4375 3.06125,6.14875 0,3.85125 -0.9975,6.2875 -3.085,6.2875 m 0.14,-14.0125 c -3.06125,0 -5.24375,2.78625 -5.24375,7.8425 0.0462,4.985 2.0425,7.7475 4.99,7.7475 3.33875,0 5.24125,-2.83 5.24125,-7.95625 0,-4.8025 -1.80875,-7.63375 -4.9875,-7.63375"
     inkscape:connector-curvature="0" /><path
     id="path1236"
     style="fill:#e7e7e5;fill-opacity:1;fill-rule:nonzero;stroke:none"
     d="m 286.84293,169.56758 -1.74125,0 -3.2925,1.76125 0.39375,1.5575 2.62375,-1.41625 0.045,0 0,13.1775 1.97125,0 0,-15.08"
     inkscape:connector-curvature="0" /><path
     id="path1238"
     style="fill:#e7e7e5;fill-opacity:1;fill-rule:nonzero;stroke:none"
     d="m 297.26668,183.41758 c -1.92375,0 -3.085,-1.34375 -3.01375,-2.8775 0,-1.4375 0.9475,-2.6 2.7125,-3.11 2.04,0.5825 3.31625,1.4625 3.31625,3.29625 0,1.53125 -1.1825,2.69125 -3.015,2.69125 m 0.2775,-7.445 c -1.73625,-0.4675 -2.87625,-1.275 -2.87625,-2.785 0,-1.2975 0.92875,-2.4125 2.6225,-2.4125 1.83125,0 2.55125,1.25375 2.55125,2.45875 0,1.3675 -0.99875,2.29875 -2.2975,2.73875 m -0.14,-6.66 c -2.64375,0 -4.66375,1.625 -4.66375,4.0125 0,1.29875 0.72125,2.59875 2.39375,3.38875 l 0.02,0.0662 c -1.85375,0.79 -2.99,2.135 -2.99,4.03875 0,2.20375 1.9,4.08375 5.05625,4.08375 2.87625,0 5.12625,-1.7625 5.12625,-4.38625 0,-1.83 -1.1575,-3.15375 -3.0375,-3.8975 l 0,-0.0662 c 1.8575,-0.885 2.48125,-2.25375 2.48125,-3.5275 0,-1.88 -1.4625,-3.7125 -4.38625,-3.7125"
     inkscape:connector-curvature="0" /><path
     id="path1240"
     style="fill:#e7e7e5;fill-opacity:1;fill-rule:nonzero;stroke:none"
     d="m 309.15043,183.32508 c -1.85875,0 -3.0625,-2.22625 -3.0625,-6.1475 0,-4.10625 1.2975,-6.28875 3.08125,-6.28875 2.115,0 3.065,2.43625 3.065,6.15 0,3.84875 -0.99625,6.28625 -3.08375,6.28625 m 0.14,-14.0125 c -3.06375,0 -5.245,2.78375 -5.245,7.84125 0.0475,4.9875 2.0425,7.74875 4.9875,7.74875 3.34,0 5.24,-2.82875 5.24,-7.95875 0,-4.80125 -1.80625,-7.63125 -4.9825,-7.63125"
     inkscape:connector-curvature="0" /><path
     id="path1242"
     style="fill:#e7e7e5;fill-opacity:1;fill-rule:nonzero;stroke:none"
     d="m 281.68418,213.23758 c -1.74125,0 -3.22625,0.65125 -4.26875,1.53375 l 0.64875,1.4375 c 0.6925,-0.58 1.8325,-1.275 3.20125,-1.275 2.25,0 2.9925,1.41375 2.9925,2.9475 -0.0225,2.27 -1.7625,4.21875 -5.61625,7.8825 l -1.59375,1.55625 0,1.2525 9.62125,0 0,-1.695 -6.7725,0 0,-0.0437 1.20625,-1.11375 c 3.17625,-3.06125 5.1975,-5.31125 5.1975,-8.09625 0,-2.1575 -1.37125,-4.38625 -4.61625,-4.38625"
     inkscape:connector-curvature="0" /><path
     id="path1244"
     style="fill:#464748;fill-opacity:1;fill-rule:nonzero;stroke:none"
     d="m 293.86793,214.81758 c -1.78625,0 -3.08375,2.17875 -3.08375,6.285 0,3.9225 1.20375,6.14875 3.05875,6.14875 2.0875,0 3.08625,-2.435 3.08625,-6.28625 0,-3.7125 -0.9525,-6.1475 -3.06125,-6.1475 m 11.90625,0 c -1.78375,0 -3.08375,2.17875 -3.08375,6.285 0,3.9225 1.20125,6.14875 3.06125,6.14875 2.08875,0 3.08375,-2.435 3.08375,-6.28625 0,-3.7125 -0.95125,-6.1475 -3.06125,-6.1475"
     inkscape:connector-curvature="0" /><path
     id="path1246"
     style="fill:#e7e7e5;fill-opacity:1;fill-rule:nonzero;stroke:none"
     d="m 293.84293,227.25133 c -1.855,0 -3.05875,-2.22625 -3.05875,-6.14875 0,-4.10625 1.2975,-6.285 3.08375,-6.285 2.10875,0 3.06125,2.435 3.06125,6.1475 0,3.85125 -0.99875,6.28625 -3.08625,6.28625 m 0.145,-14.01375 c -3.0675,0 -5.2475,2.7875 -5.2475,7.84125 0.0438,4.98875 2.04375,7.75125 4.9875,7.75125 3.3375,0 5.2425,-2.83 5.2425,-7.9575 0,-4.80125 -1.80875,-7.635 -4.9825,-7.635"
     inkscape:connector-curvature="0" /><path
     id="path1248"
     style="fill:#e7e7e5;fill-opacity:1;fill-rule:nonzero;stroke:none"
     d="m 305.75168,227.25133 c -1.86,0 -3.06125,-2.22625 -3.06125,-6.14875 0,-4.10625 1.3,-6.285 3.08375,-6.285 2.11,0 3.06125,2.435 3.06125,6.1475 0,3.85125 -0.995,6.28625 -3.08375,6.28625 m 0.14,-14.01375 c -3.06125,0 -5.24375,2.7875 -5.24375,7.84125 0.0462,4.98875 2.0425,7.75125 4.98625,7.75125 3.3425,0 5.24375,-2.83 5.24375,-7.9575 0,-4.80125 -1.81,-7.635 -4.98625,-7.635"
     inkscape:connector-curvature="0" /><path
     id="path1250"
     style="fill:#e7e7e5;fill-opacity:1;fill-rule:nonzero;stroke:none"
     d="m 280.31918,260.62383 c 0.4575,3.70125 0.82,7.44 1.085,11.1925 0.52875,-1.2575 0.80625,-2.8775 0.80625,-4.8325 0,-2.90375 -0.6625,-5.0875 -1.89125,-6.36"
     inkscape:connector-curvature="0" /></svg>