<?xml version="1.0" encoding="UTF-8" standalone="no"?>
<!-- Created with Inkscape (http://www.inkscape.org/) -->

<svg
   xmlns:dc="http://purl.org/dc/elements/1.1/"
   xmlns:cc="http://creativecommons.org/ns#"
   xmlns:rdf="http://www.w3.org/1999/02/22-rdf-syntax-ns#"
   xmlns:svg="http://www.w3.org/2000/svg"
   xmlns="http://www.w3.org/2000/svg"
   xmlns:sodipodi="http://sodipodi.sourceforge.net/DTD/sodipodi-0.dtd"
   xmlns:inkscape="http://www.inkscape.org/namespaces/inkscape"
   width="76.063782mm"
   height="76.064156mm"
   viewBox="0 0 269.51734 269.51866"
   id="svg7822"
   version="1.1"
   inkscape:version="0.91 r13725"
   sodipodi:docname="gauge-sport.svg">
  <defs
     id="defs7824">
    <clipPath
       id="clipPath174"
       clipPathUnits="userSpaceOnUse">
      <path
         inkscape:connector-curvature="0"
         style="clip-rule:evenodd"
         id="path172"
         d="m 3700,5770 c 558.11,0 1010.7,-452.59 1010.7,-1010.7 0,-558.1 -452.59,-1010.69 -1010.7,-1010.69 -558.1,0 -1010.68,452.59 -1010.68,1010.69 0,558.11 452.58,1010.7 1010.68,1010.7 z m 0,-117.93 c -492.98,0 -892.77,-399.8 -892.77,-892.77 0,-492.99 399.79,-892.77 892.77,-892.77 492.99,0 892.77,399.78 892.77,892.77 0,492.97 -399.78,892.77 -892.77,892.77" />
    </clipPath>
  </defs>
  <sodipodi:namedview
     id="base"
     pagecolor="#ffffff"
     bordercolor="#666666"
     borderopacity="1.0"
     inkscape:pageopacity="0.0"
     inkscape:pageshadow="2"
     inkscape:zoom="1.979899"
     inkscape:cx="197.69345"
     inkscape:cy="131.33375"
     inkscape:document-units="px"
     inkscape:current-layer="layer1"
     showgrid="false"
     fit-margin-top="0"
     fit-margin-left="0"
     fit-margin-right="0"
     fit-margin-bottom="0"
     inkscape:window-width="1855"
     inkscape:window-height="1056"
     inkscape:window-x="65"
     inkscape:window-y="24"
     inkscape:window-maximized="1" />
  <metadata
     id="metadata7827">
    <rdf:RDF>
      <cc:Work
         rdf:about="">
        <dc:format>image/svg+xml</dc:format>
        <dc:type
           rdf:resource="http://purl.org/dc/dcmitype/StillImage" />
        <dc:title />
      </cc:Work>
    </rdf:RDF>
  </metadata>
  <g
     inkscape:label="Layer 1"
     inkscape:groupmode="layer"
     id="layer1"
     transform="translate(-288.09843,-423.31716)">
    <ellipse
       style="fill:#000000;fill-opacity:1"
       id="path4180"
       cx="422.70126"
       cy="556.97028"
       rx="134.60283"
       ry="133.84521" />
    <path
       id="path140"
       style="fill:#fbc408;fill-opacity:1;fill-rule:evenodd;stroke:none"
       d="m 470.67043,461.86915 -4.89467,-2.28266 -7.72,16.56133 4.892,2.28133 7.72267,-16.56 z m -50.512,-11.19733 5.39733,0 0,18.27067 -5.39733,0 z m -45.11467,11.19733 4.89067,-2.28266 7.724,16.56133 -4.89333,2.28133 -7.72134,-16.56 z m -36.15733,29.216 3.472,-4.13733 13.99733,11.74533 -3.472,4.13734 -13.99733,-11.74534 z m -20.41867,41.75867 1.396,-5.216 17.65334,4.72933 -1.4,5.21334 -17.64934,-4.72667 z m -0.86,46.47333 -0.93733,-5.31466 17.99333,-3.176 0.93867,5.31866 -17.99467,3.172 z m 18.86134,42.48533 -3.096,-4.42266 14.96933,-10.48134 3.096,4.42134 -14.96933,10.48266 z m 170.35466,-130.71733 -3.46933,-4.13733 -13.99734,11.74533 3.47067,4.13734 13.996,-11.74534 z m 20.42,41.75867 -1.396,-5.216 -17.65067,4.72933 1.39867,5.21334 17.648,-4.72667"
       inkscape:connector-curvature="0" />
    <path
       id="path142"
       style="fill:#fbc408;fill-opacity:1;fill-rule:evenodd;stroke:none"
       d="m 321.87043,586.60515 12.36267,-3.60266 c 0.16666,0.6 0.34666,1.19733 0.52933,1.79466 l -12.36267,3.60267 c -0.18,-0.59867 -0.36133,-1.192 -0.52933,-1.79467 z m 9.436,22.72933 c -0.30667,-0.54533 -0.60933,-1.08933 -0.90667,-1.63866 l 11.29867,-6.18534 c 0.29333,0.552 0.59467,1.09867 0.9,1.64 l -11.292,6.184 z m -5.012,-10.17866 c -0.24533,-0.57334 -0.48133,-1.15067 -0.71467,-1.72934 l 11.896,-4.92666 c 0.23334,0.57866 0.47334,1.15333 0.71467,1.72666 l -11.896,4.92934 z m -8.05867,-33.216 c -0.0467,-0.62 -0.0827,-1.24267 -0.12,-1.86533 l 12.84534,-0.84134 c 0.0347,0.62134 0.072,1.244 0.11866,1.86534 l -12.844,0.84133 z m -0.22666,-11.43733 c 0.0213,-0.62134 0.04,-1.24667 0.0707,-1.868 l 12.86534,0.56133 c -0.032,0.62133 -0.056,1.244 -0.0747,1.86933 l -12.86133,-0.56266 z m 0.988,-11.304 c 0.088,-0.61734 0.18133,-1.236 0.27733,-1.84934 l 12.728,1.94934 c -0.0987,0.61333 -0.19067,1.23066 -0.27867,1.84933 l -12.72666,-1.94933 z m 112.95733,-76.71334 c 0.62133,0.0613 1.24133,0.12934 1.86,0.20534 l 1.396,-12.76 -1.86,-0.20267 -1.396,12.75733 z m 9.928,1.52667 c 0.60933,0.12667 1.21866,0.25867 1.82533,0.4 l 2.77733,-12.516 -1.82933,-0.40667 -2.77333,12.52267 z m 9.624,2.58 c 0.59066,0.19467 1.18266,0.396 1.768,0.6 l 4.112,-12.148 -1.77067,-0.6 -4.10933,12.148 z m 18.39733,8.376 c 0.536,0.31733 1.06933,0.64267 1.59733,0.97333 l 6.67334,-10.97733 -1.59867,-0.972 -6.672,10.976 z m 8.27067,5.55067 7.824,-10.196 1.48533,1.13733 -7.82533,10.196 c -0.49067,-0.38533 -0.98534,-0.76267 -1.484,-1.13733 z m 7.67733,6.46933 c 0.45333,0.42667 0.904,0.856 1.34933,1.29333 l 8.89734,-9.29333 -1.34934,-1.29467 -8.89733,9.29467 z m 13.04,15.22667 c 0.35467,0.51466 0.69867,1.03333 1.04,1.55466 l 10.69867,-7.14933 -1.03867,-1.55333 -10.7,7.148 z m 5.20667,8.58533 c 0.29333,0.54933 0.58133,1.10133 0.864,1.65867 l 11.408,-5.93867 -0.86267,-1.66133 -11.40933,5.94133 z m 4.20666,9.02667 c 0.232,0.57733 0.456,1.16 0.67734,1.74266 l 11.98533,-4.672 -0.67867,-1.744 -11.984,4.67334 z m -171.57733,1.74266 c 0.22267,-0.58266 0.44667,-1.16533 0.67867,-1.74266 l -11.98267,-4.67334 -0.67733,1.744 11.98133,4.672 z m 4.02,-9.11333 c 0.28267,-0.55467 0.572,-1.10667 0.86534,-1.656 l -11.408,-5.94133 -0.864,1.66133 11.40666,5.936 z m 5.03334,-8.68667 c 0.34133,-0.52133 0.68666,-1.04 1.03733,-1.55466 l -10.696,-7.148 -1.04,1.55333 10.69867,7.14933 z m 12.728,-15.488 c 0.44666,-0.43733 0.89733,-0.868 1.34933,-1.29466 l -8.89333,-9.29334 -1.352,1.29467 8.896,9.29333 z m 7.54666,-6.62533 -7.828,-10.196 1.488,-1.13733 7.82267,10.196 c -0.49867,0.37466 -0.99467,0.752 -1.48267,1.13733 z m 8.156,-5.71733 c 0.52934,-0.328 1.05867,-0.656 1.59467,-0.97334 l -6.66933,-10.97333 -1.59867,0.972 6.67333,10.97467 z m 18.22534,-8.748 c 0.58666,-0.204 1.17866,-0.404 1.77066,-0.59867 l -4.10933,-12.148 -1.77067,0.6 4.10934,12.14667 z m 9.56933,-2.77867 c 0.60266,-0.14133 1.21333,-0.27333 1.82533,-0.4 l -2.77333,-12.52267 -1.82934,0.40667 2.77734,12.516 z m 9.89333,-1.72133 c 0.61733,-0.076 1.24,-0.14667 1.85867,-0.20533 l -1.39467,-12.75734 -1.86267,0.20267 1.39867,12.76"
       inkscape:connector-curvature="0" />
    <path
       id="path144"
       style="fill:#ffffff;fill-opacity:1;fill-rule:nonzero;stroke:none"
       d="m 428.04376,479.92382 -10.94533,0 0,1.776 11.008,0 0,2.22667 c 0,3.27866 -1.772,4.91733 -5.31734,4.91733 l -8.38,0 0,-2.768 8.98267,0 c 0.576,0 1.02933,-0.14933 1.35333,-0.448 0.32134,-0.3 0.532,-0.732 0.624,-1.29733 l -10.96,0 0,-7.14267 13.63467,0 0,2.736"
       inkscape:connector-curvature="0" />
    <path
       id="path146"
       style="fill:#ffffff;fill-opacity:1;fill-rule:nonzero;stroke:none"
       d="m 384.49576,483.30115 0,4.516 8.78134,0 0,-4.516 2.69066,0 0,11.656 -2.69066,0 0,-4.51333 -11.624,0 0,-7.14267 2.84266,0"
       inkscape:connector-curvature="0" />
    <path
       id="path148"
       style="fill:#ffffff;fill-opacity:1;fill-rule:nonzero;stroke:none"
       d="m 370.9491,504.09849 0,5.85866 c 0,0.90667 -0.12934,1.71734 -0.388,2.436 -0.25734,0.716 -0.632,1.32267 -1.12667,1.824 -0.49467,0.49734 -1.10533,0.88 -1.83333,1.14267 -0.72534,0.26267 -1.55067,0.39467 -2.48,0.39467 l -8.54667,0 0,-2.76534 8.50133,0 c 0.86534,0 1.51867,-0.14 1.96134,-0.41066 0.44533,-0.27334 0.752,-0.72 0.928,-1.33734 l -6.58534,0 0,-2.62933 6.74134,0 0,-1.77733 -6.91067,0 c -1.16533,0 -1.828,0.592 -1.99467,1.77733 l -2.72,0 c 0.13334,-3.008 1.90534,-4.51333 5.316,-4.51333 l 9.13734,0"
       inkscape:connector-curvature="0" />
    <path
       id="path150"
       style="fill:#ffffff;fill-opacity:1;fill-rule:nonzero;stroke:none"
       d="m 357.31976,544.30515 -14.40666,0 0,-7.144 11.73333,0 c -0.18667,-1.184 -0.84667,-1.776 -1.97867,-1.776 l -9.75466,0 0,-2.736 9.15066,0 c 3.54534,0 5.31867,1.64 5.31867,4.916 l 0,2.22534 -11.77867,0 0,1.748 11.716,0 0,2.76666"
       inkscape:connector-curvature="0" />
    <path
       id="path152"
       style="fill:#ffffff;fill-opacity:1;fill-rule:nonzero;stroke:none"
       d="m 344.21576,577.22782 0,-6.26133 c 0,-1.772 -0.792,-2.65867 -2.36666,-2.65867 l -0.712,0 0,-2.736 0.78933,0 c 1.732,0 3.01867,0.43067 3.864,1.29067 0.84667,0.86133 1.26933,2.20933 1.26933,4.04266 l 0,6.32267 -2.844,0"
       inkscape:connector-curvature="0" />
    <path
       id="path154"
       style="fill:#ffffff;fill-opacity:1;fill-rule:nonzero;stroke:none"
       d="m 367.89443,600.59315 -6.29333,0 c -0.58667,0 -1.076,0.0507 -1.46667,0.15467 -0.39067,0.10133 -0.70267,0.27466 -0.936,0.51733 -0.23067,0.24267 -0.396,0.56133 -0.49333,0.956 -0.0987,0.39867 -0.14934,0.896 -0.14934,1.49333 l 0,3.03067 6.29334,0 c 0.57466,0 1.05866,-0.0467 1.44666,-0.14 0.38534,-0.0947 0.696,-0.25867 0.93334,-0.49333 0.23866,-0.23867 0.408,-0.556 0.50933,-0.952 0.104,-0.39467 0.156,-0.89867 0.156,-1.50667 z m 2.84533,-2.73733 0,5.85866 c 0,0.90934 -0.13066,1.71734 -0.38933,2.43334 -0.25467,0.71866 -0.63467,1.32666 -1.13467,1.82666 -0.49866,0.5 -1.108,0.88 -1.832,1.14267 -0.72,0.26267 -1.54666,0.39333 -2.47333,0.39333 l -9.19867,0 0,-5.85733 c 0,-0.88667 0.13334,-1.688 0.39467,-2.40267 0.264,-0.71733 0.648,-1.32666 1.152,-1.82666 0.50667,-0.49734 1.116,-0.88667 1.832,-1.15734 0.716,-0.27333 1.53333,-0.41066 2.44933,-0.41066 l 9.2,0"
       inkscape:connector-curvature="0" />
    <path
       id="path156"
       style="fill:#ffffff;fill-opacity:1;fill-rule:nonzero;stroke:none"
       d="m 455.78643,491.88649 c 0.57866,0 1.03066,-0.15067 1.35466,-0.44934 0.32267,-0.29733 0.53334,-0.732 0.62667,-1.29866 l -8.27067,0 0,1.748 6.28934,0 z m 4.65466,-6.15334 -8.92,0 c -1.184,0 -1.85333,0.592 -2.01066,1.77867 l 10.99333,0 0,2.224 c 0,3.27867 -1.772,4.91733 -5.31733,4.91733 l -8.38134,0 0,-6.74133 c 0,-3.27467 1.77467,-4.91333 5.32,-4.91333 l 8.316,0 0,2.73466"
       inkscape:connector-curvature="0" />
    <path
       id="path158"
       style="fill:#ffffff;fill-opacity:1;fill-rule:nonzero;stroke:none"
       d="m 474.27443,515.14782 7.00666,-8.06667 c 0.144,-0.176 0.46134,-0.48 0.95867,-0.91466 -0.28,0.0227 -0.54933,0.0387 -0.81067,0.048 -0.26533,0.009 -0.52533,0.0147 -0.78133,0.0147 l -3.65067,0 c -1.16533,0 -1.82933,0.59334 -1.99066,1.77867 l -2.72267,0 c 0.13467,-3.00933 1.90533,-4.516 5.31867,-4.516 l 10.15466,0 -9.908,11.656 -3.57466,0"
       inkscape:connector-curvature="0" />
    <path
       id="path160"
       style="fill:#ffffff;fill-opacity:1;fill-rule:nonzero;stroke:none"
       d="m 490.71709,534.53849 c -0.62666,0 -0.94266,0.29066 -0.94266,0.868 0,0.668 0.316,1.00266 0.94266,1.00266 l 7.36,0 c 0.62934,0 0.944,-0.33466 0.944,-1.00266 0,-0.57734 -0.31466,-0.868 -0.944,-0.868 l -7.36,0 z m 0,4.344 c -0.62666,0 -0.94266,0.336 -0.94266,1.00666 0,0.58534 0.316,0.88134 0.94266,0.88134 l 7.36,0 c 0.62934,0 0.944,-0.296 0.944,-0.88134 0,-0.67066 -0.31466,-1.00666 -0.944,-1.00666 l -7.36,0 z m -0.756,4.592 c -2.124,0 -3.18533,-0.98267 -3.18533,-2.95334 0,-0.87466 0.176,-1.56 0.52667,-2.056 0.34933,-0.49466 0.844,-0.80133 1.48266,-0.92666 -0.64666,-0.12267 -1.144,-0.41467 -1.49333,-0.872 -0.34267,-0.46134 -0.516,-1.08934 -0.516,-1.89467 0,-1.96933 1.06133,-2.952 3.18533,-2.952 l 8.87334,0 c 2.12133,0 3.184,0.98267 3.184,2.952 0,0.80533 -0.17334,1.43333 -0.51734,1.89467 -0.348,0.45733 -0.84266,0.74933 -1.49333,0.872 0.63867,0.12533 1.136,0.432 1.48667,0.92666 0.34933,0.496 0.524,1.18134 0.524,2.056 0,1.97067 -1.06267,2.95334 -3.184,2.95334 l -8.87334,0"
       inkscape:connector-curvature="0" />
    <path
       id="path162"
       style="fill:#ffffff;fill-opacity:1;fill-rule:nonzero;stroke:none"
       d="m 498.24909,571.12249 0,-1.77734 -6.76933,0 c -1.14267,0 -1.80933,0.59334 -1.99467,1.77734 l 8.764,0 z m -11.424,4.37466 9.4,0 c 0.59734,0 1.05867,-0.14933 1.38267,-0.448 0.324,-0.29733 0.52667,-0.732 0.612,-1.29733 l -11.456,0 0,-2.22667 c 0,-3.27733 1.77333,-4.91466 5.31733,-4.91466 l 8.86,0 0,6.73866 c 0,3.27734 -1.776,4.916 -5.32133,4.916 l -8.79467,0 0,-2.768"
       inkscape:connector-curvature="0" />
    <path
       id="path164"
       style="fill:#ffffff;fill-opacity:1;fill-rule:nonzero;stroke:none"
       d="m 468.70509,609.72648 0,-6.25866 c 0,-1.772 -0.788,-2.66 -2.36533,-2.66 l -0.71067,0 0,-2.736 0.788,0 c 1.732,0 3.02,0.43066 3.86534,1.29066 0.84533,0.86134 1.268,2.208 1.268,4.04267 l 0,6.32133 -2.84534,0 z m 16.88,-8.91866 -6.28933,0 c -0.588,0 -1.07867,0.0533 -1.468,0.15333 -0.392,0.10533 -0.704,0.276 -0.936,0.52 -0.23333,0.24267 -0.39733,0.56 -0.496,0.95733 -0.0973,0.396 -0.14533,0.89334 -0.14533,1.49334 l 0,3.028 6.28933,0 c 0.57733,0 1.06133,-0.044 1.44667,-0.13867 0.38666,-0.092 0.69733,-0.25733 0.936,-0.49333 0.236,-0.23867 0.40666,-0.55467 0.50933,-0.952 0.104,-0.39734 0.15333,-0.89867 0.15333,-1.50667 z m 2.84667,-2.736 0,5.86 c 0,0.904 -0.128,1.716 -0.388,2.43466 -0.25867,0.71334 -0.63467,1.32267 -1.13467,1.82267 -0.5,0.5 -1.112,0.88133 -1.832,1.144 -0.724,0.264 -1.54533,0.39333 -2.47466,0.39333 l -9.196,0 0,-5.85733 c 0,-0.88533 0.12933,-1.688 0.39333,-2.40533 0.26267,-0.71334 0.64667,-1.32267 1.15067,-1.82267 0.504,-0.49867 1.116,-0.88667 1.83333,-1.16 0.71333,-0.27067 1.53333,-0.40933 2.44933,-0.40933 l 9.19867,0"
       inkscape:connector-curvature="0" />
    <path
       id="path166"
       style="fill:#ee2132;fill-opacity:1;fill-rule:nonzero;stroke:none"
       d="m 407.94376,636.09982 -1.29467,0 -1.48666,-1.39467 -1.56134,1.39467 -1.27066,0 1.88,-1.62934 0.32533,-0.24533 -0.34133,-0.25733 -1.876,-1.648 1.3,0 1.49733,1.384 1.53067,-1.384 1.29733,0 -1.85467,1.604 -0.35066,0.26 0.38,0.29466 1.82533,1.62134 z m 1.968,0 0,-3.48267 c 0,-0.984 -0.43867,-1.47733 -1.31467,-1.47733 l -0.39333,0 0,-1.52 0.43733,0 c 0.96134,0 1.676,0.24 2.14667,0.71733 0.46933,0.48 0.704,1.228 0.704,2.248 l 0,3.51467 -1.58,0 z m 9.38133,-4.96 -3.49733,0 c -0.32533,0 -0.59467,0.032 -0.81467,0.0867 -0.21733,0.0573 -0.39066,0.15334 -0.52,0.288 -0.12933,0.13334 -0.22133,0.312 -0.276,0.53334 -0.0547,0.22 -0.0787,0.496 -0.0787,0.83066 l 0,1.68134 3.49466,0 c 0.32134,0 0.58934,-0.0267 0.80267,-0.0747 0.21467,-0.0533 0.39067,-0.14667 0.52,-0.27733 0.132,-0.13067 0.22667,-0.30934 0.28267,-0.528 0.0587,-0.22267 0.0867,-0.49867 0.0867,-0.836 z m 1.58134,-1.52 0,3.25866 c 0,0.50134 -0.0707,0.952 -0.216,1.35067 -0.14267,0.39867 -0.35334,0.736 -0.62934,1.01467 -0.28,0.27866 -0.61733,0.488 -1.02133,0.63733 -0.4,0.14267 -0.85867,0.21867 -1.37333,0.21867 l -5.11067,0 0,-3.256 c 0,-0.49467 0.0733,-0.94 0.21733,-1.33867 0.148,-0.396 0.36,-0.736 0.64267,-1.012 0.27867,-0.27867 0.61733,-0.492 1.01467,-0.64533 0.4,-0.152 0.85333,-0.228 1.36533,-0.228 l 5.11067,0 z m 7.84533,1.52 -3.5,0 c -0.324,0 -0.59467,0.032 -0.81467,0.0867 -0.216,0.0573 -0.38933,0.15334 -0.51866,0.288 -0.13067,0.13334 -0.224,0.312 -0.276,0.53334 -0.0547,0.22 -0.08,0.496 -0.08,0.83066 l 0,1.68134 3.49466,0 c 0.32,0 0.58934,-0.0267 0.804,-0.0747 0.21467,-0.0533 0.388,-0.14667 0.52,-0.27733 0.132,-0.13067 0.22667,-0.30934 0.28267,-0.528 0.0587,-0.22267 0.088,-0.49867 0.088,-0.836 z m 1.57867,-1.52 0,3.25866 c 0,0.50134 -0.0707,0.952 -0.21334,1.35067 -0.144,0.39867 -0.35466,0.736 -0.63333,1.01467 -0.27733,0.27866 -0.61467,0.488 -1.01467,0.63733 -0.40266,0.14267 -0.86133,0.21867 -1.376,0.21867 l -5.11466,0 0,-3.256 c 0,-0.49467 0.0733,-0.94 0.22133,-1.33867 0.14667,-0.396 0.36,-0.736 0.64,-1.012 0.28133,-0.27867 0.62133,-0.492 1.02133,-0.64533 0.396,-0.152 0.84934,-0.228 1.35867,-0.228 l 5.11067,0 z m 7.84533,1.52 -3.49733,0 c -0.32667,0 -0.59734,0.032 -0.816,0.0867 -0.21734,0.0573 -0.39067,0.15334 -0.52,0.288 -0.12934,0.13334 -0.22134,0.312 -0.276,0.53334 -0.052,0.22 -0.08,0.496 -0.08,0.83066 l 0,1.68134 3.496,0 c 0.32,0 0.58933,-0.0267 0.804,-0.0747 0.21466,-0.0533 0.388,-0.14667 0.51866,-0.27733 0.132,-0.13067 0.22534,-0.30934 0.28534,-0.528 0.056,-0.22267 0.0853,-0.49867 0.0853,-0.836 z m 1.58133,-1.52 0,3.25866 c 0,0.50134 -0.072,0.952 -0.21733,1.35067 -0.14133,0.39867 -0.352,0.736 -0.62933,1.01467 -0.276,0.27866 -0.616,0.488 -1.01734,0.63733 -0.40133,0.14267 -0.86,0.21867 -1.37466,0.21867 l -5.11467,0 0,-3.256 c 0,-0.49467 0.0747,-0.94 0.22133,-1.33867 0.144,-0.396 0.36,-0.736 0.64,-1.012 0.28,-0.27867 0.61867,-0.492 1.01867,-0.64533 0.396,-0.152 0.852,-0.228 1.36133,-0.228 l 5.112,0"
       inkscape:connector-curvature="0" />
    <path
       id="path178"
       style="fill:#eaeaea;fill-opacity:1;fill-rule:evenodd;stroke:none"
       d="m 421.88109,431.00782 c 69.632,0 126.09733,56.46533 126.09733,126.09467 0,69.63199 -56.46533,126.09733 -126.09733,126.09733 -69.62933,0 -126.09466,-56.46534 -126.09466,-126.09733 0,-69.62934 56.46533,-126.09467 126.09466,-126.09467 z m 0,7.05867 c -65.73066,0 -119.03333,53.30533 -119.03333,119.036 0,65.73333 53.30267,119.03466 119.03333,119.03466 65.732,0 119.03867,-53.30133 119.03867,-119.03466 0,-65.73067 -53.30667,-119.036 -119.03867,-119.036"
       inkscape:connector-curvature="0" />
    <path
       id="path180"
       style="fill:#8f9396;fill-opacity:1;fill-rule:evenodd;stroke:none"
       d="m 422.3507,432.99131 c 68.23613,0 123.57061,55.33577 123.57061,123.57059 0,68.23354 -55.33448,123.56931 -123.57061,123.56931 -68.23482,0 -123.5693,-55.33577 -123.5693,-123.56931 0,-68.23482 55.33448,-123.57059 123.5693,-123.57059 z m 0,6.9186 c -64.41424,0 -116.652,52.23906 -116.652,116.65199 0,64.41555 52.23776,116.652 116.652,116.652 64.41555,0 116.652,-52.23645 116.652,-116.652 0,-64.41293 -52.23645,-116.65199 -116.652,-116.65199"
       inkscape:connector-curvature="0" />
    <path
       id="path182"
       style="fill:#ee2132;fill-opacity:1;fill-rule:evenodd;stroke:none"
       d="m 525.81976,537.87982 c 1.276,6.536 1.95067,13.28933 1.95067,20.19733 0,4.43334 -0.27867,8.8 -0.812,13.08667 l -12.69334,-2.24 c 0.41734,-3.55733 0.632,-7.17333 0.632,-10.84667 0,-5.92533 -0.56,-11.71866 -1.632,-17.33333 l 12.55467,-2.864 z m -0.628,43.396 c -2.65467,11.76133 -7.28667,22.772 -13.53067,32.67066 l -10.55733,-7.39466 c 5.19867,-8.37067 9.09333,-17.63733 11.39467,-27.51467 l 12.69333,2.23867"
       inkscape:connector-curvature="0" />
  </g>
</svg>
