<?xml version="1.0" encoding="UTF-8" standalone="no"?>
<!-- Created with Inkscape (http://www.inkscape.org/) -->

<svg
   xmlns:dc="http://purl.org/dc/elements/1.1/"
   xmlns:cc="http://creativecommons.org/ns#"
   xmlns:rdf="http://www.w3.org/1999/02/22-rdf-syntax-ns#"
   xmlns:svg="http://www.w3.org/2000/svg"
   xmlns="http://www.w3.org/2000/svg"
   xmlns:sodipodi="http://sodipodi.sourceforge.net/DTD/sodipodi-0.dtd"
   xmlns:inkscape="http://www.inkscape.org/namespaces/inkscape"
   width="106.48018mm"
   height="104.91219mm"
   viewBox="0 0 377.29197 371.73612"
   id="svg8730"
   version="1.1"
   inkscape:version="0.91 r13725"
   sodipodi:docname="gauge-sport-panel-2.svg">
  <defs
     id="defs8732">
    <clipPath
       id="clipPath1520-0"
       clipPathUnits="userSpaceOnUse">
      <path
         inkscape:connector-curvature="0"
         id="path1518-9"
         d="m 6631.42,1031.89 c 19,-15.7 21.71,-43.855 5.96,-62.886 -15.7,-19.031 -43.9,-21.731 -62.9,-5.984 -19.01,15.679 -21.71,43.87 -5.96,62.89 15.72,19.03 43.87,21.68 62.9,5.98" />
    </clipPath>
    <clipPath
       id="clipPath1496-0"
       clipPathUnits="userSpaceOnUse">
      <path
         inkscape:connector-curvature="0"
         id="path1494-62"
         d="m 6659.86,1066.32 c 38.05,-31.43 43.42,-87.726 11.98,-125.793 -31.45,-38.054 -87.77,-43.398 -125.79,-11.953 -38.07,31.426 -43.41,87.726 -11.98,125.786 31.43,38.04 87.74,43.41 125.79,11.96" />
    </clipPath>
  </defs>
  <sodipodi:namedview
     id="base"
     pagecolor="#ffffff"
     bordercolor="#666666"
     borderopacity="1.0"
     inkscape:pageopacity="0.0"
     inkscape:pageshadow="2"
     inkscape:zoom="1.4"
     inkscape:cx="53.804682"
     inkscape:cy="123.93411"
     inkscape:document-units="px"
     inkscape:current-layer="layer1"
     showgrid="false"
     fit-margin-top="0"
     fit-margin-left="0"
     fit-margin-right="0"
     fit-margin-bottom="0"
     inkscape:window-width="1855"
     inkscape:window-height="1056"
     inkscape:window-x="65"
     inkscape:window-y="24"
     inkscape:window-maximized="1" />
  <metadata
     id="metadata8735">
    <rdf:RDF>
      <cc:Work
         rdf:about="">
        <dc:format>image/svg+xml</dc:format>
        <dc:type
           rdf:resource="http://purl.org/dc/dcmitype/StillImage" />
        <dc:title></dc:title>
      </cc:Work>
    </rdf:RDF>
  </metadata>
  <g
     inkscape:label="Layer 1"
     inkscape:groupmode="layer"
     id="layer1"
     transform="translate(-137.35156,-324.08026)">
    <g
       id="g11118"
       transform="matrix(1.4015009,0,0,1.3886791,-155.35056,110.45765)">
      <ellipse
         ry="133.84521"
         rx="134.60283"
         cy="287.67673"
         cx="343.45187"
         id="path4180"
         style="fill:#000000;fill-opacity:1" />
      <path
         inkscape:connector-curvature="0"
         d="m 342.6317,161.71427 c 69.632,0 126.09733,56.46533 126.09733,126.09467 0,69.63199 -56.46533,126.09733 -126.09733,126.09733 -69.62934,0 -126.09467,-56.46534 -126.09467,-126.09733 0,-69.62934 56.46533,-126.09467 126.09467,-126.09467 z m 0,7.05867 c -65.73067,0 -119.03334,53.30533 -119.03334,119.036 0,65.73333 53.30267,119.03466 119.03334,119.03466 65.732,0 119.03867,-53.30133 119.03867,-119.03466 0,-65.73067 -53.30667,-119.036 -119.03867,-119.036"
         style="fill:#eaeaea;fill-opacity:1;fill-rule:evenodd;stroke:none"
         id="path178" />
      <path
         inkscape:connector-curvature="0"
         d="m 343.10131,163.69776 c 68.23613,0 123.57061,55.33577 123.57061,123.57059 0,68.23354 -55.33448,123.56931 -123.57061,123.56931 -68.23483,0 -123.56931,-55.33577 -123.56931,-123.56931 0,-68.23482 55.33448,-123.57059 123.56931,-123.57059 z m 0,6.9186 c -64.41425,0 -116.65201,52.23906 -116.65201,116.65199 0,64.41555 52.23776,116.652 116.65201,116.652 64.41555,0 116.652,-52.23645 116.652,-116.652 0,-64.41293 -52.23645,-116.65199 -116.652,-116.65199"
         style="fill:#8f9396;fill-opacity:1;fill-rule:evenodd;stroke:none"
         id="path180" />
    </g>
    <g
       id="g1490"
       transform="matrix(0.13333333,0,0,-0.13333333,-556.04378,650.50105)">
      <g
         clip-path="url(#clipPath1496-0)"
         id="g1492">
        <path
           id="path1498"
           d="m 6659.86,1066.32 c 38.05,-31.43 43.42,-87.726 11.98,-125.793 -31.45,-38.054 -87.77,-43.398 -125.79,-11.953 -38.07,31.426 -43.41,87.726 -11.98,125.786 31.43,38.04 87.74,43.41 125.79,11.96"
           inkscape:connector-curvature="0" />
        <path
           id="path1500"
           d="m 6659.86,1066.32 c 38.05,-31.43 43.42,-87.726 11.98,-125.793 -31.45,-38.054 -87.77,-43.398 -125.79,-11.953 -38.07,31.426 -43.41,87.726 -11.98,125.786 31.43,38.04 87.74,43.41 125.79,11.96"
           inkscape:connector-curvature="0" />
      </g>
    </g>
    <g
       id="g1514"
       transform="matrix(0.13333333,0,0,-0.13333333,-556.04378,650.50105)">
      <g
         clip-path="url(#clipPath1520-0)"
         id="g1516">
        <path
           id="path1522"
           d="m 6631.42,1031.89 c 19,-15.7 21.71,-43.855 5.96,-62.886 -15.7,-19.031 -43.9,-21.731 -62.9,-5.984 -19.01,15.679 -21.71,43.87 -5.96,62.89 15.72,19.03 43.87,21.68 62.9,5.98"
           inkscape:connector-curvature="0" />
      </g>
    </g>
    <path
       id="path1524"
       style="fill:#ffffff;fill-opacity:1;fill-rule:nonzero;stroke:none"
       d="m 283.89087,506.49305 c 0,2.08667 -0.77467,3.23467 -2.132,3.23467 -1.196,0 -2.00934,-1.12267 -2.028,-3.15067 0,-2.05733 0.88266,-3.18666 2.13066,-3.18666 1.292,0 2.02934,1.15066 2.02934,3.10266 z m -3.328,0.0933 c 0,1.596 0.48533,2.5 1.24266,2.5 0.848,0 1.25334,-0.988 1.25334,-2.55734 0,-1.50933 -0.388,-2.50133 -1.244,-2.50133 -0.72934,0 -1.252,0.88933 -1.252,2.55867"
       inkscape:connector-curvature="0" />
    <path
       id="path1526"
       style="fill:#ffffff;fill-opacity:1;fill-rule:nonzero;stroke:none"
       d="m 283.68553,491.99705 0,-0.50666 0.65334,-0.632 c 1.56133,-1.492 2.268,-2.284 2.27866,-3.21334 0,-0.61733 -0.3,-1.19333 -1.216,-1.19333 -0.55466,0 -1.02133,0.27733 -1.3,0.52267 l -0.268,-0.592 c 0.42934,-0.36 1.028,-0.62267 1.73734,-0.62267 1.32266,0 1.87866,0.908 1.87866,1.78533 0,1.128 -0.81866,2.044 -2.116,3.28934 l -0.48666,0.45466 0,0.0173 2.74933,0 0,0.69066 -3.91067,0"
       inkscape:connector-curvature="0" />
    <path
       id="path1528"
       style="fill:#ffffff;fill-opacity:1;fill-rule:nonzero;stroke:none"
       d="m 292.59887,488.86505 c 0,2.08667 -0.77067,3.23467 -2.12934,3.23467 -1.19866,0 -2.00933,-1.12267 -2.02933,-3.15067 0,-2.05733 0.888,-3.18933 2.132,-3.18933 1.29333,0 2.02667,1.15467 2.02667,3.10533 z m -3.328,0.096 c 0,1.596 0.492,2.49867 1.24533,2.49867 0.848,0 1.25467,-0.98933 1.25467,-2.55733 0,-1.51067 -0.38534,-2.49867 -1.244,-2.49867 -0.72534,0 -1.256,0.88667 -1.256,2.55733"
       inkscape:connector-curvature="0" />
    <path
       id="path1530"
       style="fill:#ffffff;fill-opacity:1;fill-rule:nonzero;stroke:none"
       d="m 298.43753,476.56905 0,-1.66933 -2.852,0 0,-0.54667 2.73734,-3.91466 0.89333,0 0,3.81066 0.86133,0 0,0.65067 -0.86133,0 0,1.66933 z m 0,-2.32 0,-2.048 c 0,-0.31733 0.005,-0.64 0.0227,-0.95733 l -0.0227,0 c -0.19066,0.35733 -0.34133,0.61733 -0.51333,0.90133 l -1.49867,2.08667 0,0.0173 2.012,0"
       inkscape:connector-curvature="0" />
    <path
       id="path1532"
       style="fill:#ffffff;fill-opacity:1;fill-rule:nonzero;stroke:none"
       d="m 304.7842,473.43705 c 0,2.08534 -0.77067,3.23734 -2.13067,3.23734 -1.19866,0 -2.008,-1.12267 -2.02666,-3.152 0,-2.05867 0.888,-3.188 2.13066,-3.188 1.292,0 2.02667,1.15066 2.02667,3.10266 z m -3.32933,0.0973 c 0,1.59333 0.49333,2.49866 1.248,2.49866 0.84533,0 1.252,-0.98933 1.252,-2.55866 0,-1.50934 -0.384,-2.5 -1.24667,-2.5 -0.724,0 -1.25333,0.88666 -1.25333,2.56"
       inkscape:connector-curvature="0" />
    <path
       id="path1534"
       style="fill:#ffffff;fill-opacity:1;fill-rule:nonzero;stroke:none"
       d="m 316.30553,463.79172 c -0.16667,-0.012 -0.388,0 -0.62267,0.036 -1.3,0.21867 -1.988,1.16933 -2.12933,2.18 l 0.0267,0 c 0.29466,-0.39067 0.80266,-0.70933 1.48266,-0.70933 1.08134,0 1.84667,0.784 1.84667,1.97866 0,1.12534 -0.76533,2.164 -2.03733,2.164 -1.312,0 -2.16934,-1.01866 -2.16934,-2.616 0,-1.208 0.43467,-2.15466 1.04,-2.76 0.50667,-0.50133 1.18667,-0.812 1.96134,-0.90666 0.24133,-0.0347 0.452,-0.0467 0.60133,-0.0467 z m -1.42533,5.00667 c 0.70933,0 1.19066,-0.59334 1.19066,-1.46934 0,-0.87866 -0.5,-1.40933 -1.26266,-1.40933 -0.5,0 -0.96534,0.312 -1.18934,0.75733 -0.0587,0.0907 -0.0947,0.21734 -0.0947,0.36667 0.02,1.012 0.47866,1.75467 1.348,1.75467 l 0.008,0"
       inkscape:connector-curvature="0" />
    <path
       id="path1536"
       style="fill:#ffffff;fill-opacity:1;fill-rule:nonzero;stroke:none"
       d="m 321.72286,466.20372 c 0,2.08667 -0.77466,3.23733 -2.132,3.23733 -1.196,0 -2.00933,-1.128 -2.028,-3.152 0,-2.056 0.88534,-3.188 2.132,-3.188 1.28934,0 2.028,1.152 2.028,3.10267 z m -3.328,0.0947 c 0,1.596 0.488,2.5 1.24267,2.5 0.84933,0 1.256,-0.99067 1.256,-2.55467 0,-1.512 -0.38667,-2.50133 -1.24667,-2.50133 -0.72266,0 -1.252,0.88666 -1.252,2.556"
       inkscape:connector-curvature="0" />
    <path
       id="path1538"
       style="fill:#ffffff;fill-opacity:1;fill-rule:nonzero;stroke:none"
       d="m 330.9602,465.35039 c -0.68134,-0.32267 -0.976,-0.84934 -0.976,-1.38 0,-0.97067 0.824,-1.632 1.896,-1.632 1.18933,0 1.78266,0.74533 1.78266,1.50933 0,0.51733 -0.252,1.07733 -1.00666,1.43333 l 0,0.028 c 0.764,0.30134 1.23866,0.836 1.23866,1.58667 0,1.06533 -0.916,1.78133 -2.09066,1.78133 -1.276,0 -2.05467,-0.76266 -2.05467,-1.65733 0,-0.776 0.464,-1.32133 1.22,-1.644 z m 2.09066,1.632 c 0,-0.74534 -0.516,-1.104 -1.34666,-1.34267 -0.71734,0.20533 -1.10267,0.676 -1.10267,1.264 -0.0293,0.62533 0.44,1.16933 1.22667,1.16933 0.744,0 1.22266,-0.472 1.22266,-1.09066 z m -2.28,-3.06667 c 0,0.612 0.46,0.94 1.16667,1.13067 0.532,-0.176 0.932,-0.55867 0.932,-1.116 0,-0.48534 -0.28667,-0.99734 -1.032,-0.99734 -0.69067,0 -1.06667,0.45467 -1.06667,0.98267"
       inkscape:connector-curvature="0" />
    <path
       id="path1540"
       style="fill:#ffffff;fill-opacity:1;fill-rule:nonzero;stroke:none"
       d="m 338.74286,465.44372 c 0,2.08533 -0.776,3.23333 -2.13333,3.23333 -1.196,0 -2.008,-1.12133 -2.02667,-3.15066 0,-2.056 0.88667,-3.188 2.13334,-3.188 1.292,0 2.02666,1.15466 2.02666,3.10533 z m -3.32933,0.0933 c 0,1.59467 0.48933,2.5 1.24533,2.5 0.84934,0 1.25067,-0.99333 1.25067,-2.55466 0,-1.512 -0.38667,-2.5 -1.244,-2.5 -0.72533,0 -1.252,0.88533 -1.252,2.55466"
       inkscape:connector-curvature="0" />
    <path
       id="path1542"
       style="fill:#ffffff;fill-opacity:1;fill-rule:nonzero;stroke:none"
       d="m 345.41886,471.20905 -0.02,0 -1.068,0.57734 -0.16,-0.632 1.34,-0.716 0.70267,0 0,6.13066 -0.79467,0 0,-5.36"
       inkscape:connector-curvature="0" />
    <path
       id="path1544"
       style="fill:#ffffff;fill-opacity:1;fill-rule:nonzero;stroke:none"
       d="m 352.53086,473.43705 c 0,2.08534 -0.76933,3.23734 -2.12933,3.23734 -1.20267,0 -2.00933,-1.12267 -2.02933,-3.152 0,-2.05867 0.88666,-3.188 2.12933,-3.188 1.29467,0 2.02933,1.15066 2.02933,3.10266 z m -3.332,0.0973 c 0,1.59333 0.492,2.49866 1.248,2.49866 0.84667,0 1.25467,-0.98933 1.25467,-2.55866 0,-1.50934 -0.388,-2.5 -1.24267,-2.5 -0.728,0 -1.26,0.88666 -1.26,2.56"
       inkscape:connector-curvature="0" />
    <path
       id="path1546"
       style="fill:#ffffff;fill-opacity:1;fill-rule:nonzero;stroke:none"
       d="m 357.37086,473.43705 c 0,2.08534 -0.76933,3.23734 -2.12666,3.23734 -1.20267,0 -2.012,-1.12267 -2.03334,-3.152 0,-2.05867 0.88667,-3.188 2.13334,-3.188 1.29333,0 2.02666,1.15066 2.02666,3.10266 z m -3.32933,0.0973 c 0,1.59333 0.49333,2.49866 1.24533,2.49866 0.84934,0 1.25467,-0.98933 1.25467,-2.55866 0,-1.50934 -0.38533,-2.5 -1.24,-2.5 -0.72933,0 -1.26,0.88666 -1.26,2.56"
       inkscape:connector-curvature="0" />
    <path
       id="path1548"
       style="fill:#ffffff;fill-opacity:1;fill-rule:nonzero;stroke:none"
       d="m 359.41353,486.63705 -0.0147,0 -1.06933,0.57734 -0.156,-0.63334 1.336,-0.716 0.70933,0 0,6.132 -0.80533,0 0,-5.36"
       inkscape:connector-curvature="0" />
    <path
       id="path1550"
       style="fill:#ffffff;fill-opacity:1;fill-rule:nonzero;stroke:none"
       d="m 362.45353,491.99705 0,-0.50666 0.65333,-0.632 c 1.56667,-1.492 2.27334,-2.284 2.28134,-3.21334 0,-0.61733 -0.30267,-1.19333 -1.21334,-1.19333 -0.55866,0 -1.024,0.27733 -1.304,0.52267 l -0.264,-0.592 c 0.42267,-0.36 1.02934,-0.62267 1.73334,-0.62267 1.32133,0 1.87866,0.908 1.87866,1.78533 0,1.128 -0.81866,2.044 -2.11466,3.28934 l -0.488,0.45466 0,0.0173 2.756,0 0,0.69066 -3.91867,0"
       inkscape:connector-curvature="0" />
    <path
       id="path1552"
       style="fill:#ffffff;fill-opacity:1;fill-rule:nonzero;stroke:none"
       d="m 371.37353,488.86505 c 0,2.08667 -0.772,3.23467 -2.13333,3.23467 -1.196,0 -2.00534,-1.12267 -2.02667,-3.15067 0,-2.05733 0.888,-3.18933 2.13067,-3.18933 1.29466,0 2.02933,1.15467 2.02933,3.10533 z m -3.32933,0.096 c 0,1.596 0.492,2.49867 1.24533,2.49867 0.844,0 1.252,-0.98933 1.252,-2.55733 0,-1.51067 -0.38533,-2.49867 -1.244,-2.49867 -0.72667,0 -1.25333,0.88667 -1.25333,2.55733"
       inkscape:connector-curvature="0" />
    <path
       id="path1554"
       style="fill:#ffffff;fill-opacity:1;fill-rule:nonzero;stroke:none"
       d="m 365.14553,504.26505 -0.0187,0 -1.068,0.57734 -0.15866,-0.63334 1.34,-0.71866 0.704,0 0,6.13466 -0.79867,0 0,-5.36"
       inkscape:connector-curvature="0" />
    <path
       id="path1556"
       style="fill:#ffffff;fill-opacity:1;fill-rule:nonzero;stroke:none"
       d="m 370.75086,509.62505 0,-1.672 -2.84666,0 0,-0.544 2.73466,-3.91866 0.89467,0 0,3.81333 0.86,0 0,0.64933 -0.86,0 0,1.672 z m 0,-2.32133 0,-2.05067 c 0,-0.31733 0.012,-0.63733 0.028,-0.95733 l -0.028,0 c -0.188,0.35867 -0.33733,0.62133 -0.50666,0.90533 l -1.5,2.084 0,0.0187 2.00666,0"
       inkscape:connector-curvature="0" />
    <path
       id="path1558"
       style="fill:#ffffff;fill-opacity:1;fill-rule:nonzero;stroke:none"
       d="m 377.09886,506.49305 c 0,2.08667 -0.77333,3.23467 -2.128,3.23467 -1.2,0 -2.012,-1.12267 -2.02933,-3.15067 0,-2.05733 0.88667,-3.18666 2.13333,-3.18666 1.28934,0 2.024,1.15066 2.024,3.10266 z m -3.328,0.0933 c 0,1.596 0.49067,2.5 1.24667,2.5 0.84667,0 1.25333,-0.988 1.25333,-2.55734 0,-1.50933 -0.38533,-2.50133 -1.24666,-2.50133 -0.724,0 -1.25334,0.88933 -1.25334,2.55867"
       inkscape:connector-curvature="0" />
    <path
       id="path1560"
       style="fill:#ffffff;fill-opacity:1;fill-rule:nonzero;stroke:none"
       d="m 363.19486,521.84225 -0.0187,0 -1.068,0.57707 -0.16134,-0.63187 1.34534,-0.72026 0.70666,0 0,6.138 -0.804,0 0,-5.36294"
       inkscape:connector-curvature="0" />
    <path
       id="path1562"
       style="fill:#ffffff;fill-opacity:1;fill-rule:nonzero;stroke:none"
       d="m 369.73486,521.65892 c -0.17066,-0.0136 -0.38666,0 -0.62,0.0348 -1.30133,0.2172 -1.992,1.16933 -2.13066,2.17973 l 0.0227,0 c 0.292,-0.39066 0.80667,-0.71093 1.48534,-0.71093 1.08266,0 1.84533,0.78387 1.84533,1.98013 0,1.12774 -0.76267,2.16307 -2.03867,2.16307 -1.30933,0 -2.16666,-1.0208 -2.16666,-2.61453 0,-1.2084 0.43333,-2.15627 1.03733,-2.76147 0.508,-0.5016 1.18933,-0.80893 1.95867,-0.9052 0.24933,-0.0365 0.45466,-0.0485 0.60666,-0.0485 z m -1.42266,5.00613 c 0.70533,0 1.18666,-0.59786 1.18666,-1.4724 0,-0.87653 -0.49866,-1.40613 -1.26533,-1.40613 -0.49733,0 -0.96,0.31187 -1.18533,0.75613 -0.0587,0.0912 -0.0987,0.2172 -0.0987,0.3672 0.0227,1.01054 0.48133,1.7552 1.34933,1.7552 l 0.0133,0"
       inkscape:connector-curvature="0" />
    <path
       id="path1564"
       style="fill:#ffffff;fill-opacity:1;fill-rule:nonzero;stroke:none"
       d="m 375.15353,524.07039 c 0,2.08533 -0.776,3.23533 -2.13333,3.23533 -1.19467,0 -2.012,-1.126 -2.028,-3.15107 0,-2.05826 0.88533,-3.18746 2.13066,-3.18746 1.29334,0 2.03067,1.15106 2.03067,3.1032 z m -3.328,0.0937 c 0,1.59573 0.48267,2.50093 1.23867,2.50093 0.85333,0 1.25866,-0.99213 1.25866,-2.5572 0,-1.50946 -0.388,-2.5 -1.24666,-2.5 -0.72667,0 -1.25067,0.88534 -1.25067,2.55627"
       inkscape:connector-curvature="0" />
    <path
       id="path1566"
       style="fill:#ffffff;fill-opacity:1;fill-rule:nonzero;stroke:none"
       d="m 353.41486,539.55052 -0.0213,0 -1.064,0.57653 -0.16,-0.6296 1.33467,-0.7204 0.70933,0 0,6.13387 -0.79867,0 0,-5.3604"
       inkscape:connector-curvature="0" />
    <path
       id="path1568"
       style="fill:#ffffff;fill-opacity:1;fill-rule:nonzero;stroke:none"
       d="m 357.58686,541.68599 c -0.68133,-0.32454 -0.97466,-0.84894 -0.97466,-1.3776 0,-0.974 0.81866,-1.63387 1.89333,-1.63387 1.19067,0 1.784,0.7468 1.784,1.5072 0,0.5172 -0.25067,1.07813 -1.008,1.43387 l 0,0.0287 c 0.76667,0.30054 1.24,0.83854 1.24,1.586 0,1.06774 -0.91733,1.78387 -2.08933,1.78387 -1.28134,0 -2.05734,-0.76573 -2.05734,-1.6604 0,-0.77453 0.46534,-1.32147 1.21734,-1.64013 z m 2.09334,1.6312 c 0,-0.74587 -0.51867,-1.1036 -1.352,-1.3396 -0.71734,0.20573 -1.1,0.67706 -1.1,1.25946 -0.0333,0.6276 0.44133,1.17387 1.224,1.17387 0.74533,0 1.228,-0.47133 1.228,-1.09373 z m -2.28534,-3.06614 c 0,0.6104 0.46534,0.94014 1.17067,1.1312 0.53067,-0.17546 0.932,-0.55666 0.932,-1.114 0,-0.48693 -0.28933,-1 -1.03333,-1 -0.69334,0 -1.06934,0.45574 -1.06934,0.9828"
       inkscape:connector-curvature="0" />
    <path
       id="path1570"
       style="fill:#ffffff;fill-opacity:1;fill-rule:nonzero;stroke:none"
       d="m 365.36686,541.77812 c 0,2.08653 -0.772,3.236 -2.132,3.236 -1.19733,0 -2.008,-1.12507 -2.028,-3.15267 0,-2.05573 0.88934,-3.18693 2.13467,-3.18693 1.29067,0 2.02533,1.15307 2.02533,3.1036 z m -3.32933,0.0937 c 0,1.59534 0.49333,2.49894 1.24667,2.49894 0.848,0 1.25066,-0.98854 1.25066,-2.55467 0,-1.50773 -0.384,-2.5 -1.24133,-2.5 -0.72667,0 -1.256,0.88707 -1.256,2.55573"
       inkscape:connector-curvature="0" />
    <path
       id="path1572"
       style="fill:#ffffff;fill-opacity:1;fill-rule:nonzero;stroke:none"
       d="m 307.58953,386.21439 -3.336,0.58667 -2.93333,-16.656 3.33333,-0.584 2.936,16.65333"
       inkscape:connector-curvature="0" />
    <path
       id="path1574"
       style="fill:#ffffff;fill-opacity:1;fill-rule:nonzero;stroke:none"
       d="m 267.42553,399.99839 -2.91866,1.688 -8.46,-14.64533 2.928,-1.69067 8.45066,14.648"
       inkscape:connector-curvature="0" />
    <path
       id="path1576"
       style="fill:#ffffff;fill-opacity:1;fill-rule:nonzero;stroke:none"
       d="m 234.5402,426.77439 -2.17733,2.58667 -12.948,-10.87067 2.17466,-2.58667 12.95067,10.87067"
       inkscape:connector-curvature="0" />
    <path
       id="path1578"
       style="fill:#ffffff;fill-opacity:1;fill-rule:nonzero;stroke:none"
       d="m 211.93487,463.41039 -1.15067,3.176 -15.888,-5.784 1.15067,-3.176 15.888,5.784"
       inkscape:connector-curvature="0" />
    <path
       id="path1580"
       style="fill:#ffffff;fill-opacity:1;fill-rule:nonzero;stroke:none"
       d="m 203.91487,506.38372 0,3.37733 -16.904,-0.003 -0.007,-3.37867 16.91067,0.004"
       inkscape:connector-curvature="0" />
    <path
       id="path1582"
       style="fill:#ffffff;fill-opacity:1;fill-rule:nonzero;stroke:none"
       d="m 387.8802,615.55572 2.924,-1.69107 8.45466,14.64427 -2.93333,1.7004 -8.44533,-14.6536"
       inkscape:connector-curvature="0" />
    <path
       id="path1584"
       style="fill:#ffffff;fill-opacity:1;fill-rule:nonzero;stroke:none"
       d="m 421.49753,588.05212 2.172,-2.58747 12.94533,10.87133 -2.17466,2.59734 -12.94267,-10.8812"
       inkscape:connector-curvature="0" />
    <path
       id="path1586"
       style="fill:#ffffff;fill-opacity:1;fill-rule:nonzero;stroke:none"
       d="m 443.10686,551.02185 1.15596,-3.17706 15.884,5.78546 -1.152,3.18587 -15.88796,-5.79427"
       inkscape:connector-curvature="0" />
    <path
       id="path1588"
       style="fill:#ffffff;fill-opacity:1;fill-rule:nonzero;stroke:none"
       d="m 450.80422,508.67839 -0.01,-3.37734 16.9066,0.005 0.011,3.38666 -16.9093,-0.0147"
       inkscape:connector-curvature="0" />
    <path
       id="path1590"
       style="fill:#ffffff;fill-opacity:1;fill-rule:nonzero;stroke:none"
       d="m 443.22286,466.35972 -1.15733,-3.176 15.88799,-5.77467 1.164,3.18 -15.89466,5.77067"
       inkscape:connector-curvature="0" />
    <path
       id="path1592"
       style="fill:#ffffff;fill-opacity:1;fill-rule:nonzero;stroke:none"
       d="m 422.5762,429.58906 -2.176,-2.58534 12.95333,-10.86266 2.188,2.58933 -12.96533,10.85867"
       inkscape:connector-curvature="0" />
    <path
       id="path1594"
       style="fill:#ffffff;fill-opacity:1;fill-rule:nonzero;stroke:none"
       d="m 390.2402,401.32639 -2.92,-1.692 8.45066,-14.636 2.94267,1.688 -8.47333,14.64"
       inkscape:connector-curvature="0" />
    <path
       id="path1596"
       style="fill:#ffffff;fill-opacity:1;fill-rule:nonzero;stroke:none"
       d="m 350.45353,386.80239 -3.33067,-0.58667 2.94267,-16.64666 3.33867,0.584 -2.95067,16.64933"
       inkscape:connector-curvature="0" />
    <path
       id="path1598"
       style="fill:#ffffff;fill-opacity:1;fill-rule:nonzero;stroke:none"
       d="m 285.68287,389.31972 -2.43334,0.888 -4.42933,-12.16933 2.43333,-0.884 4.42934,12.16533"
       inkscape:connector-curvature="0" />
    <path
       id="path1600"
       style="fill:#ffffff;fill-opacity:1;fill-rule:nonzero;stroke:none"
       d="m 247.93753,410.59172 -1.984,1.66667 -8.32,-9.91867 1.98,-1.66666 8.324,9.91866"
       inkscape:connector-curvature="0" />
    <path
       id="path1602"
       style="fill:#ffffff;fill-opacity:1;fill-rule:nonzero;stroke:none"
       d="m 219.7442,443.48639 -1.296,2.24533 -11.20933,-6.476 1.29066,-2.23866 11.21467,6.46933"
       inkscape:connector-curvature="0" />
    <path
       id="path1604"
       style="fill:#ffffff;fill-opacity:1;fill-rule:nonzero;stroke:none"
       d="m 204.50153,482.84505 -0.45066,2.556 -12.74667,-2.25066 0.444,-2.54534 12.75333,2.24"
       inkscape:connector-curvature="0" />
    <path
       id="path1606"
       style="fill:#ffffff;fill-opacity:1;fill-rule:nonzero;stroke:none"
       d="m 406.31753,603.37185 1.98133,-1.66347 8.32534,9.9176 -1.98534,1.66774 -8.32133,-9.92187"
       inkscape:connector-curvature="0" />
    <path
       id="path1608"
       style="fill:#ffffff;fill-opacity:1;fill-rule:nonzero;stroke:none"
       d="m 434.51353,570.47599 1.29467,-2.2432 11.21332,6.47653 -1.2947,2.2396 -11.21329,-6.47293"
       inkscape:connector-curvature="0" />
    <path
       id="path1610"
       style="fill:#ffffff;fill-opacity:1;fill-rule:nonzero;stroke:none"
       d="m 449.75222,529.92132 0.4533,-2.55053 12.7507,2.25 -0.452,2.54533 -12.752,-2.2448"
       inkscape:connector-curvature="0" />
    <path
       id="path1612"
       style="fill:#ffffff;fill-opacity:1;fill-rule:nonzero;stroke:none"
       d="m 450.20552,486.59839 -0.4533,-2.556 12.7573,-2.244 0.4467,2.54933 -12.7507,2.25067"
       inkscape:connector-curvature="0" />
    <path
       id="path1614"
       style="fill:#ffffff;fill-opacity:1;fill-rule:nonzero;stroke:none"
       d="m 435.8082,445.73306 -1.29467,-2.24267 11.21869,-6.47333 1.2893,2.23866 -11.21332,6.47734"
       inkscape:connector-curvature="0" />
    <path
       id="path1616"
       style="fill:#ffffff;fill-opacity:1;fill-rule:nonzero;stroke:none"
       d="m 408.3042,412.25839 -1.98134,-1.66667 8.328,-9.92133 1.97467,1.66933 -8.32133,9.91867"
       inkscape:connector-curvature="0" />
    <path
       id="path1618"
       style="fill:#ffffff;fill-opacity:1;fill-rule:nonzero;stroke:none"
       d="m 371.0082,390.20772 -2.428,-0.888 4.43333,-12.17066 2.42667,0.88933 -4.432,12.16933"
       inkscape:connector-curvature="0" />
    <path
       id="path1620"
       style="fill:#ffffff;fill-opacity:1;fill-rule:nonzero;stroke:none"
       d="m 328.42553,382.24239 -2.58667,-0.004 0,-12.952 2.59067,0.005 -0.004,12.95067"
       inkscape:connector-curvature="0" />
    <path
       id="path1622"
       style="fill:#2f80cb;fill-opacity:1;fill-rule:nonzero;stroke:none"
       d="m 323.9322,380.93172 -1.95067,0.0653 -0.34,-9.78 1.95467,-0.068 0.336,9.78266"
       inkscape:connector-curvature="0" />
    <path
       id="path1624"
       style="fill:#2f80cb;fill-opacity:1;fill-rule:nonzero;stroke:none"
       d="m 319.53886,381.13039 -1.94666,0.12933 -0.688,-9.76 1.952,-0.13466 0.68266,9.76533"
       inkscape:connector-curvature="0" />
    <path
       id="path1626"
       style="fill:#2f80cb;fill-opacity:1;fill-rule:nonzero;stroke:none"
       d="m 315.15353,381.47706 -1.94,0.20266 -1.02667,-9.73333 1.944,-0.2 1.02267,9.73067"
       inkscape:connector-curvature="0" />
    <path
       id="path1628"
       style="fill:#2f80cb;fill-opacity:1;fill-rule:nonzero;stroke:none"
       d="m 310.78153,381.97839 -1.932,0.27467 -1.36533,-9.696 1.93867,-0.26667 1.35866,9.688"
       inkscape:connector-curvature="0" />
    <path
       id="path1630"
       style="fill:#2f80cb;fill-opacity:1;fill-rule:nonzero;stroke:none"
       d="m 302.10687,383.44239 -1.908,0.40267 -2.03734,-9.576 1.91334,-0.40134 2.032,9.57467"
       inkscape:connector-curvature="0" />
    <path
       id="path1632"
       style="fill:#2f80cb;fill-opacity:1;fill-rule:nonzero;stroke:none"
       d="m 297.81087,384.39706 -1.89067,0.46933 -2.372,-9.496 1.9,-0.46933 2.36267,9.496"
       inkscape:connector-curvature="0" />
    <path
       id="path1634"
       style="fill:#2f80cb;fill-opacity:1;fill-rule:nonzero;stroke:none"
       d="m 293.55487,385.50239 -1.87334,0.53467 -2.70133,-9.408 1.88133,-0.53334 2.69334,9.40667"
       inkscape:connector-curvature="0" />
    <path
       id="path1636"
       style="fill:#2f80cb;fill-opacity:1;fill-rule:nonzero;stroke:none"
       d="m 289.33487,386.75306 -1.85334,0.60533 -3.02666,-9.308 1.86133,-0.60133 3.01867,9.304"
       inkscape:connector-curvature="0" />
    <path
       id="path1638"
       style="fill:#2f80cb;fill-opacity:1;fill-rule:nonzero;stroke:none"
       d="m 281.0482,389.69972 -1.80667,0.732 -3.67066,-9.076 1.812,-0.72933 3.66533,9.07333"
       inkscape:connector-curvature="0" />
    <path
       id="path1640"
       style="fill:#2f80cb;fill-opacity:1;fill-rule:nonzero;stroke:none"
       d="m 276.9842,391.39039 -1.78,0.78933 -3.98533,-8.93866 1.78533,-0.792 3.98,8.94133"
       inkscape:connector-curvature="0" />
    <path
       id="path1642"
       style="fill:#2f80cb;fill-opacity:1;fill-rule:nonzero;stroke:none"
       d="m 272.98287,393.21706 -1.75067,0.85333 -4.292,-8.79733 1.75333,-0.85334 4.28934,8.79734"
       inkscape:connector-curvature="0" />
    <path
       id="path1644"
       style="fill:#2f80cb;fill-opacity:1;fill-rule:nonzero;stroke:none"
       d="m 269.04687,395.18372 -1.71867,0.91467 -4.59867,-8.64267 1.72667,-0.91333 4.59067,8.64133"
       inkscape:connector-curvature="0" />
    <path
       id="path1646"
       style="fill:#2f80cb;fill-opacity:1;fill-rule:nonzero;stroke:none"
       d="m 261.3922,399.52239 -1.65067,1.03333 -5.192,-8.3 1.66134,-1.032 5.18133,8.29867"
       inkscape:connector-curvature="0" />
    <path
       id="path1648"
       style="fill:#2f80cb;fill-opacity:1;fill-rule:nonzero;stroke:none"
       d="m 257.68687,401.89039 -1.61467,1.088 -5.476,-8.11333 1.61867,-1.088 5.472,8.11333"
       inkscape:connector-curvature="0" />
    <path
       id="path1650"
       style="fill:#2f80cb;fill-opacity:1;fill-rule:nonzero;stroke:none"
       d="m 254.06287,404.38639 -1.576,1.14267 -5.75467,-7.916 1.58133,-1.144 5.74934,7.91733"
       inkscape:connector-curvature="0" />
    <path
       id="path1652"
       style="fill:#2f80cb;fill-opacity:1;fill-rule:nonzero;stroke:none"
       d="m 250.53087,407.00772 -1.536,1.196 -6.02934,-7.71066 1.53867,-1.19734 6.02667,7.712"
       inkscape:connector-curvature="0" />
    <path
       id="path1654"
       style="fill:#2f80cb;fill-opacity:1;fill-rule:nonzero;stroke:none"
       d="m 243.7442,412.60772 -1.44667,1.30534 -6.552,-7.272 1.45334,-1.30267 6.54533,7.26933"
       inkscape:connector-curvature="0" />
    <path
       id="path1656"
       style="fill:#2f80cb;fill-opacity:1;fill-rule:nonzero;stroke:none"
       d="m 240.50553,415.58239 -1.39866,1.35467 -6.80667,-7.03734 1.408,-1.35333 6.79733,7.036"
       inkscape:connector-curvature="0" />
    <path
       id="path1658"
       style="fill:#2f80cb;fill-opacity:1;fill-rule:nonzero;stroke:none"
       d="m 237.36953,418.67172 -1.35333,1.40134 -7.044,-6.79467 1.35733,-1.404 7.04,6.79733"
       inkscape:connector-curvature="0" />
    <path
       id="path1660"
       style="fill:#2f80cb;fill-opacity:1;fill-rule:nonzero;stroke:none"
       d="m 234.34287,421.86639 -1.29867,1.44533 -7.28133,-6.54666 1.30933,-1.448 7.27067,6.54933"
       inkscape:connector-curvature="0" />
    <path
       id="path1662"
       style="fill:#2f80cb;fill-opacity:1;fill-rule:nonzero;stroke:none"
       d="m 228.6402,428.55972 -1.2,1.53467 -7.72,-6.02133 1.20533,-1.53867 7.71467,6.02533"
       inkscape:connector-curvature="0" />
    <path
       id="path1664"
       style="fill:#2f80cb;fill-opacity:1;fill-rule:nonzero;stroke:none"
       d="m 225.9602,432.05306 -1.14,1.57466 -7.924,-5.748 1.15067,-1.576 7.91333,5.74934"
       inkscape:connector-curvature="0" />
    <path
       id="path1666"
       style="fill:#2f80cb;fill-opacity:1;fill-rule:nonzero;stroke:none"
       d="m 223.4122,435.63706 -1.092,1.61333 -8.11333,-5.468 1.096,-1.616 8.10933,5.47067"
       inkscape:connector-curvature="0" />
    <path
       id="path1668"
       style="fill:#2f80cb;fill-opacity:1;fill-rule:nonzero;stroke:none"
       d="m 220.9842,439.30906 -1.028,1.652 -8.30267,-5.18267 1.036,-1.65467 8.29467,5.18534"
       inkscape:connector-curvature="0" />
    <path
       id="path1670"
       style="fill:#2f80cb;fill-opacity:1;fill-rule:nonzero;stroke:none"
       d="m 216.52687,446.89439 -0.91067,1.71733 -8.644,-4.58933 0.92133,-1.72133 8.63334,4.59333"
       inkscape:connector-curvature="0" />
    <path
       id="path1672"
       style="fill:#2f80cb;fill-opacity:1;fill-rule:nonzero;stroke:none"
       d="m 214.5002,450.80105 -0.852,1.74534 -8.8,-4.284 0.86,-1.75333 8.792,4.29199"
       inkscape:connector-curvature="0" />
    <path
       id="path1674"
       style="fill:#2f80cb;fill-opacity:1;fill-rule:nonzero;stroke:none"
       d="m 212.61087,454.77305 -0.79067,1.77734 -8.94533,-3.97734 0.8,-1.78266 8.936,3.98266"
       inkscape:connector-curvature="0" />
    <path
       id="path1676"
       style="fill:#2f80cb;fill-opacity:1;fill-rule:nonzero;stroke:none"
       d="m 210.86153,458.80639 -0.73333,1.80666 -9.06933,-3.66266 0.73466,-1.80934 9.068,3.66534"
       inkscape:connector-curvature="0" />
    <path
       id="path1678"
       style="fill:#2f80cb;fill-opacity:1;fill-rule:nonzero;stroke:none"
       d="m 207.78687,467.04905 -0.59867,1.85334 -9.31067,-3.01867 0.612,-1.856 9.29734,3.02133"
       inkscape:connector-curvature="0" />
    <path
       id="path1680"
       style="fill:#2f80cb;fill-opacity:1;fill-rule:nonzero;stroke:none"
       d="m 206.47087,471.24639 -0.54,1.872 -9.40534,-2.692 0.54,-1.87467 9.40534,2.69467"
       inkscape:connector-curvature="0" />
    <path
       id="path1682"
       style="fill:#2f80cb;fill-opacity:1;fill-rule:nonzero;stroke:none"
       d="m 205.30153,475.48772 -0.47866,1.89067 -9.49334,-2.36267 0.47867,-1.89733 9.49333,2.36933"
       inkscape:connector-curvature="0" />
    <path
       id="path1684"
       style="fill:#2f80cb;fill-opacity:1;fill-rule:nonzero;stroke:none"
       d="m 204.27487,479.76905 -0.40534,1.90534 -9.572,-2.03334 0.41067,-1.90933 9.56667,2.03733"
       inkscape:connector-curvature="0" />
    <path
       id="path1686"
       style="fill:#2f80cb;fill-opacity:1;fill-rule:nonzero;stroke:none"
       d="m 202.68287,488.41972 -0.276,1.92667 -9.68667,-1.356 0.27467,-1.93334 9.688,1.36267"
       inkscape:connector-curvature="0" />
    <path
       id="path1688"
       style="fill:#2f80cb;fill-opacity:1;fill-rule:nonzero;stroke:none"
       d="m 202.1162,492.78372 -0.21067,1.93467 -9.73066,-1.01734 0.21066,-1.94533 9.73067,1.028"
       inkscape:connector-curvature="0" />
    <path
       id="path1690"
       style="fill:#2f80cb;fill-opacity:1;fill-rule:nonzero;stroke:none"
       d="m 201.69887,497.16239 -0.144,1.94266 -9.75734,-0.67866 0.14267,-1.94934 9.75867,0.68534"
       inkscape:connector-curvature="0" />
    <path
       id="path1692"
       style="fill:#2f80cb;fill-opacity:1;fill-rule:nonzero;stroke:none"
       d="m 201.42953,501.55439 -0.0693,1.944 -9.78,-0.336 0.0787,-1.952 9.77066,0.344"
       inkscape:connector-curvature="0" />
    <path
       id="path1694"
       style="fill:#2f80cb;fill-opacity:1;fill-rule:nonzero;stroke:none"
       d="m 393.3202,614.31718 1.65733,-1.02186 5.18933,8.29693 -1.66,1.02853 -5.18666,-8.3036"
       inkscape:connector-curvature="0" />
    <path
       id="path1696"
       style="fill:#2f80cb;fill-opacity:1;fill-rule:nonzero;stroke:none"
       d="m 397.02686,611.95412 1.62134,-1.08334 5.47733,8.1068 -1.61867,1.08747 -5.48,-8.11093"
       inkscape:connector-curvature="0" />
    <path
       id="path1698"
       style="fill:#2f80cb;fill-opacity:1;fill-rule:nonzero;stroke:none"
       d="m 400.65086,609.45678 1.58134,-1.138 5.75733,7.914 -1.58267,1.14427 -5.756,-7.92027"
       inkscape:connector-curvature="0" />
    <path
       id="path1700"
       style="fill:#2f80cb;fill-opacity:1;fill-rule:nonzero;stroke:none"
       d="m 404.18286,606.83598 1.54,-1.19333 6.036,7.70893 -1.54533,1.1964 -6.03067,-7.712"
       inkscape:connector-curvature="0" />
    <path
       id="path1702"
       style="fill:#2f80cb;fill-opacity:1;fill-rule:nonzero;stroke:none"
       d="m 410.9642,601.23545 1.45333,-1.29693 6.55733,7.2656 -1.45333,1.3048 -6.55733,-7.27347"
       inkscape:connector-curvature="0" />
    <path
       id="path1704"
       style="fill:#2f80cb;fill-opacity:1;fill-rule:nonzero;stroke:none"
       d="m 414.20686,598.26145 1.408,-1.34733 6.80534,7.03226 -1.40934,1.3516 -6.804,-7.03653"
       inkscape:connector-curvature="0" />
    <path
       id="path1706"
       style="fill:#2f80cb;fill-opacity:1;fill-rule:nonzero;stroke:none"
       d="m 417.34286,595.17292 1.356,-1.3948 7.04534,6.79226 -1.35734,1.4004 -7.044,-6.79786"
       inkscape:connector-curvature="0" />
    <path
       id="path1708"
       style="fill:#2f80cb;fill-opacity:1;fill-rule:nonzero;stroke:none"
       d="m 420.36953,591.97758 1.30533,-1.44106 7.28267,6.54106 -1.31067,1.45054 -7.27733,-6.55054"
       inkscape:connector-curvature="0" />
    <path
       id="path1710"
       style="fill:#2f80cb;fill-opacity:1;fill-rule:nonzero;stroke:none"
       d="m 426.07353,585.28225 1.20667,-1.5276 7.71466,6.0172 -1.20133,1.53653 -7.72,-6.02613"
       inkscape:connector-curvature="0" />
    <path
       id="path1712"
       style="fill:#2f80cb;fill-opacity:1;fill-rule:nonzero;stroke:none"
       d="m 428.74953,581.79172 1.15333,-1.57293 7.92,5.74679 -1.152,1.57614 -7.92133,-5.75"
       inkscape:connector-curvature="0" />
    <path
       id="path1714"
       style="fill:#2f80cb;fill-opacity:1;fill-rule:nonzero;stroke:none"
       d="m 431.3002,578.20412 1.09333,-1.60573 8.12,5.4652 -1.09733,1.61453 -8.116,-5.474"
       inkscape:connector-curvature="0" />
    <path
       id="path1716"
       style="fill:#2f80cb;fill-opacity:1;fill-rule:nonzero;stroke:none"
       d="m 433.72553,574.53492 1.04,-1.6484 8.30133,5.18227 -1.03733,1.65106 -8.304,-5.18493"
       inkscape:connector-curvature="0" />
    <path
       id="path1718"
       style="fill:#2f80cb;fill-opacity:1;fill-rule:nonzero;stroke:none"
       d="m 438.18153,566.94999 0.92267,-1.71614 8.64402,4.59014 -0.9227,1.71973 -8.64399,-4.59373"
       inkscape:connector-curvature="0" />
    <path
       id="path1720"
       style="fill:#2f80cb;fill-opacity:1;fill-rule:nonzero;stroke:none"
       d="m 440.2082,563.04372 0.864,-1.7448 8.80132,4.2828 -0.864,1.75267 -8.80132,-4.29067"
       inkscape:connector-curvature="0" />
    <path
       id="path1722"
       style="fill:#2f80cb;fill-opacity:1;fill-rule:nonzero;stroke:none"
       d="m 442.10153,559.07132 0.79867,-1.7744 8.94262,3.97347 -0.7986,1.78373 -8.94269,-3.9828"
       inkscape:connector-curvature="0" />
    <path
       id="path1724"
       style="fill:#2f80cb;fill-opacity:1;fill-rule:nonzero;stroke:none"
       d="m 443.8522,555.03852 0.73462,-1.80307 9.0774,3.65987 -0.74,1.80787 -9.07202,-3.66467"
       inkscape:connector-curvature="0" />
    <path
       id="path1726"
       style="fill:#2f80cb;fill-opacity:1;fill-rule:nonzero;stroke:none"
       d="m 446.92422,546.79532 0.612,-1.84893 9.308,3.014 -0.6174,1.85573 -9.3026,-3.0208"
       inkscape:connector-curvature="0" />
    <path
       id="path1728"
       style="fill:#2f80cb;fill-opacity:1;fill-rule:nonzero;stroke:none"
       d="m 448.24282,542.59639 0.544,-1.8688 9.4094,2.69013 -0.5454,1.87493 -9.408,-2.69626"
       inkscape:connector-curvature="0" />
    <path
       id="path1730"
       style="fill:#2f80cb;fill-opacity:1;fill-rule:nonzero;stroke:none"
       d="m 449.41222,538.35625 0.48,-1.88906 9.4973,2.362 -0.4787,1.8968 -9.4986,-2.36974"
       inkscape:connector-curvature="0" />
    <path
       id="path1732"
       style="fill:#2f80cb;fill-opacity:1;fill-rule:nonzero;stroke:none"
       d="m 450.43482,534.07559 0.4174,-1.90267 9.5706,2.03027 -0.4133,1.90986 -9.5747,-2.03746"
       inkscape:connector-curvature="0" />
    <path
       id="path1734"
       style="fill:#2f80cb;fill-opacity:1;fill-rule:nonzero;stroke:none"
       d="m 452.02822,525.42559 0.2853,-1.92614 9.6853,1.35574 -0.2773,1.93226 -9.6933,-1.36186"
       inkscape:connector-curvature="0" />
    <path
       id="path1736"
       style="fill:#2f80cb;fill-opacity:1;fill-rule:nonzero;stroke:none"
       d="m 452.59752,521.06092 0.2147,-1.93227 9.732,1.0156 -0.212,1.94374 -9.7347,-1.02707"
       inkscape:connector-curvature="0" />
    <path
       id="path1738"
       style="fill:#2f80cb;fill-opacity:1;fill-rule:nonzero;stroke:none"
       d="m 453.01352,516.68372 0.148,-1.94133 9.7627,0.67733 -0.1454,1.94587 -9.7653,-0.68187"
       inkscape:connector-curvature="0" />
    <path
       id="path1740"
       style="fill:#2f80cb;fill-opacity:1;fill-rule:nonzero;stroke:none"
       d="m 453.27752,512.29439 0.083,-1.94667 9.776,0.33467 -0.077,1.952 -9.7813,-0.34"
       inkscape:connector-curvature="0" />
    <path
       id="path1742"
       style="fill:#2f80cb;fill-opacity:1;fill-rule:nonzero;stroke:none"
       d="m 453.34282,503.49705 -0.049,-1.94933 9.7747,-0.34933 0.061,1.95733 -9.7867,0.34133"
       inkscape:connector-curvature="0" />
    <path
       id="path1744"
       style="fill:#2f80cb;fill-opacity:1;fill-rule:nonzero;stroke:none"
       d="m 453.15082,499.10105 -0.1253,-1.944 9.7613,-0.688 0.1267,1.95067 -9.7627,0.68133"
       inkscape:connector-curvature="0" />
    <path
       id="path1746"
       style="fill:#2f80cb;fill-opacity:1;fill-rule:nonzero;stroke:none"
       d="m 452.80022,494.71705 -0.192,-1.93866 9.7293,-1.02934 0.1987,1.944 -9.736,1.024"
       inkscape:connector-curvature="0" />
    <path
       id="path1748"
       style="fill:#2f80cb;fill-opacity:1;fill-rule:nonzero;stroke:none"
       d="m 452.29882,490.34505 -0.2573,-1.932 9.684,-1.368 0.264,1.93734 -9.6907,1.36266"
       inkscape:connector-curvature="0" />
    <path
       id="path1750"
       style="fill:#2f80cb;fill-opacity:1;fill-rule:nonzero;stroke:none"
       d="m 450.83752,481.66772 -0.3907,-1.90533 9.5694,-2.03867 0.3946,1.912 -9.5733,2.032"
       inkscape:connector-curvature="0" />
    <path
       id="path1752"
       style="fill:#2f80cb;fill-opacity:1;fill-rule:nonzero;stroke:none"
       d="m 449.88282,477.37705 -0.464,-1.89333 9.4947,-2.37067 0.464,1.896 -9.4947,2.368"
       inkscape:connector-curvature="0" />
    <path
       id="path1754"
       style="fill:#2f80cb;fill-opacity:1;fill-rule:nonzero;stroke:none"
       d="m 448.77622,473.11839 -0.528,-1.87467 9.4053,-2.70267 0.5253,1.87867 -9.4026,2.69867"
       inkscape:connector-curvature="0" />
    <path
       id="path1756"
       style="fill:#2f80cb;fill-opacity:1;fill-rule:nonzero;stroke:none"
       d="m 447.51882,468.90239 -0.5893,-1.86 9.3067,-3.02534 0.5946,1.86134 -9.312,3.024"
       inkscape:connector-curvature="0" />
    <path
       id="path1758"
       style="fill:#2f80cb;fill-opacity:1;fill-rule:nonzero;stroke:none"
       d="m 444.57882,460.61039 -0.72262,-1.80934 9.06932,-3.66933 0.724,1.812 -9.0707,3.66667"
       inkscape:connector-curvature="0" />
    <path
       id="path1760"
       style="fill:#2f80cb;fill-opacity:1;fill-rule:nonzero;stroke:none"
       d="m 442.8882,456.54772 -0.78134,-1.78667 8.93736,-3.97866 0.7866,1.784 -8.94262,3.98133"
       inkscape:connector-curvature="0" />
    <path
       id="path1762"
       style="fill:#2f80cb;fill-opacity:1;fill-rule:nonzero;stroke:none"
       d="m 441.05886,452.54639 -0.84266,-1.756 8.79332,-4.29067 0.848,1.75867 -8.79866,4.288"
       inkscape:connector-curvature="0" />
    <path
       id="path1764"
       style="fill:#2f80cb;fill-opacity:1;fill-rule:nonzero;stroke:none"
       d="m 439.0922,448.61172 -0.90267,-1.724 8.63599,-4.6 0.9107,1.728 -8.64402,4.596"
       inkscape:connector-curvature="0" />
    <path
       id="path1766"
       style="fill:#2f80cb;fill-opacity:1;fill-rule:nonzero;stroke:none"
       d="m 434.7522,440.95972 -1.02,-1.65733 8.292,-5.188 1.028,1.66133 -8.3,5.184"
       inkscape:connector-curvature="0" />
    <path
       id="path1768"
       style="fill:#2f80cb;fill-opacity:1;fill-rule:nonzero;stroke:none"
       d="m 432.3842,437.25039 -1.07734,-1.62 8.108,-5.47467 1.084,1.62534 -8.11466,5.46933"
       inkscape:connector-curvature="0" />
    <path
       id="path1770"
       style="fill:#2f80cb;fill-opacity:1;fill-rule:nonzero;stroke:none"
       d="m 429.88686,433.62772 -1.13066,-1.58133 7.908,-5.75333 1.148,1.58533 -7.92534,5.74933"
       inkscape:connector-curvature="0" />
    <path
       id="path1772"
       style="fill:#2f80cb;fill-opacity:1;fill-rule:nonzero;stroke:none"
       d="m 427.26553,430.09439 -1.184,-1.54133 7.70533,-6.02534 1.19734,1.54 -7.71867,6.02667"
       inkscape:connector-curvature="0" />
    <path
       id="path1774"
       style="fill:#2f80cb;fill-opacity:1;fill-rule:nonzero;stroke:none"
       d="m 421.6642,423.31172 -1.292,-1.456 7.26533,-6.548 1.30533,1.45734 -7.27866,6.54666"
       inkscape:connector-curvature="0" />
    <path
       id="path1776"
       style="fill:#2f80cb;fill-opacity:1;fill-rule:nonzero;stroke:none"
       d="m 418.69086,420.07306 -1.344,-1.41067 7.03334,-6.8 1.35333,1.41067 -7.04267,6.8"
       inkscape:connector-curvature="0" />
    <path
       id="path1778"
       style="fill:#2f80cb;fill-opacity:1;fill-rule:nonzero;stroke:none"
       d="m 415.60153,416.93706 -1.39333,-1.36 6.79333,-7.04267 1.40533,1.364 -6.80533,7.03867"
       inkscape:connector-curvature="0" />
    <path
       id="path1780"
       style="fill:#2f80cb;fill-opacity:1;fill-rule:nonzero;stroke:none"
       d="m 412.4082,413.91306 -1.43734,-1.312 6.53867,-7.272 1.452,1.312 -6.55333,7.272"
       inkscape:connector-curvature="0" />
    <path
       id="path1782"
       style="fill:#2f80cb;fill-opacity:1;fill-rule:nonzero;stroke:none"
       d="m 405.71086,408.20772 -1.52266,-1.208 6.016,-7.712 1.53733,1.20534 -6.03067,7.71466"
       inkscape:connector-curvature="0" />
    <path
       id="path1784"
       style="fill:#2f80cb;fill-opacity:1;fill-rule:nonzero;stroke:none"
       d="m 402.21753,405.53306 -1.564,-1.156 5.74133,-7.916 1.58,1.152 -5.75733,7.92"
       inkscape:connector-curvature="0" />
    <path
       id="path1786"
       style="fill:#2f80cb;fill-opacity:1;fill-rule:nonzero;stroke:none"
       d="m 398.6322,402.98239 -1.60534,-1.09867 5.46534,-8.11466 1.61733,1.09866 -5.47733,8.11467"
       inkscape:connector-curvature="0" />
    <path
       id="path1788"
       style="fill:#2f80cb;fill-opacity:1;fill-rule:nonzero;stroke:none"
       d="m 394.96553,400.55706 -1.64533,-1.04 5.17733,-8.30134 1.656,1.04 -5.188,8.30134"
       inkscape:connector-curvature="0" />
    <path
       id="path1790"
       style="fill:#2f80cb;fill-opacity:1;fill-rule:nonzero;stroke:none"
       d="m 387.37753,396.10239 -1.71333,-0.92667 4.58933,-8.64133 1.72667,0.92133 -4.60267,8.64667"
       inkscape:connector-curvature="0" />
    <path
       id="path1792"
       style="fill:#2f80cb;fill-opacity:1;fill-rule:nonzero;stroke:none"
       d="m 383.47353,394.07572 -1.74133,-0.86533 4.28266,-8.8 1.75867,0.86533 -4.3,8.8"
       inkscape:connector-curvature="0" />
    <path
       id="path1794"
       style="fill:#2f80cb;fill-opacity:1;fill-rule:nonzero;stroke:none"
       d="m 379.50153,392.18372 -1.772,-0.80533 3.97333,-8.93733 1.784,0.8 -3.98533,8.94266"
       inkscape:connector-curvature="0" />
    <path
       id="path1796"
       style="fill:#2f80cb;fill-opacity:1;fill-rule:nonzero;stroke:none"
       d="m 375.4642,390.43306 -1.8,-0.73867 3.66133,-9.07467 1.81067,0.736 -3.672,9.07734"
       inkscape:connector-curvature="0" />
    <path
       id="path1798"
       style="fill:#2f80cb;fill-opacity:1;fill-rule:nonzero;stroke:none"
       d="m 367.2242,387.36106 -1.84667,-0.61334 3.016,-9.30533 1.85867,0.608 -3.028,9.31067"
       inkscape:connector-curvature="0" />
    <path
       id="path1800"
       style="fill:#2f80cb;fill-opacity:1;fill-rule:nonzero;stroke:none"
       d="m 363.0242,386.04372 -1.86534,-0.548 2.692,-9.40666 1.88,0.54266 -2.70666,9.412"
       inkscape:connector-curvature="0" />
    <path
       id="path1802"
       style="fill:#2f80cb;fill-opacity:1;fill-rule:nonzero;stroke:none"
       d="m 358.78553,384.87306 -1.88667,-0.48267 2.36,-9.49733 1.90267,0.47866 -2.376,9.50134"
       inkscape:connector-curvature="0" />
    <path
       id="path1804"
       style="fill:#2f80cb;fill-opacity:1;fill-rule:nonzero;stroke:none"
       d="m 354.5082,383.85039 -1.904,-0.41467 2.028,-9.57466 1.916,0.412 -2.04,9.57733"
       inkscape:connector-curvature="0" />
    <path
       id="path1806"
       style="fill:#2f80cb;fill-opacity:1;fill-rule:nonzero;stroke:none"
       d="m 345.85753,382.25306 -1.92933,-0.28 1.35466,-9.69067 1.94,0.276 -1.36533,9.69467"
       inkscape:connector-curvature="0" />
    <path
       id="path1808"
       style="fill:#2f80cb;fill-opacity:1;fill-rule:nonzero;stroke:none"
       d="m 341.49486,381.68372 -1.936,-0.21333 1.01467,-9.732 1.94533,0.21067 -1.024,9.73466"
       inkscape:connector-curvature="0" />
    <path
       id="path1810"
       style="fill:#2f80cb;fill-opacity:1;fill-rule:nonzero;stroke:none"
       d="m 337.1162,381.26772 -1.94134,-0.14666 0.67467,-9.76134 1.952,0.14134 -0.68533,9.76666"
       inkscape:connector-curvature="0" />
    <path
       id="path1812"
       style="fill:#2f80cb;fill-opacity:1;fill-rule:nonzero;stroke:none"
       d="m 332.72686,381.00372 -1.94933,-0.0787 0.332,-9.77867 1.96,0.0707 -0.34267,9.78666"
       inkscape:connector-curvature="0" />
    <path
       id="path1814"
       style="fill:#ffffff;fill-opacity:1;fill-rule:nonzero;stroke:none"
       d="m 218.69487,508.29039 c 0,4.80133 -1.78134,7.448 -4.908,7.448 -2.76,0 -4.62534,-2.58267 -4.67334,-7.25334 0,-4.73466 2.04267,-7.344 4.90934,-7.344 2.976,0 4.672,2.652 4.672,7.14934 z m -7.668,0.21733 c 0,3.66933 1.12666,5.75467 2.86533,5.75467 1.956,0 2.89067,-2.28 2.89067,-5.88534 0,-3.476 -0.89334,-5.756 -2.86934,-5.756 -1.67066,0 -2.88666,2.04 -2.88666,5.88667"
       inkscape:connector-curvature="0" />
    <path
       id="path1816"
       style="fill:#ffffff;fill-opacity:1;fill-rule:nonzero;stroke:none"
       d="m 220.41887,463.51172 -0.044,0 -2.452,1.328 -0.36934,-1.45733 3.084,-1.65067 1.62667,0 0,14.11867 -1.84533,0 0,-12.33867"
       inkscape:connector-curvature="0" />
    <path
       id="path1818"
       style="fill:#ffffff;fill-opacity:1;fill-rule:nonzero;stroke:none"
       d="m 236.80287,468.63705 c 0,4.80267 -1.77867,7.452 -4.90667,7.452 -2.75867,0 -4.62533,-2.584 -4.67067,-7.25466 0,-4.73467 2.04534,-7.34267 4.908,-7.34267 2.976,0 4.66934,2.64933 4.66934,7.14533 z m -7.66534,0.21867 c 0,3.672 1.128,5.75733 2.86534,5.75733 1.95733,0 2.88933,-2.28133 2.88933,-5.888 0,-3.47466 -0.89067,-5.75466 -2.868,-5.75466 -1.67067,0 -2.88667,2.04133 -2.88667,5.88533"
       inkscape:connector-curvature="0" />
    <path
       id="path1820"
       style="fill:#ffffff;fill-opacity:1;fill-rule:nonzero;stroke:none"
       d="m 235.68153,445.01439 0,-1.17067 1.5,-1.45733 c 3.604,-3.43067 5.23467,-5.256 5.256,-7.38533 0,-1.432 -0.69733,-2.75734 -2.80133,-2.75734 -1.28667,0 -2.34933,0.65467 -3,1.19467 l -0.608,-1.34667 c 0.98,-0.82266 2.37067,-1.43333 3.99733,-1.43333 3.04,0 4.32134,2.08533 4.32134,4.10267 0,2.60933 -1.888,4.716 -4.86267,7.584 l -1.13467,1.04133 0,0.0413 6.34534,0 0,1.58667 -9.01334,0"
       inkscape:connector-curvature="0" />
    <path
       id="path1822"
       style="fill:#ffffff;fill-opacity:1;fill-rule:nonzero;stroke:none"
       d="m 256.21087,437.80372 c 0,4.8 -1.78,7.44934 -4.90534,7.44934 -2.76133,0 -4.62533,-2.584 -4.672,-7.25334 0,-4.73333 2.044,-7.34133 4.908,-7.34133 2.976,0 4.66934,2.64933 4.66934,7.14533 z m -7.66667,0.21867 c 0,3.67067 1.12933,5.752 2.868,5.752 1.95467,0 2.88933,-2.28 2.88933,-5.88667 0,-3.472 -0.892,-5.75333 -2.86933,-5.75333 -1.66933,0 -2.888,2.04133 -2.888,5.888"
       inkscape:connector-curvature="0" />
    <path
       id="path1824"
       style="fill:#ffffff;fill-opacity:1;fill-rule:nonzero;stroke:none"
       d="m 264.5202,416.54906 c 0.54533,0.348 1.80267,0.88933 3.12667,0.88933 2.45466,0 3.21466,-1.56133 3.19333,-2.73733 -0.0227,-1.97334 -1.80133,-2.82134 -3.652,-2.82134 l -1.064,0 0,-1.43466 1.064,0 c 1.392,0 3.152,-0.716 3.152,-2.38934 0,-1.12933 -0.71733,-2.128 -2.472,-2.128 -1.13333,0 -2.22,0.49734 -2.82933,0.93334 l -0.49867,-1.39067 c 0.74133,-0.54133 2.17333,-1.084 3.69467,-1.084 2.77866,0 4.036,1.648 4.036,3.364 0,1.45733 -0.86267,2.69467 -2.604,3.32533 l 0,0.0427 c 1.74133,0.34933 3.15066,1.65067 3.15066,3.628 0,2.25867 -1.76133,4.23333 -5.15066,4.23333 -1.58267,0 -2.97467,-0.5 -3.66667,-0.95333 l 0.52,-1.47733"
       inkscape:connector-curvature="0" />
    <path
       id="path1826"
       style="fill:#ffffff;fill-opacity:1;fill-rule:nonzero;stroke:none"
       d="m 284.5922,411.53306 c 0,4.79866 -1.77867,7.44666 -4.90533,7.44666 -2.75734,0 -4.62667,-2.58266 -4.672,-7.252 0,-4.73466 2.04266,-7.34133 4.91066,-7.34133 2.972,0 4.66667,2.65067 4.66667,7.14667 z m -7.66267,0.216 c 0,3.672 1.12667,5.75466 2.86267,5.75466 1.956,0 2.89067,-2.28133 2.89067,-5.88533 0,-3.476 -0.892,-5.75733 -2.868,-5.75733 -1.67334,0 -2.88534,2.04266 -2.88534,5.888"
       inkscape:connector-curvature="0" />
    <path
       id="path1828"
       style="fill:#ffffff;fill-opacity:1;fill-rule:nonzero;stroke:none"
       d="m 300.33753,404.55039 0,-3.84533 -6.56266,0 0,-1.25867 6.3,-9.01467 2.06266,0 0,8.77334 1.97467,0 0,1.5 -1.97467,0 0,3.84533 z m 0,-5.34533 0,-4.712 c 0,-0.74 0.0213,-1.47334 0.0653,-2.21467 l -0.0653,0 c -0.43733,0.824 -0.78266,1.43333 -1.17466,2.08667 l -3.45467,4.80133 0,0.0387 4.62933,0"
       inkscape:connector-curvature="0" />
    <path
       id="path1830"
       style="fill:#ffffff;fill-opacity:1;fill-rule:nonzero;stroke:none"
       d="m 314.95886,397.34239 c 0,4.79733 -1.78133,7.44667 -4.90933,7.44667 -2.75866,0 -4.62666,-2.58267 -4.66933,-7.25467 0,-4.732 2.04,-7.34133 4.90933,-7.34133 2.97467,0 4.66933,2.65333 4.66933,7.14933 z m -7.66799,0.21333 c 0,3.672 1.128,5.756 2.868,5.756 1.95466,0 2.88533,-2.28 2.88533,-5.88666 0,-3.47334 -0.88534,-5.75334 -2.86533,-5.75334 -1.67334,0 -2.888,2.04 -2.888,5.884"
       inkscape:connector-curvature="0" />
    <path
       id="path1832"
       style="fill:#ffffff;fill-opacity:1;fill-rule:nonzero;stroke:none"
       d="m 348.08686,392.03839 -5.38533,0 -0.54267,3.63067 c 0.32534,-0.044 0.63067,-0.088 1.14934,-0.088 1.08666,0 2.172,0.23866 3.04266,0.75866 1.10667,0.63067 2.02134,1.84667 2.02134,3.63067 0,2.75467 -2.19467,4.81867 -5.256,4.81867 -1.54267,0 -2.84534,-0.436 -3.52,-0.86934 l 0.47733,-1.452 c 0.58533,0.34534 1.73867,0.78134 3.01867,0.78134 1.80266,0 3.34266,-1.17467 3.34266,-3.06267 -0.0173,-1.82533 -1.23466,-3.13067 -4.06,-3.13067 -0.80133,0 -1.43333,0.0867 -1.956,0.15334 l 0.91467,-6.77734 6.75333,0 0,1.60667"
       inkscape:connector-curvature="0" />
    <path
       id="path1834"
       style="fill:#ffffff;fill-opacity:1;fill-rule:nonzero;stroke:none"
       d="m 360.1922,397.34239 c 0,4.79733 -1.78534,7.44667 -4.90934,7.44667 -2.75866,0 -4.62666,-2.58267 -4.66933,-7.25467 0,-4.732 2.04267,-7.34133 4.91067,-7.34133 2.97333,0 4.668,2.65333 4.668,7.14933 z m -7.668,0.21333 c 0,3.672 1.12666,5.756 2.868,5.756 1.95066,0 2.88533,-2.28 2.88533,-5.88666 0,-3.47334 -0.888,-5.75334 -2.86267,-5.75334 -1.67466,0 -2.89066,2.04 -2.89066,5.884"
       inkscape:connector-curvature="0" />
    <path
       id="path1836"
       style="fill:#ffffff;fill-opacity:1;fill-rule:nonzero;stroke:none"
       d="m 378.97086,405.97039 c -0.388,-0.02 -0.892,0 -1.43066,0.0867 -2.99867,0.50133 -4.58667,2.692 -4.91334,5.01866 l 0.0693,0 c 0.67066,-0.892 1.84533,-1.628 3.408,-1.628 2.49733,0 4.256,1.80134 4.256,4.56134 0,2.58266 -1.75867,4.97066 -4.688,4.97066 -3.02267,0 -4.99734,-2.344 -4.99734,-6.012 0,-2.784 0.99867,-4.97333 2.38934,-6.36533 1.172,-1.152 2.73733,-1.86933 4.51866,-2.08533 0.564,-0.0893 1.04267,-0.10934 1.388,-0.10934 z m -3.27866,11.53333 c 1.63066,0 2.73733,-1.368 2.73733,-3.38666 0,-2.02 -1.15467,-3.236 -2.912,-3.236 -1.15067,0 -2.21467,0.716 -2.736,1.73866 -0.132,0.21334 -0.216,0.496 -0.216,0.84534 0.0413,2.324 1.10533,4.03866 3.10667,4.03866 l 0.02,0"
       inkscape:connector-curvature="0" />
    <path
       id="path1838"
       style="fill:#ffffff;fill-opacity:1;fill-rule:nonzero;stroke:none"
       d="m 391.44153,411.53306 c 0,4.79866 -1.77867,7.44666 -4.90667,7.44666 -2.756,0 -4.624,-2.58266 -4.672,-7.252 0,-4.73466 2.04534,-7.34133 4.91067,-7.34133 2.97467,0 4.668,2.65067 4.668,7.14667 z m -7.66267,0.216 c 0,3.672 1.12667,5.75466 2.86534,5.75466 1.95466,0 2.88666,-2.28133 2.88666,-5.88533 0,-3.476 -0.88933,-5.75733 -2.86666,-5.75733 -1.66934,0 -2.88534,2.04266 -2.88534,5.888"
       inkscape:connector-curvature="0" />
    <path
       id="path1840"
       style="fill:#ffffff;fill-opacity:1;fill-rule:nonzero;stroke:none"
       d="m 409.63086,430.85306 0,1.25866 -6.14666,12.86134 -1.976,0 6.12266,-12.49334 0,-0.0427 -6.904,0 0,-1.584 8.904,0"
       inkscape:connector-curvature="0" />
    <path
       id="path1842"
       style="fill:#ffffff;fill-opacity:1;fill-rule:nonzero;stroke:none"
       d="m 420.99486,437.75839 c 0,4.804 -1.78,7.45067 -4.90533,7.45067 -2.75867,0 -4.62667,-2.58534 -4.672,-7.25334 0,-4.73333 2.04267,-7.34133 4.908,-7.34133 2.97733,0 4.66933,2.648 4.66933,7.144 z m -7.664,0.216 c 0,3.672 1.128,5.75733 2.864,5.75733 1.956,0 2.892,-2.27866 2.892,-5.88666 0,-3.47334 -0.89333,-5.75334 -2.87066,-5.75334 -1.66934,0 -2.88534,2.04 -2.88534,5.88267"
       inkscape:connector-curvature="0" />
    <path
       id="path1844"
       style="fill:#ffffff;fill-opacity:1;fill-rule:nonzero;stroke:none"
       d="m 420.9722,468.42239 c -1.56134,-0.73867 -2.23334,-1.95734 -2.23334,-3.172 0,-2.236 1.88667,-3.75867 4.36534,-3.75867 2.736,0 4.10666,1.71867 4.10666,3.47733 0,1.19334 -0.588,2.47734 -2.324,3.3 l 0,0.0653 c 1.75734,0.69333 2.84267,1.93466 2.84267,3.65066 0,2.45334 -2.10533,4.104 -4.8,4.104 -2.952,0 -4.736,-1.75866 -4.736,-3.82266 0,-1.78267 1.064,-3.044 2.80533,-3.78 z m 4.828,3.75733 c 0,-1.716 -1.19867,-2.54267 -3.10534,-3.08533 -1.65333,0.48 -2.544,1.564 -2.544,2.912 -0.064,1.43333 1.02134,2.692 2.82,2.692 1.716,0 2.82934,-1.08534 2.82934,-2.51867 z m -5.25867,-7.05733 c 0,1.40933 1.06667,2.172 2.692,2.604 1.21733,-0.41067 2.15067,-1.28267 2.15067,-2.56 0,-1.13334 -0.67067,-2.304 -2.38667,-2.304 -1.58933,0 -2.456,1.04266 -2.456,2.26"
       inkscape:connector-curvature="0" />
    <path
       id="path1846"
       style="fill:#ffffff;fill-opacity:1;fill-rule:nonzero;stroke:none"
       d="m 438.9002,468.63705 c 0,4.80267 -1.78267,7.452 -4.908,7.452 -2.76134,0 -4.62934,-2.584 -4.66934,-7.25466 0,-4.73467 2.04134,-7.34267 4.90934,-7.34267 2.97466,0 4.668,2.64933 4.668,7.14533 z m -7.66934,0.21867 c 0,3.672 1.13067,5.75733 2.868,5.75733 1.95334,0 2.888,-2.28133 2.888,-5.888 0,-3.47466 -0.88533,-5.75466 -2.86533,-5.75466 -1.67333,0 -2.89067,2.04133 -2.89067,5.88533"
       inkscape:connector-curvature="0" />
    <path
       id="path1848"
       style="fill:#ffffff;fill-opacity:1;fill-rule:nonzero;stroke:none"
       d="m 427.22153,514.15439 c 0.41333,0.044 0.88933,0 1.54133,-0.0627 1.10667,-0.15467 2.15067,-0.612 2.95334,-1.37067 0.93466,-0.84933 1.612,-2.084 1.86933,-3.75866 l -0.0667,0 c -0.78,0.95733 -1.908,1.52133 -3.32,1.52133 -2.54,0 -4.168,-1.91067 -4.168,-4.32133 0,-2.67334 1.928,-5.02134 4.81867,-5.02134 2.88667,0 4.67067,2.348 4.67067,5.952 0,3.108 -1.04534,5.28 -2.43467,6.62667 -1.08667,1.064 -2.588,1.71467 -4.104,1.888 -0.696,0.10933 -1.30667,0.13067 -1.76,0.10933 z m 3.456,-11.556 c -1.60933,0 -2.76133,1.43333 -2.76133,3.43066 0,1.76134 1.06533,2.99734 2.71466,2.99734 1.28267,0 2.28134,-0.628 2.77867,-1.476 0.10933,-0.17467 0.176,-0.39067 0.176,-0.69467 0,-2.41067 -0.88933,-4.25733 -2.888,-4.25733 l -0.02,0"
       inkscape:connector-curvature="0" />
    <path
       id="path1850"
       style="fill:#ffffff;fill-opacity:1;fill-rule:nonzero;stroke:none"
       d="m 446.64822,508.29039 c 0,4.80133 -1.7827,7.448 -4.91202,7.448 -2.75867,0 -4.628,-2.58267 -4.66934,-7.25334 0,-4.73466 2.04267,-7.344 4.912,-7.344 2.97336,0 4.66936,2.652 4.66936,7.14934 z m -7.67069,0.21733 c 0,3.66933 1.132,5.75467 2.86933,5.75467 1.95334,0 2.88536,-2.28 2.88536,-5.88534 0,-3.476 -0.88536,-5.756 -2.86402,-5.756 -1.67334,0 -2.89067,2.04 -2.89067,5.88667"
       inkscape:connector-curvature="0" />
    <path
       id="path1852"
       style="fill:#ffffff;fill-opacity:1;fill-rule:nonzero;stroke:none"
       d="m 412.42953,538.05319 -0.044,0 -2.45467,1.32386 -0.372,-1.45573 3.08534,-1.65093 1.63066,0 0,14.11706 -1.84533,0 0,-12.33426"
       inkscape:connector-curvature="0" />
    <path
       id="path1854"
       style="fill:#ffffff;fill-opacity:1;fill-rule:nonzero;stroke:none"
       d="m 428.8122,543.18079 c 0,4.79786 -1.78134,7.44626 -4.90934,7.44626 -2.75866,0 -4.628,-2.58333 -4.67066,-7.25106 0,-4.73534 2.044,-7.34267 4.912,-7.34267 2.97333,0 4.668,2.6484 4.668,7.14747 z m -7.668,0.21453 c 0,3.66973 1.13333,5.7584 2.86666,5.7584 1.95334,0 2.88934,-2.28187 2.88934,-5.88867 0,-3.47493 -0.88934,-5.75613 -2.868,-5.75613 -1.672,0 -2.888,2.0416 -2.888,5.8864"
       inkscape:connector-curvature="0" />
    <path
       id="path1856"
       style="fill:#ffffff;fill-opacity:1;fill-rule:nonzero;stroke:none"
       d="m 439.9602,543.18079 c 0,4.79786 -1.784,7.44626 -4.90934,7.44626 -2.75733,0 -4.62533,-2.58333 -4.67066,-7.25106 0,-4.73534 2.04266,-7.34267 4.90933,-7.34267 2.97333,0 4.67067,2.6484 4.67067,7.14747 z m -7.66667,0.21453 c 0,3.66973 1.12667,5.7584 2.86267,5.7584 1.95733,0 2.89066,-2.28187 2.89066,-5.88867 0,-3.47493 -0.89066,-5.75613 -2.868,-5.75613 -1.67066,0 -2.88533,2.0416 -2.88533,5.8864"
       inkscape:connector-curvature="0" />
    <path
       id="path1858"
       style="fill:#ffffff;fill-opacity:1;fill-rule:nonzero;stroke:none"
       d="m 394.19886,572.04692 -0.0453,0 -2.45333,1.32653 -0.368,-1.45573 3.08533,-1.65107 1.62667,0 0,14.11987 -1.84534,0 0,-12.3396"
       inkscape:connector-curvature="0" />
    <path
       id="path1860"
       style="fill:#ffffff;fill-opacity:1;fill-rule:nonzero;stroke:none"
       d="m 405.34553,572.04692 -0.0387,0 -2.45733,1.32653 -0.37467,-1.45573 3.088,-1.65107 1.62934,0 0,14.11987 -1.84667,0 0,-12.3396"
       inkscape:connector-curvature="0" />
    <path
       id="path1862"
       style="fill:#ffffff;fill-opacity:1;fill-rule:nonzero;stroke:none"
       d="m 421.73086,577.17452 c 0,4.80147 -1.78266,7.45053 -4.908,7.45053 -2.76133,0 -4.62933,-2.58333 -4.66933,-7.2568 0,-4.7344 2.03867,-7.34013 4.90667,-7.34013 2.97733,0 4.67066,2.6516 4.67066,7.1464 z m -7.66933,0.21813 c 0,3.67094 1.128,5.7568 2.868,5.7568 1.95333,0 2.888,-2.2828 2.888,-5.888 0,-3.47493 -0.888,-5.7568 -2.86667,-5.7568 -1.672,0 -2.88933,2.04334 -2.88933,5.888"
       inkscape:connector-curvature="0" />
    <path
       id="path1864"
       style="fill:#ffffff;fill-opacity:1;fill-rule:nonzero;stroke:none"
       d="m 367.9642,594.87185 -0.0453,0 -2.45333,1.32453 -0.368,-1.45573 3.08533,-1.65267 1.62534,0 0,14.1204 -1.844,0 0,-12.33653"
       inkscape:connector-curvature="0" />
    <path
       id="path1866"
       style="fill:#ffffff;fill-opacity:1;fill-rule:nonzero;stroke:none"
       d="m 374.9682,607.20838 0,-1.17186 1.49466,-1.45734 c 3.608,-3.4308 5.23467,-5.2536 5.25734,-7.3828 0,-1.43653 -0.69467,-2.75786 -2.80267,-2.75786 -1.28133,0 -2.344,0.65106 -2.99467,1.1928 l -0.60933,-1.3464 c 0.976,-0.82654 2.364,-1.43227 3.99733,-1.43227 3.03867,0 4.32134,2.08587 4.32134,4.10573 0,2.6052 -1.89334,4.71294 -4.86667,7.57907 l -1.12933,1.04173 0,0.0459 6.34266,0 0,1.58333 -9.01066,0"
       inkscape:connector-curvature="0" />
    <path
       id="path1868"
       style="fill:#ffffff;fill-opacity:1;fill-rule:nonzero;stroke:none"
       d="m 395.49486,599.99745 c 0,4.80053 -1.78133,7.45053 -4.908,7.45053 -2.75866,0 -4.62666,-2.58653 -4.66933,-7.25533 0,-4.73427 2.04133,-7.34 4.91067,-7.34 2.97333,0 4.66666,2.65 4.66666,7.1448 z m -7.66666,0.2172 c 0,3.67187 1.13066,5.75613 2.86666,5.75613 1.95334,0 2.888,-2.2796 2.888,-5.888 0,-3.47346 -0.88933,-5.75626 -2.86533,-5.75626 -1.67333,0 -2.88933,2.04426 -2.88933,5.88813"
       inkscape:connector-curvature="0" />
    <path
       id="path1870"
       style="fill:#58c5f2;fill-opacity:1;fill-rule:nonzero;stroke:none"
       d="m 274.8082,506.47705 -0.16267,2.612 -12.18533,-0.756 0.156,-2.608 12.192,0.752"
       inkscape:connector-curvature="0" />
    <path
       id="path1872"
       style="fill:#58c5f2;fill-opacity:1;fill-rule:nonzero;stroke:none"
       d="m 367.19886,545.62345 1.66534,-2.0156 9.412,7.7724 -1.65867,2.01667 -9.41867,-7.77347"
       inkscape:connector-curvature="0" />
    <path
       id="path1874"
       style="fill:#58c5f2;fill-opacity:1;fill-rule:nonzero;stroke:none"
       d="m 373.51753,536.58599 1.20533,-2.32094 10.82667,5.65 -1.20133,2.31667 -10.83067,-5.64573"
       inkscape:connector-curvature="0" />
    <path
       id="path1876"
       style="fill:#58c5f2;fill-opacity:1;fill-rule:nonzero;stroke:none"
       d="m 377.8202,526.43172 0.7,-2.52187 11.76133,3.2772 -0.69467,2.51187 -11.76666,-3.2672"
       inkscape:connector-curvature="0" />
    <path
       id="path1878"
       style="fill:#58c5f2;fill-opacity:1;fill-rule:nonzero;stroke:none"
       d="m 379.91886,515.60505 0.16134,-2.612 12.18266,0.76 -0.15866,2.60534 -12.18534,-0.75334"
       inkscape:connector-curvature="0" />
    <path
       id="path1880"
       style="fill:#58c5f2;fill-opacity:1;fill-rule:nonzero;stroke:none"
       d="m 379.71753,504.57972 -0.38667,-2.588 12.07867,-1.792 0.384,2.57867 -12.076,1.80133"
       inkscape:connector-curvature="0" />
    <path
       id="path1882"
       style="fill:#58c5f2;fill-opacity:1;fill-rule:nonzero;stroke:none"
       d="m 377.22953,493.83572 -0.91467,-2.45333 11.43867,-4.26134 0.91467,2.44267 -11.43867,4.272"
       inkscape:connector-curvature="0" />
    <path
       id="path1884"
       style="fill:#58c5f2;fill-opacity:1;fill-rule:nonzero;stroke:none"
       d="m 372.56153,483.84239 -1.40267,-2.21067 10.30267,-6.54533 1.404,2.19866 -10.304,6.55734"
       inkscape:connector-curvature="0" />
    <path
       id="path1886"
       style="fill:#58c5f2;fill-opacity:1;fill-rule:nonzero;stroke:none"
       d="m 365.9202,475.03972 -1.83334,-1.86933 8.716,-8.548 1.83334,1.86133 -8.716,8.556"
       inkscape:connector-curvature="0" />
    <path
       id="path1888"
       style="fill:#58c5f2;fill-opacity:1;fill-rule:nonzero;stroke:none"
       d="m 357.59486,467.80772 -2.184,-1.44533 6.748,-10.17334 2.18134,1.44134 -6.74534,10.17733"
       inkscape:connector-curvature="0" />
    <path
       id="path1890"
       style="fill:#58c5f2;fill-opacity:1;fill-rule:nonzero;stroke:none"
       d="m 347.94553,462.46772 -2.43733,-0.96 4.48666,-11.35333 2.43067,0.95333 -4.48,11.36"
       inkscape:connector-curvature="0" />
    <path
       id="path1892"
       style="fill:#58c5f2;fill-opacity:1;fill-rule:nonzero;stroke:none"
       d="m 337.39486,459.24905 -2.58133,-0.43333 2.028,-12.03866 2.57333,0.42933 -2.02,12.04266"
       inkscape:connector-curvature="0" />
    <path
       id="path1894"
       style="fill:#58c5f2;fill-opacity:1;fill-rule:nonzero;stroke:none"
       d="m 326.40553,458.29839 -2.61467,0.112 -0.52,-12.19867 2.612,-0.116 0.52267,12.20267"
       inkscape:connector-curvature="0" />
    <path
       id="path1896"
       style="fill:#58c5f2;fill-opacity:1;fill-rule:nonzero;stroke:none"
       d="m 315.46286,459.64639 -2.53733,0.65733 -3.04133,-11.82533 2.52533,-0.656 3.05333,11.824"
       inkscape:connector-curvature="0" />
    <path
       id="path1898"
       style="fill:#58c5f2;fill-opacity:1;fill-rule:nonzero;stroke:none"
       d="m 305.0362,463.24639 -2.34533,1.164 -5.43334,-10.93067 2.33467,-1.168 5.444,10.93467"
       inkscape:connector-curvature="0" />
    <path
       id="path1900"
       style="fill:#58c5f2;fill-opacity:1;fill-rule:nonzero;stroke:none"
       d="m 295.58687,468.93305 -2.05067,1.628 -7.58933,-9.564 2.04,-1.62666 7.6,9.56266"
       inkscape:connector-curvature="0" />
    <path
       id="path1902"
       style="fill:#58c5f2;fill-opacity:1;fill-rule:nonzero;stroke:none"
       d="m 287.5242,476.45705 -1.66533,2.02 -9.40934,-7.776 1.65734,-2.01466 9.41733,7.77066"
       inkscape:connector-curvature="0" />
    <path
       id="path1904"
       style="fill:#58c5f2;fill-opacity:1;fill-rule:nonzero;stroke:none"
       d="m 281.2082,485.49439 -1.212,2.324 -10.82267,-5.652 1.20134,-2.31334 10.83333,5.64134"
       inkscape:connector-curvature="0" />
    <path
       id="path1906"
       style="fill:#58c5f2;fill-opacity:1;fill-rule:nonzero;stroke:none"
       d="m 276.9042,495.64905 -0.70133,2.524 -11.76,-3.27333 0.692,-2.51867 11.76933,3.268"
       inkscape:connector-curvature="0" />
    <path
       id="path1908" class="color-change-aware"
       style="fill:#ffffff;fill-opacity:1;fill-rule:nonzero;stroke:none"
       d="m 186.4682,540.49065 c -0.12133,-2.29173 -0.268,-5.05213 -0.24133,-7.09893 l -0.0773,0 c -0.55866,1.9244 -1.24266,3.99893 -2.072,6.2448 l -2.90266,7.97813 -1.60934,0 -2.65999,-7.83333 c -0.78267,-2.31413 -1.44,-4.43813 -1.904,-6.3896 l -0.0493,0 c -0.048,2.0468 -0.16933,4.8072 -0.316,7.2656 l -0.436,7.05107 -2.028,0 1.144,-16.438 2.71334,0 2.80133,7.9504 c 0.684,2.02506 1.24533,3.8324 1.65866,5.53813 l 0.0747,0 c 0.41733,-1.65733 1.00133,-3.462 1.73333,-5.53813 l 2.92667,-7.9504 2.708,0 1.028,16.438 -2.07867,0 -0.41333,-7.21774"
       inkscape:connector-curvature="0" />
    <path
       id="path1910" class="color-change-aware"
       style="fill:#ffffff;fill-opacity:1;fill-rule:nonzero;stroke:none"
       d="m 192.23353,531.46199 c 1.02534,-0.17027 2.37067,-0.31774 4.07734,-0.31774 2.09866,0 3.632,0.4912 4.60933,1.3672 0.90533,0.78227 1.44,1.9756 1.44,3.44014 0,1.4896 -0.436,2.65986 -1.26933,3.51306 -1.12,1.19267 -2.95334,1.80827 -5.02134,1.80827 -0.63733,0 -1.22133,-0.0271 -1.712,-0.14787 l 0,6.58334 -2.124,0 z m 2.124,7.92973 c 0.46534,0.1224 1.05067,0.17187 1.756,0.17187 2.56534,0 4.124,-1.2448 4.124,-3.51467 0,-2.17187 -1.53333,-3.21813 -3.87733,-3.21813 -0.928,0 -1.636,0.0697 -2.00267,0.16866 l 0,6.39227"
       inkscape:connector-curvature="0" />
    <path
       id="path1912" class="color-change-aware"
       style="fill:#ffffff;fill-opacity:1;fill-rule:nonzero;stroke:none"
       d="m 207.3482,531.27039 0,6.87653 7.95467,0 0,-6.87653 2.144,0 0,16.438 -2.144,0 0,-7.70467 -7.95467,0 0,7.70467 -2.12267,0 0,-16.438 2.12267,0"
       inkscape:connector-curvature="0" />
    <path
       id="path1914" class="color-change-aware"
       style="fill:#ffffff;fill-opacity:1;fill-rule:nonzero;stroke:none"
       d="m 246.74687,541.76825 0.0493,0 c 0.28667,-0.4068 0.69067,-0.9068 1.02667,-1.30986 l 3.37866,-3.97814 2.52667,0 -4.45467,4.7396 5.07334,6.78907 -2.54667,0 -3.97733,-5.5272 -1.076,1.1896 0,4.3376 -2.06934,0 0,-16.91253 2.06934,0 0,10.67186"
       inkscape:connector-curvature="0" />
    <path
       id="path1916" class="color-change-aware"
       style="fill:#ffffff;fill-opacity:1;fill-rule:nonzero;stroke:none"
       d="m 256.25887,539.59839 c 0,-1.18747 -0.024,-2.16667 -0.096,-3.11814 l 1.83466,0 0.0947,1.86094 0.0707,0 c 0.64533,-1.09894 1.71733,-2.1224 3.62266,-2.1224 1.572,0 2.76267,0.95253 3.25867,2.31093 l 0.0507,0 c 0.35733,-0.6432 0.808,-1.14747 1.28666,-1.5 0.69067,-0.52347 1.452,-0.81093 2.548,-0.81093 1.52667,0 3.78934,1 3.78934,5.00106 l 0,6.78907 -2.04934,0 0,-6.52507 c 0,-2.21973 -0.81333,-3.55213 -2.50266,-3.55213 -1.18667,0 -2.11867,0.88707 -2.47467,1.90427 -0.096,0.28746 -0.168,0.66866 -0.168,1.04946 l 0,7.12347 -2.04533,0 0,-6.9052 c 0,-1.8396 -0.81467,-3.172 -2.41067,-3.172 -1.31067,0 -2.26,1.05107 -2.59467,2.10053 -0.12,0.30574 -0.16533,0.66414 -0.16533,1.02347 l 0,6.9532 -2.04933,0 0,-8.41053"
       inkscape:connector-curvature="0" />
    <path
       id="path1918" class="color-change-aware"
       style="fill:#ffffff;fill-opacity:1;fill-rule:nonzero;stroke:none"
       d="m 274.37353,548.96039 6.644,-17.26667 1.62,0 -6.66666,17.26667 -1.59734,0"
       inkscape:connector-curvature="0" />
    <path
       id="path1920" class="color-change-aware"
       style="fill:#ffffff;fill-opacity:1;fill-rule:nonzero;stroke:none"
       d="m 284.31087,531.09639 2.09466,0 0,7.19626 0.0493,0 c 0.33333,-0.59786 0.85733,-1.12133 1.50133,-1.48066 0.62133,-0.3552 1.35867,-0.5932 2.14,-0.5932 1.54933,0 4.02667,0.95253 4.02667,4.9296 l 0,6.86053 -2.09734,0 0,-6.6224 c 0,-1.85427 -0.68933,-3.4272 -2.66533,-3.4272 -1.36,0 -2.42933,0.9496 -2.812,2.0912 -0.11867,0.28747 -0.14267,0.5948 -0.14267,1.0052 l 0,6.9532 -2.09466,0 0,-16.91253"
       inkscape:connector-curvature="0" />
  </g>
</svg>
